<svg xmlns="http://www.w3.org/2000/svg" width="305" height="142" fill="none">
  <path fill="#000" d="M10.0625 26.2461c-1.58594 0-3.03516-.3008-4.34766-.9023-1.29427-.6198-2.33333-1.5313-3.11718-2.7344q-1.17578-1.8321-1.17578-4.5117c0-1.1485.20052-2.224.60156-3.2266.40104-1.0208.98437-1.9141 1.75-2.6797.78385-.7838 1.73177-1.3945 2.84375-1.832q1.66796-.65628 3.80081-.65628c.7474 0 1.5403.07292 2.3789.21876.8385.14582 1.5859.35542 2.2422.62892l.1914 3.7461L14 14.4062l-.8203-2.5976c-.3464-.237-.8021-.4102-1.3672-.5195-.5651-.1276-1.112-.1914-1.6406-.1914-1.36721 0-2.48831.3007-3.36331.9023-.85677.5833-1.49479 1.3672-1.91406 2.3516-.40104.9843-.60156 2.069-.60156 3.2539q0 2.3241.79297 3.9375.8203 1.61325 2.1875 2.4336c.92968.5468 1.95052.8203 3.06246.8203.5834 0 1.112-.0638 1.586-.1914.4739-.1276.9297-.319 1.3672-.5743l1.2031-2.5703 1.2578.1368-.7656 3.4453c-.6198.3281-1.3581.6106-2.2149.8476-.8567.237-1.7591.3555-2.707.3555M17.6612 26l-.0546-1.0117 1.7773-.3828c.0365-.1823.0638-.4831.082-.9024.0183-.4192.0274-.9752.0274-1.6679.0182-.6928.0273-1.5404.0273-2.543v-3.418c0-.6927-.0091-1.4036-.0273-2.1328 0-.7292-.0091-1.4128-.0274-2.0508 0-.6562-.0091-1.2122-.0273-1.6679 0-.474-.0091-.7839-.0274-.92973l-2.0234-.27344-.0547-.875 3.9102-1.12109.5195.38281c-.0182.76563-.0364 1.53125-.0547 2.29687-.0182.76568-.0364 1.61328-.0547 2.54298v3.3633l-.0273 4.4023c0 1.0755.0091 2.0508.0273 2.9258.0365.8568.073 1.4128.1094 1.668l1.7774.3828L23.4855 26zm12.3293.2188c-.7292 0-1.3763-.1459-1.9414-.4376-.5651-.2916-1.0118-.6653-1.3399-1.121-.3099-.4558-.4648-.9297-.4648-1.4219 0-.6198.2005-1.1302.6015-1.5313.4011-.401 1.0573-.7474 1.9688-1.039l4.1562-1.3946v-1.3945c0-.4557-.1367-.8659-.4101-1.2305-.2735-.3828-.638-.6836-1.0938-.9023-.4557-.2188-.9661-.3281-1.5312-.3281-.4557 0-.7656.1002-.9297.3008-.1641.1822-.2643.5559-.3008 1.121l-.0547 1.1485c-.6562.1458-1.2122.1276-1.6679-.0547-.4558-.2005-.6836-.5195-.6836-.957q0-.46485.3828-.9297c.2734-.3099.6289-.6016 1.0664-.875.4375-.2917.9114-.5378 1.4219-.7383.5104-.2005 1.0117-.3372 1.5039-.4102 1.3489 0 2.4244.3555 3.2265 1.0664.8203.711 1.2396 1.6407 1.2578 2.7891l-.0546 4.5938c0 .3463.0091.6835.0273 1.0117.0365.3281.082.5742.1367.7383l1.75.3281v.8476l-1.3398.4922c-.2552.0912-.4922.1641-.711.2188-.2187.0729-.401.1094-.5468.1094-.5651 0-.9297-.3191-1.0938-.9571l-.3008-1.0664h.4102c-.6016.6745-1.1849 1.1849-1.75 1.5313-.5469.3281-1.112.4922-1.6953.4922m.7383-1.6133c.4192 0 .8111-.0912 1.1757-.2735.3646-.2005.7201-.5013 1.0664-.9023v-2.8711l-3.0625.8203c-.4375.1094-.7565.2826-.957.5195-.1823.237-.2734.5378-.2734.9024 0 .4557.2005.875.6015 1.2578q.62895.5469 1.4493.5469m12.6026 1.6133c-.6745 0-1.349-.073-2.0234-.2188-.6745-.1641-1.2487-.3737-1.7227-.6289l-.1367-2.9258h1.3398l.5469 1.9688c.638.4375 1.3672.6562 2.1875.6562.6198 0 1.1211-.1458 1.5039-.4375.3828-.3099.5742-.72.5742-1.2305 0-.4739-.1731-.8841-.5195-1.2304-.3463-.3646-1.0208-.7565-2.0234-1.1758-1.2943-.5651-2.2058-1.1029-2.7344-1.6133-.5287-.5286-.793-1.2031-.793-2.0234 0-.6563.1914-1.2305.5742-1.7227.4011-.5104.948-.9023 1.6407-1.1758.6927-.2916 1.4948-.4375 2.4062-.4375.5104 0 1.03.0456 1.5586.1368.5287.0911.9662.2096 1.3125.3554l.3008 2.8438h-1.2852L45.3822 15.5c-.1823-.1094-.4011-.1914-.6563-.2461-.2552-.0729-.5286-.1094-.8203-.1094-.638 0-1.1484.155-1.5312.4649-.3828.2916-.5742.6745-.5742 1.1484 0 .5469.2096.9935.6289 1.3399.4192.3281 1.1575.7382 2.2148 1.2304 1.2031.5469 2.0417 1.0847 2.5156 1.6133.474.5287.711 1.1667.711 1.9141q0 1.47645-1.2852 2.4336c-.8568.6198-1.9414.9297-3.2539.9297m11.3722 0c-.6745 0-1.349-.073-2.0234-.2188-.6745-.1641-1.2487-.3737-1.7227-.6289l-.1367-2.9258h1.3398l.5469 1.9688c.638.4375 1.3672.6562 2.1875.6562.6198 0 1.1211-.1458 1.5039-.4375.3828-.3099.5742-.72.5742-1.2305 0-.4739-.1732-.8841-.5195-1.2304-.3464-.3646-1.0208-.7565-2.0234-1.1758-1.2943-.5651-2.2058-1.1029-2.7344-1.6133-.5287-.5286-.793-1.2031-.793-2.0234 0-.6563.1914-1.2305.5742-1.7227.4011-.5104.9479-.9023 1.6407-1.1758.6927-.2916 1.4947-.4375 2.4062-.4375.5104 0 1.03.0456 1.5586.1368.5286.0911.9661.2096 1.3125.3554l.3008 2.8438h-1.2852L56.7544 15.5c-.1823-.1094-.4011-.1914-.6563-.2461-.2552-.0729-.5286-.1094-.8203-.1094-.638 0-1.1484.155-1.5312.4649-.3828.2916-.5743.6745-.5743 1.1484 0 .5469.2097.9935.629 1.3399.4192.3281 1.1575.7382 2.2148 1.2304 1.2031.5469 2.0417 1.0847 2.5156 1.6133.474.5287.711 1.1667.711 1.9141q0 1.47645-1.2852 2.4336c-.8568.6198-1.9414.9297-3.2539.9297m11.8644-.1094-4.8125-10.4727-1.2852-.4101.082-.9844h5.3047l.0547.9844-1.6953.4101 3.7188 8.3125zm7-11.8672.082.9844-1.2852.4101-4.6484 9.7617-2.1875 4.5391c-.401.8385-.8294 1.431-1.2851 1.7773-.4375.3464-.948.5196-1.5313.5196q-.68355 0-1.1211-.3282c-.2734-.2187-.4101-.5013-.4101-.8476 0-.2734.1093-.5378.3281-.793.2187-.237.556-.4192 1.0117-.5468l2.543-.7657-1.2578 1.3672 3.0351-5.8515.3008-.4922 3.5547-8.3399-1.6953-.4101.0547-.9844zm12.7639 11.9766c-1.3308 0-2.4245-.1915-3.2813-.5743-.8567-.401-1.4948-.9205-1.914-1.5586-.4193-.6562-.6289-1.358-.6289-2.1054 0-.6016.1458-1.2214.4375-1.8594.3099-.638.8385-1.276 1.5859-1.9141q1.1484-.9843 3.1992-1.8867c1.0755-.5469 1.9323-1.0846 2.5703-1.6133.638-.5286 1.0938-1.0664 1.3672-1.6132.2917-.5469.4375-1.1303.4375-1.75q0-1.20317-.6015-1.80474c-.3829-.40104-.8386-.60156-1.3672-.60156-.6745 0-1.2487.25521-1.7227.76562-.4557.51038-.6836 1.25778-.6836 2.24218 0 .5833.0729 1.1485.2188 1.6953.1458.5469.3554 1.1029.6289 1.668.2734.5469.6106 1.1302 1.0117 1.75.4193.6198.8932 1.3034 1.4219 2.0508.9114 1.2578 1.7682 2.2968 2.5703 3.1172.8021.802 1.5859 1.4036 2.3515 1.8046.7657.3829 1.5313.5743 2.2969.5743q.7383 0 1.3125-.1914c.4011-.1459.8203-.3646 1.2578-.6563l.4922.6836q-.68355.84765-1.668 1.3125c-.6562.3099-1.4036.4649-2.2421.4649-.9844 0-1.9141-.2006-2.7891-.6016-.875-.4011-1.7409-1.0208-2.5977-1.8594-.8567-.8385-1.7591-1.9049-2.707-3.1992-.8203-1.1484-1.513-2.1602-2.0781-3.0352-.5469-.875-.9662-1.7044-1.2578-2.4882-.2735-.8021-.4102-1.6407-.4102-2.5157 0-.8932.1914-1.6953.5742-2.4062q.60165-1.09377 1.668-1.72268 1.06635-.65625 2.4336-.65624 1.6953 0 2.7891.92968c.7291.60156 1.0937 1.44014 1.0937 2.51564q0 1.0938-.5469 2.0781c-.3645.6563-.9752 1.3125-1.832 1.9688-.8568.6562-2.0234 1.358-3.5 2.1054-1.2214.6381-2.0599 1.2852-2.5156 1.9414-.4558.6381-.6836 1.3581-.6836 2.1602 0 .638.164 1.2031.4922 1.6953.3281.474.7929.8477 1.3945 1.1211.6198.2552 1.3307.3828 2.1328.3828.9844 0 1.8776-.1914 2.6797-.5742.8021-.401 1.5404-1.0664 2.2148-1.9961q1.01175-1.39455 1.8594-3.7461l-1.914-.3008.0546-1.039 5.7149-.0274.0547 1.0391-1.9141.3281c-.8932 1.7318-1.8047 3.1901-2.7344 4.375-.9296 1.1667-1.9414 2.0508-3.0351 2.6524-1.0938.5833-2.3242.875-3.6914.875m31.9591-.0821c-.529-.0547-1.003-.0911-1.422-.1094-.401-.0182-.784-.0273-1.148-.0273h-9.379l-.082-1.0391 1.695-.3828c.037-.0911.055-.3008.055-.6289q.027-.49215.027-1.3398c.018-.5651.028-1.2487.028-2.0508V15.418c0-.8203-.01-1.5131-.028-2.0782q0-.87495-.027-1.3671c0-.3282-.018-.5287-.055-.6016l-1.695-.3828.082-1.03908h9.57q.438-.02735.93-.05469c.328-.01823.665-.03646 1.012-.05469l.546 3.60936-1.23.1914-.902-2.2968c-.146-.0365-.31-.0547-.493-.0547-.182-.0183-.373-.0274-.574-.0274h-3.09c-.346 0-.656.0091-.929.0274-.255 0-.511.0182-.766.0547 0 .0729-.009.2825-.027.6289 0 .3281-.009.7109-.028 1.1484v9.8164c.019.3646.028.6927.028.9844.018.2916.027.4922.027.6015.255.0183.52.0365.793.0547.292.0183.611.0274.957.0274h3.637c.255-.0183.456-.0365.601-.0547.146-.0182.265-.0365.356-.0547l1.422-2.5977 1.23.2461zm-3.035-5.7422-.328-1.8593c-.091-.0365-.246-.0638-.465-.0821-.219-.0182-.483-.0273-.793-.0273h-2.078c-.237 0-.492.0091-.766.0273-.273.0183-.565.0365-.875.0547v-1.5039c.31.0182.602.0365.875.0547h2.844c.31 0 .574-.0091.793-.0274q.3285-.0273.465-.0546l.328-1.8868h1.176v5.3047zM121.351 26l-.055-1.0117 1.777-.3828c.037-.1823.064-.4831.082-.9024.019-.4192.028-.9752.028-1.6679.018-.6928.027-1.5404.027-2.543v-3.418c0-.6927-.009-1.4036-.027-2.1328 0-.7292-.009-1.4128-.028-2.0508 0-.6562-.009-1.2122-.027-1.6679q0-.711-.027-.92973l-2.024-.27344-.054-.875 3.91-1.12109.519.38281-.054 2.29687c-.019.76568-.037 1.61328-.055 2.54298v3.3633l-.027 4.4023c0 1.0755.009 2.0508.027 2.9258.036.8568.073 1.4128.109 1.668l1.778.3828L127.175 26zm13.751.2188q-1.5855 0-2.871-.711c-.839-.4739-1.513-1.1484-2.024-2.0234-.492-.8933-.738-1.9414-.738-3.1446 0-1.2942.264-2.4153.793-3.3632.529-.948 1.221-1.6771 2.078-2.1875.857-.5287 1.777-.7839 2.762-.7657 1.422.0183 2.534.4922 3.336 1.4219q1.203 1.39455 1.203 3.9375v.4922h-8.395v-1.2031h6.59l-.301.3554v-.5742c0-1.0573-.237-1.8685-.71-2.4336-.474-.5651-1.122-.8476-1.942-.8476-.51 0-1.002.1549-1.476.4648-.474.2917-.857.7474-1.149 1.3672-.292.6016-.437 1.3672-.437 2.2969v.3281c0 1.4948.364 2.6615 1.093 3.5.748.8385 1.705 1.2578 2.871 1.2578.638 0 1.213-.1276 1.723-.3828.511-.2552 1.003-.6654 1.477-1.2305l.683.6289c-.51.948-1.157 1.6589-1.941 2.1329-.784.4557-1.659.6836-2.625.6836m12.274 6.0156c-1.677 0-3.007-.2735-3.992-.8203-.984-.5469-1.476-1.2761-1.476-2.1875 0-.6198.246-1.194.738-1.7227.492-.5286 1.285-1.0664 2.379-1.6133l1.039.2188c-.602.3463-1.067.7474-1.395 1.2031q-.492.711-.492 1.5039c0 .7292.292 1.2943.875 1.6953.602.4011 1.413.6016 2.434.6016q1.7775 0 2.871-.7656c.729-.5105 1.094-1.1667 1.094-1.9688 0-.6198-.228-1.0846-.684-1.3945-.437-.2917-1.167-.474-2.187-.5469l-2.926-.2461-.41-.1094c-.675 0-1.249-.1731-1.723-.5195q-.684-.5469-.684-1.3125c0-.4922.237-.9753.711-1.4492.474-.474 1.13-.8932 1.969-1.2578l.355.5468c-.346.237-.601.4558-.765.6563q-.246.27345-.246.5469c0 .2552.109.4739.328.6562.237.1823.565.2917.984.3281l3.528.3555q1.8855.1914 2.871.957c.656.5105.984 1.2396.984 2.1875 0 .8386-.273 1.5951-.82 2.2696s-1.285 1.2031-2.215 1.5859c-.93.4011-1.978.6016-3.145.6016m.219-9.625q-1.449 0-2.598-.5196c-.747-.3463-1.33-.8203-1.75-1.4218-.419-.6198-.628-1.3216-.628-2.1055 0-.8568.218-1.6224.656-2.2969.437-.6927 1.03-1.2304 1.777-1.6133.748-.401 1.586-.6015 2.516-.6015.929 0 1.759.1823 2.488.5469.747.3645 1.331.875 1.75 1.5312.419.638.629 1.3672.629 2.1875 0 .8021-.219 1.5313-.656 2.1875-.42.6563-.994 1.1758-1.723 1.5586-.729.3646-1.549.5469-2.461.5469m.137-1.0938c.747 0 1.34-.2734 1.777-.8203.438-.5469.656-1.276.656-2.1875q0-1.5312-.738-2.4609-.711-.9297-1.887-.9297c-.747 0-1.358.2917-1.832.875q-.711.87495-.711 2.2695c0 .9662.247 1.75.739 2.3516.51.6015 1.176.9023 1.996.9023m6.344-5.4961-3.254-.2187-1.067-1.0938 4.321-.4375zm6.067 10.1993c-.729 0-1.376-.1459-1.941-.4376-.565-.2916-1.012-.6653-1.34-1.121-.31-.4558-.465-.9297-.465-1.4219 0-.6198.201-1.1302.602-1.5313.401-.401 1.057-.7474 1.968-1.039l4.157-1.3946v-1.3945c0-.4557-.137-.8659-.411-1.2305-.273-.3828-.638-.6836-1.093-.9023-.456-.2188-.966-.3281-1.532-.3281-.455 0-.765.1002-.929.3008-.164.1822-.265.5559-.301 1.121l-.055 1.1485c-.656.1458-1.212.1276-1.668-.0547-.455-.2005-.683-.5195-.683-.957 0-.3099.127-.6198.383-.9297.273-.3099.628-.6016 1.066-.875q.6555-.43755 1.422-.7383c.51-.2005 1.012-.3372 1.504-.4102 1.349 0 2.424.3555 3.226 1.0664.821.711 1.24 1.6407 1.258 2.7891l-.055 4.5938c0 .3463.01.6835.028 1.0117.036.3281.082.5742.136.7383l1.75.3281v.8476l-1.339.4922c-.256.0912-.493.1641-.711.2188-.219.0729-.401.1094-.547.1094-.565 0-.93-.3191-1.094-.9571l-.301-1.0664h.41c-.601.6745-1.184 1.1849-1.75 1.5313-.546.3281-1.112.4922-1.695.4922m.738-1.6133c.42 0 .812-.0912 1.176-.2735.365-.2005.72-.5013 1.067-.9023v-2.8711l-3.063.8203c-.437.1094-.756.2826-.957.5195q-.273.3555-.273.9024c0 .4557.2.875.601 1.2578.419.3646.903.5469 1.449.5469M168.972 26l-.054-.9844 1.695-.4101q.027-.1914.027-.5196c.019-.2187.037-.5195.055-.9023q.027-.5742.027-1.5039l.028-2.1055c0-.6015-.028-1.194-.082-1.7773-.037-.6016-.082-1.0755-.137-1.4219l-1.75-.3828v-.9024l3.664-1.0117.465.4375-.137 1.4492.082.0274q.957-1.03905 1.887-1.5039c.62-.3099 1.294-.4649 2.023-.4649q1.0125 0 1.887.5196.903.49215 1.449 1.5312c.383.6927.574 1.5768.574 2.6524v3.0351c0 .6563.01 1.2487.028 1.7774.036.5286.082.8841.137 1.0664l1.695.4101-.082.9844h-5.496l-.055-.9844 1.586-.4101c.018-.1459.036-.3282.055-.5469.018-.2188.027-.4922.027-.8203q.027-.5196.027-1.2852V19c0-.8203-.145-1.4674-.437-1.9414-.274-.4922-.62-.8385-1.039-1.0391-.419-.2187-.848-.3281-1.285-.3281-.602 0-1.167.155-1.696.4648-.51.2917-.948.7019-1.312 1.2305v4.1016q0 1.25775.027 2.0508c.037.5104.073.8658.11 1.0664l1.695.4101-.082.9844zm24.005-1.6953c-.346.6015-.82 1.0755-1.422 1.4219-.601.3281-1.23.4922-1.886.4922-1.112 0-2.024-.3373-2.735-1.0118-.711-.6744-1.066-1.6862-1.066-3.0351l.082-6.5352h-1.914v-.5742l3.527-3.1992h.52l-.055 3.1445-.027 6.7266c0 .9479.2 1.6497.601 2.1054.42.4558 1.003.6836 1.75.6836.42 0 .802-.082 1.149-.2461.364-.164.692-.3828.984-.6562zm-5.933-8.668v-1.3672h5.113v1.3672zM4.96 52.192c-.81067 0-1.536-.1387-2.176-.416-.62933-.2773-1.13067-.6827-1.504-1.216-.36267-.5333-.54933-1.1787-.56-1.936h2.288c.01067.3307.096.6293.256.896s.37867.48.656.64c.288.1493.62933.224 1.024.224.34133 0 .63467-.0533.88-.16q.384-.17595.592-.48t.208-.72c0-.32-.08-.5867-.24-.8-.14933-.2133-.36267-.3947-.64-.544-.26667-.1493-.58133-.2827-.944-.4-.352-.128-.72533-.2613-1.12-.4q-1.328-.432-2.032-1.152c-.45867-.48-.688-1.1147-.688-1.904q0-1.008.48-1.728.496-.72 1.36-1.104t1.968-.384c.75733 0 1.41867.1333 1.984.4.576.256 1.02933.6293 1.36 1.12q.512.73605.528 1.728H6.336c-.01067-.2453-.08533-.4747-.224-.688q-.192-.336-.544-.528c-.23467-.1387-.512-.208-.832-.208-.27733-.0107-.53333.032-.768.128q-.336.144-.544.432c-.128.1813-.192.4107-.192.688q0 .40005.192.672.208.27195.56.48c.23467.128.512.2507.832.368q.48.16005 1.04.336c.55467.192 1.06667.4213 1.536.688q.704.384 1.12 1.008c.27733.416.416.9653.416 1.648q0 .88005-.464 1.632c-.30933.5013-.75733.9067-1.344 1.216-.576.3093-1.296.464-2.16.464m8.6062 0c-.6506 0-1.2106-.1333-1.68-.4q-.6879-.41595-1.056-1.2c-.2453-.5333-.368-1.1893-.368-1.968v-4.688h2.16V48.4c0 .6507.1334 1.1413.4 1.472.2774.3307.6987.496 1.2641.496q.5439 0 .96-.24c.2773-.1707.4959-.4107.6559-.72.1707-.32.256-.7093.256-1.168v-4.304h2.144V52h-1.888l-.1759-1.312q-.35205.68805-1.0401 1.104c-.4586.2667-1.0026.4-1.632.4m11.4654 0c-.416 0-.7893-.0533-1.12-.16q-.48-.16005-.864-.432c-.2453-.192-.4533-.4053-.624-.64l-.24 1.04h-1.92V40.48h2.16v4.576c.256-.3733.592-.6827 1.008-.928q.64005-.384 1.584-.384c.7467 0 1.408.1867 1.984.56.5867.3627 1.0454.864 1.376 1.504.3414.6293.512 1.3547.512 2.176 0 .8-.1706 1.52-.512 2.16-.3306.64-.784 1.1413-1.36 1.504s-1.2373.544-1.984.544m-.512-1.888c.4267 0 .8-.096 1.12-.288q.49605-.30405.768-.816c.1814-.352.272-.7573.272-1.216s-.0906-.864-.272-1.216c-.1813-.3627-.4373-.64-.768-.832-.32-.2027-.6933-.304-1.12-.304-.416 0-.7893.1013-1.12.304q-.48.288-.768.816c-.1813.352-.272.7573-.272 1.216s.0907.8693.272 1.232q.288.528.768.816c.3307.192.704.288 1.12.288M30.594 52V40.48h2.16v4.656q.40005-.64005 1.056-1.008c.448-.256.9653-.384 1.552-.384.672 0 1.2373.144 1.696.432.4587.2773.8053.6827 1.04 1.216s.352 1.1947.352 1.984V52h-2.144v-4.432c0-.64-.1333-1.1307-.4-1.472-.2667-.352-.688-.528-1.264-.528-.352 0-.672.0853-.96.256s-.5173.4213-.688.752q-.24.48-.24 1.152V52zm13.6086.192c-.8106 0-1.5306-.1707-2.16-.512-.6186-.352-1.104-.8373-1.456-1.456-.3413-.6293-.512-1.3547-.512-2.176 0-.8427.1707-1.584.512-2.224.352-.6507.8374-1.1573 1.456-1.52.6187-.3733 1.3387-.56 2.16-.56.8 0 1.4987.176 2.096.528.5974.352 1.0614.8267 1.392 1.424.3307.5973.496 1.2747.496 2.032v.368c0 .128-.0106.2613-.032.4h-6.544v-1.312h4.4c-.032-.5227-.2186-.9333-.56-1.232-.3306-.2987-.7466-.448-1.248-.448-.3626 0-.6986.0853-1.008.256-.3093.16-.5546.4107-.736.752-.1706.3413-.256.7733-.256 1.296v.464q0 .65595.24 1.152c.1707.32.4054.5707.704.752.2987.1707.6454.256 1.04.256.3947 0 .72-.0853.976-.256.2667-.1707.464-.3893.592-.656h2.208c-.1493.5013-.4.9547-.752 1.36q-.528.60795-1.296.96c-.512.2347-1.0826.352-1.712.352m8.319 0c-.672 0-1.2266-.1067-1.664-.32-.4373-.224-.7626-.5173-.976-.88-.2026-.3733-.304-.784-.304-1.232 0-.4907.1227-.9227.368-1.296.256-.3733.6347-.6667 1.136-.88.512-.2133 1.152-.32 1.92-.32h2c0-.3947-.0533-.72-.16-.976-.1066-.2667-.272-.464-.496-.592s-.5226-.192-.896-.192c-.4053 0-.752.0907-1.04.272-.2773.1707-.448.4373-.512.8h-2.096c.0534-.576.24-1.072.56-1.488.3307-.4267.7627-.7573 1.296-.992.544-.2347 1.1467-.352 1.808-.352q1.1361 0 1.968.384c.5547.256.9814.624 1.28 1.104.2987.48.448 1.072.448 1.776V52h-1.824l-.24-1.232c-.1173.2133-.256.4053-.416.576s-.3466.32-.56.448q-.31995.192-.72.288c-.2666.0747-.56.112-.88.112m.512-1.664c.2774 0 .5227-.048.736-.144.224-.1067.416-.2453.576-.416.16-.1813.2827-.384.368-.608.096-.2347.16-.4853.192-.752v-.016h-1.648c-.3306 0-.6026.0427-.816.128-.2026.0747-.352.1867-.448.336s-.144.32-.144.512q0 .31995.144.528c.096.1387.2347.2453.416.32.1814.0747.3894.112.624.112m9.573 1.664c-.736 0-1.3973-.1813-1.984-.544-.576-.3627-1.0293-.864-1.36-1.504-.3306-.64-.496-1.36-.496-2.16 0-.8213.1654-1.5467.496-2.176.3414-.64.8054-1.1413 1.392-1.504.5974-.3733 1.264-.56 2-.56.576 0 1.0827.1067 1.52.32q.6561.31995 1.056.912V40.48h2.16V52h-1.92l-.24-1.104c-.16.224-.3626.4373-.608.64-.2346.2027-.5173.3627-.848.48-.3306.1173-.72.176-1.168.176m.512-1.888c.4267 0 .8-.096 1.12-.288.3307-.2027.5867-.48.768-.832.1814-.352.272-.7573.272-1.216s-.0906-.864-.272-1.216q-.27195-.528-.768-.816c-.32-.2027-.6933-.304-1.12-.304-.4053 0-.7733.1013-1.104.304-.3306.192-.592.464-.784.816-.1813.352-.272.752-.272 1.2 0 .4693.0907.88.272 1.232.192.352.448.6293.768.832.3307.192.704.288 1.12.288m10.1064 1.888c-.8107 0-1.5307-.1707-2.16-.512-.6187-.352-1.104-.8373-1.456-1.456-.3413-.6293-.512-1.3547-.512-2.176 0-.8427.1707-1.584.512-2.224.352-.6507.8373-1.1573 1.456-1.52.6187-.3733 1.3387-.56 2.16-.56.8 0 1.4987.176 2.096.528s1.0613.8267 1.392 1.424.496 1.2747.496 2.032v.368c0 .128-.0107.2613-.032.4h-6.544v-1.312h4.4c-.032-.5227-.2187-.9333-.56-1.232-.3307-.2987-.7467-.448-1.248-.448-.3627 0-.6987.0853-1.008.256-.3093.16-.5547.4107-.736.752-.1707.3413-.256.7733-.256 1.296v.464q0 .65595.24 1.152c.1707.32.4053.5707.704.752.2987.1707.6453.256 1.04.256s.72-.0853.976-.256c.2667-.1707.464-.3893.592-.656h2.208c-.1493.5013-.4.9547-.752 1.36q-.528.60795-1.296.96c-.512.2347-1.0827.352-1.712.352M78.824 52v-8.064h1.92l.208 1.488c.192-.352.432-.6507.72-.896q.44805-.36795 1.008-.576c.384-.1387.8053-.208 1.264-.208v2.288h-.736c-.32 0-.6187.0373-.896.112-.2667.0747-.5013.1973-.704.368-.2027.16-.3573.384-.464.672s-.16.6507-.16 1.088V52zM7.58789 68.3428l.32227 2.373-.64454.0733-.61523-1.6553c-.07812-.0195-.1709-.0293-.27832-.0293q-.14649-.0147-.26367-.0147h-.92285q-.24903 0-.4541.0147c0 .0781-.00489.2637-.01465.5566v4.0723q0 .9375.01465 1.626c.00976.4492.01464.7422.01464.8789l1.24512.1758L5.94727 77H2.21191l-.02929-.5859 1.23047-.1758c0-.1367.00488-.4297.01464-.8789q.01465-.6885.01465-1.626v-4.0723c0-.2929-.00488-.4785-.01465-.5566q-.19042-.0147-.43945-.0147h-.9668q-.11718 0-.26367.0147c-.09765 0-.18554.0098-.26367.0293l-.60058 1.6699-.65918-.0879.32226-2.373c.11719.0097.23438.0195.35156.0293.11719 0 .23438.0049.35157.0146q.17577 0 .35156.0147h4.90722a4.22 4.22 0 0 1 .35157-.0147 4.26 4.26 0 0 1 .35156-.0146c.12695-.0098.24902-.0196.36621-.0293m3.75001 8.7744c-.6348 0-1.1914-.1367-1.66993-.4102-.46875-.2734-.83496-.6543-1.09863-1.1425-.26368-.4981-.39551-1.0645-.39551-1.6993 0-.664.14648-1.2402.43945-1.7285s.6836-.8691 1.17188-1.1426q.73235-.4101 1.61134-.4101c.6055 0 1.1328.1367 1.582.4101.459.2637.8106.6397 1.0547 1.128.2539.4785.3809 1.04.3809 1.6845 0 .6153-.1368 1.1719-.4102 1.67-.2734.498-.6445.8984-1.1133 1.2011-.459.293-.9765.4395-1.5527.4395m.1465-.6885c.332 0 .6201-.0976.8642-.293.2442-.205.4346-.4834.5713-.8349.1367-.3613.2051-.7715.2051-1.2305 0-.8398-.1758-1.5185-.5273-2.0361-.3418-.5274-.7959-.791-1.3623-.791q-.79108 0-1.27446.6591c-.3125.4395-.46875 1.0206-.46875 1.7432q0 .82035.24902 1.4502c.17578.4199.41499.7471.71779.9814q.45405.3516 1.0254.3516m9.9756.6885c-.5664 0-1.0791-.127-1.5381-.3809-.4492-.2539-.8106-.6152-1.084-1.084-.2637-.4785-.3955-1.04-.3955-1.6845q0-1.0401.4248-1.8018c.2832-.5078.6543-.8984 1.1133-1.1719.459-.2832.9521-.4199 1.4795-.4101q1.14255.0147 1.7871.7617c.4297.4981.6445 1.2012.6445 2.1094v.2637h-4.4971v-.6446h3.5303l-.1611.1904v-.3076c0-.5664-.127-1.0009-.3809-1.3037-.2539-.3027-.6006-.4541-1.04-.4541-.2735 0-.5371.083-.791.249-.2539.1563-.459.4004-.6153.7325-.1562.3222-.2344.7324-.2344 1.2304v.1758c0 .8008.1954 1.4258.586 1.875q.6006.6738 1.5381.6738c.3418 0 .6494-.0683.9228-.205.2735-.1368.5371-.3565.791-.6592l.3662.3369c-.2734.5078-.6201.8887-1.04 1.1426-.4199.2441-.8887.3662-1.4062.3662m6.1523-.0586-2.5928-5.6104-.6884-.2197.0293-.5273h2.8564l.0293.5273-.9082.2197 2.0068 4.4532-.3808.0146 1.8457-4.4678-.9082-.2197.0293-.5273h2.4316l.0293.5273-.6885.2197-2.6513 5.6104zm7.3242.0586c-.6347 0-1.1914-.1367-1.6699-.4102-.4687-.2734-.835-.6543-1.0986-1.1425-.2637-.4981-.3955-1.0645-.3955-1.6993 0-.664.1464-1.2402.4394-1.7285s.6836-.8691 1.1719-1.1426q.73245-.4101 1.6113-.4101c.6055 0 1.1328.1367 1.582.4101.459.2637.8106.6397 1.0547 1.128.2539.4785.3809 1.04.3809 1.6845 0 .6153-.1367 1.1719-.4102 1.67-.2734.498-.6445.8984-1.1132 1.2011q-.6885.4395-1.5528.4395m.1465-.6885c.332 0 .6201-.0976.8643-.293.2441-.205.4345-.4834.5713-.8349.1367-.3613.205-.7715.205-1.2305 0-.8398-.1757-1.5185-.5273-2.0361-.3418-.5274-.7959-.791-1.3623-.791q-.7911 0-1.2744.6591c-.3125.4395-.4688 1.0206-.4688 1.7432q0 .82035.249 1.4502c.1758.4199.4151.7471.7178.9814.3028.2344.6445.3516 1.0254.3516M39.1406 77l-.0293-.5273.835-.2198c.0098-.0976.0195-.2539.0293-.4687.0098-.2246.0195-.503.0293-.835.0097-.3418.0146-.7226.0146-1.1426v-2.124c0-.3711-.0049-.7471-.0146-1.1279q0-.5859-.0147-1.1133c0-.3516-.0048-.6494-.0146-.8935-.0098-.2442-.0147-.4102-.0147-.4981l-1.0839-.1465-.0293-.4687 2.0654-.6006.293.2051c-.0098.332-.0196.6591-.0293.9814-.0098.3125-.0196.6397-.0293.9815-.0098.332-.0147.6884-.0147 1.0693v1.2158l-.0146 3.5889c0 .2539.0048.4785.0146.6738.0098.1856.0195.3369.0293.4541q.0147.1758.0147.249l.9082.2198-.0293.5273zm6.5625 0h-1.6699c-.1758-.2344-.3125-.4102-.4102-.5273a5.01 5.01 0 0 0-.3076-.337l-2.0068-2.1826h-.4102l.0147-.3515.5566-.1612 2.0362-2.0215-.9668-.1757.0293-.542h2.9443l.0293.542-.9668.1757-2.6221 2.3584.2198-.5273 2.0654 2.2266c.1269.1269.2685.2734.4248.4394.166.166.3076.3028.4248.4102l.6592.1318zm3.6035.1172c-.5664 0-1.0791-.127-1.538-.3809-.4493-.2539-.8106-.6152-1.084-1.084-.2637-.4785-.3955-1.04-.3955-1.6845q0-1.0401.4248-1.8018c.2832-.5078.6543-.8984 1.1132-1.1719.459-.2832.9522-.4199 1.4795-.4101.7618.0098 1.3575.2637 1.7872.7617.4296.4981.6445 1.2012.6445 2.1094v.2637h-4.4971v-.6446h3.5303l-.1611.1904v-.3076c0-.5664-.127-1.0009-.3809-1.3037-.2539-.3027-.6006-.4541-1.04-.4541q-.41025 0-.7911.249c-.2539.1563-.4589.4004-.6152.7325-.1562.3222-.2344.7324-.2344 1.2304v.1758c0 .8008.1953 1.4258.586 1.875q.6006.6738 1.5381.6738c.3417 0 .6494-.0683.9228-.205.2734-.1368.5371-.3565.791-.6592l.3662.3369c-.2734.5078-.6201.8887-1.04 1.1426-.4199.2441-.8887.3662-1.4063.3662m8.6426 0c-.3906 0-.7373-.0781-1.04-.2344-.3028-.1562-.542-.3564-.7178-.6006q-.249-.36615-.249-.7617c0-.332.1074-.6055.3222-.8203.2149-.2148.5665-.4004 1.0547-.5566l2.2266-.7471v-.7471c0-.2441-.0732-.4639-.2197-.6592-.1465-.205-.3418-.3662-.586-.4834-.2441-.1172-.5175-.1757-.8203-.1757q-.36615 0-.498.1611c-.0879.0976-.1416.2978-.1612.6006l-.0293.6152c-.3515.0781-.6494.0684-.8935-.0293-.2441-.1074-.3662-.2783-.3662-.5127 0-.166.0683-.332.2051-.498.1464-.166.3369-.3223.5712-.4688.2344-.1562.4883-.2881.7618-.3955.2734-.1074.542-.1807.8056-.2197.7227 0 1.2989.1904 1.7285.5713.4395.3808.6641.8789.6739 1.4941l-.0293 2.461c0 .1855.0049.3662.0146.5419.0196.1758.044.3077.0733.3956l.9375.1757v.4541l-.7178.2637c-.1367.0488-.2637.0879-.3809.1172-.1172.0391-.2148.0586-.2929.0586-.3028 0-.4981-.1709-.586-.5127l-.1611-.5713h.2197c-.3222.3613-.6347.6348-.9375.8203-.2929.1758-.5957.2637-.9082.2637m.3955-.8643c.2246 0 .4346-.0488.6299-.1465.1953-.1074.3858-.2685.5713-.4834v-1.538l-1.6406.4394c-.2344.0586-.4053.1514-.5127.2783-.0977.127-.1465.2881-.1465.4834 0 .2442.1074.4688.3223.6739.2246.1953.4834.2929.7763.2929m10.1074.8643c-.5468 0-1.0498-.1221-1.5087-.3662-.459-.2539-.8252-.6153-1.0987-1.084q-.4101-.71775-.4101-1.6992 0-.9522.4248-1.7139c.2929-.5176.6885-.9228 1.1865-1.2158.5078-.3027 1.0742-.4541 1.6992-.4541.4297 0 .791.0537 1.084.1611s.5127.249.6592.4248c.1562.1758.2344.3613.2344.5567 0 .1562-.0489.288-.1465.3955-.0977.0976-.2344.1465-.4102.1465-.1562 0-.293-.0293-.4101-.0879q-.1758-.0879-.4248-.3516l-.7471-.7471.5273.1465c-.3906-.0879-.7666-.0488-1.1279.1172-.3613.1563-.6592.4346-.8936.835-.2343.3906-.3515.8984-.3515 1.5234 0 .7813.1953 1.3818.5859 1.8018.4004.4199.8985.6298 1.4942.6298.3711 0 .6884-.0683.9521-.205.2734-.1368.5322-.3565.7764-.6592l.3955.3369c-.2735.5078-.6201.8887-1.0401 1.1426-.4199.2441-.9033.3662-1.4502.3662M71.3965 77l-.0293-.542.9521-.2051c.0196-.0976.0342-.2588.044-.4834.0097-.2246.0146-.5224.0146-.8935q.0147-.55665.0147-1.3623v-1.8311c0-.3711-.0049-.7519-.0147-1.1426 0-.3906-.0049-.7568-.0146-1.0986 0-.3516-.0049-.6494-.0147-.8935 0-.254-.0048-.42-.0146-.4981l-1.084-.1465-.0293-.4687 2.0947-.6006.2784.2051c-.0098.4101-.0196.8203-.0293 1.2304-.0098.4102-.0196.8643-.0293 1.3623v1.8018l-.0147 2.3584c0 .5762.0049 1.0986.0147 1.5674.0195.459.039.7568.0586.8935l.9521.2051-.0293.542zm6.4014.1172c-.3907 0-.7374-.0781-1.0401-.2344-.3027-.1562-.542-.3564-.7178-.6006q-.249-.36615-.249-.7617c0-.332.1074-.6055.3223-.8203.2148-.2148.5664-.4004 1.0547-.5566l2.2265-.7471v-.7471c0-.2441-.0732-.4639-.2197-.6592-.1465-.205-.3418-.3662-.5859-.4834-.2442-.1172-.5176-.1757-.8203-.1757-.2442 0-.4102.0537-.4981.1611q-.13185.1464-.1611.6006l-.0293.6152c-.3516.0781-.6494.0684-.8936-.0293-.2441-.1074-.3662-.2783-.3662-.5127 0-.166.0684-.332.2051-.498.1465-.166.3369-.3223.5713-.4688.2344-.1562.4883-.2881.7617-.3955s.542-.1807.8057-.2197c.7226 0 1.2988.1904 1.7285.5713.4394.3808.664.8789.6738 1.4941l-.0293 2.461c0 .1855.0049.3662.0147.5419.0195.1758.0439.3077.0732.3956l.9375.1757v.4541l-.7178.2637c-.1367.0488-.2636.0879-.3808.1172-.1172.0391-.2149.0586-.293.0586q-.45405 0-.5859-.5127l-.1612-.5713h.2198c-.3223.3613-.6348.6348-.9375.8203-.293.1758-.5957.2637-.9082.2637m.3955-.8643c.2246 0 .4345-.0488.6298-.1465.1954-.1074.3858-.2685.5713-.4834v-1.538l-1.6406.4394c-.2344.0586-.4053.1514-.5127.2783-.0976.127-.1465.2881-.1465.4834 0 .2442.1074.4688.3223.6739.2246.1953.4834.2929.7764.2929m6.5478.8643c-.3613 0-.7226-.0391-1.084-.1172q-.54195-.13185-.9228-.3369l-.0733-1.5674h.7178l.293 1.0547c.3418.2344.7324.3516 1.1719.3516.332 0 .6005-.0782.8056-.2344.2051-.166.3076-.3858.3076-.6592 0-.2539-.0927-.4736-.2783-.6592-.1855-.1953-.5469-.4053-1.084-.6299-.6933-.3027-1.1816-.5908-1.4648-.8642-.2832-.2832-.4248-.6446-.4248-1.084 0-.3516.1025-.6592.3076-.9229.2148-.2734.5078-.4834.8789-.6298.3711-.1563.8008-.2344 1.2891-.2344q.4101 0 .8349.0732c.2832.0489.5176.1123.7032.1905l.1611 1.5234h-.6885l-.3516-.9961c-.0976-.0586-.2148-.1025-.3515-.1318-.1367-.0391-.2832-.0586-.4395-.0586-.3418 0-.6152.083-.8203.249-.2051.1562-.3076.3613-.3076.6152 0 .293.1123.5323.3369.7178.2246.1758.6201.3955 1.1865.6592.6446.293 1.0938.581 1.3477.8642s.3809.625.3809 1.0254c0 .5274-.2295.9619-.6885 1.3037-.459.3321-1.0401.4981-1.7432.4981m5.8887 0c-.3613 0-.7227-.0391-1.084-.1172-.3613-.0879-.6689-.2002-.9229-.3369l-.0732-1.5674h.7178l.2929 1.0547c.3418.2344.7325.3516 1.1719.3516.3321 0 .6006-.0782.8057-.2344.2051-.166.3076-.3858.3076-.6592 0-.2539-.0928-.4736-.2783-.6592-.1856-.1953-.5469-.4053-1.084-.6299-.6934-.3027-1.1816-.5908-1.4648-.8642-.2832-.2832-.4248-.6446-.4248-1.084 0-.3516.1025-.6592.3076-.9229.2148-.2734.5078-.4834.8789-.6298.3711-.1563.8008-.2344 1.289-.2344.2735 0 .5518.0244.835.0732.2832.0489.5176.1123.7031.1905l.1612 1.5234h-.6885l-.3516-.9961c-.0976-.0586-.2148-.1025-.3515-.1318-.1368-.0391-.2832-.0586-.4395-.0586-.3418 0-.6152.083-.8203.249-.2051.1562-.3076.3613-.3076.6152 0 .293.1123.5323.3369.7178.2246.1758.6201.3955 1.1865.6592.6445.293 1.0938.581 1.3477.8642s.3808.625.3808 1.0254c0 .5274-.2295.9619-.6885 1.3037-.4589.3321-1.04.4981-1.7431.4981M94.043 77l-.0293-.542.9814-.2051c.0098-.039.0147-.1074.0147-.205.0097-.0977.0195-.254.0293-.4688.0097-.2148.0146-.5127.0146-.8936v-.9667c0-.4004-.0098-.7667-.0293-1.0987s-.0439-.5908-.0732-.7763l-.9815-.2051v-.4834l2.0801-.542.2197.2051c-.0293.3027-.0537.6005-.0732.8935q-.0147.4395-.0147 1.0254v1.8457q0 .6738.0147 1.1133c.0195.293.0391.4785.0586.5566l.9814.2051-.0293.542zm1.582-8.042c-.2441 0-.459-.083-.6445-.249-.1758-.166-.2637-.3711-.2637-.6152q0-.3663.2637-.6153c.1855-.166.4004-.249.6445-.249.2539 0 .4639.083.6299.249q.249.249.249.6153c0 .2441-.083.4492-.249.6152s-.376.249-.6299.249m5.566 8.1592c-.546 0-1.049-.1221-1.5084-.3662-.459-.2539-.8252-.6153-1.0986-1.084-.2735-.4785-.4102-1.0449-.4102-1.6992q0-.9522.4248-1.7139c.293-.5176.6885-.9228 1.1866-1.2158.5078-.3027 1.0738-.4541 1.6988-.4541.43 0 .791.0537 1.084.1611q.4395.1611.66.4248c.156.1758.234.3613.234.5567 0 .1562-.049.288-.147.3955-.097.0976-.234.1465-.41.1465-.156 0-.293-.0293-.41-.0879s-.259-.1758-.425-.3516l-.747-.7471.528.1465c-.391-.0879-.767-.0488-1.128.1172-.362.1563-.66.4346-.8939.835q-.3516.5859-.3516 1.5234c0 .7813.1954 1.3818.5855 1.8018.401.4199.899.6298 1.495.6298.371 0 .688-.0683.952-.205.273-.1368.532-.3565.776-.6592l.396.3369c-.274.5078-.62.8887-1.04 1.1426-.42.2441-.904.3662-1.451.3662m9.17-.1172h-3.237l-.044-.5273.908-.2198c.01-.0976.015-.2002.015-.3076q.015-.1758.015-.4101v-1.4356l-.015-2.6367V69.793c0-.625.098-1.1621.293-1.6114.195-.4492.469-.7959.82-1.04.352-.2441.762-.3662 1.231-.3662q.6 0 .996.2637c.263.1757.395.3906.395.6445 0 .1367-.049.249-.146.3369-.088.0781-.2.1172-.337.1172-.244 0-.474-.1074-.689-.3223l-.673-.6445.351.0879c-.361 0-.64.1855-.835.5566s-.293.8936-.293 1.5674v1.3477l.015.7324.015 2.5195c0 .4199.004.8447.014 1.2744s.02.7618.029.9961l1.202.1905zm-3.413-5.5371v-.4834l1.055-.249h2.739v.7324zm7.661 5.6543c-.566 0-1.079-.127-1.538-.3809-.449-.2539-.81-.6152-1.084-1.084-.263-.4785-.395-1.04-.395-1.6845 0-.6934.141-1.294.425-1.8018.283-.5078.654-.8984 1.113-1.1719q.6885-.4248 1.479-.4101c.762.0098 1.358.2637 1.787.7617.43.4981.645 1.2012.645 2.1094v.2637h-4.497v-.6446h3.53l-.161.1904v-.3076c0-.5664-.127-1.0009-.381-1.3037-.254-.3027-.6-.4541-1.04-.4541-.273 0-.537.083-.791.249-.254.1563-.459.4004-.615.7325-.156.3222-.234.7324-.234 1.2304v.1758c0 .8008.195 1.4258.586 1.875.4.4492.913.6738 1.538.6738.341 0 .649-.0683.922-.205.274-.1368.538-.3565.791-.6592l.367.3369c-.274.5078-.62.8887-1.04 1.1426-.42.2441-.889.3662-1.407.3662m6.592 0c-.566 0-1.079-.127-1.538-.3809-.449-.2539-.81-.6152-1.084-1.084-.264-.4785-.395-1.04-.395-1.6845 0-.6934.141-1.294.424-1.8018.284-.5078.655-.8984 1.114-1.1719q.6885-.4248 1.479-.4101c.762.0098 1.358.2637 1.787.7617.43.4981.645 1.2012.645 2.1094v.2637h-4.497v-.6446h3.53l-.161.1904v-.3076c0-.5664-.127-1.0009-.381-1.3037-.254-.3027-.601-.4541-1.04-.4541-.273 0-.537.083-.791.249-.254.1563-.459.4004-.615.7325-.157.3222-.235.7324-.235 1.2304v.1758c0 .8008.196 1.4258.586 1.875.401.4492.913.6738 1.538.6738.342 0 .65-.0683.923-.205.274-.1368.537-.3565.791-.6592l.366.3369c-.273.5078-.62.8887-1.04 1.1426-.419.2441-.888.3662-1.406.3662M124.57 77l-.029-.542.952-.2051c.02-.0976.034-.2588.044-.4834s.015-.5224.015-.8935c.01-.3711.014-.8252.014-1.3623v-1.8311c0-.3711-.004-.7519-.014-1.1426q0-.5859-.015-1.0986c0-.3516-.005-.6494-.015-.8935 0-.254-.004-.42-.014-.4981l-1.084-.1465-.029-.4687 2.094-.6006.279.2051-.03 1.2304c-.009.4102-.019.8643-.029 1.3623v1.8018l-.015 2.3584c0 .5762.005 1.0986.015 1.5674.02.459.039.7568.059.8935l.952.2051-.03.542zm3.926 0-.029-.542.981-.2051c.01-.039.015-.1074.015-.205.01-.0977.019-.254.029-.4688s.015-.5127.015-.8936v-.9667c0-.4004-.01-.7667-.029-1.0987-.02-.332-.044-.5908-.074-.7763l-.981-.2051v-.4834l2.08-.542.22.2051c-.03.3027-.054.6005-.074.8935-.009.293-.014.6348-.014 1.0254v1.8457c0 .4492.005.8203.014 1.1133.02.293.039.4785.059.5566l.981.2051-.029.542zm1.582-8.042c-.244 0-.459-.083-.644-.249-.176-.166-.264-.3711-.264-.6152q0-.3663.264-.6153c.185-.166.4-.249.644-.249q.381 0 .63.249t.249.6153c0 .2441-.083.4492-.249.6152q-.249.249-.63.249M132.48 77l-.029-.5273.908-.2198c.01-.0683.015-.1611.015-.2783.01-.1172.02-.2783.029-.4834.01-.2051.015-.4736.015-.8057l.015-1.1279c0-.3222-.015-.6396-.044-.9521-.02-.3223-.044-.5762-.074-.7617l-.937-.2051v-.4834l1.963-.542.249.2344-.073.7763.044.0147c.341-.3711.678-.6397 1.01-.8057s.694-.249 1.084-.249c.362 0 .699.0928 1.011.2783.322.1758.581.4492.776.8203.205.3711.308.8447.308 1.4209v1.626c0 .3516.005.6689.015.9521.019.2832.044.4737.073.5713l.908.2198-.044.5273h-2.944l-.029-.5273.849-.2198c.01-.0781.02-.1758.029-.2929q.015-.1758.015-.4395.015-.27825.015-.6885V73.25c0-.4395-.078-.7861-.235-1.04-.146-.2637-.332-.4493-.556-.5567-.225-.1172-.454-.1758-.689-.1758-.322 0-.625.083-.908.2491-.273.1562-.508.3759-.703.6591v2.1973q0 .6738.015 1.0986c.019.2735.039.4639.058.5713l.908.2198-.044.5273zm11.016 3.3398c-.898 0-1.611-.1464-2.139-.4394-.527-.293-.791-.6836-.791-1.1719q0-.498.396-.9228c.264-.2832.688-.5713 1.274-.8643l.557.1172c-.322.1855-.571.4004-.747.6445-.176.2539-.264.5225-.264.8057 0 .3906.156.6933.469.9082.322.2148.757.3223 1.304.3223.634 0 1.147-.1368 1.538-.4102.39-.2734.586-.625.586-1.0547 0-.332-.122-.581-.367-.7471-.234-.1562-.624-.2539-1.171-.2929l-1.568-.1319-.219-.0586c-.362 0-.669-.0927-.923-.2783-.244-.1953-.367-.4297-.367-.7031q0-.39555.381-.7764c.254-.2539.606-.4785 1.055-.6738l.19.293c-.185.1269-.322.2441-.41.3515-.088.0977-.132.1953-.132.293 0 .1367.059.2539.176.3516.127.0976.303.1562.528.1757l1.889.1905c.674.0683 1.187.2392 1.538.5127q.528.4101.528 1.1718c0 .4493-.147.8545-.44 1.2159-.293.3613-.688.6445-1.186.8496-.498.2148-1.06.3222-1.685.3222m.117-5.1562c-.517 0-.981-.0928-1.391-.2783-.401-.1856-.713-.4395-.938-.7617-.224-.3321-.337-.7081-.337-1.128 0-.459.117-.8691.352-1.2304.234-.3711.552-.6592.952-.8643.4-.2148.85-.3223 1.348-.3223s.942.0977 1.333.293c.4.1953.713.4688.937.8203.225.3418.337.7324.337 1.1719 0 .4297-.117.8203-.352 1.1719-.224.3515-.532.6298-.922.8349-.391.1953-.83.293-1.319.293m.074-.5859c.4 0 .717-.1465.952-.4395.234-.293.351-.6836.351-1.1719 0-.5468-.132-.9863-.395-1.3183-.254-.3321-.591-.4981-1.011-.4981-.4 0-.728.1563-.981.4688-.254.3125-.381.7177-.381 1.2158 0 .5176.132.9375.395 1.2598.274.3222.63.4834 1.07.4834m3.398-2.9444-1.743-.1172-.571-.5859 2.314-.2344zm.659 7.9248-.22-.4248c.391-.1758.689-.3906.894-.6445.215-.2442.322-.5322.322-.8643 0-.1465-.029-.2685-.088-.3662-.048-.0976-.112-.1855-.19-.2637-.078-.0683-.156-.1367-.234-.205-.079-.0782-.147-.166-.206-.2637-.048-.1074-.073-.2393-.073-.3955 0-.2051.078-.3858.235-.542.166-.166.376-.249.629-.249.176 0 .337.0488.484.1465.156.0976.278.2441.366.4394.098.1953.147.4443.147.7471 0 .3906-.088.7764-.264 1.1572-.166.3809-.405.7227-.718 1.0254-.312.3027-.674.5371-1.084.7031M5.47852 97.1318q-1.4209 0-2.50489-.498-1.08398-.5127-1.69922-1.4649c-.40039-.6445-.60058-1.4209-.60058-2.3291 0-.7031.12207-1.3378.36621-1.9043q.38086-.8496 1.06934-1.4355c.46874-.4004 1.01074-.7031 1.62597-.9082.625-.2148 1.31348-.3223 2.06543-.3223.43945 0 .88379.0489 1.33301.1465q.68847.13185 1.14258.3516l.10254 2.2412-.89356.0586-.51269-1.5381c-.18555-.0977-.39063-.1709-.61524-.2197-.22461-.0489-.4541-.0733-.68847-.0733-.56641 0-1.04493.1319-1.43555.3955q-.58594.39555-.89356 1.128c-.20507.4882-.30761 1.0644-.30761 1.7285q0 1.12785.36621 1.9482c.2539.5469.59082.9668 1.01074 1.2598q.62988.4248 1.40625.4248c.26367 0 .52246-.0342.77637-.1025.26367-.0782.48828-.1905.67382-.337l.52735-1.3476.98144.1025-.4248 1.9483c-.30273.1953-.71777.3711-1.24512.5273-.51758.1465-1.05957.2197-1.62597.2197M9.4043 97l-.04395-.6738.90825-.2491c.0097-.039.0195-.1269.0293-.2636.0097-.1465.0195-.3223.0292-.5274q.0147-.3222.0147-.6738l.0146-1.0986c0-.293-.0097-.5518-.0293-.7764-.0195-.2344-.0537-.4785-.1025-.7324l-.93749-.2051v-.6592l2.53419-.6592.3808.2491-.0585 1.1572.0439.0146c.2832-.5468.5664-.9179.8496-1.1132.293-.1953.5908-.293.8936-.293.2636 0 .4931.0732.6884.2197.2051.1465.3077.376.3077.6885s-.1075.5566-.3223.7324c-.2149.1758-.4639.2637-.7471.2637-.2344 0-.4443-.0391-.6299-.1172-.1855-.0879-.3906-.2393-.6152-.4541l.4102.0439c-.1465.1075-.2881.2442-.4248.4102-.1368.166-.2539.3564-.3516.5713l.0146 1.1572c.0098.3613.0147.6885.0147.9815.0098.2832.0195.5224.0293.7177.0098.1856.0195.3077.0293.3662l1.2744.2198-.0439.7031zm5.9326 0-.0439-.6885.9814-.2344c.0098-.039.0195-.1269.0293-.2636.0098-.1465.0195-.3223.0293-.5274.0098-.205.0147-.4297.0147-.6738l.0146-1.0986c0-.293-.0098-.5567-.0293-.791-.0195-.2344-.0537-.4737-.1025-.7178l-.9815-.2051v-.6592l2.6953-.6592.3955.2491a28.9 28.9 0 0 0-.0732.9521c-.0098.3125-.0146.669-.0146 1.0694v1.8457c0 .3222.0048.6298.0146.9228.0195.293.0391.4785.0586.5566l.9814.2344-.0439.6885zm1.9776-7.7197c-.3907 0-.6983-.1172-.9229-.3516-.2246-.2441-.3369-.5225-.3369-.8349 0-.3126.1123-.586.3369-.8204.2246-.2441.5322-.3662.9229-.3662.3906 0 .6933.1221.9082.3662.2148.2344.3222.5078.3222.8204 0 .3124-.1074.5908-.3222.8349-.2149.2344-.5176.3516-.9082.3516M19.7607 97l-.0439-.6738.9082-.2491c.0098-.039.0195-.1269.0293-.2636.0098-.1465.0195-.3223.0293-.5274.0098-.205.0146-.4297.0146-.6738l.0147-1.0986q0-.29295-.0147-.5274c-.0097-.166-.0244-.3271-.0439-.4834a8.7 8.7 0 0 0-.0732-.498l-.9375-.2051v-.6592l2.5781-.6592.3955.2491-.0879.8496.0439.0146c.3125-.4004.6397-.6885.9815-.8642.3418-.1856.6982-.2784 1.0693-.2784.3809 0 .7324.0977 1.0547.293.332.1856.6006.4737.8057.8643.2051.3808.3076.874.3076 1.4795l.0293 1.5088c0 .3222.0049.6298.0146.9228.0098.293.0293.4785.0586.5566l.791.2491-.0439.6738h-3.4717l-.0439-.6738.747-.2491c.0196-.0878.0342-.2099.044-.3662.0098-.166.0146-.3466.0146-.542.0098-.1953.0147-.3808.0147-.5566l-.0147-1.3769c0-.3516-.0537-.6299-.1611-.835-.0976-.2149-.2344-.3662-.4101-.4541-.1661-.0879-.3614-.1318-.586-.1318-.2148 0-.4297.0585-.6445.1757-.2149.1075-.3955.2588-.542.4541v2.1534c0 .3222.0049.6298.0146.9228.0196.293.0391.4785.0586.5566l.8057.2491-.0439.6738zm8.5987 0-.044-.6738.7617-.2491c.0196-.0878.0342-.2099.044-.3662.0098-.166.0146-.3466.0146-.542.0098-.1953.0147-.3808.0147-.5566l-.0293-1.2451c0-.3809-.0537-.6836-.1611-.9082-.1075-.2246-.2539-.3858-.4395-.4834-.1855-.1074-.3906-.1611-.6152-.1611-.2442 0-.4785.0537-.7032.1611-.2148.0976-.3955.249-.5419.4541l-.4248-.5567c.3515-.4687.7226-.8203 1.1132-1.0546q.6006-.3663 1.2891-.3663c.459 0 .8643.1075 1.2158.3223.3613.2051.6397.5029.835.8936.1953.3906.2929.8593.2929 1.4062l.0293 1.5235q0 .4833.0147.9228c.0195.293.0391.4785.0586.5566l.9082.2491-.044.6738zm6.665.1172c-.4101 0-.8154-.044-1.2158-.1318q-.6006-.14655-1.0107-.3663l-.0733-1.7138h.9375l.3076 1.0547c.3711.2148.7569.3222 1.1573.3222.3027 0 .5322-.0586.6884-.1758.1563-.1269.2344-.2929.2344-.498 0-.2148-.0879-.4004-.2637-.5566-.166-.1563-.5127-.3321-1.04-.5274-.7227-.2637-1.2256-.5517-1.5088-.8642s-.4248-.7032-.4248-1.1719c0-.4004.1221-.752.3662-1.0547.2442-.3125.5859-.5518 1.0254-.7178q.65925-.2637 1.5234-.2637.46875 0 .9522.0879c.3223.0586.5859.1368.791.2344l.1758 1.6992h-.9375l-.3223-1.04c-.0976-.0586-.2197-.1025-.3662-.1318-.1367-.0391-.2685-.0586-.3955-.0586-.293 0-.5322.0634-.7178.1904-.1758.1269-.2636.2978-.2636.5127q0 .3516.3222.5859c.2149.1563.6055.3516 1.1719.586.6445.2636 1.1035.5468 1.3769.8496.2735.2929.4102.6592.4102 1.0986 0 .6152-.2686 1.1133-.8057 1.4941-.5371.3711-1.2353.5567-2.0947.5567m7.207 0c-.6835 0-1.2841-.1367-1.8017-.4102-.5176-.2832-.9229-.6689-1.2158-1.1572q-.4395-.747-.4395-1.6992c0-.7227.166-1.3379.4981-1.8457.332-.5078.7666-.8936 1.3037-1.1572.5371-.2637 1.1084-.3956 1.7138-.3956.6446 0 1.211.1368 1.6993.4102.498.2734.8837.6592 1.1572 1.1572.2832.4883.4248 1.0498.4248 1.6846 0 .6445-.1514 1.2256-.4541 1.7432-.293.5078-.6934.9131-1.2012 1.2158s-1.0693.4541-1.6846.4541m.1465-.9375c.2442 0 .4492-.0781.6153-.2344.1757-.1562.3076-.3857.3955-.6885.0976-.3027.1465-.664.1465-1.0839 0-.8399-.1368-1.5235-.4102-2.0508-.2637-.5274-.6201-.791-1.0693-.791-.3711 0-.6641.1904-.8789.5712-.2149.3711-.3223.8789-.3223 1.5235 0 .5176.0635.9863.1904 1.4062.1367.42.3174.752.542.9961.2344.2344.4981.3516.791.3516M46.3623 97l-.0439-.6738.9082-.2491c.0097-.039.0195-.1269.0293-.2636.0097-.1367.0195-.3076.0293-.5127.0097-.2149.0146-.4444.0146-.6885l.0147-1.1133c0-.3027-.0098-.5664-.0293-.791-.0196-.2246-.0538-.459-.1026-.7031l-.9375-.2051v-.6592l2.5781-.6592.3956.2491-.0879.8642.0439.0147c.3027-.3906.6348-.6787.9961-.8643.3711-.1953.7617-.293 1.1719-.293.4199 0 .791.1026 1.1133.3077.332.205.5957.5078.791.9082.1953.3906.2929.8642.2929 1.4209v1.5088q0 .498.0147.9375c.0098.2832.0293.4638.0586.5419l.9082.2491-.044.6738h-3.6767l-.044-.6738.835-.2491c.0195-.0878.0342-.2099.0439-.3662.0098-.166.0147-.3466.0147-.542.0098-.1953.0146-.3808.0146-.5566v-1.2305c0-.3711-.0586-.6689-.1757-.8935-.1075-.2344-.2539-.4053-.4395-.5127-.1758-.1074-.3809-.1611-.6152-.1611q-.3663 0-.6885.1611c-.2051.1074-.3906.2637-.5566.4687v2.1534c0 .332.0048.6445.0146.9375.0195.2832.0391.4638.0586.5419l.8935.2491-.0439.6738zm11.8359 0-.0439-.7324.8643-.2344c.0293-.0391.0488-.1562.0585-.3516.0098-.1953.0196-.4492.0293-.7617.0098-.3222.0147-.6787.0147-1.0693l.0146-2.3584c0-.3809-.0048-.7276-.0146-1.0401s-.0195-.5664-.0293-.7617c-.0098-.205-.0293-.3271-.0586-.3662l-.9228-.1904.0439-.7324h3.7061c1.2011 0 2.0996.2197 2.6953.6591.5957.4297.8935 1.0499.8935 1.8604q0 .80565-.4248 1.4502c-.2832.4297-.6933.7715-1.2305 1.0254-.5273.2441-1.1669.3662-1.9189.3662-.166 0-.332-.0098-.498-.0293-.1661-.0195-.3272-.0439-.4834-.0732v-1.0108c.1171.0488.2539.0928.4101.1318.166.0293.3565.044.5713.044.4688 0 .8301-.1465 1.084-.4395.2539-.2929.3808-.7177.3808-1.2744 0-.6543-.1611-1.1328-.4834-1.4355-.3222-.3028-.7666-.4541-1.333-.4541h-.3955c0 .0683-.0049.2002-.0146.3955 0 .1855-.0049.4346-.0147.7471v1.1279l.0147 2.3584c0 .3906.0049.7471.0146 1.0693.0098.3125.0196.5664.0293.7617.0196.1856.0342.3028.044.3516l1.1865.2051-.0439.7617zm7.9981 0-.044-.6738.9082-.2491c.0098-.039.0196-.1269.0293-.2636.0098-.1465.0196-.3223.0293-.5274q.0147-.3222.0147-.6738l.0146-1.0986c0-.293-.0097-.5518-.0293-.7764-.0195-.2344-.0537-.4785-.1025-.7324l-.9375-.2051v-.6592l2.5342-.6592.3808.2491-.0586 1.1572.044.0146c.2832-.5468.5664-.9179.8496-1.1132.293-.1953.5908-.293.8936-.293.2636 0 .4931.0732.6884.2197.2051.1465.3077.376.3077.6885s-.1075.5566-.3223.7324c-.2149.1758-.4639.2637-.7471.2637-.2344 0-.4443-.0391-.6299-.1172-.1855-.0879-.3906-.2393-.6152-.4541l.4102.0439c-.1465.1075-.2881.2442-.4249.4102-.1367.166-.2539.3564-.3515.5713l.0146 1.1572c.0098.3613.0147.6885.0147.9815.0097.2832.0195.5224.0293.7177.0097.1856.0195.3077.0293.3662l1.2744.2198-.044.7031zm9.2725.1172c-.6836 0-1.2842-.1367-1.8018-.4102-.5176-.2832-.9229-.6689-1.2158-1.1572q-.4395-.747-.4395-1.6992c0-.7227.166-1.3379.4981-1.8457.332-.5078.7666-.8936 1.3037-1.1572.5371-.2637 1.1084-.3956 1.7138-.3956.6446 0 1.211.1368 1.6993.4102.498.2734.8838.6592 1.1572 1.1572.2832.4883.4248 1.0498.4248 1.6846 0 .6445-.1514 1.2256-.4541 1.7432-.293.5078-.6934.9131-1.2012 1.2158s-1.0693.4541-1.6845.4541m.1464-.9375c.2442 0 .4493-.0781.6153-.2344.1757-.1562.3076-.3857.3955-.6885.0976-.3027.1465-.664.1465-1.0839 0-.8399-.1368-1.5235-.4102-2.0508-.2637-.5274-.6201-.791-1.0693-.791-.3711 0-.6641.1904-.8789.5712-.2149.3711-.3223.8789-.3223 1.5235 0 .5176.0635.9863.1904 1.4062.1367.42.3174.752.542.9961.2344.2344.4981.3516.791.3516M82.5293 97l-.0293-.542.9814-.2051c.0098-.039.0147-.1074.0147-.205.0098-.0977.0195-.254.0293-.4688s.0146-.5127.0146-.8936v-.9667c0-.4004-.0097-.7667-.0293-1.0987-.0195-.332-.0439-.5908-.0732-.7763l-.9814-.2051v-.4834l2.08-.542.2198.2051c-.0293.3027-.0538.6005-.0733.8935-.0097.293-.0146.6348-.0146 1.0254v1.8457c0 .4492.0049.8203.0146 1.1133.0195.293.0391.4785.0586.5566l.9815.2051-.0293.542zm1.582-8.042c-.2441 0-.459-.083-.6445-.249-.1758-.166-.2637-.3711-.2637-.6152q0-.3663.2637-.6153c.1855-.166.4004-.249.6445-.249.2539 0 .4639.083.6299.249q.249.249.249.6153c0 .2441-.083.4492-.249.6152s-.376.249-.6299.249m4.8194 8.1592c-.3614 0-.7227-.0391-1.084-.1172-.3613-.0879-.669-.2002-.9229-.3369l-.0732-1.5674h.7178l.2929 1.0547c.3418.2344.7325.3516 1.1719.3516.332 0 .6006-.0782.8057-.2344.205-.166.3076-.3858.3076-.6592 0-.2539-.0928-.4736-.2783-.6592-.1856-.1953-.5469-.4053-1.084-.6299-.6934-.3027-1.1817-.5908-1.4649-.8642-.2832-.2832-.4248-.6446-.4248-1.084 0-.3516.1026-.6592.3076-.9229.2149-.2734.5079-.4834.879-.6298.371-.1563.8007-.2344 1.289-.2344.2735 0 .5518.0244.835.0732.2832.0489.5176.1123.7031.1905l.1611 1.5234h-.6884l-.3516-.9961c-.0977-.0586-.2148-.1025-.3516-.1318-.1367-.0391-.2832-.0586-.4394-.0586-.3418 0-.6153.083-.8203.249-.2051.1562-.3076.3613-.3076.6152 0 .293.1123.5323.3369.7178.2246.1758.6201.3955 1.1865.6592.6445.293 1.0937.581 1.3476.8642.254.2832.3809.625.3809 1.0254 0 .5274-.2295.9619-.6885 1.3037-.459.3321-1.04.4981-1.7431.4981m6.2548 3.1058-.0293-.5277.9083-.2197v-.2637c.0097-.1172.0195-.2734.0293-.4687.0097-.1953.0146-.4297.0146-.7032.0098-.2734.0146-.5908.0146-.9521l.0293-3.6182c0-.2929-.0146-.5908-.0439-.8935-.0195-.3028-.0439-.5469-.0732-.7324l-.9375-.2051v-.4834l1.9628-.542.2491.2344-.0733.8056h.044c.2734-.3515.5713-.6152.8935-.791.3321-.1855.6885-.2783 1.0694-.2783.5371 0 1.0108.1367 1.4208.4101.42.2637.747.6299.982 1.0987.244.459.366.9912.366 1.5967 0 .6445-.147 1.2255-.44 1.7431s-.693.9278-1.201 1.2305c-.498.293-1.0644.4394-1.6991.4394-.2344 0-.4785-.0244-.7324-.0732-.254-.0488-.4786-.1074-.6739-.1758v1.0986q0 .55665.0147.9375c.0195.2637.0342.459.0439.586l1.2012.1904-.0293.557zm3.5303-3.8382q.5859 0 1.0254-.2784c.3028-.1855.5368-.4589.7028-.8203.176-.3613.269-.8007.279-1.3183.009-.4688-.069-.8838-.235-1.2451-.156-.3614-.381-.6446-.6735-.8497-.2833-.2148-.6104-.3222-.9815-.3222-.3027 0-.5859.0732-.8496.2197-.2637.1367-.5029.3418-.7178.6152v3.545c.1953.1464.4199.2588.6739.3369.2539.0781.5126.1172.7763.1172m6.7822.7324c-.391 0-.737-.0781-1.04-.2344-.303-.1562-.542-.3564-.718-.6006q-.249-.36615-.249-.7617c0-.332.108-.6055.322-.8203.215-.2148.567-.4004 1.055-.5566l2.227-.7471v-.7471c0-.2441-.074-.4639-.22-.6592-.146-.205-.342-.3662-.586-.4834s-.518-.1757-.82-.1757q-.366 0-.498.1611c-.088.0976-.142.2978-.161.6006l-.03.6152c-.351.0781-.649.0684-.893-.0293q-.366-.1611-.366-.5127c0-.166.068-.332.205-.498.146-.166.336-.3223.571-.4688.234-.1562.488-.2881.762-.3955.273-.1074.542-.1807.805-.2197.723 0 1.299.1904 1.729.5713.439.3808.664.8789.674 1.4941l-.03 2.461c0 .1855.005.3662.015.5419.019.1758.044.3077.073.3956l.938.1757v.4541l-.718.2637c-.137.0488-.264.0879-.381.1172-.117.0391-.215.0586-.293.0586-.303 0-.498-.1709-.586-.5127l-.161-.5713h.22c-.323.3613-.635.6348-.938.8203-.293.1758-.595.2637-.908.2637m.396-.8643c.224 0 .434-.0488.629-.1465.196-.1074.386-.2685.572-.4834v-1.538l-1.641.4394c-.234.0586-.405.1514-.513.2783-.097.127-.146.2881-.146.4834 0 .2442.107.4688.322.6739.225.1953.484.2929.777.2929m4.072.7471-.029-.542.981-.2051c.01-.039.015-.1074.015-.205.009-.0977.019-.254.029-.4688s.015-.5127.015-.8936v-.9667c0-.4004-.01-.7667-.03-1.0987-.019-.332-.044-.5908-.073-.7763l-.981-.2051v-.4834l2.08-.542.219.2051c-.029.3027-.053.6005-.073.8935q-.015.4395-.015 1.0254v1.8457q0 .6738.015 1.1133c.02.293.039.4785.059.5566l.981.2051-.029.542zm1.582-8.042q-.366 0-.645-.249c-.175-.166-.263-.3711-.263-.6152 0-.2442.088-.4493.263-.6153q.279-.249.645-.249.381 0 .63.249t.249.6153c0 .2441-.083.4492-.249.6152q-.249.249-.63.249M113.979 97l-.043-.5273.908-.2198c.01-.0488.019-.1367.029-.2636q.015-.1905.015-.5127c.009-.2149.014-.4786.014-.7911l.015-1.1425c0-.3223-.015-.6397-.044-.9522-.019-.3125-.044-.5615-.073-.747l-.938-.2051v-.4834l1.963-.542.205.2051-.058 1.2304.044.0147c.293-.5664.59-.9473.893-1.1426.303-.2051.586-.3076.85-.3076.224 0 .41.0586.556.1758.157.1074.235.2734.235.498 0 .2344-.083.415-.249.542-.156.1172-.357.1758-.601.1758-.176 0-.346-.0391-.512-.1172-.157-.0781-.308-.1856-.455-.3223l.264.0879c-.185.1172-.361.2832-.527.4981-.166.205-.318.4638-.454.7763l.014 1.3623c.01.2442.02.4981.03.7618.009.2636.019.5029.029.7177.01.2051.019.3662.029.4834l1.275.1905-.03.5566zm8.16.1172c-.567 0-1.079-.127-1.538-.3809-.45-.2539-.811-.6152-1.084-1.084q-.396-.71775-.396-1.6845c0-.6934.142-1.294.425-1.8018s.654-.8984 1.113-1.1719c.459-.2832.952-.4199 1.48-.4101.761.0098 1.357.2637 1.787.7617.429.4981.644 1.2012.644 2.1094v.2637h-4.497v-.6446h3.531l-.162.1904v-.3076c0-.5664-.127-1.0009-.38-1.3037-.254-.3027-.601-.4541-1.041-.4541-.273 0-.537.083-.791.249-.253.1563-.459.4004-.615.7325-.156.3222-.234.7324-.234 1.2304v.1758c0 .8008.195 1.4258.586 1.875.4.4492.913.6738 1.538.6738.342 0 .649-.0683.923-.205.273-.1368.537-.3565.791-.6592l.366.3369c-.273.5078-.62.8887-1.04 1.1426-.42.2441-.889.3662-1.406.3662m8.569.0439-.22-.1904.015-.9521-.044-.0147c-.293.4102-.596.6982-.908.8643-.303.166-.625.249-.967.249-.557 0-1.055-.127-1.494-.3809-.43-.2636-.772-.625-1.026-1.084-.253-.4589-.38-.9863-.38-1.582 0-.5176.087-.9912.263-1.4209s.415-.7959.718-1.0986c.313-.3125.664-.5518 1.055-.7178.39-.166.796-.249 1.216-.249.273 0 .551.0342.835.1025.283.0684.522.1758.717.3223 0-.1758-.005-.4053-.014-.6885 0-.2832-.005-.5762-.015-.8789 0-.3125-.005-.5859-.015-.8203 0-.2441-.005-.4102-.014-.4981l-1.143-.205-.029-.4834 2.153-.6006.264.2051c-.02.6054-.034 1.1914-.044 1.7578q-.015.8496-.015 1.7724l-.014 3.3692c0 .498.009.9277.029 1.289.029.3516.049.6006.058.7471l.938.2344v.4834zm-1.758-1.0254c.283 0 .547-.0586.791-.1757.244-.127.493-.3467.747-.6592v-3.1494c-.185-.3321-.42-.5664-.703-.7032-.283-.1367-.566-.205-.849-.205-.616 0-1.099.2295-1.451.6884-.341.4493-.512 1.0352-.512 1.7579 0 .7714.19 1.372.571 1.8017.391.4297.859.6445 1.406.6445m14.238.9229-2.241-5.6104-.747-.2197.029-.5273h2.696l.029.5273-.762.2197 1.7 4.4532-.367.0146 1.744-4.4678-.762-.2197.029-.5273h2.271l.029.5273-.689.2197-2.504 5.6104zm-4.262 0-2.373-5.6104-.689-.2197.03-.5273h2.71l.029.5273-.747.2197 1.816 4.4532-.439.0146 1.933-4.5996.396.9082-2.212 4.834zM147.261 97l-.03-.542.982-.2051c.01-.039.015-.1074.015-.205.009-.0977.019-.254.029-.4688s.014-.5127.014-.8936v-.9667c0-.4004-.009-.7667-.029-1.0987-.019-.332-.044-.5908-.073-.7763l-.981-.2051v-.4834l2.08-.542.219.2051c-.029.3027-.053.6005-.073.8935q-.015.4395-.015 1.0254v1.8457q0 .6738.015 1.1133c.02.293.039.4785.059.5566l.981.2051-.029.542zm1.582-8.042q-.366 0-.645-.249c-.176-.166-.263-.3711-.263-.6152 0-.2442.087-.4493.263-.6153q.279-.249.645-.249.381 0 .63.249t.249.6153c0 .2441-.083.4492-.249.6152q-.249.249-.63.249m7.002 7.1338q-.279.48345-.762.7617-.483.2637-1.011.2637c-.595 0-1.084-.1807-1.465-.542-.38-.3613-.571-.9033-.571-1.626l.044-3.501h-1.025v-.3076l1.889-1.7138h.279l-.03 1.6845-.014 3.6035c0 .5079.107.8838.322 1.128.225.2441.537.3662.937.3662.225 0 .43-.044.616-.1319.195-.0878.371-.205.527-.3515zm-3.179-4.6436v-.7324h2.739v.7324zM156.211 97l-.029-.5273.908-.2198c.019-.1074.034-.2685.044-.4834.01-.2246.014-.5224.014-.8935q.015-.55665.015-1.3623v-1.8311c0-.332-.005-.6885-.015-1.0693 0-.3809-.004-.7471-.014-1.0987q0-.54195-.015-.9375c0-.2636-.005-.4394-.015-.5273l-1.083-.1465-.03-.4687 2.066-.6006.278.2051c-.01.3027-.02.6054-.029.9082-.01.3027-.02.6298-.03.9814 0 .3418-.005.7324-.014 1.1719v1.5234l.044.0147c.341-.3711.673-.6397.996-.8057.332-.166.693-.249 1.084-.249.361 0 .698.0928 1.01.2783q.4845.2784.777.8496c.205.3711.307.8496.307 1.4356v1.582c0 .3516.01.6689.03.9521.019.2735.039.4639.058.5713l.909.2198-.03.5273h-2.944l-.044-.5273.85-.2198c.009-.0781.019-.1758.029-.2929q.015-.1758.015-.4395c.009-.1855.014-.415.014-.6885V93.25c0-.4199-.073-.7568-.22-1.0107-.136-.2637-.317-.4541-.542-.5713q-.336-.1905-.717-.1905c-.313 0-.611.083-.894.2491-.283.1562-.522.3759-.718.6591v2.1973q0 .6738.015 1.1133c.02.293.039.4785.059.5566l.893.2198-.029.5273zM2.87109 117.117q-.58593 0-1.04004-.234c-.30273-.156-.54199-.357-.71777-.601-.16601-.244-.24902-.498-.24902-.761 0-.333.10742-.606.32226-.821.21485-.215.56641-.4 1.05469-.556l2.22656-.748v-.747c0-.244-.07324-.463-.21972-.659q-.21973-.3075-.58594-.483c-.24414-.117-.51758-.176-.82031-.176-.24414 0-.41016.054-.49805.161-.08789.098-.1416.298-.16113.601l-.0293.615c-.35156.078-.64941.068-.89355-.029q-.36622-.162-.36622-.513 0-.249.20508-.498c.14649-.166.33692-.322.57129-.469.23438-.156.48828-.288.76172-.395.27344-.108.54199-.181.80566-.22.72266 0 1.29883.19 1.72852.571q.65917.5715.67383 1.494l-.0293 2.461c0 .186.00488.367.01465.542q.0293.264.07324.396l.9375.176v.454l-.71777.263c-.13672.049-.26367.088-.38086.118-.11719.039-.21484.058-.29297.058q-.4541 0-.58594-.513l-.16113-.571h.21973c-.32227.362-.63477.635-.9375.821-.29297.175-.59571.263-.90821.263m.39551-.864q.33691 0 .62988-.147.29298-.1605.57129-.483v-1.538l-1.64062.439q-.35156.0885-.5127.279-.14648.1905-.14648.483c0 .244.10742.469.32226.674.22461.195.4834.293.77637.293m9.3604.864c-.3614 0-.7227-.039-1.084-.117-.3614-.088-.669-.2-.9229-.337l-.0732-1.567h.7177l.293 1.054c.3418.235.7324.352 1.1719.352.332 0 .6006-.078.8057-.234.205-.166.3076-.386.3076-.66 0-.254-.0928-.473-.2783-.659-.1856-.195-.5469-.405-1.084-.63q-1.0401-.453-1.4649-.864c-.2832-.283-.4248-.644-.4248-1.084 0-.351.1026-.659.3076-.923.2149-.273.5078-.483.8789-.63q.55665-.234 1.2891-.234c.2734 0 .5518.024.835.073s.5175.113.7031.191l.1611 1.523h-.6885l-.3515-.996q-.14655-.0885-.3516-.132c-.1367-.039-.2832-.058-.4394-.058-.3418 0-.6153.083-.8203.249-.2051.156-.3077.361-.3077.615 0 .293.1123.532.337.718.2246.175.6201.395 1.1865.659q.96675.4395 1.3476.864c.2539.283.3809.625.3809 1.025 0 .528-.2295.962-.6885 1.304-.459.332-1.04.498-1.7431.498m8.0712-1.025q-.27825.483-.7617.762c-.3222.175-.6592.263-1.0107.263-.5957 0-1.084-.18-1.4649-.542-.3808-.361-.5713-.903-.5713-1.626l.044-3.501h-1.0254v-.307l1.8897-1.714h.2783l-.0293 1.684-.0147 3.604c0 .508.1074.884.3223 1.128q.3369.366.9375.366c.2246 0 .4297-.044.6152-.132q.29295-.132.5274-.351zm-3.1787-4.644v-.732h2.7393v.732zM21.0938 117l-.044-.527.9082-.22c.0098-.049.0195-.137.0293-.264s.0147-.298.0147-.512c.0097-.215.0146-.479.0146-.791l.0146-1.143c0-.322-.0146-.64-.0439-.952q-.02925-.4695-.0732-.747l-.9375-.205v-.484l1.9629-.542.205.205-.0586 1.231.044.014c.293-.566.5908-.947.8935-1.142.3028-.205.586-.308.8496-.308.2247 0 .4102.059.5567.176.1562.107.2344.273.2344.498 0 .234-.083.415-.2491.542-.1562.117-.3564.176-.6005.176q-.2637 0-.5127-.117c-.1563-.078-.3077-.186-.4541-.323l.2636.088c-.1855.118-.3613.284-.5273.498-.166.205-.3174.464-.4541.777l.0146 1.362c.0098.244.0196.498.0293.762.0098.263.0196.503.0293.718.0098.205.0196.366.0293.483l1.2744.19-.0293.557zm7.4267.117c-.3906 0-.7373-.078-1.04-.234-.3028-.156-.542-.357-.7178-.601-.166-.244-.249-.498-.249-.761 0-.333.1074-.606.3222-.821.2149-.215.5664-.4 1.0547-.556l2.2266-.748v-.747c0-.244-.0733-.463-.2197-.659-.1465-.205-.3418-.366-.586-.483-.2441-.117-.5176-.176-.8203-.176-.2441 0-.4101.054-.498.161-.0879.098-.1416.298-.1612.601l-.0293.615c-.3515.078-.6494.068-.8935-.029-.2442-.108-.3662-.279-.3662-.513 0-.166.0683-.332.205-.498.1465-.166.337-.322.5713-.469.2344-.156.4883-.288.7618-.395.2734-.108.5419-.181.8056-.22.7227 0 1.2988.19 1.7285.571.4395.381.6641.879.6739 1.494l-.0293 2.461c0 .186.0048.367.0146.542.0195.176.044.308.0733.396l.9375.176v.454l-.7178.263c-.1367.049-.2637.088-.3809.118-.1172.039-.2148.058-.2929.058-.3028 0-.4981-.171-.586-.513l-.1611-.571h.2197c-.3223.362-.6348.635-.9375.821-.293.175-.5957.263-.9082.263m.3955-.864c.2246 0 .4346-.049.6299-.147.1953-.107.3857-.268.5713-.483v-1.538l-1.6406.439q-.3516.0885-.5127.279c-.0977.127-.1465.288-.1465.483 0 .244.1074.469.3222.674.2247.195.4834.293.7764.293m4.0723.747-.0293-.542.9814-.205c.0098-.039.0147-.107.0147-.205.0097-.098.0195-.254.0293-.469.0097-.215.0146-.513.0146-.893v-.967c0-.401-.0097-.767-.0293-1.099-.0195-.332-.0439-.591-.0732-.776l-.9815-.205v-.484l2.0801-.542.2197.205q-.04395.4545-.0732.894c-.0098.293-.0146.635-.0146 1.025v1.846c0 .449.0048.82.0146 1.113.0195.293.0391.479.0586.557l.9814.205-.0293.542zm1.582-8.042c-.2441 0-.459-.083-.6445-.249q-.2637-.249-.2637-.615t.2637-.615c.1855-.167.4004-.25.6445-.25.2539 0 .4639.083.6299.25q.249.249.249.615t-.249.615c-.166.166-.376.249-.6299.249m5.3613 11.382c-.8984 0-1.6113-.147-2.1386-.44-.5274-.293-.791-.683-.791-1.171 0-.333.1318-.64.3955-.923.2636-.284.6884-.572 1.2744-.865l.5566.118c-.3223.185-.5713.4-.7471.644-.1757.254-.2636.523-.2636.806 0 .39.1562.693.4687.908.3223.215.7569.322 1.3037.322.6348 0 1.1475-.136 1.5381-.41.3906-.273.586-.625.586-1.055q0-.498-.3663-.747c-.2343-.156-.625-.254-1.1718-.293l-1.5674-.131-.2197-.059c-.3614 0-.669-.093-.9229-.278-.2441-.196-.3662-.43-.3662-.704 0-.263.127-.522.3809-.776s.6054-.478 1.0546-.674l.1905.293c-.1856.127-.3223.244-.4102.352-.0879.097-.1318.195-.1318.293q0 .2055.1758.351c.1269.098.3027.157.5273.176l1.8897.191c.6738.068 1.1865.239 1.538.512.3516.274.5274.664.5274 1.172 0 .449-.1465.855-.4395 1.216-.2929.361-.6884.644-1.1865.85-.498.214-1.0596.322-1.6846.322m.1172-5.156c-.5176 0-.9814-.093-1.3916-.279-.4004-.185-.7129-.439-.9375-.761q-.3369-.498-.3369-1.128c0-.459.1172-.87.3516-1.231.2344-.371.5517-.659.9521-.864.4004-.215.8496-.322 1.3477-.322.498 0 .9424.097 1.333.293.4004.195.7129.468.9375.82.2246.342.3369.732.3369 1.172 0 .429-.1172.82-.3516 1.172-.2246.351-.5322.63-.9228.835-.3906.195-.8301.293-1.3184.293m.0733-.586c.4004 0 .7177-.147.9521-.44s.3516-.683.3516-1.172c0-.547-.1319-.986-.3955-1.318-.2539-.332-.5908-.498-1.0108-.498-.4004 0-.7275.156-.9814.469-.2539.312-.3809.717-.3809 1.215 0 .518.1319.938.3955 1.26.2735.323.6299.484 1.0694.484m3.3984-2.945-1.7432-.117-.5712-.586 2.3144-.234zm.7031 5.347-.0293-.527.9082-.22c.0196-.107.0342-.269.044-.483.0097-.225.0146-.523.0146-.894q.0147-.5565.0147-1.362v-1.831c0-.332-.0049-.689-.0147-1.07 0-.381-.0049-.747-.0146-1.098 0-.362-.0049-.674-.0147-.938 0-.264-.0048-.439-.0146-.527l-1.084-.147-.0293-.468 2.0654-.601.2784.205c-.0098.303-.0196.606-.0293.908-.0098.303-.0196.63-.0293.982 0 .342-.0049.732-.0147 1.172v1.523l.044.015c.3418-.371.6738-.64.9961-.806q.498-.249 1.0839-.249c.3614 0 .6983.093 1.0108.278.3222.186.581.469.7763.85.2051.371.3077.85.3077 1.435v1.582c0 .352.0097.669.0293.953.0195.273.039.464.0586.571l.9082.22-.0293.527h-2.9444l-.0439-.527.8496-.22c.0098-.078.0195-.176.0293-.293s.0146-.264.0146-.439c.0098-.186.0147-.416.0147-.689v-1.582c0-.42-.0733-.757-.2197-1.011-.1368-.263-.3174-.454-.542-.571-.2246-.127-.4639-.19-.7178-.19-.3125 0-.6104.083-.8936.249-.2832.156-.5224.376-.7177.659v2.197c0 .449.0048.82.0146 1.113.0195.293.0391.479.0586.557l.8936.22-.0293.527zm12.6563-.908q-.2784.483-.7617.762c-.3223.175-.6592.263-1.0108.263-.5957 0-1.084-.18-1.4648-.542-.3809-.361-.5713-.903-.5713-1.626l.0439-3.501h-1.0254v-.307l1.8897-1.714h.2783l-.0293 1.684-.0146 3.604q0 .762.3222 1.128.3369.366.9375.366.3369 0 .6153-.132c.1953-.088.3711-.205.5273-.351zm-3.1787-4.644v-.732h2.7392v.732zM60.542 117h-3.2373l-.044-.527.9082-.22c.0098-.098.0147-.2.0147-.308.0098-.117.0146-.254.0146-.41V114.1l-.0146-2.637v-1.67c0-.625.0976-1.162.293-1.611.1953-.45.4687-.796.8203-1.04.3515-.245.7617-.367 1.2304-.367.4004 0 .7325.088.9961.264.2637.176.3955.391.3955.645 0 .136-.0488.249-.1464.337-.0879.078-.2002.117-.337.117-.2441 0-.4736-.108-.6884-.323l-.6739-.644.3516.088c-.3613 0-.6396.185-.835.556-.1953.372-.2929.894-.2929 1.568v1.347l.0146.733.0147 2.519c0 .42.0049.845.0146 1.275.0098.43.0196.762.0293.996l1.2012.19zm-3.4131-5.537v-.484l1.0547-.249h2.7393v.733zm7.793 5.654c-.6348 0-1.1914-.137-1.6699-.41-.4688-.273-.835-.654-1.0987-1.143-.2637-.498-.3955-1.064-.3955-1.699q0-.996.4395-1.728c.2929-.489.6836-.869 1.1718-1.143.4883-.273 1.0254-.41 1.6114-.41.6054 0 1.1328.137 1.582.41.459.264.8105.64 1.0547 1.128.2539.479.3808 1.04.3808 1.685 0 .615-.1367 1.172-.4101 1.67s-.6445.898-1.1133 1.201c-.459.293-.9766.439-1.5527.439m.1465-.688c.332 0 .6201-.098.8642-.293.2442-.205.4346-.484.5713-.835.1367-.362.2051-.772.2051-1.231 0-.84-.1758-1.518-.5274-2.036-.3418-.527-.7959-.791-1.3623-.791-.5273 0-.9521.22-1.2744.659-.3125.44-.4687 1.021-.4687 1.744 0 .546.083 1.03.249 1.45.1758.42.415.747.7178.981.3027.235.6445.352 1.0254.352m4.0136.571-.0439-.527.9082-.22c.0098-.049.0195-.137.0293-.264s.0146-.298.0146-.512c.0098-.215.0147-.479.0147-.791l.0146-1.143c0-.322-.0146-.64-.0439-.952-.0195-.313-.044-.562-.0733-.747l-.9375-.205v-.484l1.9629-.542.2051.205-.0586 1.231.044.014c.2929-.566.5908-.947.8935-1.142.3028-.205.586-.308.8496-.308.2246 0 .4102.059.5567.176q.2343.1605.2343.498c0 .234-.083.415-.249.542-.1562.117-.3564.176-.6006.176q-.26355 0-.5127-.117c-.1562-.078-.3076-.186-.4541-.323l.2637.088c-.1855.118-.3613.284-.5273.498-.1661.205-.3174.464-.4541.777l.0146 1.362c.0098.244.0195.498.0293.762.0098.263.0195.503.0293.718.0098.205.0195.366.0293.483l1.2744.19-.0293.557zm12.2608.059-2.2412-5.611-.7471-.219.0293-.528h2.6953l.0293.528-.7617.219 1.6992 4.453-.3662.015 1.7432-4.468-.7618-.219.0293-.528h2.2705l.0293.528-.6884.219-2.5049 5.611zm-4.2627 0-2.3731-5.611-.6884-.219.0293-.528h2.7099l.0293.528-.7471.219 1.8164 4.453-.4394.015 1.9336-4.6.3955.909-2.2119 4.834zm10.6787.058c-.3906 0-.7373-.078-1.04-.234-.3028-.156-.542-.357-.7178-.601-.166-.244-.249-.498-.249-.761 0-.333.1074-.606.3222-.821.2149-.215.5664-.4 1.0547-.556l2.2266-.748v-.747c0-.244-.0733-.463-.2198-.659-.1464-.205-.3418-.366-.5859-.483s-.5176-.176-.8203-.176c-.2441 0-.4102.054-.4981.161-.0878.098-.1416.298-.1611.601l-.0293.615c-.3515.078-.6494.068-.8935-.029q-.3663-.162-.3663-.513c0-.166.0684-.332.2051-.498.1465-.166.3369-.322.5713-.469.2344-.156.4883-.288.7617-.395.2735-.108.542-.181.8057-.22.7227 0 1.2988.19 1.7285.571q.65925.5715.6738 1.494l-.0293 2.461c0 .186.0049.367.0147.542q.02925.264.0732.396l.9375.176v.454l-.7177.263c-.1368.049-.2637.088-.3809.118-.1172.039-.2148.058-.293.058q-.45405 0-.5859-.513l-.1611-.571h.2197c-.3223.362-.6348.635-.9375.821-.293.175-.5957.263-.9082.263m.3955-.864c.2246 0 .4346-.049.6299-.147.1953-.107.3857-.268.5713-.483v-1.538l-1.6407.439q-.35145.0885-.5127.279-.1464.1905-.1464.483c0 .244.1074.469.3222.674.2246.195.4834.293.7764.293m4.1602.747-.044-.527.9082-.22c.0098-.049.0195-.137.0293-.264s.0147-.298.0147-.512c.0097-.215.0146-.479.0146-.791l.0147-1.143c0-.322-.0147-.64-.044-.952q-.02925-.4695-.0732-.747l-.9375-.205v-.484l1.9629-.542.205.205-.0586 1.231.044.014c.293-.566.5908-.947.8935-1.142.3028-.205.586-.308.8497-.308.2246 0 .4101.059.5566.176.1562.107.2344.273.2344.498 0 .234-.083.415-.2491.542-.1562.117-.3564.176-.6005.176q-.2637 0-.5127-.117c-.1563-.078-.3077-.186-.4541-.323l.2636.088c-.1855.118-.3613.284-.5273.498-.166.205-.3174.464-.4541.777l.0146 1.362c.0098.244.0196.498.0293.762.0098.263.0196.503.0293.718.0098.205.0196.366.0293.483l1.2744.19-.0293.557zm10.1365.161-.22-.19.015-.952-.044-.015c-.293.41-.596.698-.908.864-.303.166-.625.249-.967.249q-.83475 0-1.494-.381c-.4297-.263-.7715-.625-1.0254-1.084s-.3808-.986-.3808-1.582c0-.517.0878-.991.2636-1.421.1758-.429.4151-.795.7178-1.098.3125-.313.6641-.552 1.0547-.718s.7961-.249 1.2161-.249c.273 0 .551.034.835.103.283.068.522.175.717.322 0-.176-.004-.405-.014-.689q0-.4245-.015-.879c0-.312-.005-.586-.014-.82q0-.366-.015-.498l-1.143-.205-.029-.483 2.153-.601.264.205c-.02.606-.034 1.191-.044 1.758-.01.566-.015 1.157-.015 1.772l-.014 3.369c0 .499.009.928.029 1.29.029.351.049.6.059.747l.937.234v.483zm-1.758-1.025c.284 0 .547-.059.791-.176.245-.127.494-.347.747-.659v-3.15c-.185-.332-.419-.566-.703-.703-.283-.136-.566-.205-.849-.205-.616 0-1.0989.23-1.4505.689-.3418.449-.5127 1.035-.5127 1.757 0 .772.1904 1.373.5713 1.802.3906.43.8589.645 1.4059.645m7.574-7.735h3.545c1.542 0 2.744.371 3.603 1.114.869.732 1.304 1.762 1.304 3.09 0 .86-.2 1.622-.601 2.286-.4.654-.957 1.171-1.67 1.552-.713.371-1.533.557-2.461.557h-3.72l-.03-.557.894-.205c.019-.088.034-.337.044-.747.019-.41.029-.879.029-1.406v-2.754c0-.576-.01-1.064-.029-1.465-.01-.4-.025-.635-.044-.703l-.894-.205zm2.212.791c0 .088-.005.21-.015.367 0 .146-.005.361-.015.644v4.717c.01.254.02.483.03.688.019.205.034.376.043.513.313.039.591.073.835.103.254.019.498.029.733.029 1.035 0 1.821-.274 2.358-.82.537-.557.806-1.358.806-2.403 0-.634-.078-1.196-.234-1.684-.157-.498-.391-.913-.704-1.245q-.453-.498-1.128-.747c-.439-.176-.952-.264-1.538-.264-.175 0-.361.01-.556.029-.196.01-.401.034-.615.073m7.88-.791h2.535l3.076 7.017h-.264l3.018-7.017h2.373l.044.557-.909.19c-.009.137-.014.396-.014.777.01.371.019.771.029 1.201l.059 2.681c.009.488.019.898.029 1.23.01.322.019.581.029.776.01.196.02.342.03.44l.893.19-.029.557h-3.106l-.044-.557.894-.19c.01-.117.015-.254.015-.41v-.659c0-.284-.005-.669-.015-1.158l-.029-5.2h.381l-3.545 8.218h-.513l-3.633-8.232h.381l.015 4.98v1.772c.009.362.019.586.029.674l.996.205-.044.557h-2.871l-.044-.557.996-.205q.015-.102.015-.381c.01-.185.019-.429.029-.732.01-.313.015-.679.015-1.099l.044-2.9c.009-.43.009-.82 0-1.172v-.791l-.894-.205zm17.74 8.731c-.42 0-.86-.054-1.319-.161-.459-.108-.83-.244-1.113-.41l-.073-1.89.63-.059.41 1.304c.234.156.493.278.776.366.283.078.586.117.908.117.489 0 .874-.117 1.158-.351.293-.235.439-.552.439-.952 0-.342-.103-.625-.308-.85-.205-.234-.473-.434-.805-.6-.323-.167-.669-.333-1.04-.499-.362-.166-.708-.351-1.04-.556-.323-.215-.586-.474-.791-.777-.205-.312-.308-.698-.308-1.157q0-.717.396-1.245c.263-.361.629-.644 1.098-.85.479-.205 1.021-.307 1.626-.307.254 0 .498.015.733.044.244.019.468.054.673.102.205.049.391.113.557.191l.117 1.831-.63.058-.41-1.23c-.303-.195-.703-.293-1.201-.293s-.898.122-1.201.366c-.293.235-.44.552-.44.952 0 .352.103.645.308.879.215.235.483.44.806.616.332.175.678.346 1.04.512.371.166.717.352 1.04.557.332.205.6.459.805.762.215.293.323.659.323 1.098 0 .469-.137.889-.41 1.26-.264.361-.635.649-1.114.864-.478.205-1.025.308-1.64.308m6.591-.015c-.39 0-.737-.078-1.04-.234-.302-.156-.542-.357-.717-.601-.166-.244-.249-.498-.249-.761 0-.333.107-.606.322-.821s.566-.4 1.055-.556l2.226-.748v-.747c0-.244-.073-.463-.22-.659-.146-.205-.341-.366-.586-.483-.244-.117-.517-.176-.82-.176-.244 0-.41.054-.498.161-.088.098-.142.298-.161.601l-.029.615c-.352.078-.65.068-.894-.029q-.366-.162-.366-.513c0-.166.068-.332.205-.498.146-.166.337-.322.571-.469.235-.156.489-.288.762-.395.273-.108.542-.181.806-.22.722 0 1.298.19 1.728.571.44.381.664.879.674 1.494l-.029 2.461c0 .186.005.367.014.542.02.176.044.308.074.396l.937.176v.454l-.718.263c-.136.049-.263.088-.381.118-.117.039-.214.058-.293.058-.302 0-.498-.171-.585-.513l-.162-.571h.22c-.322.362-.635.635-.937.821-.293.175-.596.263-.909.263m.396-.864q.3375 0 .63-.147c.195-.107.386-.268.571-.483v-1.538l-1.641.439c-.234.059-.405.152-.512.279q-.147.1905-.147.483c0 .244.108.469.323.674.224.195.483.293.776.293m4.131.747-.029-.527.908-.22c.009-.068.014-.161.014-.278.01-.118.02-.279.03-.484.009-.205.014-.473.014-.805l.015-1.128c0-.323-.015-.64-.044-.953-.02-.322-.044-.576-.073-.761l-.938-.205v-.484l1.963-.542.249.235-.073.776.044.015c.342-.371.679-.64 1.011-.806s.693-.249 1.084-.249c.361 0 .698.093 1.01.278.323.176.581.45.777.821.205.371.307.844.307 1.421v1.625c0 .352.005.669.015.953.02.283.044.473.073.571l.908.22-.044.527h-2.944l-.029-.527.849-.22c.01-.078.02-.176.03-.293s.014-.264.014-.439c.01-.186.015-.416.015-.689v-1.582c0-.439-.078-.786-.234-1.04-.147-.264-.332-.449-.557-.557-.225-.117-.454-.175-.688-.175-.323 0-.625.083-.909.249-.273.156-.507.376-.703.659v2.197c0 .449.005.815.015 1.099.019.273.039.464.058.571l.909.22-.044.527zm10.473.117c-.361 0-.722-.039-1.084-.117-.361-.088-.668-.2-.922-.337l-.074-1.567h.718l.293 1.054c.342.235.733.352 1.172.352.332 0 .601-.078.806-.234.205-.166.307-.386.307-.66 0-.254-.093-.473-.278-.659-.186-.195-.547-.405-1.084-.63-.693-.302-1.182-.59-1.465-.864-.283-.283-.425-.644-.425-1.084 0-.351.103-.659.308-.923q.3225-.4095.879-.63c.371-.156.801-.234 1.289-.234.273 0 .552.024.835.073s.517.113.703.191l.161 1.523h-.688l-.352-.996q-.147-.0885-.351-.132c-.137-.039-.284-.058-.44-.058-.342 0-.615.083-.82.249-.205.156-.308.361-.308.615 0 .293.112.532.337.718.225.175.62.395 1.187.659q.966.4395 1.347.864c.254.283.381.625.381 1.025 0 .528-.229.962-.688 1.304-.459.332-1.04.498-1.744.498M3.75 137H.5127l-.04395-.527.9082-.22c.00977-.098.01465-.2.01465-.308.00977-.117.01465-.254.01465-.41V134.1l-.01465-2.637v-1.67q0-.9375.29297-1.611c.19531-.45.46875-.796.82031-1.04.35157-.245.76172-.367 1.23047-.367q.60058 0 .9961.264.3955.264.3955.645c0 .136-.04883.249-.14648.337q-.13184.117-.33692.117c-.24414 0-.47363-.108-.68847-.323l-.67383-.644.35156.088c-.36133 0-.63965.185-.83496.556-.19531.372-.29297.894-.29297 1.568v1.347l.01465.733.01465 2.519q0 .63.01465 1.275t.02929.996l1.20118.19zm-3.41309-5.537v-.484l1.05469-.249h2.73926v.733zm7.79297 5.654c-.63476 0-1.1914-.137-1.66992-.41q-.70312-.4095-1.09863-1.143c-.26367-.498-.39551-1.064-.39551-1.699q0-.996.43945-1.728c.29297-.489.6836-.869 1.17188-1.143.48828-.273 1.02539-.41 1.61133-.41.60547 0 1.13281.137 1.58203.41.45899.264.81059.64 1.05469 1.128.2539.479.3809 1.04.3809 1.685 0 .615-.1368 1.172-.4102 1.67s-.6445.898-1.11328 1.201c-.45899.293-.97657.439-1.55274.439m.14649-.688c.33203 0 .62011-.098.86425-.293.24415-.205.43458-.484.57129-.835.13672-.362.20508-.772.20508-1.231 0-.84-.17578-1.518-.52734-2.036-.3418-.527-.7959-.791-1.36231-.791-.52734 0-.95214.22-1.27441.659-.3125.44-.46875 1.021-.46875 1.744 0 .546.08301 1.03.24902 1.45q.26367.63.71778.981c.30273.235.64453.352 1.02539.352M12.29 137l-.0439-.527.9082-.22c.0098-.049.0195-.137.0293-.264s.0146-.298.0146-.512c.0098-.215.0147-.479.0147-.791l.0146-1.143c0-.322-.0146-.64-.0439-.952-.0195-.313-.044-.562-.0732-.747l-.9375-.205v-.484l1.9628-.542.2051.205-.0586 1.231.044.014c.2929-.566.5908-.947.8935-1.142.3028-.205.586-.308.8496-.308.2246 0 .4102.059.5567.176.1562.107.2344.273.2344.498 0 .234-.0831.415-.2491.542-.1562.117-.3564.176-.6006.176q-.26355 0-.5127-.117c-.1562-.078-.3076-.186-.4541-.323l.2637.088c-.1855.118-.3613.284-.5273.498-.166.205-.3174.464-.4541.777l.0146 1.362c.0098.244.0196.498.0293.762.0098.263.0195.503.0293.718.0098.205.0195.366.0293.483l1.2744.19-.0293.557zm11.2793.117c-.5468 0-1.0498-.122-1.5088-.366-.4589-.254-.8251-.615-1.0986-1.084-.2734-.479-.4101-1.045-.4101-1.699 0-.635.1416-1.206.4248-1.714.2929-.518.6884-.923 1.1865-1.216.5078-.303 1.0742-.454 1.6992-.454.4297 0 .791.054 1.084.161.293.108.5127.249.6592.425.1562.176.2343.361.2343.557 0 .156-.0488.288-.1464.395-.0977.098-.2344.147-.4102.147-.1562 0-.293-.03-.4102-.088-.1171-.059-.2587-.176-.4248-.352l-.747-.747.5273.147c-.3906-.088-.7666-.049-1.1279.117-.3613.156-.6592.434-.8936.835-.2343.39-.3515.898-.3515 1.523 0 .781.1953 1.382.5859 1.802.4004.42.8984.63 1.4941.63.3711 0 .6885-.069.9522-.205q.4101-.2055.7764-.66l.3955.337c-.2735.508-.6201.889-1.0401 1.143q-.62985.366-1.4502.366m2.9444-.117-.0293-.542.9521-.205c.0196-.098.0342-.259.044-.483.0097-.225.0146-.523.0146-.894q.0147-.5565.0147-1.362v-1.831q0-.5565-.0147-1.143c0-.391-.0049-.757-.0146-1.099 0-.351-.0049-.649-.0147-.893 0-.254-.0049-.42-.0146-.498l-1.084-.147-.0293-.468 2.0947-.601.2783.205c-.0097.41-.0195.82-.0293 1.231-.0097.41-.0195.864-.0293 1.362v1.802l-.0146 2.358c0 .576.0049 1.099.0146 1.567.0196.459.0391.757.0586.894l.9522.205-.0293.542zm6.4013.117c-.3906 0-.7373-.078-1.04-.234s-.542-.357-.7178-.601c-.166-.244-.249-.498-.249-.761 0-.333.1074-.606.3223-.821.2148-.215.5664-.4 1.0547-.556l2.2265-.748v-.747c0-.244-.0732-.463-.2197-.659q-.21975-.3075-.5859-.483c-.2442-.117-.5176-.176-.8204-.176-.2441 0-.4101.054-.498.161-.0879.098-.1416.298-.1611.601l-.0293.615c-.3516.078-.6494.068-.8936-.029-.2441-.108-.3662-.279-.3662-.513 0-.166.0684-.332.2051-.498.1465-.166.3369-.322.5713-.469.2343-.156.4882-.288.7617-.395.2734-.108.542-.181.8056-.22.7227 0 1.2989.19 1.7286.571q.6591.5715.6738 1.494l-.0293 2.461c0 .186.0049.367.0146.542.0196.176.044.308.0733.396l.9375.176v.454l-.7178.263c-.1367.049-.2637.088-.3808.118-.1172.039-.2149.058-.293.058-.3027 0-.4981-.171-.586-.513l-.1611-.571h.2197c-.3222.362-.6347.635-.9375.821-.2929.175-.5957.263-.9082.263m.3955-.864c.2247 0 .4346-.049.6299-.147.1953-.107.3858-.268.5713-.483v-1.538l-1.6406.439q-.3516.0885-.5127.279c-.0977.127-.1465.288-.1465.483 0 .244.1074.469.3223.674.2246.195.4834.293.7763.293m4.1602.747-.0439-.527.9082-.22c.0097-.049.0195-.137.0293-.264.0097-.127.0146-.298.0146-.512.0098-.215.0147-.479.0147-.791l.0146-1.143c0-.322-.0146-.64-.0439-.952-.0196-.313-.044-.562-.0733-.747l-.9375-.205v-.484l1.9629-.542.2051.205-.0586 1.231.0439.014c.293-.566.5909-.947.8936-1.142.3027-.205.5859-.308.8496-.308.2246 0 .4102.059.5566.176.1563.107.2344.273.2344.498 0 .234-.083.415-.249.542-.1563.117-.3565.176-.6006.176q-.2637 0-.5127-.117c-.1562-.078-.3076-.186-.4541-.323l.2637.088c-.1856.118-.3613.284-.5274.498-.166.205-.3173.464-.4541.777l.0147 1.362c.0097.244.0195.498.0293.762.0097.263.0195.503.0293.718.0097.205.0195.366.0293.483l1.2744.19-.0293.557zm5.2441 0-.0293-.542.9815-.205c.0098-.039.0146-.107.0146-.205.0098-.098.0196-.254.0293-.469.0098-.215.0147-.513.0147-.893v-.967c0-.401-.0098-.767-.0293-1.099s-.044-.591-.0733-.776l-.9814-.205v-.484l2.0801-.542.2197.205q-.04395.4545-.0732.894c-.0098.293-.0147.635-.0147 1.025v1.846q0 .6735.0147 1.113c.0195.293.039.479.0586.557l.9814.205-.0293.542zm1.5821-8.042c-.2442 0-.459-.083-.6446-.249-.1757-.166-.2636-.371-.2636-.615s.0879-.449.2636-.615c.1856-.167.4004-.25.6446-.25.2539 0 .4638.083.6299.25q.249.249.249.615t-.249.615c-.1661.166-.376.249-.6299.249m7.0019 7.134q-.27825.483-.7617.762c-.3223.175-.6592.263-1.0107.263-.5957 0-1.084-.18-1.4649-.542-.3808-.361-.5713-.903-.5713-1.626l.044-3.501h-1.0254v-.307l1.8896-1.714h.2784l-.0293 1.684-.0147 3.604c0 .508.1074.884.3223 1.128q.3369.366.9375.366c.2246 0 .4297-.044.6152-.132q.29295-.132.5274-.351zm-3.1787-4.644v-.732h2.7393v.732zm6.1963 5.611-2.5781-5.611-.6885-.219.044-.528h2.8417l.0293.528-.9082.219 1.9922 4.453zm3.75-6.358.044.528-.6885.219-2.4903 5.23-1.1718 2.431c-.2149.45-.4444.767-.6885.953-.2344.185-.5078.278-.8203.278-.2442 0-.4444-.059-.6006-.176-.1465-.117-.2197-.268-.2197-.454 0-.147.0586-.288.1757-.425.1172-.127.2979-.224.542-.293l1.3623-.41-.6738.732 1.626-3.134.1611-.264 1.9043-4.468-.9082-.219.0293-.528zm1.1572 6.445c-.2636 0-.4834-.083-.6591-.249-.1758-.175-.2637-.39-.2637-.644 0-.176.039-.327.1172-.454.0781-.137.1855-.244.3222-.322.1465-.079.3077-.118.4834-.118.2637 0 .4834.088.6592.264q.2637.249.2637.63c0 .254-.0879.469-.2637.644-.1758.166-.3955.249-.6592.249" style="fill:#000;fill-opacity:1"/>
  <path fill="#fff" d="M0 0h96v32H0z" style="fill:#fff;fill-opacity:1" transform="translate(187 62)"/>
  <g filter="url(#a)">
    <rect width="96" height="32" x="187" y="62" fill="#fff" rx="6" style="fill:#fff;fill-opacity:1"/>
    <path fill="#0c141c" d="M200.013 83v-9.8h4.018c.681 0 1.255.1073 1.722.322s.817.5133 1.05.896c.243.3733.364.8073.364 1.302s-.107.91-.322 1.246-.499.5973-.854.784c-.345.1773-.728.28-1.148.308l.224-.154c.448.0187.845.14 1.19.364.355.2147.63.504.826.868.205.364.308.7607.308 1.19q0 .78405-.378 1.386c-.252.4013-.616.7187-1.092.952-.476.224-1.059.336-1.75.336zm1.89-1.54h1.96c.513 0 .91-.1167 1.19-.35q.42-.34995.42-1.008c0-.4387-.145-.7793-.434-1.022-.289-.252-.691-.378-1.204-.378h-1.932zm0-4.172h1.82c.495 0 .868-.112 1.12-.336.261-.224.392-.5413.392-.952 0-.4013-.131-.714-.392-.938-.252-.2333-.63-.35-1.134-.35h-1.806zm9.474 5.88c-.569 0-1.059-.1167-1.47-.35q-.6015-.36405-.924-1.05c-.215-.4667-.322-1.0407-.322-1.722v-4.102h1.89v3.906c0 .5693.117.9987.35 1.288.243.2893.611.434 1.106.434q.4755 0 .84-.21c.243-.1493.434-.3593.574-.63.149-.28.224-.6207.224-1.022v-3.766h1.876V83h-1.652l-.154-1.148c-.205.4013-.509.7233-.91.966-.401.2333-.877.35-1.428.35m9.019-.168c-.495 0-.929-.0747-1.302-.224-.364-.1587-.649-.4153-.854-.77-.206-.364-.308-.8587-.308-1.484v-2.996h-1.204v-1.582h1.204l.21-1.918h1.68v1.918h1.862v1.582h-1.862v3.024c0 .3173.07.5367.21.658s.378.182.714.182h.924V83zm5.902 0c-.494 0-.928-.0747-1.302-.224-.364-.1587-.648-.4153-.854-.77-.205-.364-.308-.8587-.308-1.484v-2.996h-1.204v-1.582h1.204l.21-1.918h1.68v1.918h1.862v1.582h-1.862v3.024c0 .3173.07.5367.21.658s.378.182.714.182h.924V83zm5.879.168c-.672 0-1.278-.154-1.82-.462-.532-.3173-.956-.7513-1.274-1.302-.308-.56-.462-1.1993-.462-1.918q0-1.10595.462-1.932c.318-.56.747-.994 1.288-1.302.542-.3173 1.148-.476 1.82-.476.682 0 1.288.1587 1.82.476.542.308.966.742 1.274 1.302.318.5507.476 1.19.476 1.918s-.158 1.372-.476 1.932c-.308.5507-.732.9847-1.274 1.302-.541.308-1.152.462-1.834.462m0-1.638c.318 0 .598-.0747.84-.224.252-.1493.448-.378.588-.686.15-.308.224-.6907.224-1.148s-.074-.8353-.224-1.134c-.14-.308-.336-.5367-.588-.686-.242-.1587-.518-.238-.826-.238-.298 0-.574.0793-.826.238-.252.1493-.452.378-.602.686q-.21.44805-.21 1.134c0 .4573.07.84.21 1.148.15.308.346.5367.588.686.252.1493.528.224.826.224m5.059 1.47v-7.056h1.666l.14 1.148c.215-.392.518-.7093.91-.952.402-.2427.878-.364 1.428-.364.588 0 1.083.1213 1.484.364.402.2427.705.5973.91 1.064.215.4667.322 1.0407.322 1.722V83h-1.876v-3.892c0-.56-.121-.9893-.364-1.288-.233-.2987-.597-.448-1.092-.448-.317 0-.602.0747-.854.224-.242.1493-.434.364-.574.644-.14.2707-.21.602-.21.994V83z" style="fill:#0c141c;fill:color(display-p3 .0471 .0784 .1098);fill-opacity:1"/>
    <g fill="#0c141c" fill-rule="evenodd" clip-rule="evenodd">
      <path d="M262 75.375c-1.45 0-2.625 1.1753-2.625 2.625s1.175 2.625 2.625 2.625 2.625-1.1753 2.625-2.625-1.175-2.625-2.625-2.625M260.5 78c0-.8284.672-1.5 1.5-1.5s1.5.6716 1.5 1.5-.672 1.5-1.5 1.5-1.5-.6716-1.5-1.5" style="fill:#0c141c;fill:color(display-p3 .0471 .0784 .1098);fill-opacity:1"/>
      <path d="M262 72.5625c-4.09 0-6.485 3.3902-7.267 5.2159-.07.1622-.059.3475.029.5007.991 1.7349 3.136 5.1584 7.238 5.1584s6.247-3.4235 7.238-5.1584c.094-.1633.099-.3624.015-.5307-.395-.7907-1.183-2.072-2.373-3.1631-1.194-1.0946-2.824-2.0228-4.88-2.0228m0 9.75c-3.243 0-5.08-2.5745-6.118-4.3437.811-1.6935 2.874-4.2813 6.118-4.2813 1.694 0 3.064.7593 4.12 1.7271.936.8581 1.601 1.8604 1.988 2.5714-1.039 1.7686-2.876 4.3265-6.108 4.3265" style="fill:#0c141c;fill:color(display-p3 .0471 .0784 .1098);fill-opacity:1"/>
    </g>
  </g>
  <defs>
    <filter id="a" width="140" height="83" x="165" y="46" color-interpolation-filters="sRGB" filterUnits="userSpaceOnUse">
      <feFlood flood-opacity="0" result="BackgroundImageFix"/>
      <feColorMatrix in="SourceAlpha" result="hardAlpha" values="0 0 0 0 0 0 0 0 0 0 0 0 0 0 0 0 0 0 127 0"/>
      <feMorphology in="SourceAlpha" radius="5" result="effect1_dropShadow_61_585"/>
      <feOffset dy="13"/>
      <feGaussianBlur stdDeviation="13.5"/>
      <feColorMatrix values="0 0 0 0 0.0980392 0 0 0 0 0.145098 0 0 0 0 0.196078 0 0 0 0.15 0"/>
      <feBlend in2="BackgroundImageFix" result="effect1_dropShadow_61_585"/>
      <feColorMatrix in="SourceAlpha" result="hardAlpha" values="0 0 0 0 0 0 0 0 0 0 0 0 0 0 0 0 0 0 127 0"/>
      <feMorphology in="SourceAlpha" radius="8" result="effect2_dropShadow_61_585"/>
      <feOffset dy="8"/>
      <feGaussianBlur stdDeviation="8"/>
      <feColorMatrix values="0 0 0 0 0.0980392 0 0 0 0 0.145098 0 0 0 0 0.196078 0 0 0 0.2 0"/>
      <feBlend in2="effect1_dropShadow_61_585" result="effect2_dropShadow_61_585"/>
      <feColorMatrix in="SourceAlpha" result="hardAlpha" values="0 0 0 0 0 0 0 0 0 0 0 0 0 0 0 0 0 0 127 0"/>
      <feMorphology in="SourceAlpha" radius="6" result="effect3_dropShadow_61_585"/>
      <feOffset dy="-6"/>
      <feGaussianBlur stdDeviation="8"/>
      <feColorMatrix values="0 0 0 0 0.0980392 0 0 0 0 0.145098 0 0 0 0 0.196078 0 0 0 0.03 0"/>
      <feBlend in2="effect2_dropShadow_61_585" result="effect3_dropShadow_61_585"/>
      <feColorMatrix in="SourceAlpha" result="hardAlpha" values="0 0 0 0 0 0 0 0 0 0 0 0 0 0 0 0 0 0 127 0"/>
      <feMorphology in="SourceAlpha" operator="dilate" radius="1" result="effect4_dropShadow_61_585"/>
      <feOffset/>
      <feColorMatrix values="0 0 0 0 0.0980392 0 0 0 0 0.145098 0 0 0 0 0.196078 0 0 0 0.1 0"/>
      <feBlend in2="effect3_dropShadow_61_585" result="effect4_dropShadow_61_585"/>
      <feBlend in="SourceGraphic" in2="effect4_dropShadow_61_585" result="shape"/>
    </filter>
  </defs>
</svg>
