<svg xmlns="http://www.w3.org/2000/svg" width="283" height="142" fill="none">
  <path fill="#000" d="M1.6875 25V8.08984h1.82812L9.79688 22.9727h.07031L16.1484 8.08984h1.8282V25h-1.5V11.1016h-.7735l1.8047-2.64848L10.5234 25H9.14062L2.14453 8.45312l1.80469 2.64848H3.1875V25zm24.7784.2227c-1.1172-.0079-2.0937-.2696-2.9297-.7852-.8359-.5156-1.4882-1.2461-1.957-2.1914-.4609-.9531-.6914-2.0781-.6914-3.375v-.0234c0-1.3047.2305-2.4297.6914-3.375.4688-.9454 1.1211-1.6719 1.957-2.1797.836-.5157 1.8125-.7735 2.9297-.7735s2.0938.2578 2.9297.7735c.8438.5078 1.4961 1.2343 1.9571 2.1797.4687.9453.7031 2.0703.7031 3.375v.0234c0 1.2969-.2344 2.4219-.7031 3.375-.461.9531-1.1094 1.6875-1.9454 2.2031-.8359.5156-1.8164.7735-2.9414.7735m.0118-1.3829q1.21875 0 2.1093-.5976c.6016-.3984 1.0664-.9688 1.3946-1.711.3359-.7421.5039-1.6289.5039-2.6601v-.0234c0-1.0391-.168-1.9258-.5039-2.6602-.3282-.7422-.793-1.3086-1.3946-1.6992-.6015-.3985-1.3086-.5977-2.1211-.5977-.8047 0-1.5078.1992-2.1093.5977-.6016.3906-1.0704.957-1.4063 1.6992-.3281.7344-.4922 1.6211-.4922 2.6602v.0234c0 1.0312.1641 1.918.4922 2.6601.3359.7422.8047 1.3126 1.4063 1.711.6015.3984 1.3086.5976 2.1211.5976m12.8487 1.3829c-1.0312 0-1.9375-.2618-2.7187-.7852-.7813-.5313-1.3907-1.2734-1.8282-2.2266-.4297-.9531-.6445-2.0664-.6445-3.3398v-.0234c0-1.2735.2187-2.3829.6562-3.3282.4375-.9531 1.043-1.6914 1.8165-2.2148.7812-.5235 1.6796-.7852 2.6953-.7852.6484 0 1.2461.1133 1.7929.3399.5469.2187 1.0274.5351 1.4414.9492.4141.4141.7344.9023.961 1.4648h.0586V7.96094h1.5468V25h-1.5468v-2.543h-.0703c-.2344.5625-.5547 1.0508-.961 1.4649-.4062.414-.8828.7343-1.4297.9609-.539.2266-1.1289.3399-1.7695.3399m.293-1.3829q1.1601 0 2.0508-.621c.5937-.4141 1.0585-.9922 1.3945-1.7344.3359-.75.5039-1.6211.5039-2.6133v-.0117c0-.9922-.168-1.8594-.5039-2.6016-.336-.75-.8008-1.332-1.3945-1.7461-.5938-.414-1.2774-.6211-2.0508-.6211-.7891 0-1.4805.2071-2.0742.6211-.586.4063-1.0391.9805-1.3594 1.7227-.3203.7344-.4805 1.6054-.4805 2.6133v.0234c0 1.0078.1602 1.8867.4805 2.6367.3203.7422.7734 1.3164 1.3594 1.7227q.89055.6093 2.0742.6093m13.8448 1.3829c-1.1406 0-2.1289-.2579-2.9648-.7735-.836-.5156-1.4805-1.2461-1.9336-2.1914-.4453-.9453-.668-2.0625-.668-3.3516v-.0234c0-1.2812.2227-2.3984.668-3.3516.4531-.9531 1.0859-1.6914 1.8984-2.2148.8203-.5312 1.7774-.7969 2.8711-.7969q1.6407 0 2.8359.7617c.8047.5079 1.4219 1.2227 1.8516 2.1446.4375.914.6563 1.9844.6563 3.2109v.6094H48.6712v-1.2305h9.2579l-.7852 1.1133v-.5859c0-1.0078-.1641-1.8555-.4922-2.543-.3203-.6953-.7695-1.2188-1.3476-1.5703-.5704-.3594-1.2305-.5391-1.9805-.5391-.7422 0-1.4063.1836-1.9922.5508-.5781.3672-1.0352.8984-1.3711 1.5938-.3359.6875-.5039 1.5234-.5039 2.5078v.5859c0 .9922.1641 1.8399.4922 2.543.3359.7031.8047 1.2422 1.4062 1.6172.6094.3671 1.3243.5507 2.1446.5507.6015 0 1.1367-.0898 1.6054-.2695.4688-.1875.8594-.4453 1.1719-.7734.3203-.3281.5469-.7031.6797-1.125l.0352-.0938h1.5351l-.0351.1055c-.1094.5078-.3086.9766-.5977 1.4062-.2812.4219-.6406.7969-1.0781 1.125q-.65625.4806-1.5117.75c-.5625.1719-1.1758.2579-1.8399.2579M61.3559 25V12.7305h1.5469v2.1797h.0586c.2188-.75.5938-1.336 1.125-1.7579.5391-.4218 1.1875-.6328 1.9453-.6328.211 0 .4024.0157.5742.0469.1797.0234.3243.0508.4336.082v1.5118c-.125-.0469-.2929-.086-.5039-.1172-.2031-.0391-.4375-.0586-.7031-.0586-.5859 0-1.1016.1406-1.5469.4218-.4375.2813-.7773.6797-1.0195 1.1954-.2422.5078-.3633 1.1054-.3633 1.7929V25zm7.9269 0V12.7305h1.5469v2.1093h.0586c.3125-.6796.8047-1.2343 1.4765-1.664.6719-.4375 1.5-.6563 2.4844-.6563 1.3594 0 2.418.4063 3.1758 1.2188q1.1367 1.21875 1.1367 3.3867V25h-1.5351v-7.6055c0-1.1406-.2774-2.0078-.8321-2.6015-.5468-.6016-1.3437-.9024-2.3906-.9024-.7109 0-1.3359.1602-1.875.4805s-.957.7695-1.2539 1.3477c-.2969.5703-.4453 1.2421-.4453 2.0156V25zM100.5 25l-8.6134-9.2695q-.9024-.96105-1.4532-1.6758c-.3593-.4766-.6211-.918-.7851-1.3242-.1563-.4063-.2383-.8203-.2461-1.2422v-.0117q0-1.04309.5508-1.87504.5508-.83202 1.4883-1.3125c.6328-.32031 1.3437-.48047 2.1328-.48047.7968 0 1.5039.16016 2.1211.48047.625.3125 1.1171.74219 1.4765 1.28906q.5391.82033.5391 1.87498v.0235c0 .5703-.1406 1.1093-.4219 1.6172-.2734.5-.7226.996-1.3476 1.4882-.625.4844-1.461.9922-2.5079 1.5235l-.8789-.9141c.9063-.4375 1.625-.8516 2.1563-1.2422.5312-.3984.914-.793 1.1484-1.1836.2344-.3984.3516-.8125.3516-1.2422v-.0117c0-.4687-.1172-.8828-.3516-1.2422q-.33975-.55075-.9375-.86716-.5859-.3164-1.3476-.3164c-.4922 0-.9414.10937-1.3477.32812q-.5976.3164-.9492.87894c-.2344.3672-.3516.7812-.3516 1.2422v.0234c0 .3437.0742.6797.2227 1.0078q.2343.49215.75 1.1133c.3437.4141.7969.9258 1.3594 1.5351l9.2113 9.7383V25zm-7.4416.2695c-1.0781 0-2.0351-.1992-2.8711-.5976-.8359-.3985-1.4882-.9492-1.957-1.6524-.4609-.7031-.6953-1.5117-.7031-2.4257v-.0118c0-.9531.2695-1.8047.8086-2.5547.5469-.7578 1.3789-1.4335 2.4961-2.0273l1.3594-.7148.9023.9492-1.3359.7383c-.9219.5078-1.5938 1.0507-2.0157 1.6289-.4218.5781-.6328 1.207-.6328 1.8867V20.5c0 .6562.1719 1.2461.5156 1.7695.3438.5157.8204.9219 1.4297 1.2188.6094.289 1.3203.4336 2.1328.4336.6797 0 1.3243-.0938 1.9336-.2813.6094-.1953 1.168-.4765 1.6758-.8437.5156-.3672.961-.8086 1.336-1.3242.4843-.6719.8554-1.4727 1.1132-2.4024.2579-.9375.3868-1.9648.3868-3.082v-.4805h1.4883v.4805c0 1.3359-.176 2.5625-.527 3.6797-.352 1.1172-.8442 2.0664-1.477 2.8476q-1.06635 1.3242-2.6367 2.0391c-1.039.4765-2.1797.7148-3.4219.7148m22.8266.0117c-1.195 0-2.25-.1914-3.164-.5742-.906-.3828-1.629-.9258-2.168-1.6289q-.7965-1.05465-.903-2.4609l-.011-.1524h1.593l.024.1524c.07.6406.309 1.2031.715 1.6875.414.4765.961.8476 1.64 1.1133.688.2578 1.473.3867 2.356.3867.875 0 1.64-.1328 2.297-.3985.656-.2656 1.164-.6406 1.523-1.125.367-.4921.551-1.0624.551-1.7109v-.0117c0-.8203-.285-1.4805-.856-1.9805-.57-.5078-1.511-.9101-2.824-1.207l-1.828-.4102c-1.64-.3671-2.848-.9179-3.621-1.6523-.766-.7344-1.148-1.6992-1.148-2.8945v-.0118c.007-.8984.257-1.6914.75-2.3789.492-.68746 1.171-1.22652 2.039-1.61715q1.3005-.59766 2.976-.59766c1.094 0 2.063.19532 2.906.58594q1.278.58595 2.04 1.62887c.515.6954.804 1.4961.867 2.4024l.011.1523h-1.582l-.023-.1523c-.078-.6406-.305-1.1953-.68-1.6641-.375-.4687-.867-.83201-1.476-1.08982-.602-.25782-1.305-.38672-2.11-.38672-.804 0-1.515.1289-2.132.38672-.618.25781-1.098.61722-1.442 1.07812s-.515.9961-.515 1.6055v.0234c0 .7734.285 1.4102.855 1.9102.57.4921 1.473.8789 2.707 1.1601l1.828.4102c1.156.2578 2.094.5898 2.813.9961.718.3984 1.242.8945 1.57 1.4883q.504.89055.504 2.121v.0118c0 .9765-.25 1.8242-.75 2.5429q-.75 1.0782-2.121 1.6758c-.906.3906-1.977.5859-3.211.5859M124.89 25V12.7305h1.547V25zm.785-14.543c-.289 0-.539-.1015-.75-.3047-.203-.21089-.305-.46089-.305-.74996s.102-.53515.305-.73828q.3165-.30468.75-.30468t.738.30468c.203.20313.305.44922.305.73828s-.102.53907-.305.74996c-.203.2032-.449.3047-.738.3047M129.852 25V12.7305h1.547v2.1328h.058q.375-1.03125 1.278-1.6875c.609-.4375 1.343-.6563 2.203-.6563.594 0 1.125.1094 1.594.3282.476.2109.878.5078 1.207.8906q.504.5742.726 1.3476h.059q.3045-.7617.855-1.3359c.367-.3828.805-.6836 1.313-.9023.515-.2188 1.078-.3282 1.687-.3282.813 0 1.512.168 2.098.5039.594.336 1.051.8086 1.371 1.418.328.6094.492 1.332.492 2.168V25h-1.547v-8.0391c0-.6406-.113-1.1914-.34-1.6523-.218-.4609-.539-.8125-.961-1.0547-.421-.2422-.933-.3633-1.535-.3633-.609 0-1.148.1446-1.617.4336-.461.2891-.824.6875-1.09 1.1953-.258.5078-.386 1.0899-.386 1.7461V25h-1.547v-8.1797c0-.5859-.117-1.0976-.352-1.5351-.234-.4454-.562-.7891-.984-1.0313s-.914-.3633-1.477-.3633c-.601 0-1.137.1563-1.605.4688-.461.3047-.828.7265-1.102 1.2656-.265.5312-.398 1.1484-.398 1.8516V25zm19.716 4.1133V12.7305h1.547v2.5781h.058c.227-.5547.539-1.0391.938-1.4531.406-.4219.883-.75 1.429-.9844.547-.2344 1.145-.3516 1.793-.3516 1.039 0 1.95.2617 2.731.7852.781.5234 1.387 1.2617 1.816 2.2148.438.9532.657 2.0664.657 3.3399v.0234q0 1.9101-.657 3.3399c-.437.9453-1.043 1.6835-1.816 2.2148-.774.5234-1.676.7852-2.707.7852-.649 0-1.25-.1172-1.805-.3516-.547-.2344-1.023-.5586-1.43-.9727-.406-.414-.722-.8945-.949-1.4414h-.058v6.6563zm5.484-5.2735c.797 0 1.485-.2031 2.063-.6093.586-.4141 1.039-.9922 1.359-1.7344s.481-1.6133.481-2.6133v-.0234c0-1.0156-.161-1.8946-.481-2.6367-.32-.7422-.773-1.3165-1.359-1.7227-.578-.4062-1.266-.6094-2.063-.6094-.773 0-1.461.2071-2.062.6211-.594.4141-1.059.9922-1.395 1.7344q-.492 1.1133-.492 2.6133v.0117q0 1.4883.504 2.6133c.336.7422.801 1.3203 1.394 1.7344.594.414 1.278.621 2.051.621M163.319 25V7.96094h1.547V25zm9.896.2227c-1.141 0-2.129-.2579-2.965-.7735s-1.481-1.2461-1.934-2.1914c-.445-.9453-.668-2.0625-.668-3.3516v-.0234c0-1.2812.223-2.3984.668-3.3516.453-.9531 1.086-1.6914 1.899-2.2148.82-.5312 1.777-.7969 2.871-.7969 1.093 0 2.039.2539 2.836.7617.804.5079 1.421 1.2227 1.851 2.1446.438.914.656 1.9844.656 3.2109v.6094h-10.007v-1.2305h9.257l-.785 1.1133v-.5859c0-1.0078-.164-1.8555-.492-2.543-.32-.6953-.769-1.2188-1.348-1.5703q-.855-.5391-1.98-.5391-1.113 0-1.992.5508c-.578.3672-1.035.8984-1.371 1.5938-.336.6875-.504 1.5234-.504 2.5078v.5859c0 .9922.164 1.8399.492 2.543.336.7031.805 1.2422 1.406 1.6172.61.3671 1.324.5507 2.145.5507.601 0 1.136-.0898 1.605-.2695.469-.1875.86-.4453 1.172-.7734.32-.3281.547-.7031.68-1.125l.035-.0938h1.535l-.035.1055c-.109.5078-.309.9766-.598 1.4062-.281.4219-.64.7969-1.078 1.125q-.6555.4806-1.512.75c-.562.1719-1.175.2579-1.839.2579M.50781 49.7812h2.28125c.05729.323.19271.6042.40625.8438q.32812.3594.82813.5547.5.1953 1.10937.1953.63282 0 1.10938-.1797c.32291-.125.57552-.2969.75781-.5156.18229-.224.27344-.4844.27344-.7813 0-.3281-.13021-.6015-.39063-.8203-.25521-.2239-.6875-.4323-1.29687-.625l-1.17188-.3672c-.83333-.2604-1.47916-.6562-1.9375-1.1875q-.67968-.7968-.67968-1.8906c0-.6927.1927-1.3073.57812-1.8437q.57813-.80475 1.57812-1.2657c.67188-.3073 1.4323-.4609 2.28126-.4609.82812 0 1.55989.1484 2.19531.4453.63541.2917 1.13541.7005 1.5 1.2266.36981.526.56771 1.1328.59371 1.8203H8.29688c-.04688-.3125-.16928-.5859-.36719-.8203q-.28906-.3594-.75-.5547-.45313-.2031-1.03907-.2031c-.36458 0-.69531.0599-.99218.1796-.29167.1146-.52344.2761-.69532.4844-.17187.2084-.25781.4453-.25781.711 0 .3073.11979.5807.35938.8203.23958.2343.625.4349 1.15625.6015l1.15625.3594c.95833.2969 1.66146.6927 2.10937 1.1875q.67188.7344.67188 1.875c0 .7448-.19792 1.3985-.59375 1.9609q-.58594.83595-1.64063 1.2969c-.70312.3073-1.52083.461-2.45312.461-.85417 0-1.60677-.1407-2.25782-.4219-.65104-.2813-1.16666-.6823-1.54687-1.2031-.3802-.5261-.59635-1.1537-.64844-1.8829m19.82259-5.3984L18.5101 53h-2.211l.2813-1.3047h-.1407c-.1718.3021-.3828.5651-.6328.7891-.2448.2239-.5286.3958-.8515.5156q-.47655.1875-1.0782.1875c-.526 0-.9869-.1042-1.3828-.3125-.3958-.2083-.7031-.5-.9218-.875q-.3282-.5703-.3282-1.3281c0-.1354.0105-.3047.0313-.5078.0208-.2032.0495-.4011.0859-.5938l1.086-5.1875h2.289l-1.0234 4.8125c-.0261.1094-.0469.2292-.0625.3594-.0104.125-.0156.2292-.0156.3125 0 .4427.1119.7786.3359 1.0078s.5651.3438 1.0234.3438c.349 0 .6563-.0756.9219-.2266.2708-.1511.4948-.362.6719-.6328q.27345-.40635.3906-.9453l1.0703-5.0313zm5.5569 8.75q-.6015 0-1.1328-.2109c-.3542-.1407-.6563-.3386-.9063-.5938s-.4244-.5521-.5234-.8906h-.1406L22.8482 53h-2.2109l2.5313-11.9062h2.2734l-.9531 4.4921h.0703c.0417-.0052.0677-.0078.0781-.0078.2865-.4166.6432-.7422 1.0703-.9765.4323-.2396.9401-.3594 1.5235-.3594q.86715 0 1.5234.4062c.4427.2709.7891.6537 1.0391 1.1485.2552.4896.3828 1.0703.3828 1.7422 0 .802-.1094 1.5442-.3282 2.2265-.2187.6823-.5234 1.2761-.914 1.7813-.3906.5-.8464.8906-1.3672 1.1719q-.7734.414-1.6797.414m-.5-1.9297c.3438 0 .6615-.0807.9531-.2422.2969-.1666.5547-.3984.7735-.6953.2187-.2968.3906-.6432.5156-1.039q.1875-.60165.1875-1.2969c0-.5886-.151-1.0365-.4531-1.3438-.2969-.3073-.6823-.4609-1.1563-.4609-.3437 0-.664.0859-.9609.2578-.2969.1667-.5599.4011-.7891.7031-.2239.2969-.401.6407-.5312 1.0313-.125.3906-.1875.8073-.1875 1.25 0 .5937.1536 1.0495.4609 1.3672.3125.3125.7083.4687 1.1875.4687M30.9521 53l2.5234-11.8359h2.2813l-.9766 4.5156h.1406c.2656-.4167.6042-.763 1.0156-1.0391.4167-.2812.9454-.4218 1.586-.4218.5469 0 1.013.1093 1.3984.3281.3906.2187.6875.5156.8906.8906.2084.375.3125.7943.3125 1.2578 0 .1563-.0104.3203-.0312.4922-.0156.1719-.0417.349-.0781.5313L38.9052 53h-2.2734l1.0312-4.9062c.026-.1146.0443-.224.0547-.3282.0156-.1094.0234-.2187.0234-.3281 0-.4115-.1276-.737-.3828-.9766-.2552-.2395-.6042-.3593-1.0469-.3593-.3437 0-.6536.0755-.9296.2265-.2709.1511-.4974.3594-.6797.625q-.26565.3906-.375.8985L33.2333 53zm12.8928-5.2266h3.7422c.0052-.026.0104-.0677.0156-.125.0053-.0625.0079-.1198.0079-.1718 0-.2865-.0651-.5443-.1954-.7735-.125-.2343-.3072-.4192-.5468-.5547-.2344-.1354-.5183-.2031-.8516-.2031-.3489 0-.6693.0781-.9609.2344-.2917.151-.5417.3646-.75.6406-.2084.2708-.362.5886-.461.9531m1.4141 5.4141c-.7396 0-1.3984-.1458-1.9766-.4375-.5729-.2917-1.0234-.7135-1.3515-1.2656-.3229-.5573-.4844-1.224-.4844-2 0-.7865.112-1.5026.3359-2.1485.224-.651.5443-1.2109.961-1.6797.4166-.4687.9088-.8281 1.4765-1.0781.573-.2552 1.2032-.3828 1.8907-.3828s1.3046.1485 1.8515.4453c.5469.2917.9792.7084 1.2969 1.25.3229.5417.4844 1.1797.4844 1.9141 0 .1719-.013.3984-.0391.6797-.026.2812-.0573.5234-.0937.7265h-6.0157c0 .0417-.0026.0834-.0078.125v.1172c0 .4427.0834.8099.25 1.1016.1667.2864.388.5026.6641.6484.276.1407.5755.211.8984.211.4375 0 .7969-.0808 1.0781-.2422.2865-.1615.4948-.3776.625-.6485h2.1875c-.1302.5261-.3802.9896-.75 1.3907-.3645.401-.8255.7135-1.3828.9375-.5573.2239-1.1901.3359-1.8984.3359m8.9241-1.7656q.48435 0 .9063-.1875c.2812-.125.5156-.2943.7031-.5078q.28905-.3282.3828-.7422l.1641-.7422-1.7813.0625c-.5156.0208-.9219.1354-1.2187.3437-.2969.2032-.4453.4714-.4453.8047 0 .2865.1198.5209.3593.7031.2396.1771.5495.2657.9297.2657m-.9609 1.7109c-.4844 0-.9193-.1016-1.3047-.3047-.3854-.2083-.6927-.4896-.9219-.8437-.2239-.3542-.3359-.7552-.3359-1.2032 0-.875.3359-1.5677 1.0078-2.0781.6771-.5104 1.6198-.7864 2.8281-.8281l2.1406-.0703.1172-.5313c.0157-.0781.0261-.138.0313-.1796q.0078-.07035.0078-.1329c0-.302-.1276-.539-.3828-.7109s-.6016-.2578-1.0391-.2578c-.2448 0-.4687.0312-.6719.0937-.1979.0573-.3671.1433-.5078.2579-.1354.1093-.2422.2473-.3203.414h-2.1484c.125-.526.362-.9792.7109-1.3594.3542-.3854.7969-.6823 1.3281-.8906.5313-.2083 1.1224-.3125 1.7735-.3125.7031 0 1.3151.1068 1.8359.3203.5261.2084.9349.5026 1.2266.8828s.4375.8256.4375 1.336c0 .1094-.0052.2265-.0156.3515-.0105.125-.0287.2396-.0547.3438L57.7847 53h-2.211l.2266-1.0625h-.1406c-.1615.2448-.3698.4557-.625.6328s-.5365.3151-.8438.4141c-.3073.0989-.6302.1484-.9687.1484m10.0179 0c-.5677 0-1.0782-.1328-1.5313-.3984-.4479-.2709-.8021-.6563-1.0625-1.1563-.2604-.5052-.3906-1.1067-.3906-1.8047 0-.802.112-1.539.3359-2.2109.224-.6771.5339-1.263.9297-1.7578s.8568-.8776 1.3828-1.1485c.5313-.276 1.1042-.414 1.7188-.414q.64065 0 1.1406.2109c.3333.1407.6094.3334.8281.5781.224.2396.3828.5131.4766.8204h.1406l1.0156-4.7578h2.2813L67.9823 53h-2.211l.25-1.1953h-.1406q-.43755.6015-1.1094.9687-.66405.3594-1.5312.3594m1.0156-1.875c.3437 0 .6641-.0833.9609-.25.2969-.1719.5573-.4062.7813-.7031.2291-.3021.4062-.6485.5312-1.0391.125-.3958.1875-.8125.1875-1.25 0-.5937-.1562-1.0495-.4687-1.3672-.3073-.3177-.7031-.4765-1.1875-.4765-.3386 0-.6563.0807-.9531.2422-.2969.1562-.5573.3802-.7813.6718-.2187.2917-.3932.6329-.5234 1.0235-.125.3854-.1875.8099-.1875 1.2734 0 .5886.1562 1.0495.4687 1.3828.3177.3282.7083.4922 1.1719.4922m8.7835-3.4844h3.7422c.0052-.026.0104-.0677.0156-.125.0052-.0625.0078-.1198.0078-.1718 0-.2865-.0651-.5443-.1953-.7735q-.1875-.35145-.5469-.5547c-.2344-.1354-.5182-.2031-.8515-.2031-.349 0-.6693.0781-.961.2344-.2916.151-.5416.3646-.75.6406-.2083.2708-.362.5886-.4609.9531m1.414 5.4141c-.7395 0-1.3984-.1458-1.9765-.4375-.5729-.2917-1.0235-.7135-1.3516-1.2656-.3229-.5573-.4844-1.224-.4844-2 0-.7865.112-1.5026.336-2.1485.2239-.651.5443-1.2109.9609-1.6797.4167-.4687.9089-.8281 1.4766-1.0781q.85935-.3828 1.8906-.3828c.6875 0 1.3047.1485 1.8516.4453.5468.2917.9791.7084 1.2968 1.25.323.5417.4844 1.1797.4844 1.9141 0 .1719-.013.3984-.039.6797-.0261.2812-.0573.5234-.0938.7265h-6.0156c0 .0417-.0026.0834-.0078.125v.1172c0 .4427.0833.8099.25 1.1016.1666.2864.388.5026.664.6484.2761.1407.5756.211.8985.211.4375 0 .7968-.0808 1.0781-.2422.2865-.1615.4948-.3776.625-.6485h2.1875c-.1302.5261-.3802.9896-.75 1.3907-.3646.401-.8255.7135-1.3828.9375-.5573.2239-1.1901.3359-1.8985.3359M79.6977 53l1.8359-8.6172h2.211l-.2422 1.1875h.1406c.2344-.4271.5339-.7552.8984-.9844.3698-.2291.7839-.3437 1.2422-.3437.2188 0 .4245.0156.6172.0469.1979.0312.362.0781.4922.1406l-.4531 2.0937c-.1719-.0677-.3828-.1224-.6328-.164-.2448-.0417-.4714-.0625-.6797-.0625-.375 0-.7058.0729-.9922.2187-.2865.1406-.5235.3568-.711.6485-.1875.2864-.3281.6484-.4218 1.0859L81.9789 53zM4.49121 77.2324q-1.08008 0-1.88672-.3486c-.5332-.237-.95703-.5606-1.27148-.9707-.3099-.4147-.48991-.8887-.54004-1.4219l-.00684-.0752H2.0166l.00684.0752c.0319.3281.15722.613.37597.8545.22331.237.51954.4216.88868.5537q.56054.1983 1.27148.1983c.44661 0 .8431-.0707 1.18945-.212q.52637-.2187.82715-.6015c.20052-.2552.30078-.5492.30078-.8819v-.0068c0-.4101-.15039-.7542-.45117-1.0322-.30078-.2826-.79069-.499-1.46973-.6494l-1.09375-.2393c-.98893-.2187-1.70898-.556-2.16015-1.0117q-.66993-.69045-.66992-1.7637v-.0068c.00455-.5469.15267-1.03.44433-1.4492.29623-.4193.7041-.7474 1.22364-.9844q.78613-.3555 1.80468-.3555.98438 0 1.74317.3555c.50586.2324.9069.5469 1.20312.9433.30078.3965.46712.8409.49903 1.3331l.00683.0957H6.72656l-.01367-.0889q-.06835-.43755-.35547-.7725-.2871-.3417-.76562-.54t-1.1211-.1914q-.61522 0-1.10742.1914c-.32812.1276-.59017.3122-.78613.5537-.19141.237-.28711.5286-.28711.875v.0068q0 .588.4375.9912c.29167.2689.77246.4763 1.44238.6221l1.09375.2461c.68815.1504 1.24186.3464 1.66113.5879s.72461.5378.91602.8887c.19596.3463.29395.7565.29395 1.2304v.0069c0 .6152-.15039 1.1461-.45118 1.5928-.30078.4466-.72461.7929-1.27148 1.039-.54688.2416-1.18718.3623-1.9209.3623M10.1855 77v-9.8643h5.9883v1.1075H11.416v3.3906h4.3682v1.0937H11.416V77zm8.627-3.5205v-1.0938h2.7891c.7063 0 1.2532-.1822 1.6406-.5468.3874-.3692.581-.8773.581-1.5244v-.0137c0-.6517-.1936-1.1598-.581-1.5244s-.9343-.5469-1.6406-.5469h-2.7891v-1.0938h3.1035c.6198 0 1.1667.1322 1.6406.3965.474.2643.8454.6335 1.1143 1.1074.2734.474.4102 1.0232.4102 1.6475v.0137c0 .6243-.1368 1.1758-.4102 1.6543-.2689.4785-.6403.8522-1.1143 1.1211-.4739.2689-1.0208.4033-1.6406.4033zM18.1973 77v-9.8643h1.2304V77zm8.75 0v-7.3691h1.1894v1.0937h.1094c.1413-.3874.3805-.6881.7178-.9023.3372-.2142.7542-.3213 1.2509-.3213.114 0 .2256.0068.335.0205q.17085.01365.2598.0273v1.1553c-.1231-.0228-.2438-.0387-.3623-.0479-.114-.0136-.237-.0205-.3692-.0205-.3782 0-.7132.0752-1.0049.2256-.2916.1504-.5218.3601-.6904.6289-.164.2689-.2461.5834-.2461.9434V77zm8.1552.1299c-.6972 0-1.3011-.1527-1.8115-.458-.5058-.3099-.8978-.7497-1.1758-1.3194-.2734-.5696-.4101-1.2464-.4101-2.0302v-.0137c0-.7884.1367-1.4675.4101-2.0371.278-.5697.67-1.0072 1.1758-1.3125.5104-.3054 1.1143-.458 1.8115-.458.7019 0 1.3057.1526 1.8116.458.5058.3053.8955.7428 1.1689 1.3125.278.5696.417 1.2487.417 2.0371v.0137c0 .7838-.139 1.4606-.417 2.0302-.2734.5697-.6631 1.0095-1.1689 1.3194-.5059.3053-1.1097.458-1.8116.458m0-1.0528c.4649 0 .8591-.1093 1.1827-.3281.3235-.2187.5696-.5332.7382-.9433.1732-.4102.2598-.9047.2598-1.4834v-.0137c0-.5833-.0866-1.0801-.2598-1.4902-.1686-.4102-.4147-.7224-.7382-.9366-.3236-.2187-.7178-.3281-1.1827-.3281-.4648 0-.859.1094-1.1826.3281-.3235.2142-.5719.5264-.7451.9366-.1686.4101-.2529.9069-.2529 1.4902v.0137c0 .5787.0843 1.0732.2529 1.4834.1732.4101.4216.7246.7451.9433.3236.2188.7178.3281 1.1826.3281m9.208.9229v-7.3691H45.5V77zm.6016-8.791c-.2233 0-.417-.0798-.581-.2393-.1596-.164-.2393-.3577-.2393-.581 0-.2279.0797-.4216.2393-.5811.164-.1595.3577-.2392.581-.2392.2279 0 .4216.0797.5811.2392s.2392.3532.2392.5811c0 .2233-.0797.417-.2392.581-.1595.1595-.3532.2393-.5811.2393m5.3594 8.9209c-.5469 0-1.03-.082-1.4492-.2461-.4193-.1686-.7565-.4033-1.0118-.7041q-.3759-.4512-.4443-1.0596h1.2168c.1003.3054.2962.5514.5879.7383.2917.1868.6722.2803 1.1416.2803.3327 0 .6243-.0479.875-.1436.2552-.1002.4557-.2347.6016-.4033.1458-.1732.2187-.3714.2187-.5947v-.0137c0-.2507-.1002-.4626-.3008-.6357-.2005-.1778-.5286-.3213-.9843-.4307l-1.1416-.2734c-.4603-.1094-.8386-.2507-1.1348-.4239-.2962-.1777-.515-.3942-.6563-.6494-.1412-.2598-.2119-.5651-.2119-.916v-.0068c0-.4102.1185-.7771.3555-1.1006.2415-.3236.5697-.5788.9844-.7657q.62205-.2802 1.4013-.2802c.515 0 .9707.082 1.3672.2461.4011.1595.7224.3873.9639.6836.2461.2962.3965.6448.4512 1.0459h-1.169c-.0775-.2917-.2552-.5287-.5332-.711s-.6403-.2734-1.0869-.2734c-.2917 0-.5514.0478-.7793.1435-.2279.0912-.4079.2188-.54.3829q-.1983.246-.1983.5742v.0136c0 .1641.0433.3099.1299.4375s.221.2393.4033.335q.27345.14355.7041.2529l1.1348.2735c.6927.1686 1.2077.4101 1.5449.7246.3418.3144.5127.736.5127 1.2646v.0137c0 .4375-.1299.8249-.3896 1.1621-.2598.3327-.613.5925-1.0596.7793-.4421.1869-.9434.2803-1.5039.2803m11.2041 0c-.556 0-1.0231-.1048-1.4014-.3145-.3782-.2142-.6631-.5241-.8545-.9297-.1868-.4101-.2802-.9046-.2802-1.4834v-4.7714h1.1894v4.4843q0 .9912.3828 1.4766c.2598.3236.6836.4853 1.2715.4853.3236 0 .6084-.0478.8545-.1435.2506-.0957.4603-.2324.6289-.4102.1686-.1823.2939-.401.376-.6562.0866-.2598.1299-.5514.1299-.875v-4.3613h1.1894V77h-1.1894v-1.1006h-.1094q-.17775.3897-.4854.6699c-.205.1823-.4511.3213-.7382.417-.2826.0957-.6039.1436-.9639.1436m8.2373 0c-.5469 0-1.03-.082-1.4492-.2461-.4193-.1686-.7565-.4033-1.0117-.7041-.2507-.3008-.3988-.654-.4444-1.0596h1.2168c.1003.3054.2962.5514.5879.7383.2917.1868.6722.2803 1.1416.2803.3327 0 .6244-.0479.875-.1436.2552-.1002.4557-.2347.6016-.4033.1458-.1732.2187-.3714.2187-.5947v-.0137c0-.2507-.1002-.4626-.3008-.6357-.2005-.1778-.5286-.3213-.9843-.4307l-1.1416-.2734c-.4603-.1094-.8386-.2507-1.1348-.4239-.2962-.1777-.515-.3942-.6563-.6494-.1412-.2598-.2119-.5651-.2119-.916v-.0068c0-.4102.1185-.7771.3555-1.1006.2415-.3236.5697-.5788.9844-.7657q.62205-.2802 1.4013-.2802c.515 0 .9707.082 1.3672.2461.4011.1595.7224.3873.9639.6836.2461.2962.3965.6448.4512 1.0459h-1.169c-.0775-.2917-.2552-.5287-.5332-.711s-.6403-.2734-1.0869-.2734c-.2917 0-.5514.0478-.7793.1435-.2279.0912-.4079.2188-.54.3829q-.1983.246-.1983.5742v.0136c0 .1641.0433.3099.1299.4375s.221.2393.4033.335q.27345.14355.7041.2529l1.1348.2735c.6927.1686 1.2077.4101 1.5449.7246.3418.3144.5127.736.5127 1.2646v.0137c0 .4375-.1299.8249-.3896 1.1621-.2598.3327-.613.5925-1.0596.7793-.4421.1869-.9434.2803-1.5039.2803m7.8066 0c-.7018 0-1.3056-.155-1.8115-.4649-.5013-.3099-.8887-.7474-1.1621-1.3125-.2689-.5696-.4033-1.2395-.4033-2.0097v-.0069c0-.761.1344-1.4287.4033-2.0029q.4101-.8613 1.1553-1.3467c.4967-.3235 1.0778-.4853 1.7431-.4853.67 0 1.2442.1549 1.7227.4648.4831.3099.8522.7429 1.1074 1.2988q.3897.82725.3897 1.9278v.4648h-5.9063v-.9502h5.2979l-.5879.8682v-.4717c0-.5788-.0866-1.055-.2598-1.4287s-.4124-.6517-.7178-.834c-.3053-.1868-.6562-.2803-1.0527-.2803s-.752.098-1.0664.294c-.3099.1914-.556.4762-.7383.8545-.1823.3782-.2734.8431-.2734 1.3945v.4717c0 .5241.0888.973.2666 1.3467.1777.3691.4306.6539.7588.8545.3281.1959.7155.2939 1.1621.2939.3327 0 .622-.0456.8681-.1367q.36915-.1368.6084-.3486c.1595-.1413.2712-.2849.335-.4307l.0273-.0615h1.1895l-.0137.0547c-.0638.2506-.1777.4944-.3418.7314-.1595.2324-.3668.4443-.622.6357-.2553.1869-.5583.3373-.9092.4512-.3464.1094-.736.1641-1.169.1641m7.711 0c-.6198 0-1.1621-.1572-1.627-.4717-.4648-.3144-.8249-.7565-1.0801-1.3262q-.3828-.8613-.3828-2.0097v-.0137c0-.7702.1276-1.4401.3828-2.0098.2552-.5696.613-1.0117 1.0733-1.3261.4648-.3145 1.0094-.4717 1.6338-.4717.3372 0 .6539.0547.9502.164.3007.1049.5673.253.7998.4444.2324.1914.4147.4192.5468.6836h.1094v-4.0879h1.1895V77h-1.1895v-1.1758h-.1094c-.1503.2735-.3395.5082-.5673.7041-.2279.1914-.4877.3395-.7793.4444-.2917.1048-.6084.1572-.9502.1572m.2734-1.0528c.4466 0 .8317-.1116 1.1553-.3349.3235-.2233.5719-.5401.7451-.9502q.2598-.62205.2598-1.4697v-.0137q0-.85455-.2598-1.4697c-.1732-.4102-.4216-.7269-.7451-.9502-.3236-.2233-.7087-.335-1.1553-.335s-.8317.1117-1.1553.335c-.319.2187-.5651.5332-.7382.9433-.1687.4102-.253.9024-.253 1.4766v.0137c0 .5696.0843 1.0618.253 1.4765.1731.4102.4192.7269.7382.9502.3236.2188.7087.3281 1.1553.3281M95.5391 77v-6.3848h-1.2237v-.9843h1.2237v-.8204c0-.4921.0797-.8977.2392-1.2167.1641-.3236.4056-.5629.7246-.7178.319-.1595.711-.2393 1.1758-.2393.1458 0 .2826.0069.4102.0205.1321.0091.2597.0251.3828.0479v.9502c-.0729-.0137-.1572-.0228-.2529-.0274a6.4 6.4 0 0 0-.3008-.0068c-.4239 0-.7292.1025-.916.3076-.1823.2051-.2735.5104-.2735.916v.7862h1.6748v.9843h-1.6748V77zm7.3079.1299c-.698 0-1.301-.1527-1.812-.458-.506-.3099-.898-.7497-1.1756-1.3194-.2735-.5696-.4102-1.2464-.4102-2.0302v-.0137c0-.7884.1367-1.4675.4102-2.0371.2776-.5697.6696-1.0072 1.1756-1.3125.511-.3054 1.114-.458 1.812-.458.702 0 1.305.1526 1.811.458.506.3053.896.7428 1.169 1.3125.278.5696.417 1.2487.417 2.0371v.0137c0 .7838-.139 1.4606-.417 2.0302-.273.5697-.663 1.0095-1.169 1.3194-.506.3053-1.109.458-1.811.458m0-1.0528c.465 0 .859-.1093 1.182-.3281.324-.2187.57-.5332.739-.9433.173-.4102.259-.9047.259-1.4834v-.0137c0-.5833-.086-1.0801-.259-1.4902-.169-.4102-.415-.7224-.739-.9366-.323-.2187-.717-.3281-1.182-.3281s-.859.1094-1.183.3281c-.324.2142-.572.5264-.745.9366-.169.4101-.253.9069-.253 1.4902v.0137c0 .5787.084 1.0732.253 1.4834.173.4101.421.7246.745.9433.324.2188.718.3281 1.183.3281M108.09 77v-7.3691h1.189v1.0937h.11c.141-.3874.38-.6881.717-.9023q.507-.3213 1.251-.3213c.114 0 .226.0068.335.0205.114.0091.201.0182.26.0273v1.1553c-.123-.0228-.244-.0387-.362-.0479-.114-.0136-.237-.0205-.369-.0205q-.5685 0-1.005.2256c-.292.1504-.522.3601-.691.6289-.164.2689-.246.5834-.246.9434V77zm11.293.1299c-.465 0-.884-.0889-1.258-.2666-.369-.1778-.663-.4307-.882-.7588-.214-.3281-.321-.7155-.321-1.1621v-.0137c0-.4375.105-.8112.314-1.1211.21-.3144.515-.5605.916-.7383.401-.1777.887-.2825 1.456-.3144l2.707-.1641v.9502l-2.563.1641c-.561.0319-.971.1481-1.231.3486-.255.2005-.382.4831-.382.8477v.0136c0 .3737.141.6654.423.875.283.2051.639.3077 1.067.3077.406 0 .766-.0798 1.08-.2393.314-.1641.561-.3851.738-.6631.183-.278.274-.5924.274-.9433v-2.2969c0-.4558-.139-.8021-.417-1.0391-.274-.2415-.686-.3623-1.238-.3623-.442 0-.804.0798-1.087.2393-.282.1549-.471.3759-.567.6631l-.007.0205h-1.189l.007-.0411c.063-.3873.223-.7246.478-1.0117.26-.2916.595-.5172 1.005-.6767.41-.1641.877-.2461 1.401-.2461.602 0 1.11.098 1.525.2939.419.196.736.4785.95.8477.219.3646.328.8021.328 1.3125V77h-1.189v-1.0869h-.11c-.155.2598-.344.4808-.567.6631-.219.1823-.467.3213-.745.417-.278.0911-.584.1367-.916.1367m12.653 0c-.688 0-1.285-.1572-1.791-.4717-.506-.3144-.898-.7588-1.176-1.333s-.417-1.251-.417-2.0303v-.0137c0-.7656.137-1.4309.41-1.996q.417-.84765 1.176-1.3125c.506-.3145 1.103-.4717 1.791-.4717q.8955 0 1.545.3144c.433.2097.78.4922 1.039.8477.26.3509.426.7451.499 1.1826l.007.041h-1.182l-.007-.0205c-.091-.3646-.299-.6745-.622-.9297-.324-.2552-.75-.3828-1.279-.3828-.442 0-.825.1117-1.148.335-.324.2233-.574.54-.752.9502-.173.4056-.26.8864-.26 1.4423v.0137q0 .84765.267 1.4766c.177.4147.428.736.752.9639.323.2278.704.3417 1.141.3417.497 0 .903-.107 1.217-.3212.315-.2142.54-.5264.677-.9366l.014-.041 1.175-.0068-.013.0752c-.101.442-.278.8362-.534 1.1826-.255.3418-.592.6107-1.011.8066-.42.196-.925.294-1.518.294M136.924 77V66.7051h1.189V77zm6.48.1299c-.702 0-1.305-.155-1.811-.4649-.502-.3099-.889-.7474-1.162-1.3125-.269-.5696-.404-1.2395-.404-2.0097v-.0069c0-.761.135-1.4287.404-2.0029q.4095-.8613 1.155-1.3467c.497-.3235 1.078-.4853 1.743-.4853.67 0 1.244.1549 1.723.4648.483.3099.852.7429 1.107 1.2988q.39.82725.39 1.9278v.4648h-5.906v-.9502h5.297l-.587.8682v-.4717c0-.5788-.087-1.055-.26-1.4287s-.413-.6517-.718-.834c-.305-.1868-.656-.2803-1.053-.2803-.396 0-.752.098-1.066.294-.31.1914-.556.4762-.738.8545-.183.3782-.274.8431-.274 1.3945v.4717q0 .78615.267 1.3467c.177.3691.43.6539.759.8545.328.1959.715.2939 1.162.2939.332 0 .622-.0456.868-.1367.246-.0912.449-.2074.608-.3486.16-.1413.271-.2849.335-.4307l.028-.0615h1.189l-.014.0547c-.064.2506-.177.4944-.342.7314-.159.2324-.366.4443-.622.6357q-.3825.28035-.909.4512c-.346.1094-.736.1641-1.169.1641m7.014 0c-.465 0-.884-.0889-1.258-.2666-.369-.1778-.663-.4307-.882-.7588-.214-.3281-.321-.7155-.321-1.1621v-.0137c0-.4375.105-.8112.314-1.1211.21-.3144.515-.5605.917-.7383.401-.1777.886-.2825 1.456-.3144l2.707-.1641v.9502l-2.564.1641c-.56.0319-.971.1481-1.23.3486-.256.2005-.383.4831-.383.8477v.0136c0 .3737.141.6654.424.875.282.2051.638.3077 1.066.3077.406 0 .766-.0798 1.08-.2393.315-.1641.561-.3851.738-.6631.183-.278.274-.5924.274-.9433v-2.2969c0-.4558-.139-.8021-.417-1.0391-.274-.2415-.686-.3623-1.237-.3623-.442 0-.805.0798-1.087.2393-.283.1549-.472.3759-.568.6631l-.007.0205h-1.189l.007-.0411c.064-.3873.223-.7246.478-1.0117.26-.2916.595-.5172 1.005-.6767.41-.1641.877-.2461 1.402-.2461.601 0 1.109.098 1.524.2939.419.196.736.4785.95.8477.219.3646.328.8021.328 1.3125V77h-1.189v-1.0869h-.11c-.154.2598-.344.4808-.567.6631-.219.1823-.467.3213-.745.417-.278.0911-.583.1367-.916.1367M156.119 77v-7.3691h1.19v1.1074h.109c.187-.3919.456-.695.807-.9092.351-.2187.797-.3281 1.339-.3281.83 0 1.466.237 1.908.7109.446.4694.67 1.1416.67 2.0166V77h-1.19v-4.4844c0-.6653-.141-1.1575-.424-1.4765q-.417-.4854-1.299-.4854c-.391 0-.731.0843-1.018.2529-.287.1687-.51.4079-.67.7178-.155.3099-.232.6813-.232 1.1143V77zm7.875 2.5088.595-3.8897h1.36l-1.073 3.8897zM1.10742 97v-7.3691h1.18946v1.1211h.10937c.16406-.3965.41471-.7041.75195-.9229.3418-.2187.75423-.3281 1.23731-.3281.33268 0 .63118.0547.89551.164.26432.1094.49218.2621.68359.458.19141.1915.34407.4148.45801.67h.10937q.19824-.3897.53321-.6768c.2233-.196.48079-.3463.77246-.4512.29622-.1093.61295-.164.95019-.164q.75196 0 1.27145.2802c.3509.1869.6175.4603.7998.8204.1823.3554.2735.7907.2735 1.3056V97H9.95312v-4.8193q0-.5469-.17089-.9024-.16407-.36225-.50586-.54c-.22787-.1231-.51498-.1846-.86133-.1846-.3418 0-.6403.0775-.89551.2324-.25521.155-.45345.3623-.59473.6221-.14127.2552-.21191.54-.21191.8545V97H5.52344v-5.0039c0-.2917-.0638-.5446-.19141-.7588-.12305-.2187-.30078-.3874-.5332-.5059-.22787-.1184-.49675-.1777-.80664-.1777q-.47851 0-.86817.2529c-.2552.1687-.458.3965-.6084.6836-.14583.2826-.21874.597-.21874.9434V97zm12.20898 0v-7.3691h1.1895V97zm.6016-8.791c-.2233 0-.417-.0798-.5811-.2393-.1595-.164-.2392-.3577-.2392-.581 0-.2279.0797-.4216.2392-.5811.1641-.1595.3578-.2392.5811-.2392.2278 0 .4215.0797.581.2392s.2393.3532.2393.5811c0 .2233-.0798.417-.2393.581-.1595.1595-.3532.2393-.581.2393M16.748 97v-7.3691h1.1895v1.1074h.1094c.1868-.3919.4557-.695.8066-.9092.3509-.2187.7975-.3281 1.3399-.3281.8294 0 1.4651.237 1.9072.7109q.6699.7041.6699 2.0166V97h-1.1894v-4.4844c0-.6653-.1413-1.1575-.4239-1.4765-.278-.3236-.7109-.4854-1.2988-.4854-.3919 0-.7314.0843-1.0186.2529-.2871.1687-.5104.4079-.6699.7178-.1549.3099-.2324.6813-.2324 1.1143V97zm8.2032 0v-7.3691h1.1894V97zm.6015-8.791c-.2233 0-.417-.0798-.581-.2393-.1595-.164-.2393-.3577-.2393-.581 0-.2279.0798-.4216.2393-.5811.164-.1595.3577-.2392.581-.2392.2279 0 .4216.0797.5811.2392s.2392.3532.2392.5811c0 .2233-.0797.417-.2392.581-.1595.1595-.3532.2393-.5811.2393M28.3828 97v-7.3691h1.1895v1.1211h.1093c.1641-.3965.4148-.7041.752-.9229.3418-.2187.7542-.3281 1.2373-.3281.3327 0 .6312.0547.8955.164.2643.1094.4922.2621.6836.458.1914.1915.3441.4148.458.67h.1094c.1321-.2598.3099-.4854.5332-.6768.2233-.196.4808-.3463.7724-.4512.2963-.1093.613-.164.9502-.164.5013 0 .9252.0934 1.2715.2802.3509.1869.6175.4603.7998.8204.1823.3554.2735.7907.2735 1.3056V97h-1.1895v-4.8193c0-.3646-.057-.6654-.1709-.9024q-.1641-.36225-.5058-.54c-.2279-.1231-.515-.1846-.8614-.1846-.3418 0-.6403.0775-.8955.2324-.2552.155-.4534.3623-.5947.6221-.1413.2552-.2119.54-.2119.8545V97h-1.1895v-5.0039c0-.2917-.0638-.5446-.1914-.7588-.123-.2187-.3008-.3874-.5332-.5059-.2278-.1184-.4967-.1777-.8066-.1777q-.4785 0-.8682.2529c-.2552.1687-.458.3965-.6084.6836-.1458.2826-.2187.597-.2187.9434V97zm14.2051.1299c-.4649 0-.8841-.0889-1.2578-.2666-.3692-.1778-.6631-.4307-.8819-.7588-.2142-.3281-.3212-.7155-.3212-1.1621v-.0137q0-.65625.3144-1.1211c.2096-.3144.515-.5605.916-.7383.4011-.1777.8864-.2825 1.4561-.3144l2.707-.1641v.9502l-2.5635.1641c-.5605.0319-.9707.1481-1.2304.3486-.2552.2005-.3828.4831-.3828.8477v.0136c0 .3737.1412.6654.4238.875.2825.2051.638.3077 1.0664.3077.4056 0 .7656-.0798 1.0801-.2393.3144-.1641.5605-.3851.7382-.6631.1823-.278.2735-.5924.2735-.9433v-2.2969c0-.4558-.139-.8021-.417-1.0391-.2734-.2415-.6859-.3623-1.2373-.3623-.4421 0-.8044.0798-1.0869.2393-.2826.1549-.4717.3759-.5674.6631l-.0068.0205h-1.1895l.0068-.0411c.0638-.3873.2233-.7246.4785-1.0117.2598-.2916.5948-.5172 1.0049-.6767.4102-.1641.8773-.2461 1.4014-.2461.6016 0 1.1097.098 1.5244.2939.4193.196.736.4785.9502.8477.2188.3646.3281.8021.3281 1.3125V97h-1.1894v-1.0869h-.1094c-.1549.2598-.3441.4808-.5674.6631-.2187.1823-.4671.3213-.7451.417-.278.0911-.5833.1367-.916.1367M48.3574 97V86.7051h1.1895V97zm3.5 0v-7.3691h1.1895V97zm.6016-8.791c-.2233 0-.417-.0798-.5811-.2393-.1595-.164-.2392-.3577-.2392-.581 0-.2279.0797-.4216.2392-.5811.1641-.1595.3578-.2392.5811-.2392.2278 0 .4215.0797.581.2392s.2393.3532.2393.5811c0 .2233-.0798.417-.2393.581-.1595.1595-.3532.2393-.581.2393m5.3594 8.9209c-.5469 0-1.03-.082-1.4493-.2461-.4192-.1686-.7565-.4033-1.0117-.7041q-.3759-.4512-.4443-1.0596h1.2168c.1002.3054.2962.5514.5879.7383.2916.1868.6722.2803 1.1416.2803.3327 0 .6243-.0479.875-.1436.2552-.1002.4557-.2347.6015-.4033.1459-.1732.2188-.3714.2188-.5947v-.0137c0-.2507-.1003-.4626-.3008-.6357-.2005-.1778-.5286-.3213-.9844-.4307l-1.1416-.2734c-.4603-.1094-.8385-.2507-1.1347-.4239-.2963-.1777-.515-.3942-.6563-.6494-.1413-.2598-.2119-.5651-.2119-.916v-.0068c0-.4102.1185-.7771.3555-1.1006.2415-.3236.5696-.5788.9843-.7657.4148-.1868.8819-.2802 1.4014-.2802.515 0 .9707.082 1.3672.2461.401.1595.7223.3873.9639.6836.2461.2962.3965.6448.4511 1.0459h-1.1689c-.0775-.2917-.2552-.5287-.5332-.711s-.6403-.2734-1.0869-.2734c-.2917 0-.5515.0478-.7793.1435-.2279.0912-.4079.2188-.5401.3829-.1321.164-.1982.3554-.1982.5742v.0136c0 .1641.0433.3099.1299.4375s.221.2393.4033.335q.27345.14355.7041.2529l1.1348.2735c.6927.1686 1.2076.4101 1.5449.7246.3418.3144.5127.736.5127 1.2646v.0137c0 .4375-.1299.8249-.3897 1.1621-.2597.3327-.6129.5925-1.0595.7793-.4421.1869-.9434.2803-1.5039.2803m7.3486-.0752c-.7565 0-1.3057-.1527-1.6475-.458-.3372-.3054-.5058-.8089-.5058-1.5108v-4.4707h-1.1621v-.9843h1.1621v-1.9073h1.2304v1.9073h1.6133v.9843h-1.6133v4.17c0 .4329.0821.7451.2461.9365.1641.1868.4375.2803.8203.2803.1049 0 .1937-.0023.2666-.0069.0775-.0045.1709-.0114.2803-.0205v1.0117a8.7 8.7 0 0 1-.3418.0479c-.1139.0137-.2301.0205-.3486.0205m8.9346.0752c-.5469 0-1.03-.082-1.4493-.2461-.4192-.1686-.7565-.4033-1.0117-.7041q-.3759-.4512-.4443-1.0596h1.2168c.1002.3054.2962.5514.5879.7383.2916.1868.6722.2803 1.1416.2803.3327 0 .6243-.0479.875-.1436.2552-.1002.4557-.2347.6015-.4033.1459-.1732.2188-.3714.2188-.5947v-.0137c0-.2507-.1003-.4626-.3008-.6357-.2005-.1778-.5286-.3213-.9844-.4307l-1.1416-.2734c-.4603-.1094-.8385-.2507-1.1347-.4239-.2963-.1777-.515-.3942-.6563-.6494-.1413-.2598-.2119-.5651-.2119-.916v-.0068c0-.4102.1185-.7771.3555-1.1006.2415-.3236.5696-.5788.9843-.7657.4148-.1868.8819-.2802 1.4014-.2802.515 0 .9707.082 1.3672.2461.401.1595.7223.3873.9639.6836.2461.2962.3965.6448.4511 1.0459h-1.1689c-.0775-.2917-.2552-.5287-.5332-.711s-.6403-.2734-1.0869-.2734c-.2917 0-.5515.0478-.7793.1435-.2279.0912-.4079.2188-.5401.3829-.1321.164-.1982.3554-.1982.5742v.0136c0 .1641.0433.3099.1299.4375s.221.2393.4033.335q.27345.14355.7041.2529l1.1348.2735c.6927.1686 1.2077.4101 1.5449.7246.3418.3144.5127.736.5127 1.2646v.0137c0 .4375-.1299.8249-.3897 1.1621-.2597.3327-.6129.5925-1.0595.7793-.4421.1869-.9434.2803-1.5039.2803m7.3486-.0752c-.7565 0-1.3057-.1527-1.6475-.458-.3372-.3054-.5058-.8089-.5058-1.5108v-4.4707h-1.1621v-.9843h1.1621v-1.9073h1.2304v1.9073h1.6133v.9843h-1.6133v4.17c0 .4329.0821.7451.2461.9365.1641.1868.4375.2803.8204.2803.1048 0 .1936-.0023.2666-.0069.0774-.0045.1708-.0114.2802-.0205v1.0117a8.7 8.7 0 0 1-.3418.0479c-.1139.0137-.2301.0205-.3486.0205m3.0967 2.5293c-.0775 0-.1641-.0046-.2598-.0137-.0957-.0045-.1846-.0137-.2666-.0273v-.9776c.0729.0137.1527.0228.2393.0274.0866.0045.1709.0068.2529.0068.3372 0 .613-.0866.8271-.2598.2188-.1731.3942-.4716.5264-.8955l.1367-.4375-2.7275-7.3759h1.2715l2.2695 6.8086-.4717-.7452h.5606l-.4717.7452 2.2627-6.8086h1.251l-2.878 7.8203c-.205.5514-.4192.9821-.6425 1.292-.2188.3099-.4786.5263-.7793.6494-.2963.1276-.6631.1914-1.1006.1914M91.5879 97V86.7051h1.1894V97zm6.4805.1299c-.7019 0-1.3057-.155-1.8116-.4649-.5013-.3099-.8886-.7474-1.1621-1.3125-.2689-.5696-.4033-1.2395-.4033-2.0097v-.0069c0-.761.1344-1.4287.4033-2.0029q.41025-.8613 1.1553-1.3467c.4967-.3235 1.0778-.4853 1.7432-.4853.6699 0 1.2441.1549 1.7226.4648.4832.3099.8522.7429 1.1072 1.2988q.39.82725.39 1.9278v.4648h-5.9064v-.9502h5.2974l-.587.8682v-.4717c0-.5788-.087-1.055-.2602-1.4287-.1731-.3737-.4124-.6517-.7177-.834-.3054-.1868-.6563-.2803-1.0528-.2803s-.7519.098-1.0664.294c-.3099.1914-.556.4762-.7383.8545-.1823.3782-.2734.8431-.2734 1.3945v.4717c0 .5241.0889.973.2666 1.3467.1777.3691.4307.6539.7588.8545.3281.1959.7155.2939 1.1621.2939.3327 0 .6221-.0456.8682-.1367q.36915-.1368.6084-.3486c.1595-.1413.2711-.2849.3349-.4307l.0274-.0615h1.1894l-.014.0547c-.063.2506-.177.4944-.341.7314-.16.2324-.367.4443-.623.6357-.2547.1869-.5578.3373-.9087.4512-.3463.1094-.736.1641-1.1689.1641m11.5456-.0752c-.756 0-1.305-.1527-1.647-.458-.337-.3054-.506-.8089-.506-1.5108v-4.4707h-1.162v-.9843h1.162v-1.9073h1.23v1.9073h1.614v.9843h-1.614v4.17c0 .4329.082.7451.247.9365.164.1868.437.2803.82.2803.105 0 .193-.0023.266-.0069.078-.0045.171-.0114.281-.0205v1.0117a8.7 8.7 0 0 1-.342.0479c-.114.0137-.23.0205-.349.0205M112.15 97V86.7051h1.19v4.0332h.109c.187-.3919.456-.695.807-.9092.351-.2187.797-.3281 1.34-.3281q.8265 0 1.401.3213c.383.2096.675.5172.875.9228.201.4056.301.9001.301 1.4834V97h-1.19v-4.4844c0-.6653-.141-1.1575-.423-1.4765q-.417-.4854-1.299-.4854c-.392 0-.732.0843-1.019.2529-.287.1687-.51.4079-.67.7178-.155.3099-.232.6813-.232 1.1143V97zm10.2.1299c-.465 0-.885-.0889-1.258-.2666-.369-.1778-.663-.4307-.882-.7588-.214-.3281-.321-.7155-.321-1.1621v-.0137c0-.4375.104-.8112.314-1.1211.21-.3144.515-.5605.916-.7383.401-.1777.887-.2825 1.456-.3144l2.707-.1641v.9502l-2.563.1641c-.561.0319-.971.1481-1.231.3486-.255.2005-.383.4831-.383.8477v.0136c0 .3737.142.6654.424.875.283.2051.638.3077 1.067.3077.405 0 .765-.0798 1.08-.2393.314-.1641.56-.3851.738-.6631.182-.278.274-.5924.274-.9433v-2.2969c0-.4558-.139-.8021-.417-1.0391-.274-.2415-.686-.3623-1.238-.3623-.442 0-.804.0798-1.087.2393-.282.1549-.471.3759-.567.6631l-.007.0205h-1.189l.006-.0411c.064-.3873.224-.7246.479-1.0117.26-.2916.595-.5172 1.005-.6767.41-.1641.877-.2461 1.401-.2461.602 0 1.11.098 1.525.2939.419.196.736.4785.95.8477.219.3646.328.8021.328 1.3125V97h-1.189v-1.0869h-.11c-.155.2598-.344.4808-.567.6631-.219.1823-.467.3213-.745.417-.278.0911-.584.1367-.916.1367m8.319-.0752c-.757 0-1.306-.1527-1.648-.458-.337-.3054-.505-.8089-.505-1.5108v-4.4707h-1.162v-.9843h1.162v-1.9073h1.23v1.9073h1.613v.9843h-1.613v4.17c0 .4329.082.7451.246.9365.164.1868.438.2803.82.2803q.1575 0 .267-.0069c.078-.0045.171-.0114.28-.0205v1.0117c-.114.0183-.227.0342-.341.0479s-.231.0205-.349.0205M137.143 97V86.7051h1.189V97zm6.48.1299c-.702 0-1.306-.155-1.811-.4649-.502-.3099-.889-.7474-1.163-1.3125-.268-.5696-.403-1.2395-.403-2.0097v-.0069c0-.761.135-1.4287.403-2.0029.274-.5742.659-1.0231 1.156-1.3467.496-.3235 1.077-.4853 1.743-.4853.67 0 1.244.1549 1.723.4648.483.3099.852.7429 1.107 1.2988q.39.82725.39 1.9278v.4648h-5.907v-.9502h5.298l-.588.8682v-.4717c0-.5788-.086-1.055-.259-1.4287-.174-.3737-.413-.6517-.718-.834-.306-.1868-.656-.2803-1.053-.2803-.396 0-.752.098-1.066.294-.31.1914-.556.4762-.739.8545-.182.3782-.273.8431-.273 1.3945v.4717c0 .5241.089.973.266 1.3467.178.3691.431.6539.759.8545.328.1959.716.2939 1.162.2939.333 0 .622-.0456.869-.1367.246-.0912.448-.2074.608-.3486.159-.1413.271-.2849.335-.4307l.027-.0615h1.19l-.014.0547q-.096.3759-.342.7314c-.159.2324-.367.4443-.622.6357q-.3825.28035-.909.4512c-.346.1094-.736.1641-1.169.1641m7.608-.0752c-.756 0-1.305-.1527-1.647-.458-.337-.3054-.506-.8089-.506-1.5108v-4.4707h-1.162v-.9843h1.162v-1.9073h1.231v1.9073h1.613v.9843h-1.613v4.17c0 .4329.082.7451.246.9365.164.1868.437.2803.82.2803q.1575 0 .267-.0069c.077-.0045.17-.0114.28-.0205v1.0117a8.7 8.7 0 0 1-.342.0479c-.114.0137-.23.0205-.349.0205m4.861.0752c-.547 0-1.03-.082-1.449-.2461-.42-.1686-.757-.4033-1.012-.7041q-.3765-.4512-.444-1.0596h1.216c.101.3054.297.5514.588.7383.292.1868.672.2803 1.142.2803.332 0 .624-.0479.875-.1436.255-.1002.456-.2347.601-.4033.146-.1732.219-.3714.219-.5947v-.0137c0-.2507-.1-.4626-.301-.6357-.2-.1778-.528-.3213-.984-.4307l-1.142-.2734q-.69-.1641-1.134-.4239c-.297-.1777-.515-.3942-.657-.6494-.141-.2598-.212-.5651-.212-.916v-.0068c0-.4102.119-.7771.356-1.1006.241-.3236.57-.5788.984-.7657.415-.1868.882-.2802 1.402-.2802.515 0 .97.082 1.367.2461.401.1595.722.3873.964.6836.246.2962.396.6448.451 1.0459h-1.169c-.078-.2917-.255-.5287-.533-.711s-.641-.2734-1.087-.2734c-.292 0-.552.0478-.779.1435-.228.0912-.408.2188-.541.3829q-.198.246-.198.5742v.0136c0 .1641.044.3099.13.4375.087.1276.221.2393.403.335.183.0957.417.18.705.2529l1.134.2735c.693.1686 1.208.4101 1.545.7246.342.3144.513.736.513 1.2646v.0137c0 .4375-.13.8249-.39 1.1621-.259.3327-.613.5925-1.059.7793-.442.1869-.944.2803-1.504.2803M3.72559 117.055c-.75651 0-1.30567-.153-1.64747-.458-.33723-.306-.50585-.809-.50585-1.511v-4.471H.41016v-.984h1.16211v-1.907h1.23046v1.907h1.61329v.984H2.80273v4.17c0 .433.08204.745.2461.937.16406.187.4375.28.82031.28.10482 0 .19369-.002.2666-.007.07748-.004.1709-.011.28028-.02v1.011a6.7 6.7 0 0 1-.3418.048q-.1709.021-.34863.021M6.26172 117v-10.295h1.18945v4.033h.10938q.28027-.588.80664-.909c.35091-.219.79752-.328 1.33984-.328q.82719 0 1.40137.321c.3828.21.6745.518.875.923.2005.406.3008.9.3008 1.484V117h-1.1895v-4.484c0-.666-.1412-1.158-.4238-1.477-.278-.324-.71094-.485-1.29883-.485-.39193 0-.73145.084-1.01855.253-.28711.168-.51042.408-.66993.717-.15494.31-.23242.682-.23242 1.115V117zm11.18358.13c-.7018 0-1.3057-.155-1.8115-.465-.5013-.31-.8887-.747-1.1621-1.312-.2689-.57-.4033-1.24-.4033-2.01v-.007c0-.761.1344-1.429.4033-2.003q.4101-.861 1.1553-1.347c.4967-.323 1.0778-.485 1.7431-.485.6699 0 1.2442.155 1.7227.465.483.31.8522.743 1.1074 1.299.2598.551.3896 1.194.3896 1.927v.465h-5.9062v-.95h5.2978l-.5878.868v-.471c0-.579-.0866-1.055-.2598-1.429s-.4124-.652-.7178-.834c-.3053-.187-.6562-.28-1.0527-.28s-.752.098-1.0664.293q-.46485.288-.7383.855c-.1823.378-.2734.843-.2734 1.395v.471c0 .524.0888.973.2666 1.347.1777.369.4306.654.7587.854.3282.196.7155.294 1.1622.294.3326 0 .622-.045.8681-.136.2461-.092.4489-.208.6084-.349s.2712-.285.335-.431l.0273-.061h1.1895l-.0137.054c-.0638.251-.1777.495-.3418.732-.1595.232-.3669.444-.6221.636-.2552.186-.5582.337-.9091.451-.3464.109-.736.164-1.169.164m11.9424 0c-.6882 0-1.2852-.157-1.791-.472-.5059-.314-.8978-.759-1.1758-1.333s-.417-1.251-.417-2.03v-.014c0-.765.1367-1.431.4102-1.996.278-.565.6699-1.002 1.1757-1.312.5059-.315 1.1029-.472 1.7911-.472.597 0 1.1119.105 1.5449.314.4329.21.7793.493 1.039.848.2598.351.4262.745.4991 1.183l.0068.041h-1.1826l-.0069-.021c-.0911-.364-.2985-.674-.622-.929-.3236-.256-.7497-.383-1.2783-.383-.4421 0-.8249.111-1.1485.335-.3235.223-.5742.54-.7519.95-.1732.405-.2598.886-.2598 1.442v.014c0 .565.0889 1.057.2666 1.476.1777.415.4284.736.752.964.3235.228.7041.342 1.1416.342q.74505 0 1.2168-.321c.3144-.214.54-.527.6767-.937l.0137-.041 1.1758-.007-.0137.076c-.1003.442-.278.836-.5332 1.182-.2552.342-.5925.611-1.0117.807-.4193.196-.9252.294-1.5176.294m7.8477 0c-.6973 0-1.3012-.153-1.8116-.458-.5058-.31-.8978-.75-1.1758-1.319q-.4101-.855-.4101-2.031v-.013c0-.789.1367-1.468.4101-2.038.278-.569.67-1.007 1.1758-1.312.5104-.305 1.1143-.458 1.8116-.458.7018 0 1.3056.153 1.8115.458.5058.305.8955.743 1.1689 1.312.278.57.417 1.249.417 2.038v.013q0 1.176-.417 2.031c-.2734.569-.6631 1.009-1.1689 1.319-.5059.305-1.1097.458-1.8115.458m0-1.053c.4648 0 .859-.109 1.1826-.328.3235-.219.5696-.533.7382-.943.1732-.41.2598-.905.2598-1.484v-.013c0-.584-.0866-1.08-.2598-1.491-.1686-.41-.4147-.722-.7382-.936-.3236-.219-.7178-.328-1.1826-.328-.4649 0-.8591.109-1.1827.328-.3235.214-.5719.526-.7451.936-.1686.411-.2529.907-.2529 1.491v.013c0 .579.0843 1.074.2529 1.484.1732.41.4216.724.7451.943.3236.219.7178.328 1.1827.328m5.2431.923v-7.369h1.1895v1.107h.1093q.28035-.588.8067-.909c.3509-.219.7975-.328 1.3398-.328.8295 0 1.4652.237 1.9073.711.4466.469.6699 1.142.6699 2.017V117h-1.1895v-4.484c0-.666-.1413-1.158-.4238-1.477-.278-.324-.7109-.485-1.2988-.485-.392 0-.7315.084-1.0186.253-.2871.168-.5104.408-.6699.717-.155.31-.2324.682-.2324 1.115V117zm10.794.055c-.7565 0-1.3057-.153-1.6475-.458-.3372-.306-.5059-.809-.5059-1.511v-4.471H49.957v-.984h1.1621v-1.907h1.2305v1.907h1.6133v.984h-1.6133v4.17c0 .433.082.745.2461.937.1641.187.4375.28.8203.28.1048 0 .1937-.002.2666-.007.0775-.004.1709-.011.2803-.02v1.011c-.1139.019-.2279.035-.3418.048q-.17085.021-.3486.021m5.3798.075c-.7018 0-1.3056-.155-1.8115-.465-.5013-.31-.8887-.747-1.1621-1.312-.2689-.57-.4033-1.24-.4033-2.01v-.007c0-.761.1344-1.429.4033-2.003q.4101-.861 1.1553-1.347c.4967-.323 1.0778-.485 1.7431-.485.67 0 1.2442.155 1.7227.465.4831.31.8522.743 1.1074 1.299.2598.551.3897 1.194.3897 1.927v.465h-5.9063v-.95h5.2979l-.5879.868v-.471c0-.579-.0866-1.055-.2598-1.429s-.4124-.652-.7178-.834c-.3053-.187-.6562-.28-1.0527-.28s-.7519.098-1.0664.293q-.46485.288-.7383.855c-.1823.378-.2734.843-.2734 1.395v.471c0 .524.0889.973.2666 1.347.1777.369.4307.654.7588.854.3281.196.7155.294 1.1621.294.3327 0 .6221-.045.8682-.136.246-.092.4488-.208.6083-.349.1596-.141.2712-.285.335-.431l.0274-.061h1.1894l-.0137.054c-.0638.251-.1777.495-.3418.732-.1595.232-.3668.444-.622.636-.2552.186-.5583.337-.9092.451-.3464.109-.736.164-1.169.164m4.9903-.13v-7.369h1.1894v1.107h.1094c.1869-.392.4557-.695.8066-.909.351-.219.7976-.328 1.3399-.328.8294 0 1.4652.237 1.9072.711.4466.469.6699 1.142.6699 2.017V117h-1.1894v-4.484c0-.666-.1413-1.158-.4238-1.477-.278-.324-.711-.485-1.2989-.485-.3919 0-.7314.084-1.0185.253-.2871.168-.5104.408-.6699.717-.155.31-.2325.682-.2325 1.115V117zm10.7939.055c-.7565 0-1.3056-.153-1.6474-.458-.3373-.306-.5059-.809-.5059-1.511v-4.471h-1.1621v-.984h1.1621v-1.907h1.2305v1.907h1.6133v.984h-1.6133v4.17c0 .433.082.745.2461.937.164.187.4375.28.8203.28.1048 0 .1937-.002.2666-.007.0775-.004.1709-.011.2803-.02v1.011c-.114.019-.2279.035-.3418.048-.114.014-.2302.021-.3487.021m8.9346.075c-.5469 0-1.03-.082-1.4492-.246-.4193-.169-.7565-.404-1.0117-.704-.2507-.301-.3988-.654-.4444-1.06h1.2168c.1003.305.2962.552.5879.738.2917.187.6722.281 1.1416.281.3327 0 .6244-.048.875-.144.2552-.1.4557-.235.6016-.403.1458-.173.2187-.372.2187-.595v-.014c0-.25-.1002-.462-.3008-.635-.2005-.178-.5286-.322-.9843-.431l-1.1416-.273c-.4603-.11-.8386-.251-1.1348-.424-.2962-.178-.515-.394-.6563-.65-.1412-.259-.2119-.565-.2119-.916v-.007c0-.41.1185-.777.3555-1.1.2415-.324.5697-.579.9844-.766s.8818-.28 1.4013-.28c.515 0 .9707.082 1.3672.246.4011.16.7224.387.9639.684.2461.296.3965.645.4512 1.046h-1.169c-.0774-.292-.2552-.529-.5332-.711-.278-.183-.6403-.274-1.0869-.274-.2917 0-.5514.048-.7793.144-.2279.091-.4079.218-.54.383-.1322.164-.1983.355-.1983.574v.013c0 .165.0433.31.1299.438s.221.239.4033.335.417.18.7041.253l1.1348.273c.6927.169 1.2077.41 1.5449.725.3418.314.5127.736.5127 1.265v.013c0 .438-.1299.825-.3896 1.162q-.3897.4995-1.0596.78c-.4421.186-.9434.28-1.5039.28m4.8672-.13v-10.295h1.1894v4.033h.1094c.1869-.392.4557-.695.8067-.909.3509-.219.7975-.328 1.3398-.328.5514 0 1.0185.107 1.4014.321.3828.21.6744.518.875.923.2005.406.3007.9.3007 1.484V117h-1.1894v-4.484c0-.666-.1413-1.158-.4238-1.477-.278-.324-.711-.485-1.2989-.485-.3919 0-.7314.084-1.0185.253-.2871.168-.5104.408-.6699.717-.155.31-.2325.682-.2325 1.115V117zm8.2031 0v-7.369h1.1895V117zm.6016-8.791c-.2233 0-.417-.08-.5811-.239-.1595-.164-.2392-.358-.2392-.581 0-.228.0797-.422.2392-.581q.24615-.24.5811-.24c.2278 0 .4215.08.581.24.1595.159.2393.353.2393.581 0 .223-.0798.417-.2393.581-.1595.159-.3532.239-.581.239m2.83 8.791v-7.369h1.189v1.107h.11q.2805-.588.807-.909c.35-.219.797-.328 1.339-.328q1.245 0 1.908.711c.446.469.67 1.142.67 2.017V117h-1.19v-4.484c0-.666-.141-1.158-.424-1.477-.278-.324-.711-.485-1.299-.485-.392 0-.731.084-1.018.253-.287.168-.511.408-.67.717-.155.31-.233.682-.233 1.115V117zm11.184.13q-1.053 0-1.812-.465c-.501-.31-.889-.747-1.162-1.312-.269-.57-.403-1.24-.403-2.01v-.007c0-.761.134-1.429.403-2.003.273-.574.659-1.023 1.155-1.347.497-.323 1.078-.485 1.743-.485.67 0 1.245.155 1.723.465.483.31.852.743 1.108 1.299.259.551.389 1.194.389 1.927v.465h-5.906v-.95h5.298l-.588.868v-.471c0-.579-.087-1.055-.26-1.429s-.412-.652-.718-.834c-.305-.187-.656-.28-1.052-.28-.397 0-.752.098-1.067.293q-.465.288-.738.855c-.182.378-.274.843-.274 1.395v.471q0 .786.267 1.347c.178.369.431.654.759.854.328.196.715.294 1.162.294.333 0 .622-.045.868-.136.246-.092.449-.208.609-.349.159-.141.271-.285.335-.431l.027-.061h1.189l-.013.054q-.096.3765-.342.732c-.16.232-.367.444-.622.636-.255.186-.559.337-.909.451-.347.109-.736.164-1.169.164M3.72559 137.055c-.75651 0-1.30567-.153-1.64747-.458-.33723-.306-.50585-.809-.50585-1.511v-4.471H.41016v-.984h1.16211v-1.907h1.23046v1.907h1.61329v.984H2.80273v4.17c0 .433.08204.745.2461.937.16406.187.4375.28.82031.28.10482 0 .19369-.002.2666-.007.07748-.004.1709-.011.28028-.02v1.011a6.7 6.7 0 0 1-.3418.048q-.1709.021-.34863.021M6.26172 137v-10.295h1.18945v4.033h.10938q.28027-.588.80664-.909c.35091-.219.79752-.328 1.33984-.328q.82719 0 1.40137.321c.3828.21.6745.518.875.923.2005.406.3008.9.3008 1.484V137h-1.1895v-4.484c0-.666-.1412-1.158-.4238-1.477-.278-.324-.71094-.485-1.29883-.485-.39193 0-.73145.084-1.01855.253-.28711.168-.51042.408-.66993.717-.15494.31-.23242.682-.23242 1.115V137zm8.17578 0v-7.369h1.1895v1.094h.1093c.1413-.388.3806-.689.7178-.903q.5058-.321 1.251-.321c.1139 0 .2256.007.3349.02.114.01.2006.019.2598.028v1.155c-.123-.023-.2438-.039-.3623-.048-.1139-.013-.237-.02-.3691-.02-.3783 0-.7133.075-1.0049.225-.2917.151-.5218.36-.6905.629-.164.269-.246.584-.246.944V137zm8.1553.13c-.6973 0-1.3011-.153-1.8116-.458-.5058-.31-.8977-.75-1.1757-1.319-.2735-.57-.4102-1.247-.4102-2.031v-.013c0-.789.1367-1.468.4102-2.038.278-.569.6699-1.007 1.1757-1.312.5105-.305 1.1143-.458 1.8116-.458.7018 0 1.3056.153 1.8115.458s.8955.743 1.1689 1.312c.278.57.417 1.249.417 2.038v.013q0 1.176-.417 2.031c-.2734.569-.663 1.009-1.1689 1.319-.5059.305-1.1097.458-1.8115.458m0-1.053c.4648 0 .859-.109 1.1826-.328s.5697-.533.7383-.943c.1731-.41.2597-.905.2597-1.484v-.013c0-.584-.0866-1.08-.2597-1.491q-.2529-.615-.7383-.936c-.3236-.219-.7178-.328-1.1826-.328-.4649 0-.8591.109-1.1826.328q-.4854.321-.7452.936c-.1686.411-.2529.907-.2529 1.491v.013c0 .579.0843 1.074.2529 1.484.1732.41.4216.724.7452.943.3235.219.7177.328 1.1826.328m7.7109 1.053c-.556 0-1.0231-.105-1.4014-.315-.3782-.214-.663-.524-.8544-.929-.1869-.41-.2803-.905-.2803-1.484v-4.771h1.1894v4.484c0 .661.1276 1.153.3828 1.477.2598.323.6836.485 1.2715.485.3236 0 .6084-.048.8545-.143.2507-.096.4603-.233.6289-.411.1686-.182.294-.401.376-.656.0866-.26.1299-.551.1299-.875v-4.361H33.79V137h-1.1894v-1.101h-.1094c-.1185.26-.2803.483-.4853.67q-.30765.2745-.7383.417-.4239.144-.9639.144m8.7432 2.468c-.5925 0-1.1097-.085-1.5518-.253-.442-.164-.7952-.399-1.0596-.704-.2597-.301-.4215-.652-.4853-1.053l.0137-.007h1.2304l.0069.007c.0638.278.2552.506.5742.683.319.183.7428.274 1.2715.274.6608 0 1.1758-.15 1.5449-.451.3737-.296.5605-.716.5605-1.258v-1.49h-.1093q-.2325.4035-.5811.69c-.2324.192-.4945.337-.7861.438-.2917.095-.6061.143-.9434.143-.6334 0-1.1826-.15-1.6474-.451-.4603-.305-.8158-.725-1.0664-1.258-.2507-.533-.376-1.144-.376-1.832v-.014c0-.688.1253-1.298.376-1.832.2552-.537.6152-.959 1.08-1.264.4649-.31 1.0186-.465 1.6612-.465.3463 0 .6653.055.957.164q.43755.1635.7725.465c.2278.2.4169.44.5673.718h.0821v-1.217h1.1894v7.266c0 .547-.1344 1.024-.4033 1.429-.2643.406-.6426.718-1.1348.937-.4921.223-1.0732.335-1.7431.335m-.0547-4.034c.4557 0 .8454-.104 1.1689-.314.3282-.214.5788-.508.752-.882.1777-.374.2666-.804.2666-1.292v-.014c0-.487-.0889-.92-.2666-1.298-.1732-.379-.4238-.675-.752-.889-.3235-.214-.7132-.321-1.1689-.321s-.8431.107-1.1621.321c-.3145.214-.556.51-.7246.889-.1641.378-.2461.811-.2461 1.298v.014c0 .488.082.918.2461 1.292.1686.374.4101.668.7246.882.319.21.7064.314 1.1621.314M44.6113 137v-10.295h1.1895v4.033h.1094c.1868-.392.4557-.695.8066-.909.3509-.219.7975-.328 1.3398-.328.5515 0 1.0186.107 1.4014.321.3828.21.6745.518.875.923.2005.406.3008.9.3008 1.484V137h-1.1895v-4.484c0-.666-.1412-1.158-.4238-1.477-.278-.324-.7109-.485-1.2988-.485-.3919 0-.7315.084-1.0186.253-.2871.168-.5104.408-.6699.717-.1549.31-.2324.682-.2324 1.115V137zm9.1465.068c-.2415 0-.4512-.086-.6289-.259-.1732-.178-.2598-.388-.2598-.629 0-.246.0866-.456.2598-.629.1777-.173.3874-.26.6289-.26.2461 0 .4557.087.6289.26s.2598.383.2598.629c0 .241-.0866.451-.2598.629-.1732.173-.3828.259-.6289.259" style="fill:#000;fill-opacity:1"/>
  <g filter="url(#a)">
    <rect width="96" height="32" x="187" y="62" fill="#111b2b" rx="6" style="fill:#111b2b;fill:color(display-p3 .0667 .1059 .1686);fill-opacity:1"/>
    <rect width="95" height="31" x="187.5" y="62.5" stroke="#111b2b" rx="5.5" style="stroke:#111b2b;stroke:color(display-p3 .0667 .1059 .1686);stroke-opacity:1"/>
    <path fill="#fff" d="M201.385 83v-1.3672h2.933c.651 0 1.146-.1321 1.483-.3965.337-.2689.506-.6539.506-1.1552v-.0137c0-.3327-.078-.613-.233-.8408-.154-.2279-.387-.3988-.697-.5127-.305-.114-.683-.1709-1.135-.1709h-2.857v-1.251h2.584q.936 0 1.422-.3555.492-.3555.492-1.0254v-.0136q0-.65625-.444-1.0254c-.297-.2461-.711-.3692-1.244-.3692h-2.81v-1.3672h3.233c.629 0 1.167.1003 1.614.3008.446.196.79.4785 1.032.8477.241.3646.362.7998.362 1.3056v.0137c0 .3464-.08.6699-.239.9707-.155.3008-.365.5515-.629.752-.26.2005-.556.3281-.889.3828v.123c.442.041.83.1687 1.162.3828.338.2097.6.4854.787.8272.191.3418.287.7246.287 1.1484v.0137c0 .5742-.137 1.071-.41 1.4902-.269.4193-.657.7429-1.163.9707-.505.2233-1.109.335-1.811.335zm-.882 0v-9.8643h1.764V83zm11.672.1504q-.834 0-1.401-.3213c-.378-.2187-.663-.5355-.855-.9502-.191-.4193-.287-.9251-.287-1.5176v-4.833h1.703v4.4434c0 .5788.113 1.014.341 1.3056.228.2917.6.4375 1.115.4375.273 0 .515-.041.724-.123.214-.0866.392-.2096.533-.3691.142-.1595.249-.351.322-.5743.073-.2278.109-.483.109-.7656v-4.3545h1.702V83h-1.702v-1.1348h-.116c-.114.2644-.274.4945-.479.6905q-.3075.2871-.738.4443c-.287.1003-.611.1504-.971.1504m8.87-.1162c-.857 0-1.475-.1572-1.853-.4717s-.567-.8294-.567-1.5449v-4.1699h-1.162v-1.3194h1.162v-1.832h1.729v1.832h1.573v1.3194h-1.573v3.7666c0 .3691.078.6403.233.8134.159.1687.414.253.765.253.123 0 .224-.0023.301-.0069.082-.0091.173-.0182.274-.0273v1.3125c-.119.0228-.256.041-.411.0547-.15.0136-.307.0205-.471.0205m5.41 0c-.857 0-1.474-.1572-1.852-.4717-.379-.3145-.568-.8294-.568-1.5449v-4.1699h-1.162v-1.3194h1.162v-1.832h1.73v1.832h1.572v1.3194h-1.572v3.7666c0 .3691.077.6403.232.8134.16.1687.415.253.766.253.123 0 .223-.0023.301-.0069q.123-.01365.273-.0273v1.3125c-.118.0228-.255.041-.41.0547-.15.0136-.308.0205-.472.0205m5.588.1162c-.742 0-1.383-.155-1.92-.4649q-.807-.4716-1.245-1.3398c-.287-.5788-.43-1.2715-.43-2.0781v-.0137c0-.7975.146-1.4857.437-2.0644.292-.5834.704-1.03 1.238-1.3399.537-.3099 1.178-.4648 1.92-.4648.743 0 1.381.1549 1.914.4648.538.3099.953.7542 1.245 1.333.291.5788.437 1.2692.437 2.0713v.0137c0 .8066-.146 1.4993-.437 2.0781-.287.5788-.7 1.0254-1.238 1.3398-.533.3099-1.173.4649-1.921.4649m0-1.3809c.392 0 .725-.098.998-.2939.278-.2005.49-.4854.636-.8545q.219-.56055.219-1.3467v-.0137c0-.5286-.073-.9775-.219-1.3466-.146-.3737-.358-.6586-.636-.8545-.273-.2006-.606-.3008-.998-.3008s-.726.1002-1.004.3008c-.278.1959-.49.4808-.636.8545-.146.3691-.219.818-.219 1.3466v.0137q0 .78615.219 1.3467c.146.3737.355.6585.629.8545.278.1959.615.2939 1.011.2939M237.194 83v-7.4717h1.702v1.1485h.116c.178-.4056.447-.7224.807-.9502.36-.2279.809-.3418 1.347-.3418.834 0 1.472.2415 1.914.7246.442.483.663 1.1689.663 2.0576V83h-1.702v-4.4365q0-.8751-.369-1.3125c-.242-.2917-.62-.4375-1.135-.4375-.337 0-.629.0752-.875.2256s-.435.3623-.568.6357c-.132.2734-.198.597-.198.9707V83zM262 81.9525l4.635 2.7975-1.23-5.2725L269.5 75.93l-5.392-.4575L262 70.5l-2.108 4.9725-5.392.4575 4.095 3.5475-1.23 5.2725z" style="fill:#fff;fill-opacity:1"/>
  </g>
  <defs>
    <filter id="a" width="96" height="33" x="187" y="62" color-interpolation-filters="sRGB" filterUnits="userSpaceOnUse">
      <feFlood flood-opacity="0" result="BackgroundImageFix"/>
      <feColorMatrix in="SourceAlpha" result="hardAlpha" values="0 0 0 0 0 0 0 0 0 0 0 0 0 0 0 0 0 0 127 0"/>
      <feOffset dy="1"/>
      <feColorMatrix values="0 0 0 0 0.0666667 0 0 0 0 0.105882 0 0 0 0 0.168627 0 0 0 0.05 0"/>
      <feBlend in2="BackgroundImageFix" result="effect1_dropShadow_61_562"/>
      <feBlend in="SourceGraphic" in2="effect1_dropShadow_61_562" result="shape"/>
    </filter>
  </defs>
</svg>
