<svg xmlns="http://www.w3.org/2000/svg" width="283" height="142" fill="none">
  <path fill="#000" d="M1.612 24q-.312 0-.312-.312V7.282q0-.312.312-.312h2.782q.312 0 .312.312v6.578h4.732V7.282q0-.312.286-.312h2.808c.1907 0 .286.104.286.312v16.406c0 .208-.0953.312-.286.312H9.724q-.286 0-.286-.312V16.85H4.706v6.838q0 .312-.312.312zm16.1166 0c-.1907 0-.286-.104-.286-.312V7.282c0-.208.0953-.312.286-.312h8.58c.1906 0 .286.104.286.312v2.392c0 .208-.0954.312-.286.312h-5.46v3.978h4.966c.1906 0 .286.104.286.312v2.236c0 .208-.0954.312-.286.312h-4.966v4.16h5.46c.1906 0 .286.104.286.312v2.392c0 .208-.0954.312-.286.312zm12.2261 0c-.2253 0-.2947-.1127-.208-.338l4.29-16.458q.05205-.234.312-.234h3.666c.1733 0 .286.078.338.234l4.316 16.458c.052.2253-.026.338-.234.338h-3.12q-.234 0-.312-.234l-2.132-10.14c-.1387-.5893-.26-1.1787-.364-1.768s-.208-1.17-.312-1.742h-.052c-.104.572-.2167 1.1527-.338 1.742l-.312 1.768-2.184 10.114c-.0173.1733-.1213.26-.312.26zm3.536-3.432.52-2.756h4.238l.572 2.756zM48.3343 24c-.1387 0-.2427-.0867-.312-.26l-4.16-16.406q-.078-.364.234-.364h3.094c.1907 0 .3033.078.338.234l2.08 9.906c.104.6067.208 1.222.312 1.846.1213.6067.2253 1.2393.312 1.898h.052c.0867-.6587.182-1.2913.286-1.898.1213-.624.2427-1.2393.364-1.846l2.054-9.88c.0347-.17333.1473-.26.338-.26h3.068q.33795 0 .234.338l-4.16 16.458q-.05205.234-.312.234zm15.5876 0c-.1906 0-.286-.104-.286-.312v-5.564l-4.42-10.764q-.0519-.182 0-.286c.052-.06933.1214-.104.208-.104h3.172q.28605 0 .312.234l1.508 4.602.468 1.56.468 1.56h.026c.1387-.5373.286-1.0573.442-1.56.156-.52.3207-1.04.494-1.56l1.482-4.628q.05205-.208.312-.208h3.094q.1821 0 .234.104.05205.104 0 .286l-4.394 10.764v5.564c0 .208-.0953.312-.286.312zm17.2539 0c-.1906 0-.286-.104-.286-.312V7.282c0-.208.0954-.312.286-.312h2.834c.1907 0 .286.104.286.312v16.406c0 .208-.0953.312-.286.312zm8.0176 0c-.1906 0-.286-.104-.286-.312V7.282c0-.208.0954-.312.286-.312h3.692q.234 0 .312.208l2.782 7.826q.28605.67605.546 1.482c.1734.5373.338 1.066.494 1.586.156.5027.286.962.39 1.378h.078c-.0346-.468-.078-1.014-.13-1.638a72 72 0 0 1-.078-1.924c-.0173-.6587-.026-1.2133-.026-1.664V7.282c0-.208.0867-.312.26-.312h2.6776c.191 0 .286.104.286.312v16.406c0 .208-.095.312-.286.312h-3.6656c-.1386 0-.2426-.0693-.312-.208l-2.782-7.618q-.41595-1.14405-.78-2.34-.33795-1.19595-.624-2.184h-.078c.052.4853.0867 1.0573.104 1.716.0174.6587.0347 1.3087.052 1.95.0347.6413.052 1.2133.052 1.716v6.656q0 .312-.312.312zm16.2196 0c-.225 0-.338-.104-.338-.312V7.282q0-.312.312-.312h4.498c2.236 0 3.918.61533 5.044 1.846 1.127 1.2133 1.69 3.0333 1.69 5.46v1.976c0 2.6-.563 4.5413-1.69 5.824-1.109 1.2827-2.764 1.924-4.966 1.924zm3.068-2.99h1.326q1.7685 0 2.574-1.17c.555-.7973.832-1.9933.832-3.588v-1.976c0-1.4387-.277-2.5133-.832-3.224q-.831-1.092-2.652-1.092h-1.248zm17.972 3.198c-1.889 0-3.319-.5027-4.29-1.508-.953-1.0227-1.43-2.5653-1.43-4.628V7.282q0-.312.312-.312h2.808c.191 0 .286.104.286.312v10.686c0 1.1267.182 1.95.546 2.47.381.5027.971.754 1.768.754.815 0 1.404-.2513 1.768-.754.381-.5027.572-1.326.572-2.47V7.282c0-.208.087-.312.26-.312h2.834c.191 0 .286.104.286.312v10.79c0 2.0453-.485 3.5793-1.456 4.602-.953 1.0227-2.375 1.534-4.264 1.534m14.772 0c-1.907 0-3.267-.4507-4.082-1.352s-1.153-2.1667-1.014-3.796c.017-.2427.121-.364.312-.364h2.756c.191 0 .277.1213.26.364-.035.7107.104 1.2653.416 1.664.312.3813.797.572 1.456.572.641 0 1.109-.1387 1.404-.416.312-.2773.468-.702.468-1.274 0-.312-.043-.5893-.13-.832-.087-.26-.234-.4853-.442-.676-.191-.208-.459-.4073-.806-.598l-2.782-1.69c-1.023-.6067-1.751-1.2653-2.184-1.976-.433-.728-.641-1.6293-.624-2.704q.0255-2.106 1.248-3.224c.832-.76267 2.063-1.144 3.692-1.144 1.803 0 3.146.43333 4.03 1.3.884.84933 1.257 2.0713 1.118 3.666-.035.2947-.139.442-.312.442h-2.782c-.208 0-.295-.1473-.26-.442.052-.5893-.069-1.0747-.364-1.456q-.4155-.598-1.326-.598c-.537 0-.945.12133-1.222.364-.277.2427-.425.6153-.442 1.118 0 .4853.113.884.338 1.196.243.312.607.6067 1.092.884l2.756 1.638c.693.416 1.239.8493 1.638 1.3.416.4333.711.9273.884 1.482.191.5373.277 1.1873.26 1.95 0 1.4907-.425 2.6347-1.274 3.432-.849.78-2.21 1.17-4.082 1.17M153.652 24c-.19 0-.286-.104-.286-.312V9.986h-3.38c-.19 0-.286-.104-.286-.312V7.282c0-.208.096-.312.286-.312h10.14c.191 0 .286.104.286.312v2.392c0 .208-.095.312-.286.312h-3.38v13.702c0 .208-.086.312-.26.312zm10.821 0c-.191 0-.286-.104-.286-.312V7.282c0-.208.095-.312.286-.312h4.576c1.976 0 3.414.42467 4.316 1.274.918.832 1.378 2.1147 1.378 3.848 0 1.2133-.208 2.21-.624 2.99s-1.04 1.3433-1.872 1.69v.026l3.25 6.812c.121.26.052.39-.208.39h-3.12c-.156 0-.269-.0693-.338-.208l-2.834-6.422h-1.404v6.318c0 .208-.096.312-.286.312zm3.12-9.438h1.43c.814 0 1.404-.182 1.768-.546.381-.3813.572-.9793.572-1.794s-.182-1.3953-.546-1.742-.945-.52-1.742-.52h-1.482zM179.574 24c-.19 0-.286-.104-.286-.312V7.282c0-.208.096-.312.286-.312h2.834c.191 0 .286.104.286.312v16.406c0 .208-.095.312-.286.312zm8.018 0c-.191 0-.286-.104-.286-.312V7.282c0-.208.095-.312.286-.312h8.58c.191 0 .286.104.286.312v2.392c0 .208-.095.312-.286.312h-5.46v3.978h4.966c.191 0 .286.104.286.312v2.236c0 .208-.095.312-.286.312h-4.966v4.16h5.46c.191 0 .286.104.286.312v2.392c0 .208-.095.312-.286.312zm17.817.208c-1.907 0-3.268-.4507-4.082-1.352-.815-.9013-1.153-2.1667-1.014-3.796.017-.2427.121-.364.312-.364h2.756c.19 0 .277.1213.26.364-.035.7107.104 1.2653.416 1.664.312.3813.797.572 1.456.572.641 0 1.109-.1387 1.404-.416.312-.2773.468-.702.468-1.274 0-.312-.044-.5893-.13-.832-.087-.26-.234-.4853-.442-.676-.191-.208-.46-.4073-.806-.598l-2.782-1.69c-1.023-.6067-1.751-1.2653-2.184-1.976-.434-.728-.642-1.6293-.624-2.704q.0255-2.106 1.248-3.224c.832-.76267 2.062-1.144 3.692-1.144 1.802 0 3.146.43333 4.03 1.3.884.84933 1.256 2.0713 1.118 3.666-.035.2947-.139.442-.312.442h-2.782c-.208 0-.295-.1473-.26-.442.052-.5893-.07-1.0747-.364-1.456q-.417-.598-1.326-.598c-.538 0-.945.12133-1.222.364-.278.2427-.425.6153-.442 1.118 0 .4853.112.884.338 1.196.242.312.606.6067 1.092.884l2.756 1.638c.693.416 1.239.8493 1.638 1.3.416.4333.71.9273.884 1.482.19.5373.277 1.1873.26 1.95 0 1.4907-.425 2.6347-1.274 3.432-.85.78-2.21 1.17-4.082 1.17M4.16 52.192q-1.248 0-2.112-.336c-.576-.224-.98133-.5707-1.216-1.04s-.27733-1.072-.128-1.808q.048-.192.24-.192h1.408c.14933 0 .208.0693.176.208-.064.3733-.032.672.096.896s.34133.3893.64.496q.448.144 1.056.144c.672 0 1.17333-.1173 1.504-.352q.512-.35205.512-1.008c0-.2133-.04267-.3947-.128-.544-.07467-.1493-.19733-.288-.368-.416-.17067-.1387-.4-.2773-.688-.416l-1.856-.896c-.40533-.192-.736-.4053-.992-.64-.256-.2453-.448-.5227-.576-.832-.128-.32-.192-.6827-.192-1.088 0-.96.34133-1.7013 1.024-2.224.68267-.5333 1.616-.8 2.8-.8q1.2 0 2.032.336c.56533.224.97067.5653 1.216 1.024s.29867 1.04.16 1.744q-.048.192-.192.192H7.104c-.128 0-.18133-.0693-.16-.208.064-.5333-.064-.912-.384-1.136q-.48-.336-1.328-.336-.832 0-1.312.336-.48.31995-.48.912c0 .1707.03733.336.112.496.07467.1493.18667.288.336.416.16.1173.368.24.624.368l1.856.896c.43733.2027.79467.432 1.072.688q.432.384.624.864c.128.32.192.6933.192 1.12 0 .992-.352 1.7653-1.056 2.32q-1.056.816-3.04.816m7.2791 0c-.7146 0-1.216-.2293-1.50398-.688-.288-.4693-.36266-1.152-.224-2.048l.83198-5.136c.0214-.128.0907-.192.208-.192h1.456c.1387 0 .1974.064.176.192l-.784 4.848c-.064.4693-.0373.8213.08 1.056.128.224.3574.336.688.336q.54405 0 1.104-.336c.384-.224.8214-.5707 1.312-1.04l-.16 1.408c-.32.3093-.6453.5867-.976.832-.3306.2347-.6773.4213-1.04.56-.3626.1387-.752.208-1.168.208m3.104-.192q-.17595 0-.192-.192v-.592c.0107-.2133.032-.4267.064-.64l-.016-.816.864-5.44q.0321-.192.192-.192h1.472c.1387 0 .1974.064.176.192l-.912 5.68c-.0426.3093-.08.6187-.112.928-.032.2987-.0533.592-.064.88-.0106.128-.08.192-.208.192zm6.5045.192c-.3946 0-.7626-.0267-1.104-.08-.3306-.0427-.672-.0907-1.024-.144s-.7413-.096-1.168-.128l1.68-10.576c.0214-.128.0907-.192.208-.192h1.456c.128 0 .1814.0693.16.208l-1.456 9.2c.2027.032.4214.064.656.096.2347.032.448.048.64.048.5867 0 1.0294-.1493 1.328-.448.2987-.3093.5014-.7733.608-1.392l.256-1.696c.0854-.5227.048-.9067-.112-1.152-.1493-.2453-.4053-.368-.768-.368q-.46395 0-1.008.288c-.352.1813-.7786.4747-1.28.88l.304-1.536c.4907-.4267.9654-.7413 1.424-.944.4694-.2133.9494-.32 1.44-.32.7467 0 1.2854.2347 1.616.704.3307.4587.4214 1.1627.272 2.112l-.352 2.192c-.1066.7253-.3093 1.328-.608 1.808-.2986.48-.7093.8427-1.232 1.088-.512.2347-1.1573.352-1.936.352M26.2108 52c-.128 0-.1814-.064-.16-.192l1.68-10.544q.03195-.192.192-.192h1.488c.128 0 .1813.064.16.192l-1.68 10.544q-.0321.192-.192.192zm4.928 0c-.128 0-.1814-.064-.16-.192l.768-4.896c.1386-.896-.16-1.344-.896-1.344-.2347 0-.4747.0427-.72.128-.2454.0853-.5067.2293-.784.432-.2774.2027-.5974.464-.96.784l.144-1.376c.5333-.5227 1.0613-.9173 1.584-1.184.5226-.2773 1.072-.416 1.648-.416.7466 0 1.28.2293 1.6.688.3306.4587.4213 1.136.272 2.032l-.816 5.152q-.0321.192-.192.192zm6.7719.192q-1.6479 0-2.448-.864c-.5333-.576-.7146-1.3867-.544-2.432l.32-1.856c.1814-1.056.576-1.8347 1.184-2.336.608-.512 1.4507-.768 2.528-.768.992 0 1.744.1867 2.256.56.512.3627.768.88.768 1.552 0 .8107-.256 1.424-.768 1.84-.5013.4053-1.248.6667-2.24.784l-2.224.256-.032.272c-.0746.4907.0054.864.24 1.12.2347.2453.6027.368 1.104.368.4054 0 .736-.0693.992-.208.2667-.1493.416-.352.448-.608.0214-.1387.0854-.208.192-.208h1.456c.1174 0 .1707.064.16.192-.0213.48-.176.896-.464 1.248-.288.3413-.6826.608-1.184.8-.4906.192-1.072.288-1.744.288m-.96-4.544 1.744-.224c.5014-.0747.8534-.1973 1.056-.368.2134-.1813.32-.4427.32-.784 0-.2667-.1066-.4693-.32-.608-.2026-.1493-.512-.224-.928-.224-.5226 0-.928.1333-1.216.4-.288.256-.4746.6453-.56 1.168zm7.808 4.544c-.5333 0-.9493-.1227-1.248-.368-.288-.256-.4746-.608-.56-1.056-.0853-.448-.08-.9707.016-1.568l.352-2.128c.1814-1.12.56-1.92 1.136-2.4.576-.4907 1.424-.736 2.544-.736.6294 0 1.2054.0533 1.728.16.5227.1067 1.0987.1813 1.7281.224L49.5427 50c-.0426.3093-.0853.6187-.1279.928-.0321.2987-.0534.592-.0641.88 0 .128-.0693.192-.208.192h-1.264c-.1173 0-.176-.064-.176-.192q-.0159-.22395 0-.48c.0107-.1707.0214-.3413.032-.512-.48.448-.9813.7893-1.504 1.024-.512.2347-1.0026.352-1.472.352m.928-1.632q.48 0 .96-.24c.3307-.1707.7094-.4427 1.136-.816l.608-3.84c-.2026-.0427-.4373-.08-.704-.112-.2666-.032-.512-.048-.736-.048-.576 0-1.0026.1387-1.28.416-.2666.2773-.448.704-.544 1.28l-.288 1.84c-.0746.4587-.0533.8267.064 1.104.1174.2773.3787.416.784.416m7.4821 1.632c-.7574 0-1.2907-.2507-1.6-.752-.3094-.5013-.384-1.2213-.224-2.16l.4-2.448c.16-.9493.5066-1.6693 1.04-2.16.5333-.4907 1.248-.736 2.144-.736.416 0 .832.0587 1.248.176.4266.1067.7573.2347.992.384L56.9928 46c-.2667-.16-.5707-.2827-.912-.368-.3307-.0853-.6294-.128-.896-.128-.4907 0-.8694.1387-1.136.416-.256.2773-.4267.6773-.512 1.2l-.32 1.936c-.0747.4907-.0427.864.096 1.12q.22395.384.768.384c.2453 0 .4853-.0427.72-.128q.3519-.144.768-.432c.288-.2027.6133-.4693.976-.8l-.16 1.392c-.352.32-.6987.6027-1.04.848-.3307.2347-.672.4213-1.024.56q-.528.192-1.152.192m3.072-.192c-.1174 0-.176-.064-.176-.192-.0107-.1707-.0107-.368 0-.592.0213-.2347.0426-.4373.064-.608l.016-.848 1.344-8.496c.0213-.128.0906-.192.208-.192h1.472c.128 0 .1813.064.16.192l-1.392 8.832c-.0427.3093-.08.624-.112.944-.032.3093-.048.56-.048.752-.0107.1387-.0747.208-.192.208zm6.5361.192q-1.64805 0-2.448-.864c-.5334-.576-.7147-1.3867-.544-2.432l.32-1.856c.1813-1.056.576-1.8347 1.184-2.336.608-.512 1.4506-.768 2.528-.768.992 0 1.744.1867 2.256.56.512.3627.768.88.768 1.552 0 .8107-.256 1.424-.768 1.84-.5014.4053-1.248.6667-2.24.784l-2.224.256-.032.272c-.0747.4907.0053.864.24 1.12.2346.2453.6026.368 1.104.368.4053 0 .736-.0693.992-.208.2666-.1493.416-.352.448-.608.0213-.1387.0853-.208.192-.208h1.456c.1173 0 .1706.064.16.192-.0214.48-.176.896-.464 1.248-.288.3413-.6827.608-1.184.8-.4907.192-1.072.288-1.744.288m-.96-4.544 1.744-.224c.5013-.0747.8533-.1973 1.056-.368.2133-.1813.32-.4427.32-.784 0-.2667-.1067-.4693-.32-.608-.2027-.1493-.512-.224-.928-.224-.5227 0-.928.1333-1.216.4-.288.256-.4747.6453-.56 1.168zM67.7532 52c-.128 0-.1813-.064-.16-.192l.912-5.712c.0534-.32.0907-.624.112-.912.032-.288.0534-.576.064-.864 0-.128.0694-.192.208-.192h1.312c.1174 0 .1814.0587.192.176 0 .192-.0053.4107-.016.656-.0106.2347-.032.448-.064.64l-.032.928-.848 5.28c-.0106.0533-.032.1013-.064.144-.0213.032-.064.048-.128.048zm2.24-4.768.176-1.632c.2667-.32.544-.6027.832-.848.2987-.256.6027-.4533.912-.592.32-.1493.6187-.224.896-.224.2134 0 .3627.016.448.048.064.0213.1014.0533.112.096q.01605.048 0 .144c-.0213.2453-.0586.512-.112.8-.0533.288-.112.56-.176.816-.0426.1387-.1226.192-.24.16-.0746-.0213-.16-.0373-.256-.048-.0853-.0107-.1866-.016-.304-.016-.2453 0-.5013.0533-.768.16-.256.096-.5173.24-.784.432-.256.192-.5013.4267-.736.704M1.33 76c-.09333 0-.14-.0467-.14-.14v-8.89c0-.0933.04667-.14.14-.14h.91c.09333 0 .14.0467.14.14v8.89c0 .0933-.04667.14-.14.14zm5.68236.168c-.476 0-.85867-.0793-1.148-.238-.28-.168-.48533-.4153-.616-.742q-.182-.49005-.182-1.218v-3.78h-1.078c-.09333 0-.14-.0467-.14-.14v-.742c0-.0933.04667-.14.14-.14h1.106l.154-1.68c.00933-.0933.06067-.14.154-.14h.7c.09333 0 .14.0467.14.14l.014 1.68h2.086c.09333 0 .14.0467.14.14v.742c0 .0933-.04667.14-.14.14h-2.086v3.752q0 .65805.224.924c.15867.1773.42467.266.798.266.18667 0 .37333-.0187.56-.056q.28-.07005.49-.168c.112-.0467.168-.014.168.098v.77c0 .0747-.03733.126-.112.154q-.252.09795-.588.168c-.224.0467-.48533.07-.784.07m2.77616-6.076c-.112 0-.154-.0607-.126-.182l.69998-2.954c.0187-.084.0653-.126.14-.126h1.064c.1213 0 .1587.0653.112.196l-1.008 2.968c-.028.0653-.07.098-.126.098zm5.03988 6.076q-1.26 0-1.89-.546c-.42-.3733-.63-.9287-.63-1.666 0-.084.0467-.126.14-.126h.924c.084 0 .126.0373.126.112 0 .42.1027.7233.308.91.2147.1867.56.28 1.036.28.4573 0 .8027-.0747 1.036-.224.2333-.1587.35-.3827.35-.672 0-.2147-.0653-.392-.196-.532-.1307-.1493-.336-.2847-.616-.406l-1.596-.658c-.5133-.2147-.8773-.4573-1.092-.728s-.322-.6207-.322-1.05q0-.924.588-1.386c.392-.3173.9753-.476 1.75-.476q1.18995 0 1.848.504c.4387.3267.658.7933.658 1.4 0 .084-.0467.126-.14.126h-.924c-.0933 0-.14-.0747-.14-.224 0-.2427-.112-.4293-.336-.56q-.336-.21-.924-.21c-.4013 0-.7.07-.896.21-.196.1307-.294.336-.294.616 0 .2053.0513.3593.154.462.112.1027.3313.224.658.364l1.596.672c.4947.2053.854.448 1.078.728s.336.6393.336 1.078c0 .644-.224 1.1387-.672 1.484s-1.0873.518-1.918.518M22.19 76c-.0933 0-.14-.0467-.14-.14v-4.984c0-.252-.0093-.5133-.028-.784-.0093-.28-.0327-.532-.07-.756-.0187-.112.0327-.168.154-.168h.84c.084 0 .1307.0327.14.098.0187.14.042.2893.07.448s.0467.322.056.49c.42-.42.8167-.7233 1.19-.91.3733-.196.7747-.294 1.204-.294.476 0 .8587.112 1.148.336q.44805.32205.63.966c.448-.4573.8633-.7887 1.246-.994S29.428 69 29.876 69c.6253 0 1.0967.196 1.414.588.3267.392.49.9707.49 1.736v4.536c0 .0933-.0467.14-.14.14h-.91c-.0933 0-.14-.0467-.14-.14v-4.466q0-.672-.252-1.008-.23805-.336-.756-.336c-.308 0-.6253.098-.952.294-.3173.1867-.6907.4853-1.12.896v4.62c0 .0933-.0467.14-.14.14h-.91c-.0933 0-.14-.0467-.14-.14v-4.466q0-.672-.252-1.008-.23805-.336-.756-.336c-.308 0-.6253.098-.952.294-.3173.1867-.6907.4853-1.12.896v4.62c0 .0933-.0467.14-.14.14zm14.2902.168c-.896 0-1.5867-.21-2.072-.63-.476-.42-.714-1.0407-.714-1.862v-1.96q0-1.33005.714-2.016c.476-.4667 1.1666-.7 2.072-.7.9053 0 1.5913.2287 2.058.686.476.448.714 1.1013.714 1.96v1.092c0 .0933-.0467.14-.14.14h-4.228v.448c0 .6253.1306 1.0827.392 1.372.2613.28.686.42 1.274.42q.6579 0 1.008-.21c.2426-.1493.364-.364.364-.644 0-.1027.0513-.154.154-.154h.91c.0746 0 .1213.042.14.126.0373.5973-.182 1.0687-.658 1.414s-1.1387.518-1.988.518m-1.596-4.312h3.178v-.084c0-.588-.1307-1.022-.392-1.302q-.3921-.42-1.176-.42c-.5414 0-.9474.1447-1.218.434-.2614.2893-.392.7233-.392 1.302zm8.509 4.312c-.476 0-.8586-.0793-1.148-.238-.28-.168-.4853-.4153-.616-.742-.1213-.3267-.182-.7327-.182-1.218v-3.78h-1.078c-.0933 0-.14-.0467-.14-.14v-.742c0-.0933.0467-.14.14-.14h1.106l.154-1.68c.0094-.0933.0607-.14.154-.14h.7c.0934 0 .14.0467.14.14l.014 1.68h2.086c.0934 0 .14.0467.14.14v.742c0 .0933-.0466.14-.14.14h-2.086v3.752c0 .4387.0747.7467.224.924.1587.1773.4247.266.798.266.1867 0 .3734-.0187.56-.056.1867-.0467.35-.1027.49-.168.112-.0467.168-.014.168.098v.77c0 .0747-.0373.126-.112.154q-.252.09795-.588.168c-.224.0467-.4853.07-.784.07M50.2933 76c-.056 0-.0934-.0187-.112-.056-.0187-.0373-.0374-.084-.056-.14-.0094-.0747-.0327-.2333-.07-.476-.028-.252-.0467-.476-.056-.672l-.042-.532v-2.786c0-.4667-.0934-.798-.28-.994-.1867-.196-.5134-.294-.98-.294-.84 0-1.26.2893-1.26.868 0 .0933-.042.14-.126.14h-.924c-.0934 0-.1447-.0887-.154-.266-.0467-.532.1586-.9613.616-1.288q.6999-.504 1.89-.504c.812 0 1.414.1913 1.806.574.4013.3827.602.9613.602 1.736v2.996c0 .3267.0093.6207.028.882.0186.252.042.4713.07.658.0186.1027-.028.154-.14.154zm-2.674.168c-.5414 0-.9567-.1633-1.246-.49q-.42-.49005-.42-1.428c0-.4853.0933-.882.28-1.19q.294-.462.924-.714c.4293-.168.9986-.28 1.708-.336l1.316-.112v.91l-1.344.112c-.644.056-1.0874.1727-1.33.35-.2427.1773-.364.476-.364.896q0 .47595.1959.714c.1307.1587.3267.238.5881.238.308 0 .63-.1027.966-.308.336-.2147.7793-.6067 1.33-1.176v1.05c-.3267.3547-.6347.644-.924.868-.2801.2147-.5554.3687-.826.462-.2707.1027-.5554.154-.854.154M53.3892 76c-.0933 0-.14-.0467-.14-.14v-9.282c0-.0933.0467-.14.14-.14h.91c.0934 0 .14.0467.14.14v9.282c0 .0933-.0466.14-.14.14zm3.7289.168c-.28 0-.4806-.07-.602-.21-.1213-.1493-.182-.3407-.182-.574v-.14c0-.2333.0607-.42.182-.56.1214-.1493.322-.224.602-.224s.4807.0747.602.224c.1214.14.182.3267.182.56v.14c0 .2333-.0606.4247-.182.574-.1213.14-.322.21-.602.21M63.0175 76c-.0933 0-.14-.0467-.14-.14v-8.89c0-.0933.0467-.14.14-.14h2.492c1.064 0 1.8573.1913 2.38.574q.798.55995.798 1.722c0 .504-.1213.9147-.364 1.232-.2427.308-.6393.5647-1.19.77v.028c.6533.1213 1.1387.378 1.456.77.3267.392.49.91.49 1.554 0 .8587-.2893 1.4933-.868 1.904-.5693.4107-1.4653.616-2.688.616zm1.05-1.036h1.442c.8587 0 1.47-.1213 1.834-.364s.546-.644.546-1.204c0-.5787-.1867-.9987-.56-1.26-.364-.2707-.9567-.406-1.778-.406h-1.484zm0-4.2h1.386c.7093 0 1.2273-.1167 1.554-.35.3267-.2427.49-.6207.49-1.134 0-.5227-.168-.8913-.504-1.106-.3267-.2147-.882-.322-1.666-.322h-1.26zm9.3974 5.404c-.9427 0-1.6613-.2287-2.156-.686-.4853-.4573-.728-1.1527-.728-2.086v-1.624c0-.9333.2427-1.6287.728-2.086s1.204-.686 2.156-.686c.9427 0 1.6567.2287 2.142.686.4947.4573.742 1.1527.742 2.086v1.624c0 .9333-.2427 1.6287-.728 2.086s-1.204.686-2.156.686m0-1.05c.5973 0 1.0267-.1493 1.288-.448.2707-.308.406-.77.406-1.386v-1.4c0-.616-.1353-1.0733-.406-1.372-.2613-.308-.6907-.462-1.288-.462q-.89595 0-1.302.462c-.2613.2987-.392.756-.392 1.372v1.4c0 .616.1307 1.078.392 1.386.2707.2987.7047.448 1.302.448m4.9439.882c-.0934 0-.14-.0467-.14-.14v-9.282c0-.0933.0466-.14.14-.14h.91c.0933 0 .14.0467.14.14v9.282c0 .0933-.0467.14-.14.14zm5.0309.168c-.6534 0-1.1574-.2193-1.512-.658-.3454-.4387-.518-1.0873-.518-1.946v-1.75c0-.8867.224-1.5773.672-2.072S83.1503 69 83.9437 69c.364 0 .7466.0513 1.148.154.4013.0933.7046.2147.91.364l.07 1.022c-.2987-.1587-.6254-.28-.98-.364-.3547-.084-.6674-.126-.938-.126-.5227 0-.9147.1587-1.176.476q-.378.47595-.378 1.428v1.68c0 .4947.0933.868.28 1.12.196.2427.4853.364.868.364.2333 0 .462-.042.686-.126.224-.0933.4713-.2427.742-.448.2706-.2147.588-.504.952-.868l-.028 1.092c-.3174.3173-.6207.5833-.91.798-.28.2053-.5647.3547-.854.448-.28.1027-.5787.154-.896.154m2.758-.168c-.1027 0-.1587-.0513-.168-.154-.0187-.14-.042-.3173-.07-.532s-.0374-.392-.028-.532l-.07-.63v-7.574c0-.0933.0466-.14.14-.14h.91c.0933 0 .14.0467.14.14v7.84c0 .1307.0046.2893.014.476.0093.1773.0186.35.028.518.0186.168.0373.2987.056.392.028.1307-.0187.196-.14.196zm3.5415.168c-.28 0-.4806-.07-.602-.21-.1213-.1493-.182-.3407-.182-.574v-.14c0-.2333.0607-.42.182-.56.1214-.1493.322-.224.602-.224s.4807.0747.602.224c.1214.14.182.3267.182.56v.14c0 .2333-.0606.4247-.182.574-.1213.14-.322.21-.602.21M95.6386 76c-.0933 0-.14-.0467-.14-.14v-8.89c0-.0933.0467-.14.14-.14h.91c.0933 0 .14.0467.14.14v8.89c0 .0933-.0467.14-.14.14zm7.9224 0c-.093 0-.14-.0467-.14-.14v-4.466c0-.4667-.098-.8073-.294-1.022-.187-.2147-.471-.322-.854-.322-.364 0-.723.1073-1.078.322s-.798.5833-1.33 1.106l.014-1.078c.317-.336.616-.6067.896-.812.289-.2053.574-.3547.854-.448.289-.0933.593-.14.91-.14.672 0 1.185.196 1.54.588s.532.9753.532 1.75v4.522c0 .0933-.047.14-.14.14zm-4.494 0c-.0934 0-.14-.0467-.14-.14v-4.984c0-.2427-.014-.5133-.042-.812-.0187-.308-.0374-.546-.056-.714-.0187-.1213.028-.182.14-.182h.854c.084 0 .1353.0467.154.14.0186.0747.037.1913.056.35s.037.3267.056.504c.019.168.028.3127.028.434v5.264c0 .0933-.047.14-.14.14zm9.515.168c-.653 0-1.157-.2193-1.512-.658-.345-.4387-.518-1.0873-.518-1.946v-1.75c0-.8867.224-1.5773.672-2.072s1.069-.742 1.862-.742c.364 0 .747.0513 1.148.154.402.0933.705.2147.91.364l.07 1.022c-.298-.1587-.625-.28-.98-.364-.354-.084-.667-.126-.938-.126-.522 0-.914.1587-1.176.476q-.378.47595-.378 1.428v1.68c0 .4947.094.868.28 1.12.196.2427.486.364.868.364.234 0 .462-.042.686-.126.224-.0933.472-.2427.742-.448.271-.2147.588-.504.952-.868l-.028 1.092c-.317.3173-.62.5833-.91.798-.28.2053-.564.3547-.854.448-.28.1027-.578.154-.896.154M111.34 76c-.102 0-.158-.0513-.168-.154-.018-.14-.042-.3173-.07-.532s-.037-.392-.028-.532l-.07-.63v-7.574c0-.0933.047-.14.14-.14h.91c.094 0 .14.0467.14.14v7.84c0 .1307.005.2893.014.476.01.1773.019.35.028.518.019.168.038.2987.056.392.028.1307-.018.196-.14.196zm4.816.168c-.598 0-1.055-.2007-1.372-.602-.318-.4013-.476-.98-.476-1.736v-4.522c0-.0933.046-.14.14-.14h.91c.093 0 .14.0467.14.14v4.466c0 .4573.079.798.238 1.022.168.2147.424.322.77.322.345 0 .69-.1073 1.036-.322.354-.2147.793-.588 1.316-1.12l-.028 1.106c-.299.308-.598.5647-.896.77-.299.2053-.598.3593-.896.462-.29.1027-.584.154-.882.154m2.8-.168c-.103 0-.159-.0467-.168-.14-.028-.1773-.052-.3593-.07-.546-.019-.1867-.033-.378-.042-.574l-.07-.588v-4.844c0-.0933.046-.14.14-.14h.91c.093 0 .14.0467.14.14v4.984c0 .252.004.5133.014.784.018.2707.046.532.084.784.018.0933-.033.14-.154.14zm5.152.168q-1.26 0-1.89-.546c-.42-.3733-.63-.9287-.63-1.666 0-.084.046-.126.14-.126h.924c.084 0 .126.0373.126.112 0 .42.102.7233.308.91.214.1867.56.28 1.036.28.457 0 .802-.0747 1.036-.224.233-.1587.35-.3827.35-.672 0-.2147-.066-.392-.196-.532-.131-.1493-.336-.2847-.616-.406l-1.596-.658c-.514-.2147-.878-.4573-1.092-.728-.215-.2707-.322-.6207-.322-1.05q0-.924.588-1.386c.392-.3173.975-.476 1.75-.476q1.1895 0 1.848.504c.438.3267.658.7933.658 1.4 0 .084-.047.126-.14.126h-.924c-.094 0-.14-.0747-.14-.224 0-.2427-.112-.4293-.336-.56q-.336-.21-.924-.21c-.402 0-.7.07-.896.21-.196.1307-.294.336-.294.616 0 .2053.051.3593.154.462.112.1027.331.224.658.364l1.596.672c.494.2053.854.448 1.078.728s.336.6393.336 1.078c0 .644-.224 1.1387-.672 1.484s-1.088.518-1.918.518m6.676 0c-.476 0-.859-.0793-1.148-.238-.28-.168-.485-.4153-.616-.742-.121-.3267-.182-.7327-.182-1.218v-3.78h-1.078c-.093 0-.14-.0467-.14-.14v-.742c0-.0933.047-.14.14-.14h1.106l.154-1.68c.009-.0933.061-.14.154-.14h.7c.093 0 .14.0467.14.14l.014 1.68h2.086c.093 0 .14.0467.14.14v.742c0 .0933-.047.14-.14.14h-2.086v3.752c0 .4387.075.7467.224.924.159.1773.425.266.798.266.187 0 .373-.0187.56-.056.187-.0467.35-.1027.49-.168.112-.0467.168-.014.168.098v.77c0 .0747-.037.126-.112.154q-.252.09795-.588.168c-.224.0467-.485.07-.784.07m3.133-.168c-.094 0-.14-.0467-.14-.14v-5.026c0-.2613-.01-.5133-.028-.756-.01-.252-.033-.504-.07-.756-.019-.1027.028-.154.14-.154h.854c.093 0 .144.042.154.126.037.1773.065.3827.084.616.018.224.028.4153.028.574l.028.742v4.634c0 .0933-.047.14-.14.14zm.896-4.354-.028-1.148c.196-.2893.42-.546.672-.77.261-.224.522-.4013.784-.532.27-.1307.518-.196.742-.196q.252 0 .378.042c.074.0187.116.0653.126.14.018.196.023.3967.014.602q0 .30795-.042.588c-.019.1027-.08.14-.182.112-.075-.0187-.154-.0327-.238-.042s-.173-.014-.266-.014c-.234 0-.467.0513-.7.154-.234.1027-.458.2473-.672.434q-.3225.26595-.588.63M138.907 76c-.094 0-.14-.0467-.14-.14v-6.552c0-.0933.046-.14.14-.14h.91c.093 0 .14.0467.14.14v6.552c0 .0933-.047.14-.14.14zm.462-7.98q-.4065 0-.588-.21c-.122-.1493-.182-.336-.182-.56v-.14c0-.224.06-.406.182-.546.121-.1493.317-.224.588-.224.27 0 .466.0747.588.224.121.14.182.322.182.546v.14c0 .224-.061.4107-.182.56q-.183.21-.588.21m6.655 7.98c-.056 0-.094-.0187-.112-.056-.019-.0373-.038-.084-.056-.14-.01-.0747-.033-.2333-.07-.476-.028-.252-.047-.476-.056-.672l-.042-.532v-2.786c0-.4667-.094-.798-.28-.994-.187-.196-.514-.294-.98-.294-.84 0-1.26.2893-1.26.868 0 .0933-.042.14-.126.14h-.924c-.094 0-.145-.0887-.154-.266-.047-.532.158-.9613.616-1.288q.699-.504 1.89-.504c.812 0 1.414.1913 1.806.574.401.3827.602.9613.602 1.736v2.996c0 .3267.009.6207.028.882.018.252.042.4713.07.658.018.1027-.028.154-.14.154zm-2.674.168c-.542 0-.957-.1633-1.246-.49q-.42-.49005-.42-1.428c0-.4853.093-.882.28-1.19q.294-.462.924-.714c.429-.168.998-.28 1.708-.336l1.316-.112v.91l-1.344.112c-.644.056-1.088.1727-1.33.35-.243.1773-.364.476-.364.896 0 .3173.065.5553.196.714.13.1587.326.238.588.238.308 0 .63-.1027.966-.308.336-.2147.779-.6067 1.33-1.176v1.05c-.327.3547-.635.644-.924.868-.28.2147-.556.3687-.826.462-.271.1027-.556.154-.854.154m5.77-.168c-.094 0-.14-.0467-.14-.14v-9.282c0-.0933.046-.14.14-.14h.91c.093 0 .14.0467.14.14v9.282c0 .0933-.047.14-.14.14zm3.729.168c-.28 0-.481-.07-.602-.21-.122-.1493-.182-.3407-.182-.574v-.14c0-.2333.06-.42.182-.56.121-.1493.322-.224.602-.224s.48.0747.602.224c.121.14.182.3267.182.56v.14c0 .2333-.061.4247-.182.574-.122.14-.322.21-.602.21m-148.957 20q-1.68 0-2.464-.714-.784-.72795-.7-1.89.014-.252.168-.252h.882c.112 0 .168.0747.168.224 0 .5693.168.98.504 1.232.336.2427.84933.364 1.54.364.66267 0 1.162-.1167 1.498-.35q.518-.36405.518-1.092c0-.2427-.042-.448-.126-.616q-.112-.26595-.392-.462c-.18667-.1307-.43867-.2613-.756-.392l-2.058-.854q-.644-.26595-1.05-.588-.392-.336-.574-.756c-.112-.2893-.168-.616-.168-.98q.014-1.16205.77-1.764c.51333-.4013 1.25533-.602 2.226-.602q.994 0 1.722.294c.48533.196.854.4807 1.106.854s.35467.8307.308 1.372c-.01867.1773-.07.266-.154.266h-.896c-.04667 0-.084-.0187-.112-.056q-.028-.05595-.014-.21.056-.714-.49-1.092c-.35467-.2613-.85867-.392-1.512-.392-.57867 0-1.01733.1027-1.316.308-.28933.2053-.43867.5227-.448.952q0 .336.112.588.126.252.406.462.294.21.798.42l2.03.854q.644.26595 1.036.588t.56.756c.12133.28.182.6207.182 1.022q0 1.176-.798 1.848c-.532.4387-1.36733.658-2.506.658m7.817 0c-.9426 0-1.6613-.2287-2.15597-.686-.48533-.4573-.728-1.1527-.728-2.086v-1.624c0-.9333.24267-1.6287.728-2.086C10.0384 89.2287 10.757 89 11.709 89c.9427 0 1.6567.2287 2.142.686.4947.4573.742 1.1527.742 2.086v1.624c0 .9333-.2426 1.6287-.728 2.086-.4853.4573-1.204.686-2.156.686m0-1.05c.5974 0 1.0267-.1493 1.288-.448.2707-.308.406-.77.406-1.386v-1.4c0-.616-.1353-1.0733-.406-1.372-.2613-.308-.6906-.462-1.288-.462q-.89595 0-1.302.462c-.2613.2987-.392.756-.392 1.372v1.4c0 .616.1307 1.078.392 1.386.2707.2987.7047.448 1.302.448m5.3782.882c-.0373 0-.07-.014-.098-.042s-.042-.0607-.042-.098v-5.67h-1.078c-.0373 0-.07-.014-.098-.042s-.042-.0607-.042-.098v-.742c0-.0467.014-.0793.042-.098.028-.028.0607-.042.098-.042h1.078v-.728c0-.6907.2007-1.2227.602-1.596.4107-.3827.9707-.574 1.68-.574.2147 0 .434.0233.658.07.224.0373.4154.0887.574.154.1774.0653.266.1447.266.238v.742c0 .056-.0233.0933-.07.112-.0373.0187-.1213 0-.252-.056-.1493-.0653-.3266-.1167-.532-.154-.2053-.0467-.392-.07-.56-.07q-.5739 0-.882.294c-.196.196-.294.4853-.294.868v.7h2.03c.0934 0 .14.0467.14.14v.742c0 .0373-.014.07-.042.098-.0186.028-.0513.042-.098.042h-2.03v5.67c0 .0373-.014.07-.042.098-.0186.028-.0513.042-.098.042zm4.6926 0c-.0933 0-.14-.0467-.14-.14v-6.552c0-.0933.0467-.14.14-.14h.91c.0934 0 .14.0467.14.14v6.552c0 .0933-.0466.14-.14.14zm.462-7.98q-.4059 0-.588-.21c-.1213-.1493-.182-.336-.182-.56v-.14c0-.224.0607-.406.182-.546.1214-.1493.3174-.224.588-.224.2707 0 .4667.0747.588.224.1214.14.182.322.182.546v.14c0 .224-.0606.4107-.182.56q-.18195.21-.588.21m6.655 7.98c-.056 0-.0934-.0187-.112-.056-.0187-.0373-.0374-.084-.056-.14-.0094-.0747-.0327-.2333-.07-.476-.028-.252-.0467-.476-.056-.672l-.042-.532v-2.786c0-.4667-.0934-.798-.28-.994-.1867-.196-.5134-.294-.98-.294-.84 0-1.26.2893-1.26.868 0 .0933-.042.14-.126.14h-.924c-.0934 0-.1447-.0887-.154-.266-.0467-.532.1586-.9613.616-1.288q.6999-.504 1.89-.504c.812 0 1.414.1913 1.806.574.4013.3827.602.9613.602 1.736v2.996c0 .3267.0093.6207.028.882.0186.252.042.4713.07.658.0186.1027-.028.154-.14.154zm-2.674.168c-.5414 0-.9567-.1633-1.246-.49q-.42-.49005-.42-1.428c0-.4853.0933-.882.28-1.19q.294-.462.924-.714c.4293-.168.9986-.28 1.708-.336l1.316-.112v.91l-1.344.112c-.644.056-1.0874.1727-1.33.35-.2427.1773-.364.476-.364.896 0 .3173.0653.5553.196.714.1306.1587.3266.238.588.238.308 0 .63-.1027.966-.308.336-.2147.7793-.6067 1.33-1.176v1.05c-.3267.3547-.6347.644-.924.868-.28.2147-.5554.3687-.826.462-.2707.1027-.5554.154-.854.154m11.4114 0c-1.12 0-1.9413-.238-2.464-.714-.5227-.4853-.756-1.1153-.7-1.89q.01395-.252.168-.252h.882c.112 0 .168.0747.168.224 0 .5693.168.98.504 1.232.336.2427.8493.364 1.54.364.6627 0 1.162-.1167 1.498-.35.3453-.2427.518-.6067.518-1.092 0-.2427-.042-.448-.126-.616-.0747-.1773-.2053-.3313-.392-.462s-.4387-.2613-.756-.392l-2.058-.854q-.64395-.26595-1.05-.588c-.2613-.224-.4527-.476-.574-.756-.112-.2893-.168-.616-.168-.98.0093-.7747.266-1.3627.77-1.764.5133-.4013 1.2553-.602 2.226-.602q.99405 0 1.722.294c.4853.196.854.4807 1.106.854s.3547.8307.308 1.372c-.0187.1773-.07.266-.154.266h-.896c-.0467 0-.084-.0187-.112-.056-.0187-.0373-.0233-.1073-.014-.21.0373-.476-.126-.84-.49-1.092-.3547-.2613-.8587-.392-1.512-.392-.5787 0-1.0173.1027-1.316.308-.2893.2053-.4387.5227-.448.952 0 .224.0373.42.112.588.084.168.2193.322.406.462q.294.21.798.42l2.03.854c.4293.1773.7747.3733 1.036.588s.448.4667.56.756c.1213.28.182.6207.182 1.022q0 1.176-.798 1.848c-.532.4387-1.3673.658-2.506.658m9.077-.168c-.056 0-.0933-.0187-.112-.056-.0186-.0373-.0373-.084-.056-.14-.0093-.0747-.0326-.2333-.07-.476-.028-.252-.0466-.476-.056-.672l-.042-.532v-2.786c0-.4667-.0933-.798-.28-.994-.1866-.196-.5133-.294-.98-.294-.84 0-1.26.2893-1.26.868 0 .0933-.042.14-.126.14h-.924c-.0933 0-.1446-.0887-.154-.266-.0466-.532.1587-.9613.616-1.288q.70005-.504 1.89-.504c.812 0 1.414.1913 1.806.574.4014.3827.602.9613.602 1.736v2.996c0 .3267.0094.6207.028.882.0187.252.042.4713.07.658.0187.1027-.028.154-.14.154zm-2.674.168c-.5413 0-.9566-.1633-1.246-.49q-.42-.49005-.42-1.428c0-.4853.0934-.882.28-1.19q.294-.462.924-.714c.4294-.168.9987-.28 1.708-.336l1.316-.112v.91l-1.344.112c-.644.056-1.0873.1727-1.33.35-.2426.1773-.364.476-.364.896 0 .3173.0654.5553.196.714.1307.1587.3267.238.588.238.308 0 .63-.1027.966-.308.336-.2147.7794-.6067 1.33-1.176v1.05c-.3266.3547-.6346.644-.924.868-.28.2147-.5553.3687-.826.462-.2706.1027-.5553.154-.854.154M54.3012 96c-.0933 0-.14-.0467-.14-.14v-4.466c0-.4667-.098-.8073-.294-1.022-.1867-.2147-.4713-.322-.854-.322-.364 0-.7233.1073-1.078.322s-.798.5833-1.33 1.106l.014-1.078c.3173-.336.616-.6067.896-.812.2893-.2053.574-.3547.854-.448.2893-.0933.5927-.14.91-.14.672 0 1.1853.196 1.54.588s.532.9753.532 1.75v4.522c0 .0933-.0467.14-.14.14zm-4.494 0c-.0933 0-.14-.0467-.14-.14v-4.984c0-.2427-.014-.5133-.042-.812-.0187-.308-.0373-.546-.056-.714-.0187-.1213.028-.182.14-.182h.854c.084 0 .1353.0467.154.14.0187.0747.0373.1913.056.35s.0373.3267.056.504c.0187.168.028.3127.028.434v5.264c0 .0933-.0467.14-.14.14zm9.8513.168q-1.26 0-1.89-.546c-.42-.3733-.63-.9287-.63-1.666 0-.084.0467-.126.14-.126h.924c.084 0 .126.0373.126.112 0 .42.1027.7233.308.91.2147.1867.56.28 1.036.28.4573 0 .8027-.0747 1.036-.224.2333-.1587.35-.3827.35-.672 0-.2147-.0653-.392-.196-.532-.1307-.1493-.336-.2847-.616-.406l-1.596-.658c-.5133-.2147-.8773-.4573-1.092-.728s-.322-.6207-.322-1.05q0-.924.588-1.386c.392-.3173.9753-.476 1.75-.476q1.18995 0 1.848.504c.4387.3267.658.7933.658 1.4 0 .084-.0467.126-.14.126h-.924c-.0933 0-.14-.0747-.14-.224 0-.2427-.112-.4293-.336-.56q-.336-.21-.924-.21c-.4013 0-.7.07-.896.21-.196.1307-.294.336-.294.616 0 .2053.0513.3593.154.462.112.1027.3313.224.658.364l1.596.672c.4947.2053.854.448 1.078.728s.336.6393.336 1.078c0 .644-.224 1.1387-.672 1.484s-1.0873.518-1.918.518m9.9236 0c-.2987 0-.5834-.0187-.854-.056q-.3921-.05595-.84-.126c-.2894-.0467-.6254-.0793-1.008-.098v-9.31c0-.0933.0466-.14.14-.14h.91c.0933 0 .14.0467.14.14v8.4c.2146.0373.4433.07.686.098.252.028.4713.042.658.042.6346 0 1.0966-.1587 1.386-.476.2986-.3173.448-.7933.448-1.428v-1.54c0-.56-.098-.9707-.294-1.232-.1867-.2613-.4714-.392-.854-.392-.3267 0-.658.098-.994.294-.336.1867-.77.518-1.302.994l.056-1.162c.4386-.4107.854-.7093 1.246-.896.4013-.1867.8166-.28 1.246-.28.6813 0 1.1993.2147 1.554.644.3546.4293.532 1.0827.532 1.96v1.722c0 .9333-.238 1.6427-.714 2.128q-.70005.714-2.142.714M74.5259 96c-.0933 0-.14-.0467-.14-.14v-5.026c0-.2613-.0093-.5133-.028-.756a6.87 6.87 0 0 0-.07-.756c-.0186-.1027.028-.154.14-.154h.854c.0934 0 .1447.042.154.126.0374.1773.0654.3827.084.616.0187.224.028.4153.028.574l.028.742v4.634c0 .0933-.0466.14-.14.14zm.896-4.354-.028-1.148c.196-.2893.42-.546.672-.77.2614-.224.5227-.4013.784-.532.2707-.1307.518-.196.742-.196q.252 0 .378.042c.0747.0187.1167.0653.126.14.0187.196.0234.3967.014.602q0 .30795-.042.588c-.0186.1027-.0793.14-.182.112-.0746-.0187-.154-.0327-.238-.042s-.1726-.014-.266-.014c-.2333 0-.4666.0513-.7.154-.2333.1027-.4573.2473-.672.434q-.3219.26595-.588.63M79.5162 96c-.0934 0-.14-.0467-.14-.14v-6.552c0-.0933.0466-.14.14-.14h.91c.0933 0 .14.0467.14.14v6.552c0 .0933-.0467.14-.14.14zm.462-7.98q-.40605 0-.588-.21c-.1214-.1493-.182-.336-.182-.56v-.14c0-.224.0606-.406.182-.546.1213-.1493.3173-.224.588-.224.2706 0 .4666.0747.588.224.1213.14.182.322.182.546v.14c0 .224-.0607.4107-.182.56q-.1821.21-.588.21M87.3051 96c-.0933 0-.14-.0467-.14-.14v-4.466c0-.4667-.098-.8073-.294-1.022-.1867-.2147-.4713-.322-.854-.322-.364 0-.7233.1073-1.078.322s-.798.5833-1.33 1.106l.014-1.078c.3173-.336.616-.6067.896-.812.2893-.2053.574-.3547.854-.448.2893-.0933.5927-.14.91-.14.672 0 1.1853.196 1.54.588s.532.9753.532 1.75v4.522c0 .0933-.0467.14-.14.14zm-4.494 0c-.0933 0-.14-.0467-.14-.14v-4.984c0-.2427-.014-.5133-.042-.812-.0187-.308-.0373-.546-.056-.714-.0187-.1213.028-.182.14-.182h.854c.084 0 .1353.0467.154.14.0187.0747.0373.1913.056.35s.0373.3267.056.504c.0187.168.028.3127.028.434v5.264c0 .0933-.0467.14-.14.14zm10.1593 2.758c-1.092 0-1.8807-.1493-2.366-.448-.476-.2893-.714-.7327-.714-1.33 0-.3827.0887-.714.266-.994.1867-.2893.4667-.5227.84-.7l.938.378c-.28.084-.4853.2193-.616.406-.1307.196-.196.4247-.196.686 0 .3733.14.63.42.77.28.1493.7747.224 1.484.224.7373 0 1.246-.0747 1.526-.224.2893-.1493.434-.4247.434-.826 0-.2707-.0653-.4713-.196-.602s-.3453-.2007-.644-.21l-2.59-.14c-.2893-.0187-.5553-.126-.798-.322-.2333-.2053-.35-.5227-.35-.952 0-.2987.07-.546.21-.742.14-.2053.378-.434.714-.686l.756.448c-.2053.084-.3547.1867-.448.308s-.14.2613-.14.42c0 .168.056.2893.168.364.112.0653.2847.1073.518.126l2.324.14c.5507.0373.9613.2147 1.232.532.28.308.42.7653.42 1.372 0 .7093-.2567 1.218-.77 1.526-.504.3173-1.3113.476-2.422.476m.112-4.97c-.8773 0-1.526-.196-1.946-.588q-.63-.588-.63-1.806t.63-1.806c.4293-.392 1.092-.588 1.988-.588.8587 0 1.4933.2007 1.904.602q.63.588.63 1.806t-.63 1.806c-.4107.3827-1.0593.574-1.946.574m0-1.036c.5227 0 .882-.098 1.078-.294.2053-.2053.308-.5553.308-1.05 0-.504-.1027-.8587-.308-1.064s-.5647-.308-1.078-.308-.8727.1027-1.078.308-.308.56-.308 1.064c0 .4947.1027.8447.308 1.05.2053.196.5647.294 1.078.294m1.708-2.968-.98-.42c.0467-.4387.0933-.8027.14-1.092.056-.2987.1073-.5507.154-.756q.042-.168.168-.168h.882c.1027 0 .14.0467.112.14-.0933.2893-.1727.5973-.238.924s-.1447.784-.238 1.372m5.1044 6.384q-1.26 0-1.89-.546c-.42-.3733-.63-.9287-.63-1.666 0-.084.0467-.126.14-.126h.924c.084 0 .126.0373.126.112 0 .42.1027.7233.308.91.2147.1867.56.28 1.036.28.4572 0 .8022-.0747 1.0362-.224.233-.1587.35-.3827.35-.672 0-.2147-.066-.392-.196-.532-.131-.1493-.336-.2847-.616-.406l-1.5962-.658c-.5133-.2147-.8773-.4573-1.092-.728s-.322-.6207-.322-1.05q0-.924.588-1.386c.392-.3173.9753-.476 1.75-.476.7932 0 1.4092.168 1.8482.504.438.3267.658.7933.658 1.4 0 .084-.047.126-.14.126h-.924c-.094 0-.14-.0747-.14-.224 0-.2427-.112-.4293-.336-.56-.224-.14-.532-.21-.9242-.21-.4013 0-.7.07-.896.21-.196.1307-.294.336-.294.616 0 .2053.0513.3593.154.462.112.1027.3313.224.658.364l1.5962.672c.494.2053.854.448 1.078.728s.336.6393.336 1.078c0 .644-.224 1.1387-.672 1.484s-1.088.518-1.9182.518M3.57 118.758c-1.092 0-1.88067-.149-2.366-.448-.476-.289-.714-.733-.714-1.33 0-.383.08867-.714.266-.994.18667-.289.46667-.523.84-.7l.938.378c-.28.084-.48533.219-.616.406-.13067.196-.196.425-.196.686 0 .373.14.63.42.77.28.149.77467.224 1.484.224.73733 0 1.246-.075 1.526-.224.28933-.149.434-.425.434-.826 0-.271-.06533-.471-.196-.602q-.196-.1965-.644-.21l-2.59-.14c-.28933-.019-.55533-.126-.798-.322-.23333-.205-.35-.523-.35-.952 0-.299.07-.546.21-.742.14-.205.378-.434.714-.686l.756.448c-.20533.084-.35467.187-.448.308q-.14.1815-.14.42c0 .168.056.289.168.364q.168.0975.518.126l2.324.14c.55067.037.96133.215 1.232.532.28.308.42.765.42 1.372 0 .709-.25667 1.218-.77 1.526-.504.317-1.31133.476-2.422.476m.112-4.97q-1.316 0-1.946-.588t-.63-1.806.63-1.806Q2.38 109 3.724 109c.85867 0 1.49333.201 1.904.602q.63.588.63 1.806t-.63 1.806c-.41067.383-1.05933.574-1.946.574m0-1.036q.784 0 1.078-.294.308-.3075.308-1.05c0-.504-.10267-.859-.308-1.064s-.56467-.308-1.078-.308-.87267.103-1.078.308-.308.56-.308 1.064q0 .7425.308 1.05.308.294 1.078.294m1.708-2.968-.98-.42q.07-.6585.14-1.092.084-.4485.154-.756.042-.168.168-.168h.882c.10267 0 .14.047.112.14q-.14.4335-.238.924c-.06533.327-.14467.784-.238 1.372m5.4964 6.384q-1.34397 0-2.07198-.63c-.476-.42-.714-1.041-.714-1.862v-1.96q0-1.3305.714-2.016c.476-.467 1.16667-.7 2.07198-.7.9054 0 1.5914.229 2.058.686.476.448.714 1.101.714 1.96v1.092c0 .093-.0466.14-.14.14H9.29042v.448c0 .625.13067 1.083.392 1.372q.392.42 1.27398.42.65805 0 1.008-.21c.2427-.149.364-.364.364-.644 0-.103.0514-.154.154-.154h.91c.0747 0 .1214.042.14.126.0374.597-.182 1.069-.658 1.414s-1.1386.518-1.988.518m-1.59598-4.312h3.17798v-.084c0-.588-.1306-1.022-.392-1.302q-.39195-.42-1.176-.42c-.5413 0-.94731.145-1.21798.434q-.392.4335-.392 1.302zm8.95378 4.312c-.9427 0-1.6613-.229-2.156-.686-.4853-.457-.728-1.153-.728-2.086v-1.624c0-.933.2427-1.629.728-2.086s1.204-.686 2.156-.686c.9427 0 1.6567.229 2.142.686.4947.457.742 1.153.742 2.086v1.624c0 .933-.2427 1.629-.728 2.086s-1.204.686-2.156.686m0-1.05c.5973 0 1.0267-.149 1.288-.448.2707-.308.406-.77.406-1.386v-1.4c0-.616-.1353-1.073-.406-1.372-.2613-.308-.6907-.462-1.288-.462q-.89595 0-1.302.462c-.2613.299-.392.756-.392 1.372v1.4c0 .616.1307 1.078.392 1.386.2707.299.7047.448 1.302.448m4.9438.882c-.0933 0-.14-.047-.14-.14v-4.984c0-.252-.0093-.513-.028-.784-.0093-.28-.0326-.532-.07-.756-.0186-.112.0327-.168.154-.168h.84c.084 0 .1307.033.14.098.0187.14.042.289.07.448s.0467.322.056.49c.42-.42.8167-.723 1.19-.91.3734-.196.7747-.294 1.204-.294.476 0 .8587.112 1.148.336q.44805.3225.63.966c.448-.457.8634-.789 1.246-.994.3827-.205.798-.308 1.246-.308.6254 0 1.0967.196 1.414.588.3267.392.49.971.49 1.736v4.536c0 .093-.0466.14-.14.14h-.91c-.0933 0-.14-.047-.14-.14v-4.466q0-.672-.252-1.008-.2379-.336-.756-.336c-.308 0-.6253.098-.952.294-.3173.187-.6906.485-1.12.896v4.62c0 .093-.0466.14-.14.14h-.91c-.0933 0-.14-.047-.14-.14v-4.466q0-.672-.252-1.008-.2379-.336-.756-.336c-.308 0-.6253.098-.952.294-.3173.187-.6906.485-1.12.896v4.62c0 .093-.0466.14-.14.14zm14.2902.168c-.896 0-1.5866-.21-2.072-.63-.476-.42-.714-1.041-.714-1.862v-1.96q0-1.3305.714-2.016c.476-.467 1.1667-.7 2.072-.7.9054 0 1.5914.229 2.058.686.476.448.714 1.101.714 1.96v1.092c0 .093-.0466.14-.14.14h-4.228v.448c0 .625.1307 1.083.392 1.372.2614.28.686.42 1.274.42q.65805 0 1.008-.21c.2427-.149.364-.364.364-.644 0-.103.0514-.154.154-.154h.91c.0747 0 .1214.042.14.126.0374.597-.182 1.069-.658 1.414s-1.1386.518-1.988.518m-1.596-4.312h3.178v-.084c0-.588-.1306-1.022-.392-1.302q-.39195-.42-1.176-.42c-.5413 0-.9473.145-1.218.434-.2613.289-.392.723-.392 1.302zm8.5091 4.312c-.476 0-.8587-.079-1.148-.238-.28-.168-.4854-.415-.616-.742-.1214-.327-.182-.733-.182-1.218v-3.78h-1.078c-.0934 0-.14-.047-.14-.14v-.742c0-.093.0466-.14.14-.14h1.106l.154-1.68c.0093-.093.0606-.14.154-.14h.7c.0933 0 .14.047.14.14l.014 1.68h2.086c.0933 0 .14.047.14.14v.742c0 .093-.0467.14-.14.14h-2.086v3.752c0 .439.0746.747.224.924.1586.177.4246.266.798.266.1866 0 .3733-.019.56-.056.1866-.047.35-.103.49-.168.112-.047.168-.014.168.098v.77c0 .075-.0374.126-.112.154q-.252.0975-.588.168c-.224.047-.4854.07-.784.07M47.524 116c-.0933 0-.14-.047-.14-.14v-5.026c0-.261-.0093-.513-.028-.756-.0093-.252-.0327-.504-.07-.756-.0187-.103.028-.154.14-.154h.854c.0933 0 .1447.042.154.126.0373.177.0653.383.084.616.0187.224.028.415.028.574l.028.742v4.634c0 .093-.0467.14-.14.14zm.896-4.354-.028-1.148c.196-.289.42-.546.672-.77.2613-.224.5227-.401.784-.532.2707-.131.518-.196.742-.196q.252 0 .378.042c.0747.019.1167.065.126.14.0187.196.0233.397.014.602q0 .3075-.042.588c-.0187.103-.0793.14-.182.112-.0747-.019-.154-.033-.238-.042a2.5 2.5 0 0 0-.266-.014c-.2333 0-.4667.051-.7.154s-.4573.247-.672.434q-.32205.2655-.588.63M52.5142 116c-.0933 0-.14-.047-.14-.14v-6.552c0-.093.0467-.14.14-.14h.91c.0934 0 .14.047.14.14v6.552c0 .093-.0466.14-.14.14zm.462-7.98q-.4059 0-.588-.21c-.1213-.149-.182-.336-.182-.56v-.14c0-.224.0607-.406.182-.546.1214-.149.3174-.224.588-.224.2707 0 .4667.075.588.224.1214.14.182.322.182.546v.14c0 .224-.0606.411-.182.56q-.18195.21-.588.21m5.3669 8.148c-.9333 0-1.6426-.233-2.128-.7-.4853-.467-.728-1.139-.728-2.016v-1.736c0-.877.2474-1.549.742-2.016.4947-.467 1.2087-.7 2.142-.7.5507 0 1.022.084 1.414.252s.6954.401.91.7c.2147.289.322.635.322 1.036 0 .215-.0466.322-.14.322h-.924c-.084 0-.126-.075-.126-.224 0-.327-.1306-.579-.392-.756-.2613-.187-.616-.28-1.064-.28-.5693 0-.994.145-1.274.434q-.42.4335-.42 1.344v1.512q0 .8955.42 1.344c.28.289.7.434 1.26.434.448 0 .8027-.098 1.064-.294.2614-.196.392-.439.392-.728 0-.149.042-.224.126-.224h.924c.0934 0 .14.042.14.126 0 .663-.2286 1.19-.686 1.582q-.68595.588-1.974.588m9.7099 0q-1.26 0-1.89-.546c-.42-.373-.63-.929-.63-1.666 0-.084.0467-.126.14-.126h.924c.084 0 .126.037.126.112 0 .42.1027.723.308.91.2147.187.56.28 1.036.28.4573 0 .8027-.075 1.036-.224.2333-.159.35-.383.35-.672 0-.215-.0653-.392-.196-.532-.1307-.149-.336-.285-.616-.406l-1.596-.658c-.5133-.215-.8773-.457-1.092-.728s-.322-.621-.322-1.05q0-.924.588-1.386c.392-.317.9753-.476 1.75-.476q1.18995 0 1.848.504c.4387.327.658.793.658 1.4 0 .084-.0467.126-.14.126h-.924c-.0933 0-.14-.075-.14-.224 0-.243-.112-.429-.336-.56q-.336-.21-.924-.21c-.4013 0-.7.07-.896.21-.196.131-.294.336-.294.616 0 .205.0513.359.154.462.112.103.3313.224.658.364l1.596.672c.4947.205.854.448 1.078.728s.336.639.336 1.078c0 .644-.224 1.139-.672 1.484s-1.0873.518-1.918.518m6.6762 0c-.476 0-.8587-.079-1.148-.238-.28-.168-.4854-.415-.616-.742-.1214-.327-.182-.733-.182-1.218v-3.78h-1.078c-.0934 0-.14-.047-.14-.14v-.742c0-.093.0466-.14.14-.14h1.106l.154-1.68c.0093-.093.0606-.14.154-.14h.7c.0933 0 .14.047.14.14l.014 1.68h2.086c.0933 0 .14.047.14.14v.742c0 .093-.0467.14-.14.14h-2.086v3.752c0 .439.0746.747.224.924.1586.177.4246.266.798.266.1866 0 .3733-.019.56-.056.1866-.047.35-.103.49-.168.112-.047.168-.014.168.098v.77c0 .075-.0374.126-.112.154q-.252.0975-.588.168c-.224.047-.4854.07-.784.07m4.0821 2.422c-.112 0-.1447-.056-.098-.168l.994-2.506-2.59-6.58c-.0467-.112-.014-.168.098-.168h.994c.0746 0 .126.037.154.112l1.26 3.388c.112.289.2193.588.322.896.112.308.2193.611.322.91h.0139c.1027-.299.2101-.602.3221-.91.1213-.308.2333-.607.336-.896l1.26-3.388c.028-.075.084-.112.168-.112h.938c.1213 0 .1586.056.112.168l-3.542 9.142c-.028.075-.0794.112-.154.112zm6.1189-2.59c-.0933 0-.14-.047-.14-.14v-9.282c0-.093.0467-.14.14-.14h.91c.0934 0 .14.047.14.14v9.282c0 .093-.0466.14-.14.14zm5.759.168c-.896 0-1.5867-.21-2.072-.63-.476-.42-.714-1.041-.714-1.862v-1.96q0-1.3305.714-2.016c.476-.467 1.1666-.7 2.072-.7.9053 0 1.5913.229 2.058.686.476.448.714 1.101.714 1.96v1.092c0 .093-.0467.14-.14.14h-4.228v.448c0 .625.1306 1.083.392 1.372.2613.28.686.42 1.274.42q.6579 0 1.008-.21c.2426-.149.364-.364.364-.644 0-.103.0513-.154.154-.154h.91c.0746 0 .1213.042.14.126.0373.597-.182 1.069-.658 1.414s-1.1387.518-1.988.518m-1.596-4.312h3.178v-.084c0-.588-.1307-1.022-.392-1.302q-.3921-.42-1.176-.42c-.5414 0-.9474.145-1.218.434-.2614.289-.392.723-.392 1.302zm11.5848 4.312c-.476 0-.8583-.079-1.1476-.238-.28-.168-.4854-.415-.616-.742-.1214-.327-.182-.733-.182-1.218v-3.78h-1.078c-.0934 0-.14-.047-.14-.14v-.742c0-.093.0466-.14.14-.14h1.106l.154-1.68c.0093-.093.0606-.14.154-.14h.7c.0933 0 .14.047.14.14l.014 1.68h2.0856c.094 0 .14.047.14.14v.742c0 .093-.046.14-.14.14h-2.0856v3.752c0 .439.0746.747.2236.924.159.177.425.266.798.266.187 0 .374-.019.56-.056.187-.047.35-.103.49-.168.112-.047.168-.014.168.098v.77c0 .075-.037.126-.112.154q-.252.0975-.588.168c-.224.047-.485.07-.784.07m5.517 0c-.942 0-1.661-.229-2.156-.686-.485-.457-.728-1.153-.728-2.086v-1.624c0-.933.243-1.629.728-2.086.486-.457 1.204-.686 2.156-.686.943 0 1.657.229 2.142.686.495.457.742 1.153.742 2.086v1.624c0 .933-.242 1.629-.728 2.086-.485.457-1.204.686-2.156.686m0-1.05c.598 0 1.027-.149 1.288-.448.271-.308.406-.77.406-1.386v-1.4c0-.616-.135-1.073-.406-1.372-.261-.308-.69-.462-1.288-.462q-.8955 0-1.302.462c-.261.299-.392.756-.392 1.372v1.4c0 .616.131 1.078.392 1.386.271.299.705.448 1.302.448m8.724 3.472c-.112 0-.145-.056-.098-.168l.994-2.506-2.59-6.58c-.047-.112-.014-.168.098-.168h.994c.074 0 .126.037.154.112l1.26 3.388c.112.289.219.588.322.896.112.308.219.611.322.91h.014c.102-.299.21-.602.322-.91.121-.308.233-.607.336-.896l1.26-3.388c.028-.075.084-.112.168-.112h.938c.121 0 .158.056.112.168l-3.542 9.142c-.028.075-.08.112-.154.112zm8.544-2.422c-.943 0-1.661-.229-2.156-.686-.485-.457-.728-1.153-.728-2.086v-1.624c0-.933.243-1.629.728-2.086s1.204-.686 2.156-.686c.943 0 1.657.229 2.142.686.495.457.742 1.153.742 2.086v1.624c0 .933-.243 1.629-.728 2.086s-1.204.686-2.156.686m0-1.05c.597 0 1.027-.149 1.288-.448.271-.308.406-.77.406-1.386v-1.4c0-.616-.135-1.073-.406-1.372-.261-.308-.691-.462-1.288-.462q-.8955 0-1.302.462c-.261.299-.392.756-.392 1.372v1.4c0 .616.131 1.078.392 1.386.271.299.705.448 1.302.448m6.652 1.05c-.598 0-1.055-.201-1.372-.602-.318-.401-.476-.98-.476-1.736v-4.522c0-.093.046-.14.14-.14h.91c.093 0 .14.047.14.14v4.466c0 .457.079.798.238 1.022.168.215.424.322.77.322.345 0 .69-.107 1.036-.322.354-.215.793-.588 1.316-1.12l-.028 1.106c-.299.308-.598.565-.896.77-.299.205-.598.359-.896.462-.29.103-.584.154-.882.154m2.8-.168c-.103 0-.159-.047-.168-.14-.028-.177-.052-.359-.07-.546-.019-.187-.033-.378-.042-.574l-.07-.588v-4.844c0-.093.046-.14.14-.14h.91c.093 0 .14.047.14.14v4.984c0 .252.004.513.014.784.018.271.046.532.084.784.018.093-.033.14-.154.14zm3.08 0c-.094 0-.14-.047-.14-.14v-5.026c0-.261-.01-.513-.028-.756-.01-.252-.033-.504-.07-.756-.019-.103.028-.154.14-.154h.854c.093 0 .144.042.154.126.037.177.065.383.084.616.018.224.028.415.028.574l.028.742v4.634c0 .093-.047.14-.14.14zm.896-4.354-.028-1.148c.196-.289.42-.546.672-.77.261-.224.522-.401.784-.532.27-.131.518-.196.742-.196q.252 0 .378.042c.074.019.116.065.126.14.018.196.023.397.014.602q0 .3075-.042.588c-.019.103-.08.14-.182.112-.075-.019-.154-.033-.238-.042s-.173-.014-.266-.014c-.234 0-.467.051-.7.154-.234.103-.458.247-.672.434q-.3225.2655-.588.63M2.926 136.168c-.65333 0-1.15733-.219-1.512-.658-.34533-.439-.518-1.087-.518-1.946v-1.75c0-.887.224-1.577.672-2.072S2.63667 129 3.43 129c.364 0 .74667.051 1.148.154.40133.093.70467.215.91.364l.07 1.022c-.29867-.159-.62533-.28-.98-.364q-.532-.126-.938-.126c-.52267 0-.91467.159-1.176.476q-.378.4755-.378 1.428v1.68c0 .495.09333.868.28 1.12.196.243.48533.364.868.364q.35 0 .686-.126c.224-.093.47133-.243.742-.448.27067-.215.588-.504.952-.868l-.028 1.092q-.476.4755-.91.798c-.28.205-.56467.355-.854.448-.28.103-.57867.154-.896.154M5.684 136c-.10267 0-.15867-.051-.168-.154-.01867-.14-.042-.317-.07-.532s-.03733-.392-.028-.532l-.07-.63v-7.574c0-.093.04667-.14.14-.14h.91c.09333 0 .14.047.14.14v7.84c0 .131.00467.289.014.476.00933.177.01867.35.028.518.01867.168.03733.299.056.392.028.131-.01867.196-.14.196zm5.5716.168q-1.34402 0-2.07204-.63c-.476-.42-.714-1.041-.714-1.862v-1.96q0-1.3305.714-2.016c.476-.467 1.16664-.7 2.07204-.7.9053 0 1.5913.229 2.058.686.476.448.714 1.101.714 1.96v1.092c0 .093-.0467.14-.14.14H9.65956v.448c0 .625.13067 1.083.39204 1.372.2613.28.686.42 1.274.42q.6579 0 1.008-.21c.2426-.149.364-.364.364-.644 0-.103.0513-.154.154-.154h.91c.0746 0 .1213.042.14.126.0373.597-.182 1.069-.658 1.414s-1.1387.518-1.988.518m-1.59604-4.312h3.17804v-.084c0-.588-.1307-1.022-.392-1.302q-.3921-.42-1.176-.42c-.5414 0-.9474.145-1.218.434q-.39205.4335-.39204 1.302zM16.0513 136c-.0933 0-.14-.047-.14-.14v-4.984c0-.252-.0093-.513-.028-.784-.0093-.28-.0326-.532-.07-.756-.0186-.112.0327-.168.154-.168h.84c.084 0 .1307.033.14.098.0187.14.042.289.07.448s.0467.322.056.49c.42-.42.8167-.723 1.19-.91.3734-.196.7747-.294 1.204-.294.476 0 .8587.112 1.148.336q.44805.3225.63.966c.448-.457.8634-.789 1.246-.994.3827-.205.798-.308 1.246-.308.6254 0 1.0967.196 1.414.588.3267.392.49.971.49 1.736v4.536c0 .093-.0466.14-.14.14h-.91c-.0933 0-.14-.047-.14-.14v-4.466q0-.672-.252-1.008-.2379-.336-.756-.336c-.308 0-.6253.098-.952.294-.3173.187-.6906.485-1.12.896v4.62c0 .093-.0466.14-.14.14h-.91c-.0933 0-.14-.047-.14-.14v-4.466q0-.672-.252-1.008-.2379-.336-.756-.336c-.308 0-.6253.098-.952.294-.3173.187-.6906.485-1.12.896v4.62c0 .093-.0466.14-.14.14zm14.3882.168c-.9427 0-1.6613-.229-2.156-.686-.4853-.457-.728-1.153-.728-2.086v-1.624c0-.933.2427-1.629.728-2.086s1.204-.686 2.156-.686c.9427 0 1.6567.229 2.142.686.4947.457.742 1.153.742 2.086v1.624c0 .933-.2427 1.629-.728 2.086s-1.204.686-2.156.686m0-1.05c.5973 0 1.0267-.149 1.288-.448.2707-.308.406-.77.406-1.386v-1.4c0-.616-.1353-1.073-.406-1.372-.2613-.308-.6907-.462-1.288-.462q-.89595 0-1.302.462c-.2613.299-.392.756-.392 1.372v1.4c0 .616.1307 1.078.392 1.386.2707.299.7047.448 1.302.448m7.0159 1.05q-1.26 0-1.89-.546c-.42-.373-.63-.929-.63-1.666 0-.084.0466-.126.14-.126h.924c.084 0 .126.037.126.112 0 .42.1026.723.308.91.2146.187.56.28 1.036.28.4573 0 .8026-.075 1.036-.224.2333-.159.35-.383.35-.672 0-.215-.0654-.392-.196-.532-.1307-.149-.336-.285-.616-.406l-1.596-.658c-.5134-.215-.8774-.457-1.092-.728-.2147-.271-.322-.621-.322-1.05q0-.924.588-1.386c.392-.317.9753-.476 1.75-.476q1.18995 0 1.848.504c.4386.327.658.793.658 1.4 0 .084-.0467.126-.14.126h-.924c-.0934 0-.14-.075-.14-.224 0-.243-.112-.429-.336-.56q-.336-.21-.924-.21c-.4014 0-.7.07-.896.21-.196.131-.294.336-.294.616 0 .205.0513.359.154.462.112.103.3313.224.658.364l1.596.672c.4946.205.854.448 1.078.728s.336.639.336 1.078c0 .644-.224 1.139-.672 1.484s-1.0874.518-1.918.518m4.8561 0c-.28 0-.4807-.07-.602-.21-.1213-.149-.182-.341-.182-.574v-.14c0-.233.0607-.42.182-.56.1213-.149.322-.224.602-.224s.4807.075.602.224c.1213.14.182.327.182.56v.14c0 .233-.0607.425-.182.574-.1213.14-.322.21-.602.21" style="fill:#000;fill-opacity:1"/>
  <g filter="url(#a)">
    <path fill="#111b2b" d="M182 62h101v32H182z" style="fill:#111b2b;fill:color(display-p3 .0667 .1059 .1686);fill-opacity:1"/>
    <path stroke="#111b2b" d="M182.5 62.5h100v31h-100z" style="stroke:#111b2b;stroke:color(display-p3 .0667 .1059 .1686);stroke-opacity:1"/>
    <path fill="#fff" d="M195.067 82c-.103 0-.154-.0513-.154-.154v-8.862c0-.1027.051-.154.154-.154h2.198c.942 0 1.642.1913 2.1.574.457.3733.686.938.686 1.694 0 .5133-.103.9333-.308 1.26-.196.3173-.509.5787-.938.784v.028c.513.1307.9.3827 1.162.756.27.364.406.8493.406 1.456 0 .896-.248 1.5587-.742 1.988-.486.42-1.251.63-2.296.63zm1.414-1.33h.882q.741 0 1.092-.336c.233-.224.35-.5787.35-1.064 0-.4573-.117-.798-.35-1.022-.234-.2333-.598-.35-1.092-.35h-.882zm0-3.99h.784c.42 0 .728-.1073.924-.322.205-.224.308-.5507.308-.98s-.103-.7373-.308-.924c-.206-.196-.537-.294-.994-.294h-.714zm9.919 5.432c-.98 0-1.717-.266-2.212-.798-.485-.5413-.728-1.3533-.728-2.436v-5.894c0-.1027.047-.154.14-.154h1.288c.093 0 .14.0513.14.154v5.866c0 .644.112 1.1153.336 1.414.224.2893.569.434 1.036.434s.807-.1447 1.022-.434c.224-.2987.336-.77.336-1.414v-5.866c0-.1027.047-.154.14-.154h1.288c.093 0 .14.0513.14.154v5.908c0 1.064-.247 1.8667-.742 2.408s-1.223.812-2.184.812m8.041-.112c-.093 0-.14-.0513-.14-.154v-7.602h-1.834c-.093 0-.14-.0513-.14-.154v-1.106c0-.1027.047-.154.14-.154h5.25c.093 0 .14.0513.14.154v1.106c0 .1027-.047.154-.14.154h-1.834v7.602c0 .1027-.047.154-.14.154zm8.166 0c-.093 0-.14-.0513-.14-.154v-7.602h-1.834c-.093 0-.14-.0513-.14-.154v-1.106c0-.1027.047-.154.14-.154h5.25c.093 0 .14.0513.14.154v1.106c0 .1027-.047.154-.14.154h-1.834v7.602c0 .1027-.047.154-.14.154zm9.124.112c-.98 0-1.726-.2613-2.24-.784-.504-.532-.756-1.3113-.756-2.338v-3.136c0-1.036.252-1.8153.756-2.338.514-.532 1.26-.798 2.24-.798.999 0 1.75.266 2.254.798.514.5227.77 1.302.77 2.338v3.136c0 1.0267-.256 1.806-.77 2.338-.504.5227-1.255.784-2.254.784m0-1.414c.486 0 .85-.1447 1.092-.434.243-.2893.364-.7373.364-1.344v-2.996c0-.616-.121-1.0687-.364-1.358-.242-.2893-.606-.434-1.092-.434-.466 0-.821.1447-1.064.434-.242.2893-.364.742-.364 1.358v2.996c0 .6067.122 1.0547.364 1.344.243.2893.598.434 1.064.434M238.275 82c-.084 0-.126-.0513-.126-.154v-8.862c0-.1027.047-.154.14-.154h1.778c.084 0 .135.0373.154.112l1.638 4.564c.103.252.201.5273.294.826.103.2893.196.574.28.854.093.2707.168.518.224.742h.028c-.019-.252-.037-.5413-.056-.868-.009-.3267-.019-.658-.028-.994s-.014-.6253-.014-.868v-4.214c0-.1027.047-.154.14-.154h1.218c.093 0 .14.0513.14.154v8.862c0 .1027-.047.154-.14.154h-1.75c-.075 0-.131-.0373-.168-.112l-1.624-4.438c-.159-.4293-.303-.8587-.434-1.288-.131-.4387-.252-.8447-.364-1.218h-.028q.0285.40605.042.924c.009.336.014.672.014 1.008.009.336.014.644.014.924v4.046c0 .1027-.047.154-.14.154zM262 72v-2.25l-3 3 3 3V73.5c2.482 0 4.5 2.0175 4.5 4.5 0 .7575-.188 1.4775-.525 2.1l1.095 1.095c.608-.9548.93-2.0632.93-3.195 0-3.315-2.685-6-6-6m0 10.5c-2.482 0-4.5-2.0175-4.5-4.5 0-.7575.188-1.4775.525-2.1l-1.095-1.095c-.608.9548-.93 2.0632-.93 3.195 0 3.315 2.685 6 6 6v2.25l3-3-3-3z" style="fill:#fff;fill-opacity:1"/>
  </g>
  <defs>
    <filter id="a" width="101" height="33" x="182" y="62" color-interpolation-filters="sRGB" filterUnits="userSpaceOnUse">
      <feFlood flood-opacity="0" result="BackgroundImageFix"/>
      <feColorMatrix in="SourceAlpha" result="hardAlpha" values="0 0 0 0 0 0 0 0 0 0 0 0 0 0 0 0 0 0 127 0"/>
      <feOffset dy="1"/>
      <feColorMatrix values="0 0 0 0 0.0666667 0 0 0 0 0.105882 0 0 0 0 0.168627 0 0 0 0.05 0"/>
      <feBlend in2="BackgroundImageFix" result="effect1_dropShadow_61_631"/>
      <feBlend in="SourceGraphic" in2="effect1_dropShadow_61_631" result="shape"/>
    </filter>
  </defs>
</svg>
