<svg xmlns="http://www.w3.org/2000/svg" width="283" height="162" fill="none">
  <path fill="#000" d="M2.94 9.896H1.2q-.24 0-.312-.072-.072-.084-.072-.348V8.432q0-.276.072-.348Q.972 8 1.26 8H9q.312 0 .408.072.108.072.108.384v.984q0 .3-.108.384-.096.072-.372.072H7.26q-.288 0-.408.084-.12.072-.12.384v13.272q0 .312.108.396.12.072.432.072h3.864q1.524 0 2.412-.456.9-.456 1.296-1.44.408-.984.432-2.58.012-.228.048-.312.048-.084.276-.084h.924q.264 0 .36.06.096.048.096.3v5.832q0 .348-.072.468-.06.108-.408.108H1.332q-.3 0-.408-.072-.108-.084-.108-.408V24.5q0-.216.048-.3.048-.096.264-.096h1.74q.36 0 .468-.084.12-.084.12-.444V10.4q0-.324-.096-.408-.096-.096-.42-.096m16.4879-.624q0-.792.552-1.272.552-.492 1.32-.492.78 0 1.32.492.552.48.552 1.272 0 .78-.552 1.272-.54.492-1.32.492-.768 0-1.32-.492t-.552-1.272m.216 5.928h-1.62q-.18 0-.228-.048t-.048-.228v-1.08q0-.324.312-.324h4.62q.156 0 .204.048.048.036.048.204v10.26q0 .156.048.228.048.06.204.06h1.608q.18 0 .24.036t.06.216v1.116q0 .192-.048.252t-.252.06h-6.696q-.192 0-.276-.048-.072-.048-.072-.24V24.68q0-.24.072-.3.084-.06.3-.06h1.5q.204 0 .24-.06.048-.06.048-.252V15.5q0-.3-.264-.3m13.809 8.496q-.3.696-.792 1.296-.48.6-1.224.972-.744.36-1.848.36-1.536 0-2.232-.732-.684-.744-.684-2.016V15.62q0-.228-.072-.324t-.3-.096h-1.464q-.24 0-.324-.06-.072-.072-.072-.312v-.948q0-.252.072-.3.072-.06.312-.06.66 0 1.164-.096t.876-.408.66-.972q.3-.66.564-1.8.048-.216.096-.288.06-.084.348-.084h.828q.336 0 .336.36v2.88q0 .264.096.336.108.072.348.072h2.568q.228 0 .3.072t.072.312v.996q0 .204-.096.252-.084.048-.288.048h-2.544q-.228 0-.348.072-.108.072-.108.324v7.5q0 .684.264 1.008t.732.324q.456 0 .828-.312.384-.312.708-.936.096-.18.168-.216.084-.048.288.048l.552.276q.18.084.24.168.06.072-.024.24M33.6782 20q0-1.92.684-3.456.696-1.536 2.076-2.436 1.392-.9 3.468-.9 1.344 0 2.292.396.96.384 1.596 1.056.648.672 1.008 1.5.372.828.528 1.728.156.888.156 1.716 0 .252-.084.324-.084.06-.336.06h-7.728q-.216 0-.288.072t-.072.276q.024 1.188.324 2.196.312.996.996 1.608t1.8.612q1.26 0 2.088-.708.84-.708 1.296-1.908.06-.132.108-.204.06-.084.252-.084h1.248q.204 0 .252.06.06.06.024.204-.348 1.32-1.092 2.256t-1.884 1.44q-1.128.504-2.652.504-1.992 0-3.348-.876-1.344-.876-2.028-2.316t-.684-3.12m3.684-1.476h4.608q.24 0 .288-.036.06-.036.048-.192-.012-.576-.156-1.2t-.444-1.176q-.3-.564-.756-.912t-1.092-.348q-.936 0-1.56.528-.624.516-.936 1.32t-.336 1.668q-.012.216.036.288.048.06.3.06m10.7754-2.856q0-.288-.072-.372-.072-.096-.36-.096h-1.356q-.264 0-.324-.084-.048-.084-.048-.348v-.816q0-.252.072-.336.072-.096.324-.096h4.224q.216 0 .312.06t.096.288v1.176q0 .336.048.384.06.048.204-.228.48-.864 1.308-1.428t2.124-.564q1.224 0 2.1.672.888.66.888 1.872 0 .54-.228 1.044-.228.492-.66.816t-1.032.324q-.768 0-1.296-.408t-.528-1.068q0-.468.156-.72.156-.264.3-.408.156-.156.156-.3 0-.156-.132-.24-.12-.084-.48-.084-.744 0-1.38.648-.636.636-1.02 1.704-.384 1.056-.384 2.292v4.5q0 .276.06.372.072.096.36.096h1.428q.228 0 .264.084.048.084.048.324v.864q0 .24-.06.324-.048.084-.264.084h-6.624q-.192 0-.288-.06t-.096-.252v-1.02q0-.228.072-.288.084-.06.3-.06h1.272q.288 0 .396-.072.12-.072.12-.348zm9.4173 7.38q0-1.2.756-2.148t2.196-1.488q1.44-.552 3.504-.552h1.08q.204 0 .252-.048.06-.048.06-.264v-1.356q0-.756-.204-1.32t-.696-.876q-.48-.324-1.32-.324-.504 0-.96.108-.456.096-.744.264-.276.168-.276.36 0 .18.144.288.156.108.3.3t.144.684q0 .696-.48 1.116t-1.2.42q-.708 0-1.236-.348t-.528-1.188q0-.852.492-1.488t1.308-1.056 1.812-.636q1.008-.216 2.028-.216 1.68 0 2.652.516t1.368 1.416q.408.9.408 2.04v6.576q0 .36.18.528.192.168.444.168t.528-.132q.276-.144.552-.6.12-.204.276-.084l.72.432q.156.096.072.288-.276.528-.72.948-.432.408-.996.636-.552.228-1.224.228h-.012q-.876 0-1.368-.252-.492-.264-.744-.624-.24-.36-.384-.684-.108-.252-.204-.252-.096-.012-.264.216-.264.3-.708.672-.432.372-1.188.648t-1.956.276q-1.74 0-2.808-.828-1.056-.828-1.056-2.364m3.408-.396q0 .984.576 1.428.588.432 1.38.432 1.092 0 1.788-.792.696-.804.696-2.304v-1.14q0-.24-.24-.24h-.912q-1.14 0-1.872.336-.72.324-1.068.912t-.348 1.368m11.9872-6.984q0-.288-.072-.372-.072-.096-.36-.096h-1.356q-.264 0-.324-.084-.048-.084-.048-.348v-.816q0-.252.072-.336.072-.096.324-.096h4.224q.216 0 .312.06t.096.288v1.176q0 .336.048.384.06.048.204-.228.48-.864 1.308-1.428t2.124-.564q1.224 0 2.1.672.888.66.888 1.872 0 .54-.228 1.044-.228.492-.66.816t-1.032.324q-.768 0-1.296-.408t-.528-1.068q0-.468.156-.72.156-.264.3-.408.156-.156.156-.3 0-.156-.132-.24-.12-.084-.48-.084-.744 0-1.38.648-.636.636-1.02 1.704-.384 1.056-.384 2.292v4.5q0 .276.06.372.072.096.36.096h1.428q.228 0 .264.084.048.084.048.324v.864q0 .24-.06.324-.048.084-.264.084h-6.624q-.192 0-.288-.06t-.096-.252v-1.02q0-.228.072-.288.084-.06.3-.06h1.272q.288 0 .396-.072.12-.072.12-.348zm9.3016 13.296q0-.708.252-1.272.264-.552.72-.876t1.02-.324q.684 0 1.14.384.456.396.456 1.116 0 .444-.144.696-.132.252-.348.384-.204.132-.42.228t-.36.204q-.132.108-.132.312 0 .348.312.624.324.276.876.276.468 0 1.008-.288t1.092-.996q.564-.696 1.092-1.956l.288-.66q.156-.36.132-.588-.012-.228-.18-.588l-4.644-9.984q-.144-.288-.24-.372t-.456-.084h-.96q-.264 0-.36-.072-.096-.084-.096-.336v-.996q0-.168.096-.216.096-.06.264-.06h6.42q.288 0 .384.108.096.096.096.408v.588q0 .36-.108.468-.096.108-.444.108h-1.02q-.372 0-.456.06-.084.048.036.3l2.724 5.988q.204.42.3.708.096.276.192.276t.192-.252q.108-.252.264-.672l2.412-6q.096-.264.024-.336-.06-.072-.444-.072h-.756q-.264 0-.336-.096-.06-.096-.06-.336v-.732q0-.312.096-.408.096-.108.396-.108h4.584q.204 0 .3.06.108.06.108.264v.84q0 .264-.072.396-.06.12-.336.12h-.876q-.408 0-.48.144t-.204.432l-5.184 12.456q-.648 1.548-1.44 2.436-.78.888-1.644 1.248t-1.74.36q-1.032 0-1.776-.456-.744-.444-1.152-1.2-.408-.744-.408-1.656M105.89 9.896h-1.764q-.276 0-.336-.084-.06-.096-.06-.372v-.948q0-.324.096-.408.108-.084.408-.084h8.436q1.632 0 2.892.336 1.272.324 2.148.984.876.648 1.32 1.62.456.96.456 2.244 0 1.272-.456 2.256-.444.984-1.32 1.656-.876.66-2.148 1.008-1.26.336-2.892.336h-2.328q-.456 0-.576.096t-.12.564v4.308q0 .456.108.576t.576.12h1.68q.312 0 .36.108.06.096.06.408v.78q0 .372-.072.492-.06.108-.444.108h-7.56q-.372 0-.504-.084-.12-.084-.12-.468v-.924q0-.276.072-.348.084-.072.36-.072h1.608q.408 0 .504-.12.096-.132.096-.516V10.292q0-.276-.108-.336-.096-.06-.372-.06m4.332 6.648h2.304q1.572 0 2.448-.936t.876-2.424q0-1.5-.876-2.388-.876-.9-2.448-.9h-2.496q-.264 0-.324.12-.06.108-.06.36v5.64q0 .36.108.444t.468.084m11.64 5.832V15.62q0-.24-.072-.324-.06-.096-.288-.096h-1.344q-.252 0-.36-.06-.096-.06-.096-.312v-.852q0-.288.072-.372.084-.084.36-.084h4.284q.288 0 .372.06.096.06.096.336v8.16q0 1.224.456 1.92.468.684 1.464.684.96 0 1.716-.576t1.188-1.56q.432-.996.432-2.232v-4.68q0-.276-.108-.348-.096-.084-.36-.084h-1.176q-.192 0-.288-.036-.084-.048-.084-.24v-1.02q0-.228.06-.3.06-.084.264-.084h4.392q.216 0 .264.084.06.084.06.3v9.984q0 .288.072.36.084.072.384.072h1.32q.18 0 .276.06.108.06.108.252v.948q0 .252-.06.336-.048.084-.288.084h-4.26q-.288 0-.36-.096t-.072-.384v-1.248q0-.168-.096-.228t-.24.18q-.576.924-1.536 1.512-.96.576-2.52.576-1.488 0-2.376-.444-.876-.456-1.272-1.332-.384-.876-.384-2.16m18.773-2.616q0 1.296.384 2.388.396 1.092 1.092 1.752t1.644.66q.864 0 1.524-.66.672-.66 1.044-1.752t.372-2.388-.372-2.388-1.044-1.752q-.66-.66-1.524-.66-.948 0-1.644.66t-1.092 1.752q-.384 1.092-.384 2.388m-4.908-10.8q-.168 0-.216-.06-.048-.072-.048-.228V7.52q0-.144.036-.192.048-.048.18-.048h4.656q.156 0 .228.036t.072.204v7.8q0 .3.024.348.036.036.12-.108.624-1.08 1.56-1.704t2.28-.624q1.464 0 2.676.768t1.932 2.232q.72 1.452.72 3.528t-.744 3.54q-.732 1.464-1.968 2.244-1.224.768-2.688.768-1.296 0-2.196-.564t-1.488-1.608q-.132-.216-.18-.168-.048.036-.048.444v1.152q0 .216-.072.324t-.288.108h-4.536q-.168 0-.228-.036-.048-.048-.048-.228v-1.164q0-.168.072-.204.072-.048.228-.048h1.572q.192 0 .24-.06t.048-.24V9.224q0-.264-.216-.264zm15.975 0h-1.152q-.348 0-.42-.132-.06-.144-.06-.456V7.76q0-.348.132-.408.132-.072.468-.072h3.972q.372 0 .492.072t.12.456v15.96q0 .336.036.444.048.108.408.108h1.368q.192 0 .264.072.084.06.084.264v.816q0 .372-.132.456-.12.072-.48.072h-6.264q-.264 0-.372-.06-.096-.072-.096-.36v-.816q0-.24.06-.336.072-.108.312-.108h1.308q.348 0 .408-.072.072-.072.072-.432V9.428q0-.312-.108-.384-.096-.084-.42-.084m7.835.312q0-.792.552-1.272.552-.492 1.32-.492.78 0 1.32.492.552.48.552 1.272 0 .78-.552 1.272-.54.492-1.32.492-.768 0-1.32-.492t-.552-1.272m.216 5.928h-1.62q-.18 0-.228-.048t-.048-.228v-1.08q0-.324.312-.324h4.62q.156 0 .204.048.048.036.048.204v10.26q0 .156.048.228.048.06.204.06h1.608q.18 0 .24.036t.06.216v1.116q0 .192-.048.252t-.252.06h-6.696q-.192 0-.276-.048-.072-.048-.072-.24V24.68q0-.24.072-.3.084-.06.3-.06h1.5q.204 0 .24-.06.048-.06.048-.252V15.5q0-.3-.264-.3m5.589 4.632q0-1.356.42-2.544.42-1.2 1.236-2.112.828-.924 2.028-1.44 1.212-.528 2.796-.528 1.608 0 2.76.516 1.164.516 1.776 1.356.624.84.624 1.836 0 1.032-.612 1.512-.6.48-1.344.48-.756 0-1.284-.456-.516-.456-.516-1.224 0-.492.204-.744.216-.264.42-.444.204-.192.204-.444 0-.42-.552-.684-.54-.264-1.368-.264-1.152 0-1.908.696-.756.684-1.128 1.836-.372 1.14-.372 2.508 0 1.296.288 2.46.3 1.152.972 1.884.684.72 1.848.72 1.26 0 2.076-.72.828-.72 1.284-1.932.06-.144.132-.192.084-.06.288-.06h1.224q.228 0 .276.048t-.012.216q-.372 1.308-1.116 2.256-.732.936-1.824 1.44-1.08.504-2.52.504-2.16 0-3.552-.876-1.392-.888-2.076-2.364-.672-1.476-.672-3.24m12.689 3.216q0-1.2.756-2.148t2.196-1.488q1.44-.552 3.504-.552h1.08q.204 0 .252-.048.06-.048.06-.264v-1.356q0-.756-.204-1.32t-.696-.876q-.48-.324-1.32-.324-.504 0-.96.108-.456.096-.744.264-.276.168-.276.36 0 .18.144.288.156.108.3.3t.144.684q0 .696-.48 1.116t-1.2.42q-.708 0-1.236-.348t-.528-1.188q0-.852.492-1.488t1.308-1.056 1.812-.636q1.008-.216 2.028-.216 1.68 0 2.652.516t1.368 1.416q.408.9.408 2.04v6.576q0 .36.18.528.192.168.444.168t.528-.132q.276-.144.552-.6.12-.204.276-.084l.72.432q.156.096.072.288-.276.528-.72.948-.432.408-.996.636-.552.228-1.224.228h-.012q-.876 0-1.368-.252-.492-.264-.744-.624-.24-.36-.384-.684-.108-.252-.204-.252-.096-.012-.264.216-.264.3-.708.672-.432.372-1.188.648t-1.956.276q-1.74 0-2.808-.828-1.056-.828-1.056-2.364m3.408-.396q0 .984.576 1.428.588.432 1.38.432 1.092 0 1.788-.792.696-.804.696-2.304v-1.14q0-.24-.24-.24h-.912q-1.14 0-1.872.336-.72.324-1.068.912t-.348 1.368m17.873 1.044q-.3.696-.792 1.296-.48.6-1.224.972-.744.36-1.848.36-1.536 0-2.232-.732-.684-.744-.684-2.016V15.62q0-.228-.072-.324t-.3-.096h-1.464q-.24 0-.324-.06-.072-.072-.072-.312v-.948q0-.252.072-.3.072-.06.312-.06.66 0 1.164-.096t.876-.408.66-.972q.3-.66.564-1.8.048-.216.096-.288.06-.084.348-.084h.828q.336 0 .336.36v2.88q0 .264.096.336.108.072.348.072h2.568q.228 0 .3.072t.072.312v.996q0 .204-.096.252-.084.048-.288.048h-2.544q-.228 0-.348.072-.108.072-.108.324v7.5q0 .684.264 1.008t.732.324q.456 0 .828-.312.384-.312.708-.936.096-.18.168-.216.084-.048.288.048l.552.276q.18.084.24.168.06.072-.024.24m1.882-14.424q0-.792.552-1.272.552-.492 1.32-.492.78 0 1.32.492.552.48.552 1.272 0 .78-.552 1.272-.54.492-1.32.492-.768 0-1.32-.492t-.552-1.272m.216 5.928h-1.62q-.18 0-.228-.048t-.048-.228v-1.08q0-.324.312-.324h4.62q.156 0 .204.048.048.036.048.204v10.26q0 .156.048.228.048.06.204.06h1.608q.18 0 .24.036t.06.216v1.116q0 .192-.048.252t-.252.06h-6.696q-.192 0-.276-.048-.072-.048-.072-.24V24.68q0-.24.072-.3.084-.06.3-.06h1.5q.204 0 .24-.06.048-.06.048-.252V15.5q0-.3-.264-.3m8.973 4.32q0 1.416.228 2.628t.828 1.956q.6.732 1.728.732.852 0 1.392-.42.552-.42.852-1.116t.42-1.548q.12-.864.12-1.752 0-1.416-.228-2.628t-.828-1.944q-.6-.744-1.728-.744-.852 0-1.404.42-.54.42-.84 1.116t-.42 1.56q-.12.852-.12 1.74m-3.384.516q0-1.92.696-3.456.696-1.548 2.064-2.46t3.408-.912 3.408.876 2.064 2.316.696 3.12q0 1.92-.696 3.456t-2.064 2.436-3.408.9-3.408-.864q-1.368-.876-2.064-2.304t-.696-3.108m14.579-4.836h-1.44q-.228 0-.288-.084t-.06-.312v-.9q0-.228.096-.3.096-.084.3-.084h4.176q.228 0 .336.12.12.12.12.348v1.116q0 .468.072.48.084 0 .252-.216.6-.9 1.56-1.524.96-.636 2.508-.636 1.488 0 2.376.456.888.444 1.272 1.32t.384 2.16v6.648q0 .324.072.432.084.096.408.096h1.332q.216 0 .276.084.072.084.072.3v.924q0 .264-.096.324-.096.048-.372.048h-6.252q-.24 0-.288-.096t-.048-.324v-.852q0-.216.048-.312.06-.096.288-.096h1.056q.3 0 .396-.072.096-.084.096-.396v-6.408q0-1.224-.468-1.824-.456-.612-1.464-.612-.96 0-1.716.54-.756.528-1.188 1.476t-.432 2.184v4.632q0 .264.096.372.108.108.396.108h.948q.252 0 .336.072.096.072.096.348v.876q0 .24-.096.312-.084.072-.312.072h-6.288q-.24 0-.3-.084-.048-.084-.048-.336v-.84q0-.276.096-.348t.348-.072h1.248q.276 0 .372-.06t.096-.324v-8.424q0-.204-.084-.252-.084-.06-.288-.06M4.96 52.192c-.81067 0-1.536-.1387-2.176-.416-.62933-.2773-1.13067-.6827-1.504-1.216-.36267-.5333-.54933-1.1787-.56-1.936h2.288c.01067.3307.096.6293.256.896s.37867.48.656.64c.288.1493.62933.224 1.024.224.34133 0 .63467-.0533.88-.16q.384-.17595.592-.48t.208-.72c0-.32-.08-.5867-.24-.8-.14933-.2133-.36267-.3947-.64-.544-.26667-.1493-.58133-.2827-.944-.4-.352-.128-.72533-.2613-1.12-.4q-1.328-.432-2.032-1.152c-.45867-.48-.688-1.1147-.688-1.904q0-1.008.48-1.728.496-.72 1.36-1.104t1.968-.384c.75733 0 1.41867.1333 1.984.4.576.256 1.02933.6293 1.36 1.12q.512.73605.528 1.728H6.336c-.01067-.2453-.08533-.4747-.224-.688q-.192-.336-.544-.528c-.23467-.1387-.512-.208-.832-.208-.27733-.0107-.53333.032-.768.128q-.336.144-.544.432c-.128.1813-.192.4107-.192.688q0 .40005.192.672.208.27195.56.48c.23467.128.512.2507.832.368q.48.16005 1.04.336c.55467.192 1.06667.4213 1.536.688q.704.384 1.12 1.008c.27733.416.416.9653.416 1.648q0 .88005-.464 1.632c-.30933.5013-.75733.9067-1.344 1.216-.576.3093-1.296.464-2.16.464m8.6062 0c-.6506 0-1.2106-.1333-1.68-.4q-.6879-.41595-1.056-1.2c-.2453-.5333-.368-1.1893-.368-1.968v-4.688h2.16V48.4c0 .6507.1334 1.1413.4 1.472.2774.3307.6987.496 1.2641.496q.5439 0 .96-.24c.2773-.1707.4959-.4107.6559-.72.1707-.32.256-.7093.256-1.168v-4.304h2.144V52h-1.888l-.1759-1.312q-.35205.68805-1.0401 1.104c-.4586.2667-1.0026.4-1.632.4m11.4654 0c-.416 0-.7893-.0533-1.12-.16q-.48-.16005-.864-.432c-.2453-.192-.4533-.4053-.624-.64l-.24 1.04h-1.92V40.48h2.16v4.576c.256-.3733.592-.6827 1.008-.928q.64005-.384 1.584-.384c.7467 0 1.408.1867 1.984.56.5867.3627 1.0454.864 1.376 1.504.3414.6293.512 1.3547.512 2.176 0 .8-.1706 1.52-.512 2.16-.3306.64-.784 1.1413-1.36 1.504s-1.2373.544-1.984.544m-.512-1.888c.4267 0 .8-.096 1.12-.288q.49605-.30405.768-.816c.1814-.352.272-.7573.272-1.216s-.0906-.864-.272-1.216c-.1813-.3627-.4373-.64-.768-.832-.32-.2027-.6933-.304-1.12-.304-.416 0-.7893.1013-1.12.304q-.48.288-.768.816c-.1813.352-.272.7573-.272 1.216s.0907.8693.272 1.232q.288.528.768.816c.3307.192.704.288 1.12.288M30.594 52V40.48h2.16v4.656q.40005-.64005 1.056-1.008c.448-.256.9653-.384 1.552-.384.672 0 1.2373.144 1.696.432.4587.2773.8053.6827 1.04 1.216s.352 1.1947.352 1.984V52h-2.144v-4.432c0-.64-.1333-1.1307-.4-1.472-.2667-.352-.688-.528-1.264-.528-.352 0-.672.0853-.96.256s-.5173.4213-.688.752q-.24.48-.24 1.152V52zm13.6086.192c-.8106 0-1.5306-.1707-2.16-.512-.6186-.352-1.104-.8373-1.456-1.456-.3413-.6293-.512-1.3547-.512-2.176 0-.8427.1707-1.584.512-2.224.352-.6507.8374-1.1573 1.456-1.52.6187-.3733 1.3387-.56 2.16-.56.8 0 1.4987.176 2.096.528.5974.352 1.0614.8267 1.392 1.424.3307.5973.496 1.2747.496 2.032v.368c0 .128-.0106.2613-.032.4h-6.544v-1.312h4.4c-.032-.5227-.2186-.9333-.56-1.232-.3306-.2987-.7466-.448-1.248-.448-.3626 0-.6986.0853-1.008.256-.3093.16-.5546.4107-.736.752-.1706.3413-.256.7733-.256 1.296v.464q0 .65595.24 1.152c.1707.32.4054.5707.704.752.2987.1707.6454.256 1.04.256.3947 0 .72-.0853.976-.256.2667-.1707.464-.3893.592-.656h2.208c-.1493.5013-.4.9547-.752 1.36q-.528.60795-1.296.96c-.512.2347-1.0826.352-1.712.352m8.319 0c-.672 0-1.2266-.1067-1.664-.32-.4373-.224-.7626-.5173-.976-.88-.2026-.3733-.304-.784-.304-1.232 0-.4907.1227-.9227.368-1.296.256-.3733.6347-.6667 1.136-.88.512-.2133 1.152-.32 1.92-.32h2c0-.3947-.0533-.72-.16-.976-.1066-.2667-.272-.464-.496-.592s-.5226-.192-.896-.192c-.4053 0-.752.0907-1.04.272-.2773.1707-.448.4373-.512.8h-2.096c.0534-.576.24-1.072.56-1.488.3307-.4267.7627-.7573 1.296-.992.544-.2347 1.1467-.352 1.808-.352q1.1361 0 1.968.384c.5547.256.9814.624 1.28 1.104.2987.48.448 1.072.448 1.776V52h-1.824l-.24-1.232c-.1173.2133-.256.4053-.416.576s-.3466.32-.56.448q-.31995.192-.72.288c-.2666.0747-.56.112-.88.112m.512-1.664c.2774 0 .5227-.048.736-.144.224-.1067.416-.2453.576-.416.16-.1813.2827-.384.368-.608.096-.2347.16-.4853.192-.752v-.016h-1.648c-.3306 0-.6026.0427-.816.128-.2026.0747-.352.1867-.448.336s-.144.32-.144.512q0 .31995.144.528c.096.1387.2347.2453.416.32.1814.0747.3894.112.624.112m9.573 1.664c-.736 0-1.3973-.1813-1.984-.544-.576-.3627-1.0293-.864-1.36-1.504-.3306-.64-.496-1.36-.496-2.16 0-.8213.1654-1.5467.496-2.176.3414-.64.8054-1.1413 1.392-1.504.5974-.3733 1.264-.56 2-.56.576 0 1.0827.1067 1.52.32q.6561.31995 1.056.912V40.48h2.16V52h-1.92l-.24-1.104c-.16.224-.3626.4373-.608.64-.2346.2027-.5173.3627-.848.48-.3306.1173-.72.176-1.168.176m.512-1.888c.4267 0 .8-.096 1.12-.288.3307-.2027.5867-.48.768-.832.1814-.352.272-.7573.272-1.216s-.0906-.864-.272-1.216q-.27195-.528-.768-.816c-.32-.2027-.6933-.304-1.12-.304-.4053 0-.7733.1013-1.104.304-.3306.192-.592.464-.784.816-.1813.352-.272.752-.272 1.2 0 .4693.0907.88.272 1.232.192.352.448.6293.768.832.3307.192.704.288 1.12.288m10.1064 1.888c-.8107 0-1.5307-.1707-2.16-.512-.6187-.352-1.104-.8373-1.456-1.456-.3413-.6293-.512-1.3547-.512-2.176 0-.8427.1707-1.584.512-2.224.352-.6507.8373-1.1573 1.456-1.52.6187-.3733 1.3387-.56 2.16-.56.8 0 1.4987.176 2.096.528s1.0613.8267 1.392 1.424.496 1.2747.496 2.032v.368c0 .128-.0107.2613-.032.4h-6.544v-1.312h4.4c-.032-.5227-.2187-.9333-.56-1.232-.3307-.2987-.7467-.448-1.248-.448-.3627 0-.6987.0853-1.008.256-.3093.16-.5547.4107-.736.752-.1707.3413-.256.7733-.256 1.296v.464q0 .65595.24 1.152c.1707.32.4053.5707.704.752.2987.1707.6453.256 1.04.256s.72-.0853.976-.256c.2667-.1707.464-.3893.592-.656h2.208c-.1493.5013-.4.9547-.752 1.36q-.528.60795-1.296.96c-.512.2347-1.0827.352-1.712.352M78.824 52v-8.064h1.92l.208 1.488c.192-.352.432-.6507.72-.896q.44805-.36795 1.008-.576c.384-.1387.8053-.208 1.264-.208v2.288h-.736c-.32 0-.6187.0373-.896.112-.2667.0747-.5013.1973-.704.368-.2027.16-.3573.384-.464.672s-.16.6507-.16 1.088V52zM.616 67.208v-.574h6.972l.098 2.478h-.798l-.308-1.778H3.29l-.028 1.792v1.764h2.17l.196-1.33h.644v3.444h-.644l-.196-1.456h-2.17v1.946c.00933.6067.01867 1.1993.028 1.778l1.302.154V76H.616v-.574l1.288-.154c.01867-.588.028-1.1853.028-1.792v-4.312q0-.91005-.028-1.806zm10.7532 8.974q-.81195 0-1.554-.378c-.48533-.2613-.882-.6487-1.19-1.162q-.462-.78405-.462-1.932c0-.7747.154-1.4233.462-1.946.308-.532.70467-.9287 1.19-1.19.4947-.2707 1.0127-.406 1.554-.406s1.0547.1353 1.54.406c.4947.2613.896.658 1.204 1.19.3173.5227.476 1.1713.476 1.946 0 .7653-.1587 1.4093-.476 1.932-.308.5133-.7093.9007-1.204 1.162-.4853.252-.9987.378-1.54.378m0-.63c.6067 0 1.0733-.238 1.4-.714.3267-.4853.49-1.1947.49-2.128 0-.9427-.1633-1.6613-.49-2.156s-.7933-.742-1.4-.742-1.0733.2473-1.4.742c-.31733.4947-.476 1.2133-.476 2.156 0 .9333.15867 1.6427.476 2.128.3267.476.7933.714 1.4.714m4.4356.448v-.504l1.008-.182c.0093-.3547.014-.7373.014-1.148.0093-.42.014-.7887.014-1.106v-.672c0-.3827-.0047-.7-.014-.952 0-.252-.0093-.518-.028-.798l-1.106-.126v-.49l1.96-.854.21.14.154 1.652c.2333-.56.532-.9987.896-1.316.3733-.3173.7467-.476 1.12-.476.2147 0 .4153.0467.602.14s.322.2193.406.378c0 .6813-.2753 1.022-.826 1.022-.1587 0-.308-.028-.448-.084-.14-.0653-.2753-.154-.406-.266l-.168-.154c-.28.2053-.5133.4573-.7.756q-.28005.44805-.462 1.05v2.128c.0093.4107.0187.7933.028 1.148l1.148.21V76zm11.4695.182c-.4853 0-.8727-.1307-1.162-.392s-.434-.6627-.434-1.204v-.518c.0093-.1773.014-.4013.014-.672v-3.304h-1.162v-.616l1.246-.154.364-1.876h.84l-.084 1.904h1.89v.742h-1.904v4.34c0 .3547.07.616.21.784.14.1587.3267.238.56.238.1587 0 .308-.0327.448-.098.1493-.0653.3127-.1587.49-.28l.336.364c-.3827.4947-.9333.742-1.652.742M29.377 76v-.504l1.05-.196c.0094-.3547.014-.7373.014-1.148.0094-.42.014-.784.014-1.092v-6.146l-1.148-.14v-.49l2.142-.63.196.112-.056 1.988v2.702c.3454-.3827.7467-.6907 1.204-.924.4574-.2427.91-.364 1.358-.364.6067 0 1.0547.2053 1.344.616.2987.4013.448 1.0593.448 1.974v2.394c.0094.4107.0187.7933.028 1.148l.98.196V76h-3.248v-.504l1.022-.182c.0094-.3547.014-.7373.014-1.148.0094-.42.014-.7887.014-1.106v-1.19c0-.644-.0886-1.0873-.266-1.33-.1773-.2427-.4713-.364-.882-.364-.3453 0-.672.07-.98.21s-.6393.3733-.994.7v3.066c.0094.4107.0187.7933.028 1.148l.966.196V76zm11.7542-6.188c-.2613 0-.5273.0747-.798.224-.2613.1493-.49.3873-.686.714-.1866.3267-.308.7607-.364 1.302h2.548c.336 0 .5554-.07.658-.21.112-.14.168-.3127.168-.518 0-.2707-.07-.518-.21-.742-.1306-.2333-.3126-.42-.546-.56-.224-.14-.4806-.21-.77-.21m-.014 6.37c-.9426 0-1.6986-.3033-2.268-.91-.5693-.616-.854-1.4607-.854-2.534 0-.7187.1447-1.344.434-1.876.2987-.532.6907-.9473 1.176-1.246.4947-.2987 1.0314-.448 1.61-.448.4854 0 .924.1073 1.316.322s.7047.5227.938.924c.2334.392.35.8727.35 1.442 0 .1587-.0093.308-.028.448-.0186.1307-.042.2427-.07.336h-4.466c.0187.8587.2334 1.512.644 1.96.4107.448.952.672 1.624.672.448 0 .8214-.0887 1.12-.266.2987-.1867.574-.4247.826-.714l.336.266c-.2613.4947-.616.8913-1.064 1.19-.448.2893-.9893.434-1.624.434M48.3295 76v-.504l1.036-.196c.0094-.3547.014-.7373.014-1.148.0094-.4107.014-.7747.014-1.092v-.672c0-.3827-.0046-.7-.014-.952 0-.252-.0093-.518-.028-.798l-1.106-.126v-.49l1.96-.854.21.14.112 1.134c.3267-.3733.7094-.6767 1.148-.91.4387-.2427.8727-.364 1.302-.364.4387 0 .7934.1027 1.064.308.28.2053.4807.5413.602 1.008.3547-.4387.7514-.7653 1.19-.98q.65805-.336 1.344-.336c.5694 0 1.008.1913 1.316.574.3174.3827.476 1.008.476 1.876v2.534c.0094.4107.0187.7933.028 1.148l.98.196V76h-3.248v-.504l1.036-.196c.0094-.3453.014-.7233.014-1.134.0094-.42.014-.7887.014-1.106v-1.218c0-.6533-.0933-1.092-.28-1.316-.1866-.2333-.4853-.35-.896-.35-.2893 0-.588.0653-.896.196-.2986.1307-.6253.3593-.98.686.0094.1027.014.2147.014.336.0094.112.014.2333.014.364v2.394c.0094.4107.0187.7933.028 1.148l.98.196V76h-3.248v-.504l1.036-.196c.0094-.3453.014-.7233.014-1.134.0094-.42.014-.7887.014-1.106v-1.19c0-.6347-.0886-1.0733-.266-1.316q-.26595-.378-.882-.378c-.3173 0-.6206.0653-.91.196-.2893.1307-.6066.3453-.952.644v3.136c.0094.4107.0187.7933.028 1.148l.966.196V76zm15.8952.182q-.8121 0-1.554-.378c-.4854-.2613-.882-.6487-1.19-1.162q-.462-.78405-.462-1.932c0-.7747.154-1.4233.462-1.946.308-.532.7046-.9287 1.19-1.19.4946-.2707 1.0126-.406 1.554-.406.5413 0 1.0546.1353 1.54.406.4946.2613.896.658 1.204 1.19.3173.5227.476 1.1713.476 1.946 0 .7653-.1587 1.4093-.476 1.932-.308.5133-.7094.9007-1.204 1.162-.4854.252-.9987.378-1.54.378m0-.63c.6066 0 1.0733-.238 1.4-.714.3266-.4853.49-1.1947.49-2.128 0-.9427-.1634-1.6613-.49-2.156-.3267-.4947-.7934-.742-1.4-.742-.6067 0-1.0734.2473-1.4.742-.3174.4947-.476 1.2133-.476 2.156 0 .9333.1586 1.6427.476 2.128.3266.476.7933.714 1.4.714m4.4356.448v-.504l1.008-.182c.0093-.3547.014-.7373.014-1.148.0093-.42.014-.7887.014-1.106v-.672c0-.3827-.0047-.7-.014-.952 0-.252-.0094-.518-.028-.798l-1.106-.126v-.49l1.96-.854.21.14.154 1.652c.2333-.56.532-.9987.896-1.316.3733-.3173.7466-.476 1.12-.476.2146 0 .4153.0467.602.14.1866.0933.322.2193.406.378 0 .6813-.2754 1.022-.826 1.022-.1587 0-.308-.028-.448-.084-.14-.0653-.2754-.154-.406-.266l-.168-.154c-.28.2053-.5134.4573-.7.756q-.28005.44805-.462 1.05v2.128c.0093.4107.0186.7933.028 1.148l1.148.21V76zm8.9612-6.188c-.2614 0-.5274.0747-.798.224-.2614.1493-.49.3873-.686.714-.1867.3267-.308.7607-.364 1.302h2.548c.336 0 .5553-.07.658-.21.112-.14.168-.3127.168-.518 0-.2707-.07-.518-.21-.742-.1307-.2333-.3127-.42-.546-.56-.224-.14-.4807-.21-.77-.21m-.014 6.37c-.9427 0-1.6987-.3033-2.268-.91-.5694-.616-.854-1.4607-.854-2.534 0-.7187.1446-1.344.434-1.876.2986-.532.6906-.9473 1.176-1.246.4946-.2987 1.0313-.448 1.61-.448.4853 0 .924.1073 1.316.322s.7046.5227.938.924c.2333.392.35.8727.35 1.442 0 .1587-.0094.308-.028.448-.0187.1307-.042.2427-.07.336h-4.466c.0186.8587.2333 1.512.644 1.96.4106.448.952.672 1.624.672.448 0 .8213-.0887 1.12-.266.2986-.1867.574-.4247.826-.714l.336.266c-.2614.4947-.616.8913-1.064 1.19-.448.2893-.9894.434-1.624.434M84.6098 76v-.504l1.12-.196c.0093-.3827.014-.756.014-1.12.0093-.3733.014-.7467.014-1.12v-6.146l-1.148-.14v-.49l2.184-.63.196.112-.056 1.988v6.426c.0093.3733.0186.7467.028 1.12l1.12.196V76zm4.3099 0v-.504l1.05-.196c.0093-.3547.014-.7373.014-1.148.0093-.42.014-.784.014-1.092v-.658c0-.3827-.0047-.7-.014-.952 0-.2613-.0093-.532-.028-.812l-1.12-.126v-.49l2.156-.854.21.14-.042 1.904v2.94c.0093.4107.0187.7933.028 1.148l.98.196V76zm1.652-8.372q-.39195 0-.672-.252c-.1773-.168-.266-.3827-.266-.644 0-.2707.0887-.4853.266-.644q.28005-.252.672-.252c.2613 0 .4807.084.658.252.1867.1587.28.3733.28.644 0 .2613-.0933.476-.28.644-.1773.168-.3967.252-.658.252m4.8979 8.554c-.4853 0-.8727-.1307-1.162-.392s-.434-.6627-.434-1.204v-.518c.0093-.1773.014-.4013.014-.672v-3.304h-1.162v-.616l1.246-.154.364-1.876h.84l-.084 1.904h1.89v.742h-1.904v4.34c0 .3547.07.616.21.784.14.1587.3267.238.56.238.1587 0 .308-.0327.448-.098.1493-.0653.3127-.1587.49-.28l.336.364c-.3827.4947-.9333.742-1.652.742m5.4484-6.37c-.261 0-.527.0747-.798.224-.261.1493-.4897.3873-.6857.714-.1866.3267-.308.7607-.364 1.302h2.5477c.336 0 .556-.07.658-.21.112-.14.168-.3127.168-.518 0-.2707-.07-.518-.21-.742-.13-.2333-.312-.42-.546-.56-.224-.14-.48-.21-.77-.21m-.014 6.37c-.9423 0-1.6983-.3033-2.2677-.91-.5693-.616-.854-1.4607-.854-2.534 0-.7187.1447-1.344.434-1.876.2987-.532.6907-.9473 1.176-1.246.4947-.2987 1.0317-.448 1.6097-.448.486 0 .924.1073 1.316.322s.705.5227.938.924c.234.392.35.8727.35 1.442 0 .1587-.009.308-.028.448-.018.1307-.042.2427-.07.336h-4.4657c.0187.8587.2334 1.512.644 1.96.4107.448.9517.672 1.6237.672.448 0 .822-.0887 1.12-.266.299-.1867.574-.4247.826-.714l.336.266c-.261.4947-.616.8913-1.064 1.19-.448.2893-.989.434-1.624.434m3.973-.182v-.504l1.008-.182c.009-.3547.014-.7373.014-1.148.009-.42.014-.7887.014-1.106v-.672c0-.3827-.005-.7-.014-.952 0-.252-.009-.518-.028-.798l-1.106-.126v-.49l1.96-.854.21.14.154 1.652c.233-.56.532-.9987.896-1.316.373-.3173.747-.476 1.12-.476.215 0 .415.0467.602.14s.322.2193.406.378c0 .6813-.275 1.022-.826 1.022-.159 0-.308-.028-.448-.084-.14-.0653-.275-.154-.406-.266l-.168-.154c-.28.2053-.513.4573-.7.756q-.2805.44805-.462 1.05v2.128c.009.4107.019.7933.028 1.148l1.148.21V76zm11.006.14q-.504 0-.84-.294c-.224-.196-.364-.4573-.42-.784q-.5745.55995-1.008.84c-.29.1867-.64.28-1.05.28-.514 0-.957-.1447-1.33-.434-.364-.2987-.546-.7373-.546-1.316 0-.2707.06-.5227.182-.756.13-.2333.364-.462.7-.686s.816-.448 1.442-.672c.214-.0747.462-.154.742-.238s.56-.1587.84-.224v-.35c0-.6813-.103-1.134-.308-1.358q-.309-.336-1.008-.336c-.103 0-.22.0047-.35.014-.122.0093-.257.0327-.406.07l-.266.91c-.131.448-.374.672-.728.672-.392 0-.612-.1913-.658-.574q.195-.798.924-1.26c.494-.3173 1.096-.476 1.806-.476.737 0 1.283.1867 1.638.56.354.364.532.9893.532 1.876v2.982c0 .2987.046.5133.14.644.093.1213.214.182.364.182.121 0 .224-.028.308-.084s.163-.1307.238-.224l.28.308c-.168.2707-.355.462-.56.574-.196.1027-.416.154-.658.154m-3.948-1.918c0 .3733.107.6393.322.798.214.1587.48.238.798.238.14 0 .27-.0187.392-.056q.195-.05595.462-.21c.177-.112.406-.2707.686-.476v-2.142c-.243.0653-.481.14-.714.224-.234.0747-.425.14-.574.196-.402.1587-.7.322-.896.49s-.327.3313-.392.49c-.056.1587-.084.308-.084.448M117.701 76v-.504l1.008-.182c.01-.3547.014-.7373.014-1.148.01-.42.014-.7887.014-1.106v-.672c0-.3827-.004-.7-.014-.952 0-.252-.009-.518-.028-.798l-1.106-.126v-.49l1.96-.854.21.14.154 1.652c.234-.56.532-.9987.896-1.316.374-.3173.747-.476 1.12-.476.215 0 .416.0467.602.14.187.0933.322.2193.406.378 0 .6813-.275 1.022-.826 1.022-.158 0-.308-.028-.448-.084-.14-.0653-.275-.154-.406-.266l-.168-.154c-.28.2053-.513.4573-.7.756q-.279.44805-.462 1.05v2.128c.01.4107.019.7933.028 1.148l1.148.21V76zm9.907-6.146v-.504h2.73v.504l-.756.154-2.254 5.95c-.467 1.2413-.919 2.1373-1.358 2.688q-.6435.84-1.512.84c-.345 0-.649-.0887-.91-.266-.252-.168-.378-.3873-.378-.658q.0705-.30795.336-.462c.187-.1027.387-.154.602-.154.187 0 .359.0373.518.112.159.084.331.224.518.42l.07.07q.4485-.378.756-.924.3075-.53205.504-1.092l.056-.168-2.534-6.398-.77-.112v-.504h3.36v.518l-1.232.14 1.75 4.774 1.722-4.76zm3.136 3.094v-.924h3.248v.924zM.56 96v-.504l1.036-.196c.00933-.3547.014-.7373.014-1.148q.014-.61605.014-1.092v-.672c0-.3827-.00467-.7-.014-.952q0-.378-.028-.798l-1.106-.126v-.49l1.96-.854.21.14.112 1.134c.32667-.3733.70933-.6767 1.148-.91.43867-.2427.87267-.364 1.302-.364.43867 0 .79333.1027 1.064.308q.42.30795.602 1.008c.35467-.4387.75133-.7653 1.19-.98q.658-.336 1.344-.336c.56933 0 1.008.1913 1.316.574.3173.3827.476 1.008.476 1.876v2.534c.0093.4107.0187.7933.028 1.148l.98.196V96H8.96v-.504l1.036-.196c.0093-.3453.014-.7233.014-1.134.0093-.42.014-.7887.014-1.106v-1.218c0-.6533-.09333-1.092-.28-1.316-.18667-.2333-.48533-.35-.896-.35-.28933 0-.588.0653-.896.196-.29867.1307-.62533.3593-.98.686q.014.15405.014.336c.00933.112.014.2333.014.364v2.394c.00933.4107.01867.7933.028 1.148l.98.196V96H4.76v-.504l1.036-.196q.014-.51795.014-1.134c.00933-.42.014-.7887.014-1.106v-1.19c0-.6347-.08867-1.0733-.266-1.316q-.266-.378-.882-.378c-.31733 0-.62067.0653-.91.196s-.60667.3453-.952.644v3.136c.00933.4107.01867.7933.028 1.148l.966.196V96zm12.5491 0v-.504l1.05-.196c.0094-.3547.014-.7373.014-1.148.0094-.42.014-.784.014-1.092v-.658c0-.3827-.0046-.7-.014-.952 0-.2613-.0093-.532-.028-.812l-1.12-.126v-.49l2.156-.854.21.14-.042 1.904v2.94c.0094.4107.0187.7933.028 1.148l.98.196V96zm1.652-8.372q-.39195 0-.672-.252c-.1773-.168-.266-.3827-.266-.644 0-.2707.0887-.4853.266-.644q.28005-.252.672-.252c.2614 0 .4807.084.658.252.1867.1587.28.3733.28.644 0 .2613-.0933.476-.28.644-.1773.168-.3966.252-.658.252M17.3491 96v-.504l1.036-.196c.0093-.3547.014-.7373.014-1.148.0093-.4107.014-.7747.014-1.092v-.672c0-.3827-.0047-.7-.014-.952 0-.252-.0094-.518-.028-.798l-1.106-.126v-.49l1.96-.854.21.14.112 1.12c.3453-.3733.742-.6767 1.19-.91s.8866-.35 1.316-.35c.6066 0 1.0546.2053 1.344.616.2986.4013.448 1.0593.448 1.974v2.394c.0093.4107.0186.7933.028 1.148l.98.196V96h-3.248v-.504l1.036-.196c.0093-.3453.014-.7233.014-1.134.0093-.42.014-.7887.014-1.106v-1.19c0-.644-.0934-1.0873-.28-1.33-.1774-.2427-.4714-.364-.882-.364-.3174 0-.6254.0653-.924.196-.2987.1307-.6254.3453-.98.644v3.136c.0093.4107.0186.7933.028 1.148l.966.196V96zm9.8202-3.29c0 .9147.182 1.5913.546 2.03.3733.4293.84.644 1.4.644.308 0 .5787-.0607.812-.182q.36405-.19605.756-.63v-3.878c-.3173-.28-.602-.4713-.854-.574s-.4947-.154-.728-.154q-.51795 0-.966.294c-.2893.1867-.5227.4853-.7.896-.1773.4013-.266.9193-.266 1.554m3.654 3.43-.098-.966c-.2427.3173-.5227.5647-.84.742-.308.1773-.6813.266-1.12.266-.5693 0-1.0687-.1447-1.498-.434s-.7653-.6907-1.008-1.204c-.2333-.5227-.35-1.1247-.35-1.806 0-.7187.1307-1.344.392-1.876s.616-.9473 1.064-1.246.9567-.448 1.526-.448c.3267 0 .6393.0653.938.196.308.1307.6067.3687.896.714v-3.164l-1.19-.14v-.49l2.184-.63.196.112-.056 1.988v7.574l1.134.168V96zm6.1654-6.328c-.2614 0-.5274.0747-.798.224-.2614.1493-.49.3873-.686.714-.1867.3267-.308.7607-.364 1.302h2.548c.336 0 .5553-.07.658-.21.112-.14.168-.3127.168-.518 0-.2707-.07-.518-.21-.742-.1307-.2333-.3127-.42-.546-.56-.224-.14-.4807-.21-.77-.21m-.014 6.37c-.9427 0-1.6987-.3033-2.268-.91-.5694-.616-.854-1.4607-.854-2.534 0-.7187.1446-1.344.434-1.876.2986-.532.6906-.9473 1.176-1.246.4946-.2987 1.0313-.448 1.61-.448.4853 0 .924.1073 1.316.322s.7046.5227.938.924c.2333.392.35.8727.35 1.442 0 .1587-.0094.308-.028.448-.0187.1307-.042.2427-.07.336h-4.466c.0186.8587.2333 1.512.644 1.96.4106.448.952.672 1.624.672.448 0 .8213-.0887 1.12-.266.2986-.1867.574-.4247.826-.714l.336.266c-.2614.4947-.616.8913-1.064 1.19-.448.2893-.9894.434-1.624.434m5.2747-3.472c0 .9147.182 1.5913.546 2.03.3733.4293.84.644 1.4.644.308 0 .5786-.0607.812-.182q.3639-.19605.756-.63v-3.878c-.3174-.28-.602-.4713-.854-.574s-.4947-.154-.728-.154q-.5181 0-.966.294c-.2894.1867-.5227.4853-.7.896-.1774.4013-.266.9193-.266 1.554m3.654 3.43-.098-.966c-.2427.3173-.5227.5647-.84.742-.308.1773-.6814.266-1.12.266-.5694 0-1.0687-.1447-1.498-.434-.4294-.2893-.7654-.6907-1.008-1.204-.2334-.5227-.35-1.1247-.35-1.806 0-.7187.1306-1.344.392-1.876.2613-.532.616-.9473 1.064-1.246s.9566-.448 1.526-.448c.3266 0 .6393.0653.938.196.308.1307.6066.3687.896.714v-3.164l-1.19-.14v-.49l2.184-.63.196.112-.056 1.988v7.574l1.134.168V96zm8.4669.042c-.392 0-.7513-.0467-1.078-.14-.3267-.084-.6627-.2147-1.008-.392l-.056-1.54h.77l.266 1.218c.3267.1493.7047.224 1.134.224q.798 0 1.176-.294c.2613-.196.392-.4527.392-.77 0-.2987-.1073-.5367-.322-.714-.2147-.1867-.5413-.3547-.98-.504l-.644-.238c-.5133-.1867-.924-.4293-1.232-.728s-.462-.686-.462-1.162c0-.3453.0933-.6673.28-.966s.462-.5413.826-.728.8073-.28 1.33-.28c.3827 0 .728.0513 1.036.154q.47595.13995.924.42l-.056 1.428h-.728l-.224-1.12c-.3173-.1587-.6393-.238-.966-.238-.4293 0-.756.0887-.98.266-.2147.168-.322.3967-.322.686 0 .308.0933.5413.28.7q.294.23805 1.008.504l.434.154c.7.2613 1.1947.56 1.484.896.2987.336.448.7233.448 1.162 0 .3547-.1027.686-.308.994-.2053.2987-.5087.5413-.91.728s-.9053.28-1.512.28m6.1403 0c-.4853 0-.8726-.1307-1.162-.392-.2893-.2613-.434-.6627-.434-1.204v-.518c.0094-.1773.014-.4013.014-.672v-3.304h-1.162v-.616l1.246-.154.364-1.876h.84l-.084 1.904h1.89v.742h-1.904v4.34c0 .3547.07.616.21.784.14.1587.3267.238.56.238.1587 0 .308-.0327.448-.098.1494-.0653.3127-.1587.49-.28l.336.364c-.3826.4947-.9333.742-1.652.742m6.1208-6.328v-.504h2.73v.504l-.756.154-2.254 5.95c-.4667 1.2413-.9194 2.1373-1.358 2.688q-.6441.84-1.512.84c-.3454 0-.6487-.0887-.91-.266-.252-.168-.378-.3873-.378-.658q.0699-.30795.336-.462c.1866-.1027.3873-.154.602-.154.1866 0 .3593.0373.518.112.1586.084.3313.224.518.42l.07.07q.4479-.378.756-.924.30795-.53205.504-1.092l.056-.168-2.534-6.398-.77-.112v-.504h3.36v.518l-1.232.14 1.75 4.774 1.722-4.76zM69.434 96v-.504l1.12-.196c.0093-.3827.014-.756.014-1.12.0093-.3733.014-.7467.014-1.12v-6.146l-1.148-.14v-.49l2.184-.63.196.112-.056 1.988v6.426c.0093.3733.0187.7467.028 1.12l1.12.196V96zm7.5859-6.188c-.2613 0-.5273.0747-.798.224-.2613.1493-.49.3873-.686.714-.1867.3267-.308.7607-.364 1.302h2.548c.336 0 .5553-.07.658-.21.112-.14.168-.3127.168-.518 0-.2707-.07-.518-.21-.742-.1307-.2333-.3127-.42-.546-.56-.224-.14-.4807-.21-.77-.21m-.014 6.37c-.9427 0-1.6987-.3033-2.268-.91-.5693-.616-.854-1.4607-.854-2.534 0-.7187.1447-1.344.434-1.876.2987-.532.6907-.9473 1.176-1.246.4947-.2987 1.0313-.448 1.61-.448.4853 0 .924.1073 1.316.322s.7047.5227.938.924c.2333.392.35.8727.35 1.442 0 .1587-.0093.308-.028.448-.0187.1307-.042.2427-.07.336h-4.466c.0187.8587.2333 1.512.644 1.96s.952.672 1.624.672c.448 0 .8213-.0887 1.12-.266.2987-.1867.574-.4247.826-.714l.336.266c-.2613.4947-.616.8913-1.064 1.19-.448.2893-.9893.434-1.624.434m5.9566-.588c0 .56-.1354 1.078-.406 1.554q-.3921.714-1.008 1.218c-.4107.3453-.84.602-1.288.77l-.196-.476q.714-.36405 1.26-.882t.798-1.302l-.518-.406c-.1867-.1493-.322-.308-.406-.476-.084-.1773-.126-.3547-.126-.532 0-.2427.07-.448.21-.616.1493-.1773.3686-.266.658-.266.1306 0 .2613.028.392.084.14.056.2986.1633.476.322.056.1773.0933.35.112.518.028.1587.042.322.042.49m7.3528.588c-.4853 0-.8727-.1307-1.162-.392s-.434-.6627-.434-1.204v-.518c.0093-.1773.014-.4013.014-.672v-3.304h-1.162v-.616l1.246-.154.364-1.876h.84l-.084 1.904h1.89v.742h-1.904v4.34c0 .3547.07.616.21.784.14.1587.3267.238.56.238.1587 0 .308-.0327.448-.098.1493-.0653.3127-.1587.49-.28l.336.364c-.3827.4947-.9333.742-1.652.742M92.418 96v-.504l1.05-.196c.0094-.3547.014-.7373.014-1.148.0094-.42.014-.784.014-1.092v-6.146l-1.148-.14v-.49l2.142-.63.196.112-.056 1.988v2.702c.3454-.3827.7467-.6907 1.204-.924.4574-.2427.91-.364 1.358-.364.6067 0 1.0547.2053 1.344.616.2987.4013.448 1.0593.448 1.974v2.394c.0094.4107.0187.7933.028 1.148l.98.196V96h-3.248v-.504l1.022-.182c.0094-.3547.014-.7373.014-1.148.0094-.42.014-.7887.014-1.106v-1.19c0-.644-.0886-1.0873-.266-1.33-.1773-.2427-.4713-.364-.882-.364-.3453 0-.672.07-.98.21s-.6393.3733-.994.7v3.066c.0094.4107.0187.7933.028 1.148l.966.196V96zm11.754-6.188c-.261 0-.527.0747-.798.224-.261.1493-.49.3873-.686.714-.186.3267-.308.7607-.364 1.302h2.548c.336 0 .556-.07.658-.21.112-.14.168-.3127.168-.518 0-.2707-.07-.518-.21-.742-.13-.2333-.312-.42-.546-.56-.224-.14-.48-.21-.77-.21m-.014 6.37c-.942 0-1.698-.3033-2.268-.91-.569-.616-.854-1.4607-.854-2.534 0-.7187.145-1.344.434-1.876.299-.532.691-.9473 1.176-1.246.495-.2987 1.032-.448 1.61-.448.486 0 .924.1073 1.316.322s.705.5227.938.924c.234.392.35.8727.35 1.442 0 .1587-.009.308-.028.448-.018.1307-.042.2427-.07.336h-4.466c.019.8587.234 1.512.644 1.96.411.448.952.672 1.624.672.448 0 .822-.0887 1.12-.266.299-.1867.574-.4247.826-.714l.336.266c-.261.4947-.616.8913-1.064 1.19-.448.2893-.989.434-1.624.434m10.391 0c-.962 0-1.727-.3127-2.296-.938-.57-.6253-.854-1.4747-.854-2.548 0-.7373.149-1.3673.448-1.89.308-.532.709-.938 1.204-1.218.494-.28 1.022-.42 1.582-.42.42 0 .807.0793 1.162.238.354.1587.648.378.882.658.233.2707.378.5787.434.924-.066.3547-.28.532-.644.532-.234 0-.411-.0607-.532-.182-.112-.1307-.192-.294-.238-.49l-.252-.924c-.131-.0467-.262-.0747-.392-.084-.122-.0187-.243-.028-.364-.028-.598 0-1.092.2333-1.484.7-.383.4667-.574 1.148-.574 2.044q0 1.31595.63 2.016c.42.4667.956.7 1.61.7.401 0 .77-.0887 1.106-.266.336-.1867.611-.4527.826-.798l.35.182c-.196.5787-.514 1.022-.952 1.33-.439.308-.99.462-1.652.462m3.297-.182v-.504l1.12-.196c.009-.3827.014-.756.014-1.12.009-.3733.014-.7467.014-1.12v-6.146l-1.148-.14v-.49l2.184-.63.196.112-.056 1.988v6.426c.009.3733.019.7467.028 1.12l1.12.196V96zm9.507.14q-.504 0-.84-.294c-.224-.196-.364-.4573-.42-.784q-.573.55995-1.008.84c-.289.1867-.639.28-1.05.28-.513 0-.956-.1447-1.33-.434-.364-.2987-.546-.7373-.546-1.316 0-.2707.061-.5227.182-.756.131-.2333.364-.462.7-.686s.817-.448 1.442-.672c.215-.0747.462-.154.742-.238s.56-.1587.84-.224v-.35c0-.6813-.102-1.134-.308-1.358q-.3075-.336-1.008-.336c-.102 0-.219.0047-.35.014-.121.0093-.256.0327-.406.07l-.266.91c-.13.448-.373.672-.728.672-.392 0-.611-.1913-.658-.574q.1965-.798.924-1.26c.495-.3173 1.097-.476 1.806-.476.738 0 1.284.1867 1.638.56.355.364.532.9893.532 1.876v2.982c0 .2987.047.5133.14.644.094.1213.215.182.364.182.122 0 .224-.028.308-.084s.164-.1307.238-.224l.28.308c-.168.2707-.354.462-.56.574-.196.1027-.415.154-.658.154m-3.948-1.918c0 .3733.108.6393.322.798.215.1587.481.238.798.238.14 0 .271-.0187.392-.056q.1965-.05595.462-.21c.178-.112.406-.2707.686-.476v-2.142c-.242.0653-.48.14-.714.224-.233.0747-.424.14-.574.196-.401.1587-.7.322-.896.49s-.326.3313-.392.49c-.056.1587-.084.308-.084.448m8.047 1.96c-.392 0-.751-.0467-1.078-.14-.326-.084-.662-.2147-1.008-.392l-.056-1.54h.77l.266 1.218c.327.1493.705.224 1.134.224q.798 0 1.176-.294c.262-.196.392-.4527.392-.77 0-.2987-.107-.5367-.322-.714-.214-.1867-.541-.3547-.98-.504l-.644-.238c-.513-.1867-.924-.4293-1.232-.728s-.462-.686-.462-1.162c0-.3453.094-.6673.28-.966.187-.2987.462-.5413.826-.728s.808-.28 1.33-.28c.383 0 .728.0513 1.036.154q.477.13995.924.42l-.056 1.428h-.728l-.224-1.12c-.317-.1587-.639-.238-.966-.238-.429 0-.756.0887-.98.266-.214.168-.322.3967-.322.686 0 .308.094.5413.28.7q.294.23805 1.008.504l.434.154c.7.2613 1.195.56 1.484.896.299.336.448.7233.448 1.162 0 .3547-.102.686-.308.994-.205.2987-.508.5413-.91.728-.401.1867-.905.28-1.512.28m6.071 0c-.392 0-.752-.0467-1.078-.14-.327-.084-.663-.2147-1.008-.392l-.056-1.54h.77l.266 1.218c.326.1493.704.224 1.134.224q.798 0 1.176-.294c.261-.196.392-.4527.392-.77 0-.2987-.108-.5367-.322-.714-.215-.1867-.542-.3547-.98-.504l-.644-.238c-.514-.1867-.924-.4293-1.232-.728s-.462-.686-.462-1.162c0-.3453.093-.6673.28-.966.186-.2987.462-.5413.826-.728s.807-.28 1.33-.28c.382 0 .728.0513 1.036.154q.4755.13995.924.42l-.056 1.428h-.728l-.224-1.12c-.318-.1587-.64-.238-.966-.238-.43 0-.756.0887-.98.266-.215.168-.322.3967-.322.686 0 .308.093.5413.28.7q.294.23805 1.008.504l.434.154c.7.2613 1.194.56 1.484.896.298.336.448.7233.448 1.162 0 .3547-.103.686-.308.994-.206.2987-.509.5413-.91.728-.402.1867-.906.28-1.512.28m7.708-6.328v-.504h2.73v.504l-.756.154-2.254 5.95c-.467 1.2413-.919 2.1373-1.358 2.688q-.6435.84-1.512.84c-.345 0-.649-.0887-.91-.266-.252-.168-.378-.3873-.378-.658q.0705-.30795.336-.462c.187-.1027.387-.154.602-.154.187 0 .359.0373.518.112.159.084.331.224.518.42l.07.07q.4485-.378.756-.924.3075-.53205.504-1.092l.056-.168-2.534-6.398-.77-.112v-.504h3.36v.518l-1.232.14 1.75 4.774 1.722-4.76zM4.032 111.478h-.77v2.044c.00933.616.01867 1.223.028 1.82h.854c.896 0 1.56333-.163 2.002-.49s.658-.798.658-1.414q0-.9795-.658-1.47c-.43867-.327-1.14333-.49-2.114-.49m.224-4.2H3.29c-.00933.597-.01867 1.204-.028 1.82v1.736h.728c.84933 0 1.46533-.145 1.848-.434q.574-.4335.574-1.386t-.546-1.344c-.35467-.261-.89133-.392-1.61-.392m-3.64-.07v-.574h4.06c.97067 0 1.722.215 2.254.644q.798.6435.798 1.638c0 .495-.168.947-.504 1.358s-.89133.695-1.666.854c.93333.131 1.60533.406 2.016.826.42.42.63.915.63 1.484q0 .63-.378 1.218-.364.588-1.19.966t-2.17.378H.616v-.574l1.288-.154c.01867-.588.028-1.185.028-1.792v-4.312q0-.9105-.028-1.806zm11.9547 2.604c-.2613 0-.5273.075-.798.224-.2613.149-.49.387-.686.714-.1867.327-.308.761-.364 1.302h2.548c.336 0 .5553-.07.658-.21.112-.14.168-.313.168-.518 0-.271-.07-.518-.21-.742-.1307-.233-.3127-.42-.546-.56-.224-.14-.4807-.21-.77-.21m-.014 6.37c-.9427 0-1.6987-.303-2.268-.91-.56935-.616-.85401-1.461-.85401-2.534 0-.719.14466-1.344.434-1.876.29871-.532.69071-.947 1.17601-1.246.4947-.299 1.0313-.448 1.61-.448.4853 0 .924.107 1.316.322s.7047.523.938.924c.2333.392.35.873.35 1.442 0 .159-.0093.308-.028.448-.0187.131-.042.243-.07.336h-4.466c.0187.859.2333 1.512.644 1.96s.952.672 1.624.672c.448 0 .8213-.089 1.12-.266.2987-.187.574-.425.826-.714l.336.266c-.2613.495-.616.891-1.064 1.19-.448.289-.9893.434-1.624.434m6.1847 0c-.392 0-.7513-.047-1.078-.14-.3267-.084-.6627-.215-1.008-.392l-.056-1.54h.77l.266 1.218c.3267.149.7047.224 1.134.224q.798 0 1.176-.294c.2613-.196.392-.453.392-.77 0-.299-.1073-.537-.322-.714-.2147-.187-.5413-.355-.98-.504l-.644-.238c-.5133-.187-.924-.429-1.232-.728s-.462-.686-.462-1.162c0-.345.0933-.667.28-.966s.462-.541.826-.728.8073-.28 1.33-.28c.3827 0 .728.051 1.036.154q.47595.1395.924.42l-.056 1.428h-.728l-.224-1.12c-.3173-.159-.6393-.238-.966-.238-.4293 0-.756.089-.98.266-.2147.168-.322.397-.322.686 0 .308.0933.541.28.7q.294.2385 1.008.504l.434.154c.7.261 1.1947.56 1.484.896.2987.336.448.723.448 1.162 0 .355-.1027.686-.308.994-.2053.299-.5087.541-.91.728s-.9053.28-1.512.28M22.225 116v-.504l1.12-.196c.0093-.383.014-.756.014-1.12.0093-.373.014-.747.014-1.12v-6.146l-1.148-.14v-.49l2.184-.63.196.112-.056 1.988v6.426c.0093.373.0187.747.028 1.12l1.12.196V116zm7.5859-6.188c-.2613 0-.5273.075-.798.224-.2613.149-.49.387-.686.714-.1866.327-.308.761-.364 1.302h2.548c.336 0 .5554-.07.658-.21.112-.14.168-.313.168-.518 0-.271-.07-.518-.21-.742-.1306-.233-.3126-.42-.546-.56-.224-.14-.4806-.21-.77-.21m-.014 6.37c-.9426 0-1.6986-.303-2.268-.91-.5693-.616-.854-1.461-.854-2.534 0-.719.1447-1.344.434-1.876.2987-.532.6907-.947 1.176-1.246.4947-.299 1.0314-.448 1.61-.448.4854 0 .924.107 1.316.322s.7047.523.938.924c.2334.392.35.873.35 1.442 0 .159-.0093.308-.028.448-.0186.131-.042.243-.07.336h-4.466c.0187.859.2334 1.512.644 1.96.4107.448.952.672 1.624.672.448 0 .8214-.089 1.12-.266.2987-.187.574-.425.826-.714l.336.266c-.2613.495-.616.891-1.064 1.19-.448.289-.9893.434-1.624.434m7.686-6.328v-.504h2.73v.504l-.756.154-2.254 5.95c-.4666 1.241-.9193 2.137-1.358 2.688q-.64395.84-1.512.84c-.3453 0-.6486-.089-.91-.266-.252-.168-.378-.387-.378-.658q.07005-.3075.336-.462c.1867-.103.3874-.154.602-.154.1867 0 .3594.037.518.112.1587.084.3314.224.518.42l.07.07q.44805-.378.756-.924.3081-.5325.504-1.092l.056-.168-2.534-6.398-.77-.112v-.504h3.36v.518l-1.232.14 1.75 4.774 1.722-4.76zm8.8637 6.328c-.4854 0-.8727-.131-1.162-.392-.2894-.261-.434-.663-.434-1.204v-.518c.0093-.177.014-.401.014-.672v-3.304h-1.162v-.616l1.246-.154.364-1.876h.84l-.084 1.904h1.89v.742h-1.904v4.34c0 .355.07.616.21.784.14.159.3266.238.56.238.1586 0 .308-.033.448-.098.1493-.065.3126-.159.49-.28l.336.364c-.3827.495-.9334.742-1.652.742m6.1207-6.328v-.504h2.73v.504l-.756.154-2.254 5.95c-.4667 1.241-.9193 2.137-1.358 2.688q-.64395.84-1.512.84c-.3453 0-.6487-.089-.91-.266-.252-.168-.378-.387-.378-.658q.07005-.3075.336-.462c.1867-.103.3873-.154.602-.154.1867 0 .3593.037.518.112.1587.084.3313.224.518.42l.07.07q.44805-.378.756-.924.30795-.5325.504-1.092l.056-.168-2.534-6.398-.77-.112v-.504h3.36v.518l-1.232.14 1.75 4.774 1.722-4.76zm3.2161 9.492v-.49l1.12-.196c.0093-.383.014-.765.014-1.148.0093-.373.014-.747.014-1.12v-4.004c0-.383-.0047-.7-.014-.952 0-.252-.0094-.518-.028-.798l-1.106-.126v-.49l1.96-.854.21.14.084.91c.6626-.7 1.3673-1.05 2.114-1.05.504 0 .9566.14 1.358.42.4013.28.7186.681.952 1.204.2426.513.364 1.134.364 1.862 0 .719-.126 1.344-.378 1.876-.252.523-.5974.929-1.036 1.218-.4294.289-.9194.434-1.47.434-.3174 0-.6347-.065-.952-.196-.308-.131-.6114-.369-.91-.714v2.226c.0093.383.0186.765.028 1.148l1.274.21v.49zm4.032-9.38c-.2147 0-.462.056-.742.168-.28.103-.5974.303-.952.602v3.934c.2613.252.518.434.77.546s.5086.168.77.168q.7839 0 1.344-.63c.3733-.42.56-1.083.56-1.988 0-.896-.1634-1.587-.49-2.072-.3267-.485-.7467-.728-1.26-.728m7.4061-.154c-.2614 0-.5274.075-.798.224-.2614.149-.49.387-.686.714-.1867.327-.308.761-.364 1.302h2.548c.336 0 .5553-.07.658-.21.112-.14.168-.313.168-.518 0-.271-.07-.518-.21-.742-.1307-.233-.3127-.42-.546-.56-.224-.14-.4807-.21-.77-.21m-.014 6.37c-.9427 0-1.6987-.303-2.268-.91-.5694-.616-.854-1.461-.854-2.534 0-.719.1446-1.344.434-1.876.2986-.532.6906-.947 1.176-1.246.4946-.299 1.0313-.448 1.61-.448.4853 0 .924.107 1.316.322s.7046.523.938.924c.2333.392.35.873.35 1.442 0 .159-.0094.308-.028.448-.0187.131-.042.243-.07.336h-4.466c.0186.859.2333 1.512.644 1.96.4106.448.952.672 1.624.672.448 0 .8213-.089 1.12-.266.2986-.187.574-.425.826-.714l.336.266c-.2614.495-.616.891-1.064 1.19-.448.289-.9894.434-1.624.434m3.752-.182v-.504l1.106-.196c.0093-.373.014-.747.014-1.12.0093-.373.014-.747.014-1.12v-2.968h-1.162v-.616l1.19-.154c.0653-.747.168-1.349.308-1.806.1493-.467.3966-.873.742-1.218.2986-.299.6113-.504.938-.616q.4899-.168.966-.168c.3266 0 .616.061.868.182.252.112.4106.303.476.574-.0094.177-.0887.327-.238.448-.1494.121-.3547.182-.616.182q-.504 0-1.008-.42l-.392-.308c-.0374.028-.0747.056-.112.084l-.084.084c-.2427.243-.4294.611-.56 1.106-.1214.485-.1727 1.12-.154 1.904h1.932v.742h-1.904v4.088c.0093.364.0186.733.028 1.106l1.26.21V116zm10.2692.14q-.504 0-.84-.294c-.224-.196-.364-.457-.42-.784q-.57405.5595-1.008.84c-.2893.187-.6393.28-1.05.28-.5133 0-.9567-.145-1.33-.434-.364-.299-.546-.737-.546-1.316 0-.271.0607-.523.182-.756.1307-.233.364-.462.7-.686s.8167-.448 1.442-.672c.2147-.075.462-.154.742-.238s.56-.159.84-.224v-.35c0-.681-.1027-1.134-.308-1.358q-.30795-.336-1.008-.336c-.1027 0-.2193.005-.35.014-.1213.009-.2567.033-.406.07l-.266.91c-.1307.448-.3733.672-.728.672-.392 0-.6113-.191-.658-.574q.19605-.798.924-1.26c.4947-.317 1.0967-.476 1.806-.476.7373 0 1.2833.187 1.638.56.3547.364.532.989.532 1.876v2.982c0 .299.0467.513.14.644.0933.121.2147.182.364.182.1213 0 .224-.028.308-.084s.1633-.131.238-.224l.28.308c-.168.271-.3547.462-.56.574-.196.103-.4153.154-.658.154m-3.948-1.918c0 .373.1073.639.322.798s.4807.238.798.238c.14 0 .2707-.019.392-.056q.19605-.0555.462-.21c.1773-.112.406-.271.686-.476v-2.142c-.2427.065-.4807.14-.714.224-.2333.075-.4247.14-.574.196-.4013.159-.7.322-.896.49s-.3267.331-.392.49c-.056.159-.084.308-.084.448m8.985 1.96c-.9613 0-1.7266-.313-2.296-.938-.5693-.625-.854-1.475-.854-2.548 0-.737.1494-1.367.448-1.89.308-.532.7094-.938 1.204-1.218.4947-.28 1.022-.42 1.582-.42.42 0 .8074.079 1.162.238.3547.159.6487.378.882.658.2334.271.378.579.434.924-.0653.355-.28.532-.644.532-.2333 0-.4106-.061-.532-.182-.112-.131-.1913-.294-.238-.49l-.252-.924c-.1306-.047-.2613-.075-.392-.084-.1213-.019-.2426-.028-.364-.028-.5973 0-1.092.233-1.484.7-.3826.467-.574 1.148-.574 2.044q0 1.3155.63 2.016c.42.467.9567.7 1.61.7.4014 0 .77-.089 1.106-.266.336-.187.6114-.453.826-.798l.35.182c-.196.579-.5133 1.022-.952 1.33-.4386.308-.9893.462-1.652.462m6.864-6.37c-.2614 0-.5274.075-.798.224-.2614.149-.49.387-.686.714-.1867.327-.308.761-.364 1.302h2.548c.336 0 .5553-.07.658-.21.112-.14.168-.313.168-.518 0-.271-.07-.518-.21-.742-.1307-.233-.3127-.42-.546-.56-.224-.14-.4807-.21-.77-.21m-.014 6.37c-.9427 0-1.6987-.303-2.268-.91-.5694-.616-.854-1.461-.854-2.534 0-.719.1446-1.344.434-1.876.2986-.532.6906-.947 1.176-1.246.4946-.299 1.0313-.448 1.61-.448.4853 0 .924.107 1.316.322s.7046.523.938.924c.2333.392.35.873.35 1.442 0 .159-.0094.308-.028.448-.0187.131-.042.243-.07.336h-4.466c.0186.859.2333 1.512.644 1.96.4106.448.952.672 1.624.672.448 0 .8213-.089 1.12-.266.2986-.187.574-.425.826-.714l.336.266c-.2614.495-.616.891-1.064 1.19-.448.289-.9894.434-1.624.434m6.7363 3.304c-.42 0-.728-.089-.924-.266-.2054-.177-.3127-.355-.322-.532.1213-.383.3966-.574.826-.574.1866 0 .364.033.532.098.168.075.341.182.518.322l.322.238c.103-.103.177-.229.224-.378.112-.299.187-.751.224-1.358.047-.597.07-1.419.07-2.464v-2.17c0-.383-.005-.7-.014-.952 0-.261-.009-.532-.028-.812l-1.106-.126v-.49l2.114-.854.21.14-.042 1.904v3.388c0 .756-.019 1.395-.056 1.918q-.0555.7845-.252 1.302c-.121.355-.308.658-.56.91-.243.243-.49.429-.742.56s-.583.196-.994.196m2.044-11.858q-.3915 0-.672-.252c-.177-.168-.266-.383-.266-.644 0-.271.089-.485.266-.644q.2805-.252.672-.252.4065 0 .672.252c.187.159.28.373.28.644 0 .261-.093.476-.28.644q-.2655.252-.672.252m5.591 8.554q-.813 0-1.554-.378c-.486-.261-.882-.649-1.19-1.162q-.462-.7845-.462-1.932c0-.775.154-1.423.462-1.946.308-.532.704-.929 1.19-1.19.494-.271 1.012-.406 1.554-.406.541 0 1.054.135 1.54.406.494.261.896.658 1.204 1.19.317.523.476 1.171.476 1.946 0 .765-.159 1.409-.476 1.932-.308.513-.71.901-1.204 1.162-.486.252-.999.378-1.54.378m0-.63c.606 0 1.073-.238 1.4-.714.326-.485.49-1.195.49-2.128 0-.943-.164-1.661-.49-2.156-.327-.495-.794-.742-1.4-.742-.607 0-1.074.247-1.4.742-.318.495-.476 1.213-.476 2.156 0 .933.158 1.643.476 2.128.326.476.793.714 1.4.714m4.337.448v-.504l1.05-.196c.01-.355.014-.737.014-1.148.01-.42.014-.784.014-1.092v-.658c0-.383-.004-.7-.014-.952 0-.261-.009-.532-.028-.812l-1.12-.126v-.49l2.156-.854.21.14-.042 1.904v2.94c.01.411.019.793.028 1.148l.98.196V116zm1.652-8.372q-.3915 0-.672-.252c-.177-.168-.266-.383-.266-.644 0-.271.089-.485.266-.644q.2805-.252.672-.252c.262 0 .481.084.658.252.187.159.28.373.28.644 0 .261-.093.476-.28.644-.177.168-.396.252-.658.252m2.588 8.372v-.504L117 115.3c.01-.355.014-.737.014-1.148.01-.411.014-.775.014-1.092v-.672c0-.383-.004-.7-.014-.952 0-.252-.009-.518-.028-.798l-1.106-.126v-.49l1.96-.854.21.14.112 1.12c.346-.373.742-.677 1.19-.91s.887-.35 1.316-.35c.607 0 1.055.205 1.344.616.299.401.448 1.059.448 1.974v2.394c.01.411.019.793.028 1.148l.98.196V116h-3.248v-.504l1.036-.196c.01-.345.014-.723.014-1.134.01-.42.014-.789.014-1.106v-1.19c0-.644-.093-1.087-.28-1.33-.177-.243-.471-.364-.882-.364-.317 0-.625.065-.924.196-.298.131-.625.345-.98.644v3.136c.01.411.019.793.028 1.148l.966.196V116zm10.731.182c-.392 0-.752-.047-1.078-.14-.327-.084-.663-.215-1.008-.392l-.056-1.54h.77l.266 1.218c.326.149.704.224 1.134.224q.798 0 1.176-.294c.261-.196.392-.453.392-.77 0-.299-.108-.537-.322-.714-.215-.187-.542-.355-.98-.504l-.644-.238c-.514-.187-.924-.429-1.232-.728s-.462-.686-.462-1.162c0-.345.093-.667.28-.966.186-.299.462-.541.826-.728s.807-.28 1.33-.28c.382 0 .728.051 1.036.154q.4755.1395.924.42l-.056 1.428h-.728l-.224-1.12c-.318-.159-.64-.238-.966-.238-.43 0-.756.089-.98.266-.215.168-.322.397-.322.686 0 .308.093.541.28.7q.294.2385 1.008.504l.434.154c.7.261 1.194.56 1.484.896.298.336.448.723.448 1.162 0 .355-.103.686-.308.994-.206.299-.509.541-.91.728-.402.187-.906.28-1.512.28m9.407 0c-.485 0-.872-.131-1.162-.392-.289-.261-.434-.663-.434-1.204v-.518c.01-.177.014-.401.014-.672v-3.304h-1.162v-.616l1.246-.154.364-1.876h.84l-.084 1.904h1.89v.742h-1.904v4.34c0 .355.07.616.21.784.14.159.327.238.56.238.159 0 .308-.033.448-.098.15-.065.313-.159.49-.28l.336.364c-.382.495-.933.742-1.652.742m2.103-.182v-.504l1.05-.196c.009-.355.014-.737.014-1.148.009-.42.014-.784.014-1.092v-6.146l-1.148-.14v-.49l2.142-.63.196.112-.056 1.988v2.702c.345-.383.747-.691 1.204-.924.457-.243.91-.364 1.358-.364.607 0 1.055.205 1.344.616.299.401.448 1.059.448 1.974v2.394c.009.411.019.793.028 1.148l.98.196V116h-3.248v-.504l1.022-.182c.009-.355.014-.737.014-1.148.009-.42.014-.789.014-1.106v-1.19c0-.644-.089-1.087-.266-1.33s-.471-.364-.882-.364c-.345 0-.672.07-.98.21s-.639.373-.994.7v3.066c.009.411.019.793.028 1.148l.966.196V116zm11.754-6.188c-.261 0-.527.075-.798.224-.261.149-.49.387-.686.714-.186.327-.308.761-.364 1.302h2.548c.336 0 .556-.07.658-.21.112-.14.168-.313.168-.518 0-.271-.07-.518-.21-.742-.13-.233-.312-.42-.546-.56-.224-.14-.48-.21-.77-.21m-.014 6.37c-.942 0-1.698-.303-2.268-.91-.569-.616-.854-1.461-.854-2.534 0-.719.145-1.344.434-1.876.299-.532.691-.947 1.176-1.246.495-.299 1.032-.448 1.61-.448.486 0 .924.107 1.316.322s.705.523.938.924c.234.392.35.873.35 1.442 0 .159-.009.308-.028.448-.018.131-.042.243-.07.336h-4.466c.019.859.234 1.512.644 1.96.411.448.952.672 1.624.672.448 0 .822-.089 1.12-.266.299-.187.574-.425.826-.714l.336.266c-.261.495-.616.891-1.064 1.19-.448.289-.989.434-1.624.434M7.994 129.896v-.546h2.562v.546l-.756.182-2.044 6.006h-.518l-1.82-4.97-1.848 4.97h-.518l-2.254-6.048-.798-.14v-.546h3.192v.546l-1.092.168 1.442 4.298 1.568-4.298-1.036-.168v-.546h3.094v.546l-1.036.182 1.596 4.27 1.302-4.256zm6.26 6.286q-.8121 0-1.554-.378c-.4854-.261-.882-.649-1.19-1.162q-.462-.7845-.462-1.932c0-.775.154-1.423.462-1.946.308-.532.7046-.929 1.19-1.19.4946-.271 1.0126-.406 1.554-.406.5413 0 1.0546.135 1.54.406.4946.261.896.658 1.204 1.19.3173.523.476 1.171.476 1.946 0 .765-.1587 1.409-.476 1.932-.308.513-.7094.901-1.204 1.162-.4854.252-.9987.378-1.54.378m0-.63c.6066 0 1.0733-.238 1.4-.714.3266-.485.49-1.195.49-2.128 0-.943-.1634-1.661-.49-2.156-.3267-.495-.7934-.742-1.4-.742-.6067 0-1.0734.247-1.4.742-.3174.495-.476 1.213-.476 2.156 0 .933.1586 1.643.476 2.128.3266.476.7933.714 1.4.714m4.4356.448v-.504l1.008-.182c.0093-.355.014-.737.014-1.148.0093-.42.014-.789.014-1.106v-.672c0-.383-.0047-.7-.014-.952 0-.252-.0094-.518-.028-.798l-1.106-.126v-.49l1.96-.854.21.14.154 1.652c.2333-.56.532-.999.896-1.316.3733-.317.7466-.476 1.12-.476.2146 0 .4153.047.602.14.1866.093.322.219.406.378 0 .681-.2754 1.022-.826 1.022-.1587 0-.308-.028-.448-.084-.14-.065-.2754-.154-.406-.266l-.168-.154c-.28.205-.5134.457-.7.756q-.28005.4485-.462 1.05v2.128c.0093.411.0186.793.028 1.148l1.148.21V136zm5.5315 0v-.504l1.12-.196c.0093-.373.014-.747.014-1.12.0093-.383.014-.756.014-1.12v-6.146l-1.148-.14v-.49l2.184-.63.196.112-.056 1.988v4.886l2.394-2.492-1.036-.252v-.546h3.262v.546l-1.316.196-1.54 1.582 2.296 3.654.924.168V136h-1.904l-2.156-3.472-.924.952v.91c.0093.308.0187.611.028.91l1.12.196V136zm7.7262 0v-.504l1.05-.196c.0094-.355.014-.737.014-1.148.0094-.42.014-.784.014-1.092v-6.146l-1.148-.14v-.49l2.142-.63.196.112-.056 1.988v2.702c.3454-.383.7467-.691 1.204-.924.4574-.243.91-.364 1.358-.364.6067 0 1.0547.205 1.344.616.2987.401.448 1.059.448 1.974v2.394c.0094.411.0187.793.028 1.148l.98.196V136h-3.248v-.504l1.022-.182c.0094-.355.014-.737.014-1.148.0094-.42.014-.789.014-1.106v-1.19c0-.644-.0886-1.087-.266-1.33-.1773-.243-.4713-.364-.882-.364-.3453 0-.672.07-.98.21s-.6393.373-.994.7v3.066c.0094.411.0187.793.028 1.148l.966.196V136zm11.8242.182q-.81195 0-1.554-.378c-.4853-.261-.882-.649-1.19-1.162q-.462-.7845-.462-1.932c0-.775.154-1.423.462-1.946.308-.532.7047-.929 1.19-1.19.4947-.271 1.0127-.406 1.554-.406.5414 0 1.0547.135 1.54.406.4947.261.896.658 1.204 1.19.3174.523.476 1.171.476 1.946 0 .765-.1586 1.409-.476 1.932-.308.513-.7093.901-1.204 1.162-.4853.252-.9986.378-1.54.378m0-.63c.6067 0 1.0734-.238 1.4-.714.3267-.485.49-1.195.49-2.128 0-.943-.1633-1.661-.49-2.156-.3266-.495-.7933-.742-1.4-.742-.6066 0-1.0733.247-1.4.742-.3173.495-.476 1.213-.476 2.156 0 .933.1587 1.643.476 2.128.3267.476.7934.714 1.4.714m4.4356.448v-.504l1.008-.182c.0094-.355.014-.737.014-1.148.0094-.42.014-.789.014-1.106v-.672c0-.383-.0046-.7-.014-.952 0-.252-.0093-.518-.028-.798l-1.106-.126v-.49l1.96-.854.21.14.154 1.652c.2334-.56.532-.999.896-1.316.3734-.317.7467-.476 1.12-.476.2147 0 .4154.047.602.14.1867.093.322.219.406.378 0 .681-.2753 1.022-.826 1.022-.1586 0-.308-.028-.448-.084-.14-.065-.2753-.154-.406-.266l-.168-.154c-.28.205-.5133.457-.7.756q-.2799.4485-.462 1.05v2.128c.0094.411.0187.793.028 1.148l1.148.21V136zm7.9952.182c-.392 0-.7513-.047-1.078-.14-.3266-.084-.6626-.215-1.008-.392l-.056-1.54h.77l.266 1.218c.3267.149.7047.224 1.134.224q.798 0 1.176-.294c.2614-.196.392-.453.392-.77 0-.299-.1073-.537-.322-.714-.2146-.187-.5413-.355-.98-.504l-.644-.238c-.5133-.187-.924-.429-1.232-.728s-.462-.686-.462-1.162c0-.345.0934-.667.28-.966.1867-.299.462-.541.826-.728s.8074-.28 1.33-.28c.3827 0 .728.051 1.036.154q.4761.1395.924.42l-.056 1.428h-.728l-.224-1.12c-.3173-.159-.6393-.238-.966-.238-.4293 0-.756.089-.98.266-.2146.168-.322.397-.322.686 0 .308.0934.541.28.7q.294.2385 1.008.504l.434.154c.7.261 1.1947.56 1.484.896.2987.336.448.723.448 1.162 0 .355-.1026.686-.308.994-.2053.299-.5086.541-.91.728-.4013.187-.9053.28-1.512.28m7.0364-6.37c-.2614 0-.5274.075-.798.224-.2614.149-.49.387-.686.714-.1867.327-.308.761-.364 1.302h2.548c.336 0 .5553-.07.658-.21.112-.14.168-.313.168-.518 0-.271-.07-.518-.21-.742-.1307-.233-.3127-.42-.546-.56-.224-.14-.4807-.21-.77-.21m-.014 6.37c-.9427 0-1.6987-.303-2.268-.91-.5694-.616-.854-1.461-.854-2.534 0-.719.1446-1.344.434-1.876.2986-.532.6906-.947 1.176-1.246.4946-.299 1.0313-.448 1.61-.448.4853 0 .924.107 1.316.322s.7046.523.938.924c.2333.392.35.873.35 1.442 0 .159-.0094.308-.028.448-.0187.131-.042.243-.07.336h-4.466c.0186.859.2333 1.512.644 1.96.4106.448.952.672 1.624.672.448 0 .8213-.089 1.12-.266.2986-.187.574-.425.826-.714l.336.266c-.2614.495-.616.891-1.064 1.19-.448.289-.9894.434-1.624.434m9.9143-4.69v1.974c.0093.635.0186 1.26.028 1.876h1.106c1.0826 0 1.9133-.35 2.492-1.05.5786-.709.868-1.699.868-2.968 0-1.316-.2847-2.319-.854-3.01-.5694-.691-1.3627-1.036-2.38-1.036h-1.232c-.0094.597-.0187 1.209-.028 1.834zm-2.646-4.284v-.574h4.13c.896 0 1.6846.182 2.366.546.6813.355 1.2133.882 1.596 1.582.3826.691.574 1.545.574 2.562q0 1.512-.63 2.562c-.42.691-.994 1.218-1.722 1.582-.7187.355-1.5354.532-2.45.532h-3.864v-.574l1.288-.154c.0186-.597.028-1.204.028-1.82v-4.284c0-.607-.0094-1.209-.028-1.806zM80.089 136v-.574l1.26-.182v-7.882l-1.26-.154v-.574h2.59l3.136 7.7 2.968-7.7h2.758v.574l-1.288.154c-.0094.588-.0187 1.185-.028 1.792v4.312c.0093.597.0186 1.199.028 1.806l1.288.154V136h-3.808v-.574l1.176-.154c.0186-.588.028-1.185.028-1.792v-5.292L85.899 136h-.7l-3.206-7.812.084 2.646v4.41l1.148.182V136zm18.6444.21q-.78405 0-1.512-.21c-.4854-.149-.8914-.327-1.218-.532l.084-1.96h.868l.28 1.652c.2146.121.434.21.658.266q.34995.084.798.084c.6626 0 1.19-.145 1.5816-.434q.588-.4485.588-1.26c0-.448-.14-.793-.42-1.036-.27-.252-.7043-.495-1.3016-.728l-.546-.224c-.7187-.28-1.302-.639-1.75-1.078-.4387-.448-.658-1.027-.658-1.736 0-.541.1353-1.003.406-1.386q.42-.5745 1.134-.882c.476-.215 1.0126-.322 1.61-.322.4666 0 .8916.065 1.2736.196.383.131.724.308 1.022.532l-.084 1.834h-.854l-.294-1.582c-.345-.187-.7276-.28-1.1476-.28-.532 0-.98.135-1.344.406q-.546.3915-.546 1.176c0 .429.1353.784.406 1.064q.42.42 1.176.714l.56.21c.9146.355 1.5676.756 1.9596 1.204.392.439.588.989.588 1.652 0 .551-.144 1.027-.434 1.428-.28.392-.667.695-1.162.91-.4943.215-1.0683.322-1.7216.322m9.6976-.07q-.504 0-.84-.294c-.224-.196-.364-.457-.42-.784q-.573.5595-1.008.84c-.289.187-.639.28-1.05.28-.513 0-.956-.145-1.33-.434-.364-.299-.546-.737-.546-1.316 0-.271.061-.523.182-.756.131-.233.364-.462.7-.686s.817-.448 1.442-.672c.215-.075.462-.154.742-.238s.56-.159.84-.224v-.35c0-.681-.102-1.134-.308-1.358q-.3075-.336-1.008-.336c-.102 0-.219.005-.35.014-.121.009-.256.033-.406.07l-.266.91c-.13.448-.373.672-.728.672-.392 0-.611-.191-.658-.574q.1965-.798.924-1.26c.495-.317 1.097-.476 1.806-.476.738 0 1.284.187 1.638.56.355.364.532.989.532 1.876v2.982c0 .299.047.513.14.644.094.121.215.182.364.182.122 0 .224-.028.308-.084s.164-.131.238-.224l.28.308c-.168.271-.354.462-.56.574-.196.103-.415.154-.658.154m-3.948-1.918c0 .373.108.639.322.798.215.159.481.238.798.238.14 0 .271-.019.392-.056q.1965-.0555.462-.21c.178-.112.406-.271.686-.476v-2.142c-.242.065-.48.14-.714.224-.233.075-.424.14-.574.196-.401.159-.7.322-.896.49s-.326.331-.392.49c-.056.159-.084.308-.084.448m5.739 1.778v-.504l1.036-.196c.009-.355.014-.737.014-1.148.009-.411.014-.775.014-1.092v-.672c0-.383-.005-.7-.014-.952 0-.252-.009-.518-.028-.798l-1.106-.126v-.49l1.96-.854.21.14.112 1.12c.345-.373.742-.677 1.19-.91s.887-.35 1.316-.35c.607 0 1.055.205 1.344.616.299.401.448 1.059.448 1.974v2.394c.009.411.019.793.028 1.148l.98.196V136h-3.248v-.504l1.036-.196c.009-.345.014-.723.014-1.134.009-.42.014-.789.014-1.106v-1.19c0-.644-.093-1.087-.28-1.33-.177-.243-.471-.364-.882-.364-.317 0-.625.065-.924.196s-.625.345-.98.644v3.136c.009.411.019.793.028 1.148l.966.196V136zm10.73.182c-.392 0-.751-.047-1.078-.14-.326-.084-.662-.215-1.008-.392l-.056-1.54h.77l.266 1.218c.327.149.705.224 1.134.224q.798 0 1.176-.294c.262-.196.392-.453.392-.77 0-.299-.107-.537-.322-.714-.214-.187-.541-.355-.98-.504l-.644-.238c-.513-.187-.924-.429-1.232-.728s-.462-.686-.462-1.162c0-.345.094-.667.28-.966.187-.299.462-.541.826-.728s.808-.28 1.33-.28c.383 0 .728.051 1.036.154q.477.1395.924.42l-.056 1.428h-.728l-.224-1.12c-.317-.159-.639-.238-.966-.238-.429 0-.756.089-.98.266-.214.168-.322.397-.322.686 0 .308.094.541.28.7q.294.2385 1.008.504l.434.154c.7.261 1.195.56 1.484.896.299.336.448.723.448 1.162 0 .355-.102.686-.308.994-.205.299-.508.541-.91.728-.401.187-.905.28-1.512.28m7.042-.182v-.504l1.106-.196c.01-.373.014-.747.014-1.12.01-.373.014-.747.014-1.12v-2.968h-1.162v-.616l1.19-.154c.066-.747.168-1.349.308-1.806.15-.467.397-.873.742-1.218.299-.299.612-.504.938-.616q.4905-.168.966-.168c.327 0 .616.061.868.182.252.112.411.303.476.574-.009.177-.088.327-.238.448-.149.121-.354.182-.616.182q-.504 0-1.008-.42l-.392-.308c-.037.028-.074.056-.112.084l-.084.084c-.242.243-.429.611-.56 1.106-.121.485-.172 1.12-.154 1.904h1.932v.742h-1.904v4.088c.01.364.019.733.028 1.106l1.26.21V136zm8.076.182q-.8115 0-1.554-.378c-.485-.261-.882-.649-1.19-1.162q-.462-.7845-.462-1.932c0-.775.154-1.423.462-1.946.308-.532.705-.929 1.19-1.19.495-.271 1.013-.406 1.554-.406.542 0 1.055.135 1.54.406.495.261.896.658 1.204 1.19.318.523.476 1.171.476 1.946 0 .765-.158 1.409-.476 1.932-.308.513-.709.901-1.204 1.162-.485.252-.998.378-1.54.378m0-.63c.607 0 1.074-.238 1.4-.714.327-.485.49-1.195.49-2.128 0-.943-.163-1.661-.49-2.156-.326-.495-.793-.742-1.4-.742-.606 0-1.073.247-1.4.742-.317.495-.476 1.213-.476 2.156 0 .933.159 1.643.476 2.128.327.476.794.714 1.4.714m4.436.448v-.504l1.008-.182c.009-.355.014-.737.014-1.148.009-.42.014-.789.014-1.106v-.672c0-.383-.005-.7-.014-.952 0-.252-.009-.518-.028-.798l-1.106-.126v-.49l1.96-.854.21.14.154 1.652c.233-.56.532-.999.896-1.316.373-.317.747-.476 1.12-.476.215 0 .415.047.602.14s.322.219.406.378c0 .681-.275 1.022-.826 1.022-.159 0-.308-.028-.448-.084-.14-.065-.275-.154-.406-.266l-.168-.154c-.28.205-.513.457-.7.756q-.2805.4485-.462 1.05v2.128c.009.411.019.793.028 1.148l1.148.21V136zm14.941-8.792v-.574h3.36v.574l-1.218.154v4.802c0 .98-.144 1.769-.434 2.366-.289.588-.686 1.017-1.19 1.288-.504.261-1.078.392-1.722.392-.672 0-1.264-.131-1.778-.392-.513-.261-.914-.667-1.204-1.218-.28-.551-.42-1.26-.42-2.128v-3.318c0-.607-.009-1.209-.028-1.806l-1.162-.14v-.574h3.962v.574l-1.428.168c-.009.588-.018 1.181-.028 1.778v2.912c0 .793.094 1.423.28 1.89.196.457.467.784.812.98.346.187.756.28 1.232.28.794 0 1.391-.252 1.792-.756.402-.513.602-1.391.602-2.632v-4.438zm4.173 0v-.574h3.962v.574l-1.288.154c-.009.588-.019 1.185-.028 1.792v4.312c.009.597.019 1.199.028 1.806l1.288.154V136h-3.962v-.574l1.288-.154c.019-.588.028-1.185.028-1.792v-4.312c0-.607-.009-1.209-.028-1.806zM3.766 149.812c-.26133 0-.52733.075-.798.224q-.392.2235-.686.714-.28.4905-.364 1.302h2.548q.504 0 .658-.21c.112-.14.168-.313.168-.518 0-.271-.07-.518-.21-.742-.13067-.233-.31267-.42-.546-.56q-.336-.21-.77-.21m-.014 6.37c-.94267 0-1.69867-.303-2.268-.91-.56933-.616-.854-1.461-.854-2.534 0-.719.14467-1.344.434-1.876.29867-.532.69067-.947 1.176-1.246.49467-.299 1.03133-.448 1.61-.448.48533 0 .924.107 1.316.322q.588.3225.938.924c.23333.392.35.873.35 1.442 0 .159-.00933.308-.028.448q-.028.1965-.07.336H1.89c.01867.859.23333 1.512.644 1.96q.616.672 1.624.672c.448 0 .82133-.089 1.12-.266q.448-.2805.826-.714l.336.266c-.26133.495-.616.891-1.064 1.19-.448.289-.98933.434-1.624.434M7.35 156v-.504l1.12-.196c.00933-.383.014-.756.014-1.12.00933-.373.014-.747.014-1.12v-6.146l-1.148-.14v-.49l2.184-.63.196.112-.056 1.988v6.426l.028 1.12 1.12.196V156zm7.5859-6.188c-.2613 0-.5273.075-.798.224-.2613.149-.49.387-.686.714-.1866.327-.308.761-.364 1.302h2.548c.336 0 .5554-.07.658-.21.112-.14.168-.313.168-.518 0-.271-.07-.518-.21-.742-.1306-.233-.3126-.42-.546-.56-.224-.14-.4806-.21-.77-.21m-.014 6.37c-.9426 0-1.6986-.303-2.268-.91-.5693-.616-.854-1.461-.854-2.534 0-.719.1447-1.344.434-1.876.2987-.532.6907-.947 1.176-1.246.4947-.299 1.0314-.448 1.61-.448.4854 0 .924.107 1.316.322s.7047.523.938.924c.2334.392.35.873.35 1.442 0 .159-.0093.308-.028.448-.0186.131-.042.243-.07.336h-4.466c.0187.859.2334 1.512.644 1.96.4107.448.952.672 1.624.672.448 0 .8214-.089 1.12-.266.2987-.187.574-.425.826-.714l.336.266c-.2613.495-.616.891-1.064 1.19-.448.289-.9893.434-1.624.434m3.9447-.182v-.504l1.036-.196c.0094-.355.014-.737.014-1.148.0094-.411.014-.775.014-1.092v-.672c0-.383-.0046-.7-.014-.952 0-.252-.0093-.518-.028-.798l-1.106-.126v-.49l1.96-.854.21.14.112 1.134c.3267-.373.7094-.677 1.148-.91.4387-.243.8727-.364 1.302-.364.4387 0 .7934.103 1.064.308.28.205.4807.541.602 1.008.3547-.439.7514-.765 1.19-.98q.65805-.336 1.344-.336c.5694 0 1.008.191 1.316.574.3174.383.476 1.008.476 1.876v2.534c.0094.411.0187.793.028 1.148l.98.196V156h-3.248v-.504l1.036-.196c.0094-.345.014-.723.014-1.134.0094-.42.014-.789.014-1.106v-1.218c0-.653-.0933-1.092-.28-1.316-.1866-.233-.4853-.35-.896-.35-.2893 0-.588.065-.896.196-.2986.131-.6253.359-.98.686.0094.103.014.215.014.336.0094.112.014.233.014.364v2.394c.0094.411.0187.793.028 1.148l.98.196V156h-3.248v-.504l1.036-.196c.0094-.345.014-.723.014-1.134.0094-.42.014-.789.014-1.106v-1.19c0-.635-.0886-1.073-.266-1.316q-.26595-.378-.882-.378c-.3173 0-.6206.065-.91.196-.2893.131-.6066.345-.952.644v3.136c.0094.411.0187.793.028 1.148l.966.196V156zm15.8252-6.188c-.2614 0-.5274.075-.798.224-.2614.149-.49.387-.686.714-.1867.327-.308.761-.364 1.302h2.548c.336 0 .5553-.07.658-.21.112-.14.168-.313.168-.518 0-.271-.07-.518-.21-.742-.1307-.233-.3127-.42-.546-.56-.224-.14-.4807-.21-.77-.21m-.014 6.37c-.9427 0-1.6987-.303-2.268-.91-.5694-.616-.854-1.461-.854-2.534 0-.719.1446-1.344.434-1.876.2986-.532.6906-.947 1.176-1.246.4946-.299 1.0313-.448 1.61-.448.4853 0 .924.107 1.316.322s.7046.523.938.924c.2333.392.35.873.35 1.442 0 .159-.0094.308-.028.448-.0187.131-.042.243-.07.336h-4.466c.0186.859.2333 1.512.644 1.96.4106.448.952.672 1.624.672.448 0 .8213-.089 1.12-.266.2986-.187.574-.425.826-.714l.336.266c-.2614.495-.616.891-1.064 1.19-.448.289-.9894.434-1.624.434m3.9447-.182v-.504l1.036-.196c.0093-.355.014-.737.014-1.148.0093-.411.014-.775.014-1.092v-.672c0-.383-.0047-.7-.014-.952 0-.252-.0093-.518-.028-.798l-1.106-.126v-.49l1.96-.854.21.14.112 1.12c.3453-.373.742-.677 1.19-.91s.8867-.35 1.316-.35c.6067 0 1.0547.205 1.344.616.2987.401.448 1.059.448 1.974v2.394c.0093.411.0187.793.028 1.148l.98.196V156h-3.248v-.504l1.036-.196c.0093-.345.014-.723.014-1.134.0093-.42.014-.789.014-1.106v-1.19c0-.644-.0933-1.087-.28-1.33-.1773-.243-.4713-.364-.882-.364-.3173 0-.6253.065-.924.196s-.6253.345-.98.644v3.136c.0093.411.0187.793.028 1.148l.966.196V156zm10.7319.182c-.4854 0-.8727-.131-1.162-.392-.2894-.261-.434-.663-.434-1.204v-.518c.0093-.177.014-.401.014-.672v-3.304h-1.162v-.616l1.246-.154.364-1.876h.84l-.084 1.904h1.89v.742h-1.904v4.34c0 .355.07.616.21.784.14.159.3266.238.56.238.1586 0 .308-.033.448-.098.1493-.065.3126-.159.49-.28l.336.364c-.3827.495-.9334.742-1.652.742m4.4827 0c-.392 0-.7513-.047-1.078-.14-.3267-.084-.6627-.215-1.008-.392l-.056-1.54h.77l.266 1.218c.3267.149.7047.224 1.134.224q.798 0 1.176-.294c.2613-.196.392-.453.392-.77 0-.299-.1073-.537-.322-.714-.2147-.187-.5413-.355-.98-.504l-.644-.238c-.5133-.187-.924-.429-1.232-.728s-.462-.686-.462-1.162c0-.345.0933-.667.28-.966s.462-.541.826-.728.8073-.28 1.33-.28c.3827 0 .728.051 1.036.154q.47595.1395.924.42l-.056 1.428h-.728l-.224-1.12c-.3173-.159-.6393-.238-.966-.238-.4293 0-.756.089-.98.266-.2147.168-.322.397-.322.686 0 .308.0933.541.28.7q.294.2385 1.008.504l.434.154c.7.261 1.1947.56 1.484.896.2987.336.448.723.448 1.162 0 .355-.1027.686-.308.994-.2053.299-.5087.541-.91.728s-.9053.28-1.512.28m5.0969 0q-.42 0-.714-.294c-.1867-.196-.28-.429-.28-.7 0-.28.0933-.518.28-.714q.294-.294.714-.294c.28 0 .5133.098.7.294q.294.294.294.714c0 .271-.098.504-.294.7-.1867.196-.42.294-.7.294" style="fill:#000;fill-opacity:1"/>
  <rect width="100" height="31" x="182.5" y="62.5" stroke="#111b2b" rx="5.5" style="stroke:#111b2b;stroke:color(display-p3 .0667 .1059 .1686);stroke-opacity:1"/>
  <path fill="#0c141c" d="M195.199 83V71.8h4.144c.779 0 1.43.128 1.952.384.523.2453.912.5867 1.168 1.024.267.4267.4.912.4 1.456 0 .5653-.122 1.04-.368 1.424-.245.384-.57.6827-.976.896-.394.2027-.821.32-1.28.352l.224-.16c.491.0107.939.144 1.344.4.406.2453.726.576.96.992.235.416.352.8747.352 1.376 0 .576-.138 1.0987-.416 1.568-.277.4587-.688.8213-1.232 1.088s-1.21.4-2 .4zm1.6-1.328h2.464q1.056 0 1.632-.48c.395-.3307.592-.7947.592-1.392 0-.5867-.202-1.056-.608-1.408-.394-.352-.944-.528-1.648-.528h-2.432zm0-5.04h2.368c.672 0 1.184-.1547 1.536-.464.352-.32.528-.7573.528-1.312 0-.5333-.176-.9547-.528-1.264q-.528-.48-1.584-.48h-2.32zm11.108 6.56c-.629 0-1.178-.128-1.648-.384-.458-.256-.816-.64-1.072-1.152-.245-.512-.368-1.1573-.368-1.936v-4.784h1.6v4.608c0 .7573.166 1.328.496 1.712.331.384.806.576 1.424.576.416 0 .79-.1013 1.12-.304.342-.2027.608-.496.8-.88s.288-.8533.288-1.408v-4.304h1.6V83h-1.424l-.112-1.376c-.245.4907-.602.8747-1.072 1.152-.469.2773-1.013.416-1.632.416m9.759-.192c-.512 0-.955-.08-1.328-.24s-.661-.4267-.864-.8-.304-.88-.304-1.52v-4.144h-1.392v-1.36h1.392l.192-2.016h1.408v2.016h2.288v1.36h-2.288v4.16c0 .4587.096.7733.288.944.192.16.523.24.992.24h.928V83zm6.484 0c-.512 0-.954-.08-1.328-.24-.373-.16-.661-.4267-.864-.8-.202-.3733-.304-.88-.304-1.52v-4.144h-1.392v-1.36h1.392l.192-2.016h1.408v2.016h2.288v1.36h-2.288v4.16c0 .4587.096.7733.288.944.192.16.523.24.992.24h.928V83zm6.618.192c-.757 0-1.44-.176-2.048-.528-.597-.352-1.072-.8427-1.424-1.472-.341-.64-.512-1.376-.512-2.208 0-.8533.176-1.5947.528-2.224q.528-.96 1.44-1.488c.608-.352 1.291-.528 2.048-.528.768 0 1.451.176 2.048.528s1.067.8427 1.408 1.472c.352.6293.528 1.3707.528 2.224s-.176 1.5947-.528 2.224c-.341.6293-.816 1.12-1.424 1.472q-.912.528-2.064.528m0-1.376c.437 0 .832-.1067 1.184-.32.363-.2133.651-.528.864-.944q.336-.64005.336-1.584c0-.6293-.107-1.152-.32-1.568q-.3195-.64005-.864-.96c-.352-.2133-.741-.32-1.168-.32s-.821.1067-1.184.32-.656.5333-.88.96c-.213.416-.32.9387-.32 1.568s.107 1.1573.32 1.584c.224.416.512.7307.864.944.363.2133.752.32 1.168.32M236.666 83v-8.064h1.44l.096 1.376c.256-.48.619-.8587 1.088-1.136.469-.288 1.008-.432 1.616-.432.64 0 1.189.128 1.648.384s.816.6453 1.072 1.168c.256.512.384 1.1573.384 1.936V83h-1.6v-4.608c0-.7467-.165-1.312-.496-1.696q-.4965-.576-1.44-.576c-.416 0-.789.1013-1.12.304-.331.192-.597.48-.8.864-.192.384-.288.8533-.288 1.408V83zM256 81.375c.623 0 1.125.51 1.125 1.125s-.51 1.125-1.125 1.125-1.125-.51-1.125-1.125.502-1.125 1.125-1.125m12.75 1.875h-10.5v-1.5h10.5zM256 76.875c.623 0 1.125.5025 1.125 1.125s-.502 1.125-1.125 1.125-1.125-.5025-1.125-1.125.502-1.125 1.125-1.125m12.75 1.875h-10.5v-1.5h10.5zM256 72.375c.623 0 1.125.5025 1.125 1.125s-.502 1.125-1.125 1.125-1.125-.5025-1.125-1.125.502-1.125 1.125-1.125m12.75.375v1.5h-10.5v-1.5z" style="fill:#0c141c;fill:color(display-p3 .0471 .0784 .1098);fill-opacity:1"/>
</svg>
