<svg width="146" height="175" viewBox="0 0 146 175" fill="none" xmlns="http://www.w3.org/2000/svg">
<g id="theme-chip-custom">
<g clip-path="url(#clip0_51_6896)">
<rect id="Rectangle 84286" width="146" height="175" rx="4" fill="#EBEBEB" style="fill:#EBEBEB;fill:color(display-p3 0.9205 0.9205 0.9205);fill-opacity:1;"/>
<g id="font-chip">
<path d="M35.0352 58.465C33.2992 58.465 31.8008 58.0827 30.5402 57.318C29.2795 56.5533 28.3082 55.489 27.6262 54.125C26.9442 52.7403 26.6032 51.1283 26.6032 49.289C26.6032 47.5737 26.9132 45.9617 27.5332 44.453C28.1532 42.9443 29.0005 41.6113 30.0752 40.454C31.1705 39.2967 32.4312 38.3977 33.8572 37.757C35.3038 37.0957 36.8332 36.765 38.4452 36.765C39.2718 36.765 40.1088 36.889 40.9562 37.137C41.8242 37.3643 42.7335 37.788 43.6842 38.408L42.9712 42.748H41.2042V38.935C40.2535 38.5217 39.2408 38.315 38.1662 38.315C36.9262 38.315 35.7688 38.6043 34.6942 39.183C33.6402 39.7617 32.7102 40.5573 31.9042 41.57C31.1188 42.562 30.5092 43.709 30.0752 45.011C29.6412 46.313 29.4242 47.6977 29.4242 49.165C29.4242 50.901 29.7238 52.3477 30.3232 53.505C30.9432 54.6417 31.7595 55.4993 32.7722 56.078C33.7848 56.636 34.8802 56.915 36.0582 56.915C36.5335 56.915 36.9985 56.8737 37.4532 56.791C37.9078 56.7083 38.3625 56.5947 38.8172 56.45L40.0882 52.575H41.9482L41.0802 57.07C40.2535 57.4213 39.3648 57.7417 38.4142 58.031C37.4842 58.3203 36.3578 58.465 35.0352 58.465ZM55.6504 58.403C55.2371 58.403 54.8548 58.2687 54.5034 58C54.1728 57.7313 54.0074 57.3283 54.0074 56.791C54.0074 56.5843 54.0178 56.3467 54.0384 56.078C54.0798 55.7887 54.1521 55.3857 54.2554 54.869C53.0568 55.9643 51.9614 56.8323 50.9694 57.473C49.9774 58.093 49.0061 58.403 48.0554 58.403C47.4768 58.403 46.9704 58.2377 46.5364 57.907C46.1231 57.5763 45.9164 56.9873 45.9164 56.14C45.9164 55.5613 45.9888 54.9207 46.1334 54.218C46.2988 53.4947 46.4434 52.8333 46.5674 52.234L47.9934 45.538L44.9244 45.383L45.0484 44.453L50.4424 42.903L50.8454 43.213L48.8924 51.986C48.7478 52.6267 48.6341 53.195 48.5514 53.691C48.4688 54.1663 48.4274 54.5797 48.4274 54.931C48.4274 55.8197 48.8201 56.264 49.6054 56.264C50.2668 56.264 50.9591 56.0573 51.6824 55.644C52.4058 55.21 53.3564 54.528 54.5344 53.598L55.3714 49.475C55.5781 48.483 55.7744 47.491 55.9604 46.499C56.1671 45.507 56.3428 44.515 56.4874 43.523L58.5024 42.903L58.9054 43.213L56.7044 53.815C56.6218 54.2077 56.5494 54.559 56.4874 54.869C56.4461 55.179 56.4254 55.4167 56.4254 55.582C56.4254 55.7887 56.4978 55.954 56.6424 56.078C56.7871 56.202 56.9524 56.264 57.1384 56.264C57.5518 56.264 58.0064 56.078 58.5024 55.706C58.9984 55.334 59.5668 54.776 60.2074 54.032L60.9514 54.621C60.4761 55.241 59.9698 55.8403 59.4324 56.419C58.8951 56.9977 58.3164 57.473 57.6964 57.845C57.0764 58.217 56.3944 58.403 55.6504 58.403ZM70.5149 54.001C70.5149 55.2823 70.0293 56.3363 69.0579 57.163C68.1073 57.9897 66.8466 58.403 65.2759 58.403C64.0773 58.403 63.1576 58.124 62.5169 57.566C61.8969 57.008 61.5353 56.264 61.4319 55.334C61.5146 55.0653 61.6593 54.8587 61.8659 54.714C62.0933 54.5487 62.3309 54.466 62.5789 54.466C63.0336 54.466 63.3643 54.59 63.5709 54.838C63.7983 55.0653 63.9636 55.396 64.0669 55.83L64.4079 57.163C64.4699 57.1837 64.5319 57.194 64.5939 57.194C64.6766 57.194 64.7593 57.194 64.8419 57.194C65.9166 57.194 66.7536 56.9563 67.3529 56.481C67.9523 56.0057 68.2519 55.365 68.2519 54.559C68.2519 54.063 68.1383 53.5877 67.9109 53.133C67.6836 52.6783 67.1256 52.1307 66.2369 51.49C65.4723 50.8907 64.8213 50.281 64.2839 49.661C63.7673 49.0203 63.5089 48.2143 63.5089 47.243C63.5089 46.437 63.7156 45.7033 64.1289 45.042C64.5423 44.3807 65.1106 43.864 65.8339 43.492C66.5779 43.0993 67.4459 42.903 68.4379 42.903C69.3473 42.903 70.1326 43.1097 70.7939 43.523C71.4553 43.9157 71.8996 44.6183 72.1269 45.631C71.9409 46.2097 71.5483 46.499 70.9489 46.499C70.2256 46.499 69.6986 46.0133 69.3679 45.042L69.0889 44.143C69.0269 44.1223 68.9546 44.112 68.8719 44.112C68.8099 44.112 68.7376 44.112 68.6549 44.112C67.5803 44.112 66.8156 44.36 66.3609 44.856C65.9269 45.352 65.7099 45.9513 65.7099 46.654C65.7099 47.2947 65.8649 47.832 66.1749 48.266C66.5056 48.6793 67.1153 49.2167 68.0039 49.878C68.9339 50.5807 69.5849 51.2213 69.9569 51.8C70.3289 52.358 70.5149 53.0917 70.5149 54.001ZM74.5868 54.559L76.6638 44.825H73.5018L73.7188 43.585L77.0668 43.275L78.5238 39.121H80.1048L79.2058 43.306H83.1428L82.8948 44.98L78.8958 44.856L77.0048 53.753C76.8188 54.5797 76.7258 55.179 76.7258 55.551C76.7258 55.7783 76.7982 55.954 76.9428 56.078C77.1082 56.202 77.2838 56.264 77.4698 56.264C78.2551 56.264 79.2678 55.52 80.5078 54.032L81.2828 54.621C80.8488 55.241 80.3528 55.8403 79.7948 56.419C79.2368 56.9977 78.6375 57.473 77.9968 57.845C77.3561 58.217 76.6845 58.403 75.9818 58.403C75.5271 58.403 75.1241 58.2687 74.7728 58C74.4421 57.7313 74.2768 57.3387 74.2768 56.822C74.2768 56.5947 74.2975 56.326 74.3388 56.016C74.3801 55.6853 74.4628 55.1997 74.5868 54.559ZM88.54 58.403C87.5893 58.403 86.7213 58.1963 85.936 57.783C85.1506 57.3697 84.5203 56.76 84.045 55.954C83.5903 55.1273 83.363 54.125 83.363 52.947C83.363 51.5417 83.5696 50.2397 83.983 49.041C84.417 47.8217 85.006 46.7573 85.75 45.848C86.494 44.918 87.3516 44.1947 88.323 43.678C89.315 43.1613 90.3586 42.903 91.454 42.903C92.9213 42.903 94.12 43.368 95.05 44.298C96.0006 45.228 96.476 46.5713 96.476 48.328C96.476 49.6713 96.2693 50.9527 95.856 52.172C95.4426 53.3707 94.864 54.4453 94.12 55.396C93.3966 56.326 92.5596 57.0597 91.609 57.597C90.6583 58.1343 89.6353 58.403 88.54 58.403ZM88.881 57.163C89.6456 57.163 90.338 56.9253 90.958 56.45C91.578 55.9747 92.105 55.334 92.539 54.528C92.9936 53.722 93.345 52.823 93.593 51.831C93.841 50.839 93.965 49.8263 93.965 48.793C93.965 47.119 93.6963 45.9307 93.159 45.228C92.6423 44.5047 91.9603 44.143 91.113 44.143C90.1416 44.143 89.253 44.5253 88.447 45.29C87.6616 46.0547 87.0416 47.0777 86.587 48.359C86.1323 49.6197 85.905 51.025 85.905 52.575C85.905 54.2077 86.184 55.3857 86.742 56.109C87.3 56.8117 88.013 57.163 88.881 57.163ZM117.038 58.403C116.542 58.403 116.149 58.279 115.86 58.031C115.591 57.783 115.457 57.4627 115.457 57.07C115.457 56.7187 115.498 56.3777 115.581 56.047C115.684 55.6957 115.808 55.1997 115.953 54.559L117.286 49.103C117.41 48.5657 117.523 48.0593 117.627 47.584C117.73 47.1087 117.782 46.716 117.782 46.406C117.782 45.8687 117.689 45.4967 117.503 45.29C117.317 45.0833 117.048 44.98 116.697 44.98C115.684 44.98 114.082 45.8893 111.892 47.708L111.086 51.49C110.838 52.5647 110.61 53.6497 110.404 54.745C110.197 55.8197 109.99 56.9047 109.784 58L107.769 58.248L107.459 58L109.598 47.894C109.639 47.6253 109.691 47.3567 109.753 47.088C109.815 46.8193 109.846 46.561 109.846 46.313C109.846 45.817 109.753 45.476 109.567 45.29C109.381 45.0833 109.112 44.98 108.761 44.98C108.203 44.98 107.49 45.2073 106.622 45.662C105.774 46.1167 104.782 46.809 103.646 47.739L102.809 51.49C102.581 52.5647 102.364 53.6497 102.158 54.745C101.972 55.8197 101.775 56.9047 101.569 58L99.4917 58.248L99.1817 58L101.817 45.569L98.7477 45.383L98.8717 44.484L104.142 42.903L104.545 43.213L103.894 46.406C104.906 45.4347 106.002 44.608 107.18 43.926C108.358 43.244 109.422 42.903 110.373 42.903C111.675 42.903 112.326 43.616 112.326 45.042C112.326 45.2487 112.305 45.4657 112.264 45.693C112.243 45.8997 112.212 46.1167 112.171 46.344C113.142 45.3933 114.175 44.5873 115.271 43.926C116.387 43.244 117.41 42.903 118.34 42.903C119.642 42.903 120.293 43.616 120.293 45.042C120.293 45.538 120.231 46.0443 120.107 46.561C120.003 47.057 119.89 47.5633 119.766 48.08L118.371 53.815C118.267 54.249 118.174 54.621 118.092 54.931C118.009 55.2203 117.968 55.4477 117.968 55.613C117.968 55.8197 118.03 55.985 118.154 56.109C118.278 56.2123 118.422 56.264 118.588 56.264C119.373 56.264 120.386 55.52 121.626 54.032L122.37 54.621C121.936 55.241 121.44 55.8403 120.882 56.419C120.344 56.9977 119.755 57.473 119.115 57.845C118.474 58.217 117.782 58.403 117.038 58.403Z" fill="#1A1A1A" style="fill:#1A1A1A;fill:color(display-p3 0.1038 0.1038 0.1038);fill-opacity:1;"/>
<path d="M38.3231 82C38.1544 82 38.0701 81.908 38.0701 81.724V69.603H35.0801C34.9114 69.603 34.8271 69.511 34.8271 69.327V67.211C34.8271 67.027 34.9114 66.935 35.0801 66.935H44.0501C44.2188 66.935 44.3031 67.027 44.3031 67.211V69.327C44.3031 69.511 44.2188 69.603 44.0501 69.603H41.0601V81.724C41.0601 81.908 40.9834 82 40.8301 82H38.3231ZM51.1487 82C50.9647 82 50.8727 81.908 50.8727 81.724V67.211C50.8727 67.027 50.9647 66.935 51.1487 66.935H53.6097C53.7937 66.935 53.8857 67.027 53.8857 67.211V73.03H58.0717V67.211C58.0717 67.027 58.156 66.935 58.3247 66.935H60.8087C60.9773 66.935 61.0617 67.027 61.0617 67.211V81.724C61.0617 81.908 60.9773 82 60.8087 82H58.3247C58.156 82 58.0717 81.908 58.0717 81.724V75.675H53.8857V81.724C53.8857 81.908 53.7937 82 53.6097 82H51.1487ZM68.6364 82C68.4677 82 68.3834 81.908 68.3834 81.724V67.211C68.3834 67.027 68.4677 66.935 68.6364 66.935H76.2264C76.3951 66.935 76.4794 67.027 76.4794 67.211V69.327C76.4794 69.511 76.3951 69.603 76.2264 69.603H71.3964V73.122H75.7894C75.9581 73.122 76.0424 73.214 76.0424 73.398V75.376C76.0424 75.56 75.9581 75.652 75.7894 75.652H71.3964V79.332H76.2264C76.3951 79.332 76.4794 79.424 76.4794 79.608V81.724C76.4794 81.908 76.3951 82 76.2264 82H68.6364ZM83.6491 82C83.4651 82 83.3731 81.908 83.3731 81.724L83.6261 67.211C83.6261 67.027 83.7105 66.935 83.8791 66.935H86.9151C87.0685 66.935 87.1758 67.004 87.2371 67.142L89.9281 74.87L92.5961 67.142C92.6575 67.004 92.7571 66.935 92.8951 66.935H95.9541C96.1228 66.935 96.2071 67.027 96.2071 67.211L96.4601 81.724C96.4601 81.908 96.3681 82 96.1841 82H93.7461C93.5775 82 93.4931 81.908 93.4931 81.724L93.4011 75.376C93.3858 74.64 93.3935 73.95 93.4241 73.306C93.4548 72.662 93.4931 72.0563 93.5391 71.489H93.4701C93.3015 72.0103 93.1175 72.547 92.9181 73.099C92.7341 73.6357 92.5348 74.1647 92.3201 74.686L90.2271 80.091C90.1811 80.229 90.0968 80.298 89.9741 80.298H89.8361C89.7135 80.298 89.6368 80.229 89.6061 80.091L87.4901 74.663C87.2755 74.1417 87.0761 73.6127 86.8921 73.076C86.7081 72.524 86.5318 71.995 86.3631 71.489H86.3171C86.3478 72.041 86.3785 72.639 86.4091 73.283C86.4398 73.927 86.4475 74.617 86.4321 75.353L86.3401 81.724C86.3401 81.908 86.2558 82 86.0871 82H83.6491ZM103.77 82C103.602 82 103.517 81.908 103.517 81.724V67.211C103.517 67.027 103.602 66.935 103.77 66.935H111.36C111.529 66.935 111.613 67.027 111.613 67.211V69.327C111.613 69.511 111.529 69.603 111.36 69.603H106.53V73.122H110.923C111.092 73.122 111.176 73.214 111.176 73.398V75.376C111.176 75.56 111.092 75.652 110.923 75.652H106.53V79.332H111.36C111.529 79.332 111.613 79.424 111.613 79.608V81.724C111.613 81.908 111.529 82 111.36 82H103.77Z" fill="black" style="fill:black;fill-opacity:1;"/>
</g>
<g id="nav-group">
<g id="nav-base-rect" filter="url(#filter0_d_51_6896)">
<rect width="146" height="10" fill="white" style="fill:white;fill-opacity:1;"/>
</g>
<circle id="Ellipse 11" cx="6" cy="5" r="3" fill="#D9D9D9" style="fill:#D9D9D9;fill:color(display-p3 0.8510 0.8510 0.8510);fill-opacity:1;"/>
<rect id="Rectangle 84293" x="11" y="3" width="11" height="4" fill="#D9D9D9" style="fill:#D9D9D9;fill:color(display-p3 0.8510 0.8510 0.8510);fill-opacity:1;"/>
<rect id="Rectangle 84294" x="129.5" y="3" width="11" height="4" fill="#D9D9D9" style="fill:#D9D9D9;fill:color(display-p3 0.8510 0.8510 0.8510);fill-opacity:1;"/>
</g>
<path id="icon-minifig" d="M66.2812 117.375C66.2812 116.856 66.4352 116.348 66.7236 115.917C67.0121 115.485 67.4221 115.148 67.9017 114.95C68.3814 114.751 68.9092 114.699 69.4184 114.8C69.9276 114.902 70.3953 115.152 70.7624 115.519C71.1295 115.886 71.3795 116.354 71.4808 116.863C71.5821 117.372 71.5301 117.9 71.3314 118.38C71.1328 118.859 70.7963 119.269 70.3646 119.558C69.9329 119.846 69.4254 120 68.9062 120C68.2101 120 67.5424 119.723 67.0501 119.231C66.5578 118.739 66.2812 118.071 66.2812 117.375ZM78.0938 114.75C77.5746 114.75 77.0671 114.904 76.6354 115.192C76.2037 115.481 75.8672 115.891 75.6686 116.37C75.4699 116.85 75.4179 117.378 75.5192 117.887C75.6205 118.396 75.8705 118.864 76.2376 119.231C76.6047 119.598 77.0724 119.848 77.5816 119.95C78.0908 120.051 78.6186 119.999 79.0983 119.8C79.578 119.602 79.9879 119.265 80.2764 118.833C80.5648 118.402 80.7188 117.894 80.7188 117.375C80.7188 116.679 80.4422 116.011 79.9499 115.519C79.4576 115.027 78.7899 114.75 78.0938 114.75ZM77.0438 122.272C75.9795 122.932 74.7522 123.281 73.5 123.281C72.2478 123.281 71.0205 122.932 69.9563 122.272C69.7376 122.131 69.493 122.034 69.2368 121.988C68.9805 121.942 68.7177 121.947 68.4634 122.003C68.2092 122.06 67.9686 122.166 67.7556 122.315C67.5426 122.465 67.3614 122.656 67.2226 122.876C67.0837 123.096 66.9899 123.342 66.9466 123.598C66.9033 123.855 66.9113 124.118 66.9702 124.372C67.0292 124.625 67.1378 124.865 67.2899 125.076C67.442 125.287 67.6345 125.466 67.8562 125.603C69.5493 126.659 71.5046 127.219 73.5 127.219C75.4954 127.219 77.4507 126.659 79.1437 125.603C79.3655 125.466 79.558 125.287 79.7101 125.076C79.8622 124.865 79.9708 124.625 80.0298 124.372C80.0887 124.118 80.0967 123.855 80.0534 123.598C80.0101 123.342 79.9163 123.096 79.7774 122.876C79.6386 122.656 79.4574 122.465 79.2444 122.315C79.0314 122.166 78.7908 122.06 78.5366 122.003C78.2823 121.947 78.0195 121.942 77.7632 121.988C77.507 122.034 77.2624 122.131 77.0438 122.272ZM88.5938 112.781V127.219C88.592 128.44 88.2127 129.63 87.5078 130.627C86.8028 131.624 85.8068 132.378 84.6562 132.787V135.75C84.6562 136.62 84.3105 137.455 83.6952 138.07C83.0798 138.686 82.2452 139.031 81.375 139.031H65.625C64.7548 139.031 63.9202 138.686 63.3048 138.07C62.6895 137.455 62.3438 136.62 62.3438 135.75V132.787C61.1932 132.378 60.1972 131.624 59.4922 130.627C58.7873 129.63 58.408 128.44 58.4062 127.219V112.781C58.4062 111.215 59.0285 109.713 60.1362 108.605C61.2438 107.497 62.7461 106.875 64.3125 106.875H66.2812V104.25C66.2812 103.38 66.627 102.545 67.2423 101.93C67.8577 101.314 68.6923 100.969 69.5625 100.969H77.4375C78.3077 100.969 79.1423 101.314 79.7577 101.93C80.373 102.545 80.7188 103.38 80.7188 104.25V106.875H82.6875C84.2539 106.875 85.7562 107.497 86.8638 108.605C87.9715 109.713 88.5938 111.215 88.5938 112.781ZM70.2188 106.875H76.7812V104.906H70.2188V106.875ZM80.7188 135.094V133.125H66.2812V135.094H80.7188ZM84.6562 112.781C84.6562 112.259 84.4488 111.758 84.0796 111.389C83.7104 111.02 83.2096 110.812 82.6875 110.812H64.3125C63.7904 110.812 63.2896 111.02 62.9204 111.389C62.5512 111.758 62.3438 112.259 62.3438 112.781V127.219C62.3438 127.741 62.5512 128.242 62.9204 128.611C63.2896 128.98 63.7904 129.188 64.3125 129.188H82.6875C83.2096 129.188 83.7104 128.98 84.0796 128.611C84.4488 128.242 84.6562 127.741 84.6562 127.219V112.781Z" fill="#8E66FF" style="fill:#8E66FF;fill:color(display-p3 0.5560 0.4019 0.9997);fill-opacity:1;"/>
</g>
</g>
<defs>
<filter id="filter0_d_51_6896" x="-4" y="-3" width="154" height="18" filterUnits="userSpaceOnUse" color-interpolation-filters="sRGB">
<feFlood flood-opacity="0" result="BackgroundImageFix"/>
<feColorMatrix in="SourceAlpha" type="matrix" values="0 0 0 0 0 0 0 0 0 0 0 0 0 0 0 0 0 0 127 0" result="hardAlpha"/>
<feOffset dy="1"/>
<feGaussianBlur stdDeviation="2"/>
<feColorMatrix type="matrix" values="0 0 0 0 0.0666667 0 0 0 0 0.105882 0 0 0 0 0.168627 0 0 0 0.25 0"/>
<feBlend mode="normal" in2="BackgroundImageFix" result="effect1_dropShadow_51_6896"/>
<feBlend mode="normal" in="SourceGraphic" in2="effect1_dropShadow_51_6896" result="shape"/>
</filter>
<clipPath id="clip0_51_6896">
<path d="M0 4C0 1.79086 1.79086 0 4 0H142C144.209 0 146 1.79086 146 4V171C146 173.209 144.209 175 142 175H4C1.79086 175 0 173.209 0 171V4Z" fill="white" style="fill:white;fill-opacity:1;"/>
</clipPath>
</defs>
</svg>
