<svg width="146" height="175" viewBox="0 0 146 175" fill="none" xmlns="http://www.w3.org/2000/svg">
<g id="theme-chip-mono-light">
<g clip-path="url(#clip0_51_7092)">
<rect id="Rectangle 84286" width="146" height="175" rx="4" fill="#EBEBEB" style="fill:#EBEBEB;fill:color(display-p3 0.9205 0.9205 0.9205);fill-opacity:1;"/>
<rect id="rect-banner-swatch" y="60" width="146" height="34" fill="#383838" style="fill:#383838;fill:color(display-p3 0.2201 0.2201 0.2201);fill-opacity:1;"/>
<path id="font-chip" d="M35.579 27.578L32.448 36.816H38.679L35.579 27.578ZM26.155 45V43.729L28.759 43.326L35.362 24.106H37.315L43.918 43.45L46.243 43.729V45H37.811V43.729L40.849 43.357L39.144 38.273H31.952L30.216 43.326L33.254 43.729V45H26.155ZM59.3306 45.31C58.5866 45.31 57.9666 45.093 57.4706 44.659C56.9746 44.225 56.6646 43.6463 56.5406 42.923C55.6932 43.7497 54.9492 44.3697 54.3086 44.783C53.6679 45.1963 52.8929 45.403 51.9836 45.403C50.8469 45.403 49.8652 45.0827 49.0386 44.442C48.2326 43.7807 47.8296 42.8093 47.8296 41.528C47.8296 40.9287 47.9639 40.3707 48.2326 39.854C48.5219 39.3373 49.0386 38.831 49.7826 38.335C50.5266 37.839 51.5909 37.343 52.9756 36.847C53.4509 36.6817 53.9986 36.506 54.6186 36.32C55.2386 36.134 55.8586 35.9687 56.4786 35.824V35.049C56.4786 33.5403 56.2512 32.538 55.7966 32.042C55.3419 31.546 54.5979 31.298 53.5646 31.298C53.3372 31.298 53.0789 31.3083 52.7896 31.329C52.5209 31.3497 52.2212 31.4013 51.8906 31.484L51.3016 33.499C51.0122 34.491 50.4749 34.987 49.6896 34.987C48.8216 34.987 48.3359 34.5633 48.2326 33.716C48.5219 32.538 49.2039 31.608 50.2786 30.926C51.3739 30.2233 52.7069 29.872 54.2776 29.872C55.9102 29.872 57.1192 30.2853 57.9046 31.112C58.6899 31.918 59.0826 33.3027 59.0826 35.266V41.869C59.0826 42.5303 59.1859 43.0057 59.3926 43.295C59.5992 43.5637 59.8679 43.698 60.1986 43.698C60.4672 43.698 60.6946 43.636 60.8806 43.512C61.0666 43.388 61.2422 43.2227 61.4076 43.016L62.0276 43.698C61.6556 44.2973 61.2422 44.721 60.7876 44.969C60.3536 45.1963 59.8679 45.31 59.3306 45.31ZM50.5886 41.063C50.5886 41.8897 50.8262 42.4787 51.3016 42.83C51.7769 43.1813 52.3659 43.357 53.0686 43.357C53.3786 43.357 53.6679 43.3157 53.9366 43.233C54.2259 43.1503 54.5669 42.9953 54.9596 42.768C55.3522 42.52 55.8586 42.1687 56.4786 41.714V36.971C55.9412 37.1157 55.4142 37.281 54.8976 37.467C54.3809 37.6323 53.9572 37.777 53.6266 37.901C52.7379 38.2523 52.0766 38.614 51.6426 38.986C51.2086 39.358 50.9192 39.7197 50.7746 40.071C50.6506 40.4223 50.5886 40.753 50.5886 41.063Z" fill="#8259F8" style="fill:#8259F8;fill:color(display-p3 0.5080 0.3498 0.9739);fill-opacity:1;"/>
<rect id="Rectangle 84290" x="12" y="107" width="56" height="52" fill="#A1A1A1" style="fill:#A1A1A1;fill:color(display-p3 0.6297 0.6297 0.6297);fill-opacity:1;"/>
<path id="rect-tint-swatch" d="M78 107H134V137H78V107Z" fill="#B49BFC" style="fill:#B49BFC;fill:color(display-p3 0.7041 0.6076 0.9883);fill-opacity:1;"/>
<g id="nav-group">
<g id="nav-base-rect" filter="url(#filter0_d_51_7092)">
<rect width="146" height="10" fill="white" style="fill:white;fill-opacity:1;"/>
</g>
<circle id="Ellipse 11" cx="6" cy="5" r="3" fill="#D9D9D9" style="fill:#D9D9D9;fill:color(display-p3 0.8510 0.8510 0.8510);fill-opacity:1;"/>
<rect id="Rectangle 84293" x="11" y="3" width="11" height="4" fill="#D9D9D9" style="fill:#D9D9D9;fill:color(display-p3 0.8510 0.8510 0.8510);fill-opacity:1;"/>
<rect id="Rectangle 84294" x="111" y="3" width="11" height="4" fill="#D9D9D9" style="fill:#D9D9D9;fill:color(display-p3 0.8510 0.8510 0.8510);fill-opacity:1;"/>
</g>
<g id="text-mock-group">
<rect id="Rectangle 84295" x="77" y="25" width="37.2857" height="4" fill="#383838" style="fill:#383838;fill:color(display-p3 0.2201 0.2201 0.2201);fill-opacity:1;"/>
<rect id="Rectangle 84296" x="77" y="33" width="45" height="4" fill="#383838" style="fill:#383838;fill:color(display-p3 0.2201 0.2201 0.2201);fill-opacity:1;"/>
<rect id="Rectangle 84297" x="77" y="41" width="19.2857" height="4" fill="#383838" style="fill:#383838;fill:color(display-p3 0.2201 0.2201 0.2201);fill-opacity:1;"/>
</g>
<path id="Badge" d="M125.551 -12L158.078 20.5269L151.527 27.0782L119 -5.44873L125.551 -12Z" fill="#8259F8" style="fill:#8259F8;fill:color(display-p3 0.5080 0.3498 0.9739);fill-opacity:1;"/>
<g id="text-mock-group_2">
<rect id="Rectangle 84298" x="26" y="68" width="46" height="2" fill="#EBEBEB" style="fill:#EBEBEB;fill:color(display-p3 0.9205 0.9205 0.9205);fill-opacity:1;"/>
<rect id="Rectangle 84299" x="26" y="73" width="55" height="2" fill="#EBEBEB" style="fill:#EBEBEB;fill:color(display-p3 0.9205 0.9205 0.9205);fill-opacity:1;"/>
<rect id="Rectangle 84300" x="26" y="78" width="24" height="2" fill="#EBEBEB" style="fill:#EBEBEB;fill:color(display-p3 0.9205 0.9205 0.9205);fill-opacity:1;"/>
<rect id="Rectangle 84302" x="26" y="83" width="33" height="2" fill="#EBEBEB" style="fill:#EBEBEB;fill:color(display-p3 0.9205 0.9205 0.9205);fill-opacity:1;"/>
<rect id="Rectangle 84301" x="55" y="78" width="13" height="2" fill="#EBEBEB" style="fill:#EBEBEB;fill:color(display-p3 0.9205 0.9205 0.9205);fill-opacity:1;"/>
<circle id="Ellipse 11_2" cx="105" cy="76" r="9" fill="#D9D9D9" style="fill:#D9D9D9;fill:color(display-p3 0.8510 0.8510 0.8510);fill-opacity:1;"/>
</g>
<path id="icon-box" d="M37 136V130H43V136H37ZM28 123.625V135.5C28 135.633 28.0527 135.76 28.1465 135.854C28.2402 135.947 28.3674 136 28.5 136H35V129.414L28.8538 123.268C28.7836 123.197 28.6941 123.149 28.5967 123.13C28.4994 123.111 28.3984 123.121 28.3069 123.16C28.2153 123.198 28.1372 123.263 28.0826 123.346C28.0279 123.428 27.9992 123.526 28 123.625ZM51.5 130H45V136.586L51.1463 142.733C51.2164 142.803 51.3059 142.851 51.4033 142.87C51.5007 142.889 51.6016 142.879 51.6932 142.84C51.7847 142.802 51.8628 142.737 51.9175 142.654C51.9721 142.572 52.0008 142.474 52 142.375V130.5C52 130.367 51.9473 130.24 51.8536 130.146C51.7598 130.053 51.6326 130 51.5 130ZM43 121.5C43 121.367 42.9473 121.24 42.8536 121.146C42.7598 121.053 42.6326 121 42.5 121H30.625C30.5261 121 30.4293 121.029 30.347 121.084C30.2647 121.139 30.2006 121.217 30.1627 121.309C30.1248 121.4 30.1149 121.501 30.1343 121.598C30.1536 121.695 30.2013 121.784 30.2713 121.854L36.4138 128H43V121.5ZM50.5613 127.146L45.8538 122.439C45.7838 122.369 45.6947 122.321 45.5977 122.302C45.5006 122.282 45.4 122.292 45.3086 122.33C45.2172 122.368 45.1391 122.432 45.0842 122.515C45.0292 122.597 44.9999 122.694 45 122.793V128H50.2075C50.3065 128 50.4032 127.971 50.4855 127.916C50.5678 127.861 50.632 127.783 50.6698 127.691C50.7077 127.6 50.7176 127.499 50.6983 127.402C50.679 127.305 50.6313 127.216 50.5613 127.146ZM43.5863 138H37V144.5C37 144.633 37.0527 144.76 37.1465 144.854C37.2402 144.947 37.3674 145 37.5 145H49.375C49.474 145 49.5707 144.971 49.653 144.916C49.7353 144.861 49.7995 144.783 49.8373 144.691C49.8752 144.6 49.8851 144.499 49.8658 144.402C49.8465 144.305 49.7988 144.216 49.7288 144.146L43.5863 138ZM29.4388 138.854L34.1463 143.561C34.2162 143.631 34.3053 143.679 34.4024 143.698C34.4994 143.718 34.6 143.708 34.6914 143.67C34.7828 143.632 34.8609 143.568 34.9159 143.485C34.9708 143.403 35.0001 143.306 35 143.208V138H29.7925C29.6936 138 29.5968 138.029 29.5145 138.084C29.4322 138.139 29.3681 138.217 29.3302 138.309C29.2923 138.4 29.2824 138.501 29.3018 138.598C29.3211 138.695 29.3688 138.784 29.4388 138.854Z" fill="white" style="fill:white;fill-opacity:1;"/>
</g>
</g>
<defs>
<filter id="filter0_d_51_7092" x="-4" y="-3" width="154" height="18" filterUnits="userSpaceOnUse" color-interpolation-filters="sRGB">
<feFlood flood-opacity="0" result="BackgroundImageFix"/>
<feColorMatrix in="SourceAlpha" type="matrix" values="0 0 0 0 0 0 0 0 0 0 0 0 0 0 0 0 0 0 127 0" result="hardAlpha"/>
<feOffset dy="1"/>
<feGaussianBlur stdDeviation="2"/>
<feColorMatrix type="matrix" values="0 0 0 0 0.0666667 0 0 0 0 0.105882 0 0 0 0 0.168627 0 0 0 0.25 0"/>
<feBlend mode="normal" in2="BackgroundImageFix" result="effect1_dropShadow_51_7092"/>
<feBlend mode="normal" in="SourceGraphic" in2="effect1_dropShadow_51_7092" result="shape"/>
</filter>
<clipPath id="clip0_51_7092">
<path d="M0 4C0 1.79086 1.79086 0 4 0H142C144.209 0 146 1.79086 146 4V171C146 173.209 144.209 175 142 175H4C1.79086 175 0 173.209 0 171V4Z" fill="white" style="fill:white;fill-opacity:1;"/>
</clipPath>
</defs>
</svg>
